<svg xmlns="http://www.w3.org/2000/svg" 
    width="800" height="990" 
    viewBox="0 0 800 990"
    role="img" aria-labelledby="sequence-title"><title id="sequence-title">Resource Locking with Invariants</title>
  <style>
    .participant-box {
      fill: #5a819e;
      stroke: #5a819e;
      stroke-width: 2;
    }
    .participant-text {
      fill: #FFFFFF;
      font-family: Arial, sans-serif;
      font-size: 14px;
      text-anchor: middle;
    }
    .lifeline {
      stroke: #96bacf;
      stroke-width: 1;
      stroke-dasharray: 5,5;
    }
    .message-line {
      stroke: #48677e;
      stroke-width: 2;
      fill: none;
    }
    .message-arrow {
      fill: #48677e;
      stroke: #48677e;
    }
    .message-text {
      fill: #48677e;
      font-family: Arial, sans-serif;
      font-size: 12px;
    }
    .activation-box {
      fill: #73a3bf;
      stroke: #5a819e;
      stroke-width: 2;
      opacity: 0.3;
    }
    .note-box {
      fill: #dce8ef;
      stroke: #48677e;
      stroke-width: 1;
    }
    .note-text {
      fill: #24333f;
      font-family: Arial, sans-serif;
      font-size: 11px;
    }
    .fragment-box {
      fill: #f0f5f8;
      stroke: #5a819e;
      stroke-width: 2;
    }
    .fragment-label-bg {
      fill: #5a819e;
    }
    .fragment-label-text {
      fill: white;
      font-family: Arial, sans-serif;
      font-size: 11px;
      font-weight: bold;
    }
    .fragment-condition {
      fill: #48677e;
      font-family: Arial, sans-serif;
      font-size: 11px;
      font-style: italic;
    }
  </style>
  <rect width="800" height="990" fill="#FFFFFF"/><text x="400" y="30" class="diagram-title" text-anchor="middle" font-size="18" font-weight="bold" fill="#333333">Resource Locking with Invariants</text><rect x="50" y="50" width="120" height="40" class="participant-box" rx="5"/><text x="110" y="75" class="participant-text">Process A</text><rect x="200" y="50" width="120" height="40" class="participant-box" rx="5"/><text x="260" y="75" class="participant-text">Process B</text><rect x="350" y="50" width="120" height="40" class="participant-box" rx="5"/><text x="410" y="75" class="participant-text">Lock Manager</text><rect x="500" y="50" width="120" height="40" class="participant-box" rx="5"/><text x="560" y="75" class="participant-text">Shared Resource</text><line x1="110" y1="110" x2="110" y2="940" class="lifeline"/><line x1="260" y1="110" x2="260" y2="940" class="lifeline"/><line x1="410" y1="110" x2="410" y2="940" class="lifeline"/><line x1="560" y1="110" x2="560" y2="940" class="lifeline"/><line x1="110" y1="110" x2="410" y2="110" class="message-line" stroke-dasharray=""/><polygon points="410,110 402,106 402,114" class="message-arrow"/><text x="260" y="105" class="message-text" text-anchor="middle">requestLock(resource)</text><line x1="410" y1="170" x2="110" y2="170" class="message-line" stroke-dasharray="5,5"/><polyline points="118,166 110,170 118,174" class="message-arrow" fill="none"/><text x="260" y="165" class="message-text" text-anchor="middle">lock granted</text><line x1="110" y1="230" x2="560" y2="230" class="message-line" stroke-dasharray=""/><polygon points="560,230 552,226 552,234" class="message-arrow"/><text x="335" y="225" class="message-text" text-anchor="middle">read(data)</text><line x1="560" y1="290" x2="110" y2="290" class="message-line" stroke-dasharray="5,5"/><polyline points="118,286 110,290 118,294" class="message-arrow" fill="none"/><text x="335" y="285" class="message-text" text-anchor="middle">data value</text><line x1="260" y1="350" x2="410" y2="350" class="message-line" stroke-dasharray=""/><polygon points="410,350 402,346 402,354" class="message-arrow"/><text x="335" y="345" class="message-text" text-anchor="middle">requestLock(resource)</text><line x1="410" y1="410" x2="260" y2="410" class="message-line" stroke-dasharray="5,5"/><polyline points="268,406 260,410 268,414" class="message-arrow" fill="none"/><text x="335" y="405" class="message-text" text-anchor="middle">lock denied (held by A)</text><line x1="110" y1="470" x2="560" y2="470" class="message-line" stroke-dasharray=""/><polygon points="560,470 552,466 552,474" class="message-arrow"/><text x="335" y="465" class="message-text" text-anchor="middle">write(newData)</text><line x1="560" y1="530" x2="110" y2="530" class="message-line" stroke-dasharray="5,5"/><polyline points="118,526 110,530 118,534" class="message-arrow" fill="none"/><text x="335" y="525" class="message-text" text-anchor="middle">write successful</text><line x1="110" y1="590" x2="410" y2="590" class="message-line" stroke-dasharray=""/><polygon points="410,590 402,586 402,594" class="message-arrow"/><text x="260" y="585" class="message-text" text-anchor="middle">releaseLock(resource)</text><line x1="410" y1="650" x2="110" y2="650" class="message-line" stroke-dasharray="5,5"/><polyline points="118,646 110,650 118,654" class="message-arrow" fill="none"/><text x="260" y="645" class="message-text" text-anchor="middle">lock released</text><line x1="260" y1="710" x2="410" y2="710" class="message-line" stroke-dasharray=""/><polygon points="410,710 402,706 402,714" class="message-arrow"/><text x="335" y="705" class="message-text" text-anchor="middle">requestLock(resource)</text><line x1="410" y1="770" x2="260" y2="770" class="message-line" stroke-dasharray="5,5"/><polyline points="268,766 260,770 268,774" class="message-arrow" fill="none"/><text x="335" y="765" class="message-text" text-anchor="middle">lock granted</text><rect x="335" y="810" width="150" height="40" class="note-box"/><polyline points="475,810 475,820 485,820" fill="none" stroke="#E6DB74" stroke-width="1"/><text x="340" y="835" class="note-text">State invariants enforce mutex properties and prevent race conditions</text></svg>