<svg xmlns="http://www.w3.org/2000/svg" xmlns:xlink="http://www.w3.org/1999/xlink" 
    width="442" height="312" 
    viewBox="0 0 442 312"
    role="img" aria-labelledby="diagram-title" data-id="runiq-diagram">
<title id="diagram-title">Diagram</title><defs><style type="text/css"><![CDATA[.runiq-node-text { font-family: sans-serif; font-size: 14px; }.runiq-edge-text { font-family: sans-serif; font-size: 12px; }.runiq-container-label { font-family: sans-serif; font-size: 16px; font-weight: bold; fill: #666; }]]></style><pattern id="pedigree-half-fill" width="40" height="40" patternUnits="userSpaceOnUse"><rect x="0" y="0" width="20" height="40" fill="#000"/><rect x="20" y="0" width="20" height="40" fill="#fff"/></pattern></defs><g data-runiq-node="pie1" data-node-id="pie1" data-node-shape="pieChart"><text x="137" y="27" 
      text-anchor="middle" 
      dominant-baseline="middle"
      font-family="sans-serif" 
      font-size="16"
      fill="#FFFFFF">
      Simple Pie Chart
    </text><path d="M 137,167 L 137,52 A 115,115 0 0,1 246.37149937394264,202.53695435311894 Z" fill="#4299e1" stroke="#48677e" stroke-width="2" />
    <path d="M 137,167 L 246.37149937394264,202.53695435311894 A 115,115 0 0,1 22,167 Z" fill="#48bb78" stroke="#48677e" stroke-width="2" />
    <path d="M 137,167 L 22,167 A 115,115 0 0,1 136.99999999999997,52 Z" fill="#ed8936" stroke="#48677e" stroke-width="2" />
    <text x="202.12586804718327" y="123.68328719045591" dominant-baseline="middle" text-anchor="middle" font-family="sans-serif" font-size="12" font-weight="bold" fill="#333">30</text>
    <text x="124.4070255642614" y="250.50891141790856" dominant-baseline="middle" text-anchor="middle" font-family="sans-serif" font-size="12" font-weight="bold" fill="#333">45</text>
    <text x="80.07790411448292" y="114.07790411448292" dominant-baseline="middle" text-anchor="middle" font-family="sans-serif" font-size="12" font-weight="bold" fill="#333">25</text>
    <g>
      <rect x="272" y="232" width="12" height="12" fill="#4299e1" stroke="#333" stroke-width="1" />
      <text x="290" y="242" font-size="11" fill="#333">Slice 1 (30%)</text>
    </g>
    <g>
      <rect x="272" y="252" width="12" height="12" fill="#48bb78" stroke="#333" stroke-width="1" />
      <text x="290" y="262" font-size="11" fill="#333">Slice 2 (45%)</text>
    </g>
    <g>
      <rect x="272" y="272" width="12" height="12" fill="#ed8936" stroke="#333" stroke-width="1" />
      <text x="290" y="282" font-size="11" fill="#333">Slice 3 (25%)</text>
    </g></g></svg>