<svg xmlns="http://www.w3.org/2000/svg" xmlns:xlink="http://www.w3.org/1999/xlink" 
    width="922" height="632" 
    viewBox="0 0 922 632"
    role="img" aria-labelledby="diagram-title" data-id="runiq-diagram">
<title id="diagram-title">Diagram</title><defs><style type="text/css"><![CDATA[.runiq-node-text { font-family: sans-serif; font-size: 14px; }.runiq-edge-text { font-family: sans-serif; font-size: 12px; }.runiq-container-label { font-family: sans-serif; font-size: 16px; font-weight: bold; fill: #666; }]]></style><pattern id="pedigree-half-fill" width="40" height="40" patternUnits="userSpaceOnUse"><rect x="0" y="0" width="20" height="40" fill="#000"/><rect x="20" y="0" width="20" height="40" fill="#fff"/></pattern></defs><g data-runiq-node="pie1" data-node-id="pie1" data-node-shape="pieChart"><text x="557" y="27" 
      text-anchor="middle" 
      dominant-baseline="middle"
      font-family="sans-serif" 
      font-size="16"
      fill="#FFFFFF">
      Market Share
    </text><path d="M 557,167 L 557,52 A 115,115 0 0,1 650.036954353119,234.5953040136344 Z" fill="#667eea" stroke="#48677e" stroke-width="2" />
    <path d="M 557,167 L 650.036954353119,234.5953040136344 A 115,115 0 0,1 473.16860784653767,245.72291718179918 Z" fill="#764ba2" stroke="#48677e" stroke-width="2" />
    <path d="M 557,167 L 473.16860784653767,245.72291718179918 A 115,115 0 0,1 463.963045646881,99.4046959863656 Z" fill="#f093fb" stroke="#48677e" stroke-width="2" />
    <path d="M 557,167 L 463.963045646881,99.4046959863656 A 115,115 0 0,1 557,52 Z" fill="#4facfe" stroke="#48677e" stroke-width="2" />
    <text x="628.7260251971636" y="134.45376477096647" dominant-baseline="middle" text-anchor="middle" font-family="sans-serif" font-size="12" font-weight="bold" fill="#333">35</text>
    <text x="562.0546368221097" y="251.34115163847588" dominant-baseline="middle" text-anchor="middle" font-family="sans-serif" font-size="12" font-weight="bold" fill="#fff">28</text>
    <text x="476.6588483615241" y="176.05463682210979" dominant-baseline="middle" text-anchor="middle" font-family="sans-serif" font-size="12" font-weight="bold" fill="#333">22</text>
    <text x="520.4537647709665" y="99.27397480283639" dominant-baseline="middle" text-anchor="middle" font-family="sans-serif" font-size="12" font-weight="bold" fill="#333">15</text>
    <g>
      <rect x="692" y="212" width="12" height="12" fill="#667eea" stroke="#333" stroke-width="1" />
      <text x="710" y="222" font-size="11" fill="#333">Product A (35%)</text>
    </g>
    <g>
      <rect x="692" y="232" width="12" height="12" fill="#764ba2" stroke="#333" stroke-width="1" />
      <text x="710" y="242" font-size="11" fill="#333">Product B (28%)</text>
    </g>
    <g>
      <rect x="692" y="252" width="12" height="12" fill="#f093fb" stroke="#333" stroke-width="1" />
      <text x="710" y="262" font-size="11" fill="#333">Product C (22%)</text>
    </g>
    <g>
      <rect x="692" y="272" width="12" height="12" fill="#4facfe" stroke="#333" stroke-width="1" />
      <text x="710" y="282" font-size="11" fill="#333">Product D (15%)</text>
    </g></g><g data-runiq-node="vbar1" data-node-id="vbar1" data-node-shape="barChart"><g><rect x="472" y="442.90909090909093" width="20" height="109.09090909090908" fill="#ff6b6b" stroke="#48677e" stroke-width="1" />
<text x="482" y="437.90909090909093" dominant-baseline="middle" text-anchor="middle" font-family="sans-serif" font-size="10" fill="#666">30</text>
<rect x="497" y="388.3636363636364" width="20" height="163.63636363636365" fill="#4ecdc4" stroke="#48677e" stroke-width="1" />
<text x="507" y="383.3636363636364" dominant-baseline="middle" text-anchor="middle" font-family="sans-serif" font-size="10" fill="#666">45</text>
<rect x="522" y="461.0909090909091" width="20" height="90.9090909090909" fill="#45b7d1" stroke="#48677e" stroke-width="1" />
<text x="532" y="456.0909090909091" dominant-baseline="middle" text-anchor="middle" font-family="sans-serif" font-size="10" fill="#666">25</text>
<text x="507" y="572" dominant-baseline="middle" text-anchor="middle" font-family="sans-serif" font-size="12" fill="#333">Q1</text>
<rect x="562" y="424.72727272727275" width="20" height="127.27272727272727" fill="#ff6b6b" stroke="#48677e" stroke-width="1" />
<text x="572" y="419.72727272727275" dominant-baseline="middle" text-anchor="middle" font-family="sans-serif" font-size="10" fill="#666">35</text>
<rect x="587" y="370.1818181818182" width="20" height="181.8181818181818" fill="#4ecdc4" stroke="#48677e" stroke-width="1" />
<text x="597" y="365.1818181818182" dominant-baseline="middle" text-anchor="middle" font-family="sans-serif" font-size="10" fill="#666">50</text>
<rect x="612" y="442.90909090909093" width="20" height="109.09090909090908" fill="#45b7d1" stroke="#48677e" stroke-width="1" />
<text x="622" y="437.90909090909093" dominant-baseline="middle" text-anchor="middle" font-family="sans-serif" font-size="10" fill="#666">30</text>
<text x="597" y="572" dominant-baseline="middle" text-anchor="middle" font-family="sans-serif" font-size="12" fill="#333">Q2</text>
<rect x="652" y="406.5454545454545" width="20" height="145.45454545454547" fill="#ff6b6b" stroke="#48677e" stroke-width="1" />
<text x="662" y="401.5454545454545" dominant-baseline="middle" text-anchor="middle" font-family="sans-serif" font-size="10" fill="#666">40</text>
<rect x="677" y="352" width="20" height="200" fill="#4ecdc4" stroke="#48677e" stroke-width="1" />
<text x="687" y="347" dominant-baseline="middle" text-anchor="middle" font-family="sans-serif" font-size="10" fill="#666">55</text>
<rect x="702" y="424.72727272727275" width="20" height="127.27272727272727" fill="#45b7d1" stroke="#48677e" stroke-width="1" />
<text x="712" y="419.72727272727275" dominant-baseline="middle" text-anchor="middle" font-family="sans-serif" font-size="10" fill="#666">35</text>
<text x="687" y="572" dominant-baseline="middle" text-anchor="middle" font-family="sans-serif" font-size="12" fill="#333">Q3</text><line x1="462" y1="552" x2="892" y2="552" stroke="#333" stroke-width="2" /><g>
      <rect x="912" y="552" width="12" height="12" fill="#ff6b6b" stroke="#333" stroke-width="1" />
      <text x="930" y="562" font-size="11" fill="#333">Series 1</text>
    </g>
    <g>
      <rect x="912" y="572" width="12" height="12" fill="#4ecdc4" stroke="#333" stroke-width="1" />
      <text x="930" y="582" font-size="11" fill="#333">Series 2</text>
    </g>
    <g>
      <rect x="912" y="592" width="12" height="12" fill="#45b7d1" stroke="#333" stroke-width="1" />
      <text x="930" y="602" font-size="11" fill="#333">Series 3</text>
    </g></g></g><g data-runiq-node="vbar2" data-node-id="vbar2" data-node-shape="barChart"><g><rect x="32" y="475.0769230769231" width="60" height="76.92307692307693" fill="#a8e6cf" stroke="#48677e" stroke-width="1" />
<rect x="32" y="428.92307692307696" width="60" height="46.15384615384615" fill="#ffd3b6" stroke="#48677e" stroke-width="1" />
<rect x="32" y="398.1538461538462" width="60" height="30.76923076923077" fill="#ffaaa5" stroke="#48677e" stroke-width="1" />
<text x="62" y="393.15384615384613" dominant-baseline="middle" text-anchor="middle" font-family="sans-serif" font-size="10" fill="#666">100</text>
<text x="62" y="572" dominant-baseline="middle" text-anchor="middle" font-family="sans-serif" font-size="12" fill="#333">Jan</text>
<rect x="112" y="467.38461538461536" width="60" height="84.61538461538461" fill="#a8e6cf" stroke="#48677e" stroke-width="1" />
<rect x="112" y="413.5384615384615" width="60" height="53.84615384615385" fill="#ffd3b6" stroke="#48677e" stroke-width="1" />
<rect x="112" y="375.07692307692304" width="60" height="38.46153846153847" fill="#ffaaa5" stroke="#48677e" stroke-width="1" />
<text x="142" y="370.0769230769231" dominant-baseline="middle" text-anchor="middle" font-family="sans-serif" font-size="10" fill="#666">115</text>
<text x="142" y="572" dominant-baseline="middle" text-anchor="middle" font-family="sans-serif" font-size="12" fill="#333">Feb</text>
<rect x="192" y="459.6923076923077" width="60" height="92.3076923076923" fill="#a8e6cf" stroke="#48677e" stroke-width="1" />
<rect x="192" y="398.15384615384613" width="60" height="61.53846153846154" fill="#ffd3b6" stroke="#48677e" stroke-width="1" />
<rect x="192" y="352" width="60" height="46.15384615384615" fill="#ffaaa5" stroke="#48677e" stroke-width="1" />
<text x="222" y="347" dominant-baseline="middle" text-anchor="middle" font-family="sans-serif" font-size="10" fill="#666">130</text>
<text x="222" y="572" dominant-baseline="middle" text-anchor="middle" font-family="sans-serif" font-size="12" fill="#333">Mar</text><line x1="22" y1="552" x2="422" y2="552" stroke="#333" stroke-width="2" /><g>
      <rect x="442" y="552" width="12" height="12" fill="#a8e6cf" stroke="#333" stroke-width="1" />
      <text x="460" y="562" font-size="11" fill="#333">Series 1</text>
    </g>
    <g>
      <rect x="442" y="572" width="12" height="12" fill="#ffd3b6" stroke="#333" stroke-width="1" />
      <text x="460" y="582" font-size="11" fill="#333">Series 2</text>
    </g>
    <g>
      <rect x="442" y="592" width="12" height="12" fill="#ffaaa5" stroke="#333" stroke-width="1" />
      <text x="460" y="602" font-size="11" fill="#333">Series 3</text>
    </g></g></g><g data-runiq-node="hbar1" data-node-id="hbar1" data-node-shape="barChart"><g><rect x="132" y="27" width="221.7391304347826" height="40" fill="#e056fd" stroke="#48677e" stroke-width="1" /><text x="122" y="51" text-anchor="end" font-size="12" fill="#333">Speed</text><text x="358.7391304347826" y="51" text-anchor="start" font-size="11" fill="#666">85</text>
<rect x="132" y="82" width="240" height="40" fill="#686de0" stroke="#48677e" stroke-width="1" /><text x="122" y="106" text-anchor="end" font-size="12" fill="#333">Quality</text><text x="377" y="106" text-anchor="start" font-size="11" fill="#666">92</text>
<rect x="132" y="137" width="203.47826086956522" height="40" fill="#30336b" stroke="#48677e" stroke-width="1" /><text x="122" y="161" text-anchor="end" font-size="12" fill="#333">Efficiency</text><text x="340.47826086956525" y="161" text-anchor="start" font-size="11" fill="#666">78</text><line x1="132" y1="19.5" x2="132" y2="184.5" stroke="#333" stroke-width="2" /></g></g></svg>