<svg xmlns="http://www.w3.org/2000/svg" xmlns:xlink="http://www.w3.org/1999/xlink" 
    width="432" height="332" 
    viewBox="0 0 432 332"
    role="img" aria-labelledby="diagram-title" data-id="runiq-diagram">
<title id="diagram-title">Diagram</title><defs><style type="text/css"><![CDATA[.runiq-node-text { font-family: sans-serif; font-size: 14px; }.runiq-edge-text { font-family: sans-serif; font-size: 12px; }.runiq-container-label { font-family: sans-serif; font-size: 16px; font-weight: bold; fill: #666; }]]></style><pattern id="pedigree-half-fill" width="40" height="40" patternUnits="userSpaceOnUse"><rect x="0" y="0" width="20" height="40" fill="#000"/><rect x="20" y="0" width="20" height="40" fill="#fff"/></pattern></defs><g data-runiq-node="performance" data-node-id="performance" data-node-shape="lineChart">
      <g transform="translate(72, 32)">
        <text x="160" y="-5" 
      text-anchor="middle" 
      dominant-baseline="middle"
      font-family="sans-serif" 
      font-size="14"
      fill="#FFFFFF">
      Page Load Time (seconds)
    </text>
        <line x1="0" y1="0" x2="320" y2="0" stroke="#e5e7eb" stroke-width="1" stroke-dasharray="4,4" />
<text x="-10" y="4" 
      text-anchor="end" 
      dominant-baseline="middle"
      font-family="sans-serif" 
      font-size="10"
      fill="#6b7280">
      2.6
    </text>
<line x1="0" y1="48" x2="320" y2="48" stroke="#e5e7eb" stroke-width="1" stroke-dasharray="4,4" />
<text x="-10" y="52" 
      text-anchor="end" 
      dominant-baseline="middle"
      font-family="sans-serif" 
      font-size="10"
      fill="#6b7280">
      2.4
    </text>
<line x1="0" y1="96" x2="320" y2="96" stroke="#e5e7eb" stroke-width="1" stroke-dasharray="4,4" />
<text x="-10" y="100" 
      text-anchor="end" 
      dominant-baseline="middle"
      font-family="sans-serif" 
      font-size="10"
      fill="#6b7280">
      2.2
    </text>
<line x1="0" y1="144" x2="320" y2="144" stroke="#e5e7eb" stroke-width="1" stroke-dasharray="4,4" />
<text x="-10" y="148" 
      text-anchor="end" 
      dominant-baseline="middle"
      font-family="sans-serif" 
      font-size="10"
      fill="#6b7280">
      1.9
    </text>
<line x1="0" y1="192" x2="320" y2="192" stroke="#e5e7eb" stroke-width="1" stroke-dasharray="4,4" />
<text x="-10" y="196" 
      text-anchor="end" 
      dominant-baseline="middle"
      font-family="sans-serif" 
      font-size="10"
      fill="#6b7280">
      1.7
    </text>
<line x1="0" y1="240" x2="320" y2="240" stroke="#e5e7eb" stroke-width="1" stroke-dasharray="4,4" />
<text x="-10" y="244" 
      text-anchor="end" 
      dominant-baseline="middle"
      font-family="sans-serif" 
      font-size="10"
      fill="#6b7280">
      1.5
    </text>
        <line x1="0" y1="240" x2="320" y2="240" stroke="#374151" stroke-width="2" />
        <line x1="0" y1="0" x2="0" y2="240" stroke="#374151" stroke-width="2" />
        
        <path d="M 0.00 20.00 L 45.71 64.44 L 91.43 108.89 L 137.14 131.11 L 182.86 153.33 L 228.57 175.56 L 274.29 197.78 L 320.00 220.00" stroke="#4299e1" stroke-width="2" fill="none" stroke-linecap="round" stroke-linejoin="round" />
        <circle cx="0.00" cy="20.00" r="4" fill="#4299e1" stroke="white" stroke-width="2" />
<circle cx="45.71" cy="64.44" r="4" fill="#4299e1" stroke="white" stroke-width="2" />
<circle cx="91.43" cy="108.89" r="4" fill="#4299e1" stroke="white" stroke-width="2" />
<circle cx="137.14" cy="131.11" r="4" fill="#4299e1" stroke="white" stroke-width="2" />
<circle cx="182.86" cy="153.33" r="4" fill="#4299e1" stroke="white" stroke-width="2" />
<circle cx="228.57" cy="175.56" r="4" fill="#4299e1" stroke="white" stroke-width="2" />
<circle cx="274.29" cy="197.78" r="4" fill="#4299e1" stroke="white" stroke-width="2" />
<circle cx="320.00" cy="220.00" r="4" fill="#4299e1" stroke="white" stroke-width="2" />
        
      </g>
    </g></svg>