<svg xmlns="http://www.w3.org/2000/svg" xmlns:xlink="http://www.w3.org/1999/xlink" 
    width="432" height="952" 
    viewBox="0 0 432 952"
    role="img" aria-labelledby="diagram-title" data-id="runiq-diagram">
<title id="diagram-title">Diagram</title><defs><style type="text/css"><![CDATA[.runiq-node-text { font-family: sans-serif; font-size: 14px; }.runiq-edge-text { font-family: sans-serif; font-size: 12px; }.runiq-container-label { font-family: sans-serif; font-size: 16px; font-weight: bold; fill: #666; }]]></style><pattern id="pedigree-half-fill" width="40" height="40" patternUnits="userSpaceOnUse"><rect x="0" y="0" width="20" height="40" fill="#000"/><rect x="20" y="0" width="20" height="40" fill="#fff"/></pattern></defs><g data-runiq-edge="frontend-backend-0" data-edge-id="frontend-backend-0" data-edge-from="frontend" data-edge-to="backend"><defs>
      <marker id="arrow-standard-frontend-backend" markerWidth="10" markerHeight="10" refX="9" refY="3" orient="auto" markerUnits="strokeWidth">
        <polygon points="0,0 0,6 9,3" fill="#48677e" />
      </marker></defs><path d="M 212 412 L 212 472 L 212 472 L 212 532" fill="none" stroke="transparent" stroke-width="20" pointer-events="stroke" class="edge-hit-area" /><path d="M 212 412 L 212 472 L 212 472 L 212 532" fill="none" stroke="#48677e" stroke-width="1" marker-end="url(#arrow-standard-frontend-backend)" pointer-events="none" /></g><g data-runiq-node="frontend" data-node-id="frontend" data-node-shape="radarChart"><g transform="translate(12, 12)">
      <text x="200" y="20" 
      text-anchor="middle" 
      dominant-baseline="middle"
      font-family="sans-serif" 
      font-size="16"
      fill="#FFFFFF">
      Frontend Scores
    </text>
      <circle cx="200" cy="200" r="35" fill="none" stroke="#e5e7eb" stroke-width="1"/>
      <circle cx="200" cy="200" r="70" fill="none" stroke="#e5e7eb" stroke-width="1"/>
      <circle cx="200" cy="200" r="105" fill="none" stroke="#e5e7eb" stroke-width="1"/>
      <circle cx="200" cy="200" r="140" fill="none" stroke="#e5e7eb" stroke-width="1"/>
      <line x1="200" y1="200" x2="200" y2="60" stroke="#d1d5db" stroke-width="1"/>
      <line x1="200" y1="200" x2="321.24355652982143" y2="130" stroke="#d1d5db" stroke-width="1"/>
      <line x1="200" y1="200" x2="321.24355652982143" y2="270" stroke="#d1d5db" stroke-width="1"/>
      <line x1="200" y1="200" x2="200" y2="340" stroke="#d1d5db" stroke-width="1"/>
      <line x1="200" y1="200" x2="78.75644347017858" y2="270" stroke="#d1d5db" stroke-width="1"/>
      <line x1="200" y1="200" x2="78.7564434701786" y2="130" stroke="#d1d5db" stroke-width="1"/>
      <text x="200" y="45" dominant-baseline="middle" text-anchor="middle" font-family="sans-serif" font-size="12" fill="#374151">Axis 1</text>
      <text x="338.5640646055102" y="125.00000000000001" dominant-baseline="middle" text-anchor="start" font-family="sans-serif" font-size="12" fill="#374151">Axis 2</text>
      <text x="338.5640646055102" y="285" dominant-baseline="middle" text-anchor="start" font-family="sans-serif" font-size="12" fill="#374151">Axis 3</text>
      <text x="200" y="365" dominant-baseline="middle" text-anchor="middle" font-family="sans-serif" font-size="12" fill="#374151">Axis 4</text>
      <text x="61.4359353944898" y="285" dominant-baseline="middle" text-anchor="end" font-family="sans-serif" font-size="12" fill="#374151">Axis 5</text>
      <text x="61.43593539448983" y="124.99999999999999" dominant-baseline="middle" text-anchor="end" font-family="sans-serif" font-size="12" fill="#374151">Axis 6</text>
      <polygon points="200,88 309.1192008768393,137 284.870489570875,249 200,326 78.75644347017858,270 90.88079912316074,137" fill="#3b82f6" fill-opacity="0.3" stroke="#3b82f6" stroke-width="2"/>
      <circle cx="200" cy="88" r="4" fill="#3b82f6" stroke="white" stroke-width="1"/>
      <circle cx="309.1192008768393" cy="137" r="4" fill="#3b82f6" stroke="white" stroke-width="1"/>
      <circle cx="284.870489570875" cy="249" r="4" fill="#3b82f6" stroke="white" stroke-width="1"/>
      <circle cx="200" cy="326" r="4" fill="#3b82f6" stroke="white" stroke-width="1"/>
      <circle cx="78.75644347017858" cy="270" r="4" fill="#3b82f6" stroke="white" stroke-width="1"/>
      <circle cx="90.88079912316074" cy="137" r="4" fill="#3b82f6" stroke="white" stroke-width="1"/>
    </g></g><g data-runiq-node="backend" data-node-id="backend" data-node-shape="radarChart"><g transform="translate(12, 532)">
      <text x="200" y="20" 
      text-anchor="middle" 
      dominant-baseline="middle"
      font-family="sans-serif" 
      font-size="16"
      fill="#FFFFFF">
      Backend Scores
    </text>
      <circle cx="200" cy="200" r="35" fill="none" stroke="#e5e7eb" stroke-width="1"/>
      <circle cx="200" cy="200" r="70" fill="none" stroke="#e5e7eb" stroke-width="1"/>
      <circle cx="200" cy="200" r="105" fill="none" stroke="#e5e7eb" stroke-width="1"/>
      <circle cx="200" cy="200" r="140" fill="none" stroke="#e5e7eb" stroke-width="1"/>
      <line x1="200" y1="200" x2="200" y2="60" stroke="#d1d5db" stroke-width="1"/>
      <line x1="200" y1="200" x2="333.1479122813215" y2="156.73762078750735" stroke="#d1d5db" stroke-width="1"/>
      <line x1="200" y1="200" x2="282.28993532094626" y2="313.26237921249265" stroke="#d1d5db" stroke-width="1"/>
      <line x1="200" y1="200" x2="117.71006467905377" y2="313.26237921249265" stroke="#d1d5db" stroke-width="1"/>
      <line x1="200" y1="200" x2="66.85208771867852" y2="156.73762078750732" stroke="#d1d5db" stroke-width="1"/>
      <text x="200" y="45" dominant-baseline="middle" text-anchor="middle" font-family="sans-serif" font-size="12" fill="#374151">Axis 1</text>
      <text x="352.1690426072246" y="155.5572809000084" dominant-baseline="middle" text-anchor="start" font-family="sans-serif" font-size="12" fill="#374151">Axis 2</text>
      <text x="294.04564036679574" y="334.44271909999156" dominant-baseline="middle" text-anchor="start" font-family="sans-serif" font-size="12" fill="#374151">Axis 3</text>
      <text x="105.95435963320432" y="334.44271909999156" dominant-baseline="middle" text-anchor="end" font-family="sans-serif" font-size="12" fill="#374151">Axis 4</text>
      <text x="47.830957392775446" y="155.55728090000838" dominant-baseline="middle" text-anchor="end" font-family="sans-serif" font-size="12" fill="#374151">Axis 5</text>
      <polygon points="200,74 333.1479122813215,156.73762078750735 274.0609417888516,301.93614129124336 134.16805174324304,290.60990336999413 80.16687894681066,161.06385870875658" fill="#3b82f6" fill-opacity="0.3" stroke="#3b82f6" stroke-width="2"/>
      <circle cx="200" cy="74" r="4" fill="#3b82f6" stroke="white" stroke-width="1"/>
      <circle cx="333.1479122813215" cy="156.73762078750735" r="4" fill="#3b82f6" stroke="white" stroke-width="1"/>
      <circle cx="274.0609417888516" cy="301.93614129124336" r="4" fill="#3b82f6" stroke="white" stroke-width="1"/>
      <circle cx="134.16805174324304" cy="290.60990336999413" r="4" fill="#3b82f6" stroke="white" stroke-width="1"/>
      <circle cx="80.16687894681066" cy="161.06385870875658" r="4" fill="#3b82f6" stroke="white" stroke-width="1"/>
    </g></g></svg>