<svg xmlns="http://www.w3.org/2000/svg" xmlns:xlink="http://www.w3.org/1999/xlink" 
    width="1070" height="102" 
    viewBox="0 0 1070 102"
    role="img" aria-labelledby="diagram-title" data-id="runiq-diagram">
<title id="diagram-title">Gripper Mechanism</title><defs><style type="text/css"><![CDATA[.runiq-node-text { font-family: sans-serif; font-size: 14px; }.runiq-edge-text { font-family: sans-serif; font-size: 12px; }.runiq-container-label { font-family: sans-serif; font-size: 16px; font-weight: bold; fill: #666; }]]></style><pattern id="pedigree-half-fill" width="40" height="40" patternUnits="userSpaceOnUse"><rect x="0" y="0" width="20" height="40" fill="#000"/><rect x="20" y="0" width="20" height="40" fill="#fff"/></pattern></defs><g data-runiq-node="Base" data-node-id="Base" data-node-shape="groundLink">
      <rect x="12" y="17" width="140" height="60"
        fill="#5a819e" stroke="#48677e" stroke-width="1" />
      <line x1="35.33333333333333" y1="59" x2="25.999999999999993" y2="71" stroke="#48677e" stroke-width="1" />
<line x1="58.666666666666664" y1="59" x2="49.33333333333333" y2="71" stroke="#48677e" stroke-width="1" />
<line x1="82" y1="59" x2="72.66666666666667" y2="71" stroke="#48677e" stroke-width="1" />
<line x1="105.33333333333333" y1="59" x2="96" y2="71" stroke="#48677e" stroke-width="1" />
<line x1="128.66666666666666" y1="59" x2="119.33333333333333" y2="71" stroke="#48677e" stroke-width="1" />
      <text x="82" y="47" 
      text-anchor="middle" 
      dominant-baseline="middle"
      font-family="sans-serif" 
      font-size="14"
      fill="#ffffff">
      Base
    </text>
    </g><g data-runiq-node="J1" data-node-id="J1" data-node-shape="revoluteJoint">
      <circle cx="302" cy="47" r="30"
        fill="#73a3bf" stroke="#48677e" stroke-width="1" />
      <circle cx="302" cy="47" r="3.5999999999999996"
        fill="#48677e" />
      <text x="302" y="47" 
      text-anchor="middle" 
      dominant-baseline="middle"
      font-family="sans-serif" 
      font-size="14"
      fill="#ffffff">
      J1
    </text>
    </g><g data-runiq-node="Link1" data-node-id="Link1" data-node-shape="binaryLink">
      <rect x="452" y="22" width="140" height="50"
        rx="12.5" ry="12.5"
        fill="#96bacf" stroke="#48677e" stroke-width="1" />
      <circle cx="472" cy="47" r="15"
        fill="#fff" stroke="#48677e" stroke-width="1" />
      <circle cx="572" cy="47" r="15"
        fill="#fff" stroke="#48677e" stroke-width="1" />
      <text x="522" y="47" 
      text-anchor="middle" 
      dominant-baseline="middle"
      font-family="sans-serif" 
      font-size="14"
      fill="#0f172a">
      Link
    </text>
    </g><g data-runiq-node="Gripper" data-node-id="Gripper" data-node-shape="gripperParallel">
      <rect x="712" y="17" width="110" height="60"
        rx="12" ry="12"
        fill="#48677e" stroke="#48677e" stroke-width="1" />
      <rect x="728.5" y="32" width="19.8" height="30"
        fill="#48677e" />
      <rect x="785.7" y="32" width="19.8" height="30"
        fill="#48677e" />
      <text x="767" y="47" 
      text-anchor="middle" 
      dominant-baseline="middle"
      font-family="sans-serif" 
      font-size="14"
      fill="#ffffff">
      Gripper
    </text>
    </g><g data-runiq-node="Mount" data-node-id="Mount" data-node-shape="toolMount">
      <rect x="942" y="12" width="108" height="70"
        rx="14" ry="14"
        fill="#48677e" stroke="#48677e" stroke-width="1" />
      <line x1="963.6" y1="61" x2="1028.4" y2="61"
        stroke="#48677e" stroke-width="1" />
      <circle cx="996" cy="61" r="3"
        fill="#48677e" />
      <text x="996" y="47" 
      text-anchor="middle" 
      dominant-baseline="middle"
      font-family="sans-serif" 
      font-size="14"
      fill="#ffffff">
      Tool Mount
    </text>
    </g><g data-runiq-edge="Base-J1-0" data-edge-id="Base-J1-0" data-edge-from="Base" data-edge-to="J1"><defs>
      <marker id="arrow-standard-Base-J1" markerWidth="10" markerHeight="10" refX="9" refY="3" orient="auto" markerUnits="strokeWidth">
        <polygon points="0,0 0,6 9,3" fill="#48677e" />
      </marker></defs><path d="M 152 47 L 212 47 L 212 47 L 272 47" fill="none" stroke="transparent" stroke-width="20" pointer-events="stroke" class="edge-hit-area" /><path d="M 152 47 L 212 47 L 212 47 L 272 47" fill="none" stroke="#48677e" stroke-width="1" marker-end="url(#arrow-standard-Base-J1)" pointer-events="none" /></g><g data-runiq-edge="J1-Link1-1" data-edge-id="J1-Link1-1" data-edge-from="J1" data-edge-to="Link1"><defs>
      <marker id="arrow-standard-J1-Link1" markerWidth="10" markerHeight="10" refX="9" refY="3" orient="auto" markerUnits="strokeWidth">
        <polygon points="0,0 0,6 9,3" fill="#48677e" />
      </marker></defs><path d="M 332 47 L 392 47 L 392 47 L 452 47" fill="none" stroke="transparent" stroke-width="20" pointer-events="stroke" class="edge-hit-area" /><path d="M 332 47 L 392 47 L 392 47 L 452 47" fill="none" stroke="#48677e" stroke-width="1" marker-end="url(#arrow-standard-J1-Link1)" pointer-events="none" /></g><g data-runiq-edge="Link1-Gripper-2" data-edge-id="Link1-Gripper-2" data-edge-from="Link1" data-edge-to="Gripper"><defs>
      <marker id="arrow-standard-Link1-Gripper" markerWidth="10" markerHeight="10" refX="9" refY="3" orient="auto" markerUnits="strokeWidth">
        <polygon points="0,0 0,6 9,3" fill="#48677e" />
      </marker></defs><path d="M 592 47 L 652 47 L 652 47 L 712 47" fill="none" stroke="transparent" stroke-width="20" pointer-events="stroke" class="edge-hit-area" /><path d="M 592 47 L 652 47 L 652 47 L 712 47" fill="none" stroke="#48677e" stroke-width="1" marker-end="url(#arrow-standard-Link1-Gripper)" pointer-events="none" /></g><g data-runiq-edge="Gripper-Mount-3" data-edge-id="Gripper-Mount-3" data-edge-from="Gripper" data-edge-to="Mount"><defs>
      <marker id="arrow-standard-Gripper-Mount" markerWidth="10" markerHeight="10" refX="9" refY="3" orient="auto" markerUnits="strokeWidth">
        <polygon points="0,0 0,6 9,3" fill="#48677e" />
      </marker></defs><path d="M 822 47 L 882 47 L 882 47 L 942 47" fill="none" stroke="transparent" stroke-width="20" pointer-events="stroke" class="edge-hit-area" /><path d="M 822 47 L 882 47 L 882 47 L 942 47" fill="none" stroke="#48677e" stroke-width="1" marker-end="url(#arrow-standard-Gripper-Mount)" pointer-events="none" /></g></svg>