<svg xmlns="http://www.w3.org/2000/svg" xmlns:xlink="http://www.w3.org/1999/xlink" 
    width="1238" height="230" 
    viewBox="0 0 1238 230"
    role="img" aria-labelledby="diagram-title" data-id="runiq-diagram">
<title id="diagram-title">Walking Mechanism</title><defs><style type="text/css"><![CDATA[.runiq-node-text { font-family: sans-serif; font-size: 14px; }.runiq-edge-text { font-family: sans-serif; font-size: 12px; }.runiq-container-label { font-family: sans-serif; font-size: 16px; font-weight: bold; fill: #666; }]]></style><pattern id="pedigree-half-fill" width="40" height="40" patternUnits="userSpaceOnUse"><rect x="0" y="0" width="20" height="40" fill="#000"/><rect x="20" y="0" width="20" height="40" fill="#fff"/></pattern></defs><g data-runiq-node="Hip" data-node-id="Hip" data-node-shape="revoluteJoint">
      <circle cx="42" cy="55" r="30"
        fill="#5a819e" stroke="#48677e" stroke-width="1" />
      <circle cx="42" cy="55" r="3.5999999999999996"
        fill="#48677e" />
      <text x="42" y="55" 
      text-anchor="middle" 
      dominant-baseline="middle"
      font-family="sans-serif" 
      font-size="14"
      fill="#ffffff">
      Hip
    </text>
    </g><g data-runiq-node="Leg" data-node-id="Leg" data-node-shape="binaryLink">
      <rect x="192" y="30" width="140" height="50"
        rx="12.5" ry="12.5"
        fill="#73a3bf" stroke="#48677e" stroke-width="1" />
      <circle cx="212" cy="55" r="15"
        fill="#fff" stroke="#48677e" stroke-width="1" />
      <circle cx="312" cy="55" r="15"
        fill="#fff" stroke="#48677e" stroke-width="1" />
      <text x="262" y="55" 
      text-anchor="middle" 
      dominant-baseline="middle"
      font-family="sans-serif" 
      font-size="14"
      fill="#ffffff">
      Upper Leg
    </text>
    </g><g data-runiq-node="Knee" data-node-id="Knee" data-node-shape="revoluteJoint">
      <circle cx="482" cy="55" r="30"
        fill="#5a819e" stroke="#48677e" stroke-width="1" />
      <circle cx="482" cy="55" r="3.5999999999999996"
        fill="#48677e" />
      <text x="482" y="55" 
      text-anchor="middle" 
      dominant-baseline="middle"
      font-family="sans-serif" 
      font-size="14"
      fill="#ffffff">
      Knee
    </text>
    </g><g data-runiq-node="Shin" data-node-id="Shin" data-node-shape="binaryLink">
      <rect x="632" y="20" width="140" height="50"
        rx="12.5" ry="12.5"
        fill="#73a3bf" stroke="#48677e" stroke-width="1" />
      <circle cx="652" cy="45" r="15"
        fill="#fff" stroke="#48677e" stroke-width="1" />
      <circle cx="752" cy="45" r="15"
        fill="#fff" stroke="#48677e" stroke-width="1" />
      <text x="702" y="45" 
      text-anchor="middle" 
      dominant-baseline="middle"
      font-family="sans-serif" 
      font-size="14"
      fill="#ffffff">
      Lower Leg
    </text>
    </g><g data-runiq-node="Ankle" data-node-id="Ankle" data-node-shape="revoluteJoint">
      <circle cx="925" cy="45" r="33"
        fill="#5a819e" stroke="#48677e" stroke-width="1" />
      <circle cx="925" cy="45" r="3.96"
        fill="#48677e" />
      <text x="925" y="45" 
      text-anchor="middle" 
      dominant-baseline="middle"
      font-family="sans-serif" 
      font-size="14"
      fill="#ffffff">
      Ankle
    </text>
    </g><g data-runiq-node="Foot" data-node-id="Foot" data-node-shape="binaryLink">
      <rect x="1078" y="20" width="140" height="50"
        rx="12.5" ry="12.5"
        fill="#73a3bf" stroke="#48677e" stroke-width="1" />
      <circle cx="1098" cy="45" r="15"
        fill="#fff" stroke="#48677e" stroke-width="1" />
      <circle cx="1198" cy="45" r="15"
        fill="#fff" stroke="#48677e" stroke-width="1" />
      <text x="1148" y="45" 
      text-anchor="middle" 
      dominant-baseline="middle"
      font-family="sans-serif" 
      font-size="14"
      fill="#ffffff">
      Foot
    </text>
    </g><g data-runiq-node="Spring" data-node-id="Spring" data-node-shape="spring">
      <rect x="632" y="150" width="120" height="60"
        fill="#73a3bf" stroke="#48677e" stroke-width="1" />
      <polyline points="650,180 662,168 674,192 686,168 698,192 710,168 722,192 734,168 734,180" fill="none"
        stroke="#48677e" stroke-width="1" />
      <text x="692" y="180" 
      text-anchor="middle" 
      dominant-baseline="middle"
      font-family="sans-serif" 
      font-size="14"
      fill="#ffffff">
      Spring
    </text>
    </g><g data-runiq-edge="Hip-Leg-0" data-edge-id="Hip-Leg-0" data-edge-from="Hip" data-edge-to="Leg"><defs>
      <marker id="arrow-standard-Hip-Leg" markerWidth="10" markerHeight="10" refX="9" refY="3" orient="auto" markerUnits="strokeWidth">
        <polygon points="0,0 0,6 9,3" fill="#48677e" />
      </marker></defs><path d="M 72 55 L 132 55 L 132 55 L 192 55" fill="none" stroke="transparent" stroke-width="20" pointer-events="stroke" class="edge-hit-area" /><path d="M 72 55 L 132 55 L 132 55 L 192 55" fill="none" stroke="#48677e" stroke-width="1" marker-end="url(#arrow-standard-Hip-Leg)" pointer-events="none" /></g><g data-runiq-edge="Leg-Knee-1" data-edge-id="Leg-Knee-1" data-edge-from="Leg" data-edge-to="Knee"><defs>
      <marker id="arrow-standard-Leg-Knee" markerWidth="10" markerHeight="10" refX="9" refY="3" orient="auto" markerUnits="strokeWidth">
        <polygon points="0,0 0,6 9,3" fill="#48677e" />
      </marker></defs><path d="M 332 55 L 392 55 L 392 55 L 452 55" fill="none" stroke="transparent" stroke-width="20" pointer-events="stroke" class="edge-hit-area" /><path d="M 332 55 L 392 55 L 392 55 L 452 55" fill="none" stroke="#48677e" stroke-width="1" marker-end="url(#arrow-standard-Leg-Knee)" pointer-events="none" /></g><g data-runiq-edge="Knee-Shin-2" data-edge-id="Knee-Shin-2" data-edge-from="Knee" data-edge-to="Shin"><defs>
      <marker id="arrow-standard-Knee-Shin" markerWidth="10" markerHeight="10" refX="9" refY="3" orient="auto" markerUnits="strokeWidth">
        <polygon points="0,0 0,6 9,3" fill="#48677e" />
      </marker></defs><path d="M 512 55 L 572 55 L 572 45 L 632 45" fill="none" stroke="transparent" stroke-width="20" pointer-events="stroke" class="edge-hit-area" /><path d="M 512 55 L 572 55 L 572 45 L 632 45" fill="none" stroke="#48677e" stroke-width="1" marker-end="url(#arrow-standard-Knee-Shin)" pointer-events="none" /></g><g data-runiq-edge="Shin-Ankle-3" data-edge-id="Shin-Ankle-3" data-edge-from="Shin" data-edge-to="Ankle"><defs>
      <marker id="arrow-standard-Shin-Ankle" markerWidth="10" markerHeight="10" refX="9" refY="3" orient="auto" markerUnits="strokeWidth">
        <polygon points="0,0 0,6 9,3" fill="#48677e" />
      </marker></defs><path d="M 772 45 L 832 45 L 832 45 L 892 45" fill="none" stroke="transparent" stroke-width="20" pointer-events="stroke" class="edge-hit-area" /><path d="M 772 45 L 832 45 L 832 45 L 892 45" fill="none" stroke="#48677e" stroke-width="1" marker-end="url(#arrow-standard-Shin-Ankle)" pointer-events="none" /></g><g data-runiq-edge="Ankle-Foot-4" data-edge-id="Ankle-Foot-4" data-edge-from="Ankle" data-edge-to="Foot"><defs>
      <marker id="arrow-standard-Ankle-Foot" markerWidth="10" markerHeight="10" refX="9" refY="3" orient="auto" markerUnits="strokeWidth">
        <polygon points="0,0 0,6 9,3" fill="#48677e" />
      </marker></defs><path d="M 958 45 L 1018 45 L 1018 45 L 1078 45" fill="none" stroke="transparent" stroke-width="20" pointer-events="stroke" class="edge-hit-area" /><path d="M 958 45 L 1018 45 L 1018 45 L 1078 45" fill="none" stroke="#48677e" stroke-width="1" marker-end="url(#arrow-standard-Ankle-Foot)" pointer-events="none" /></g><g data-runiq-edge="Knee-Spring-5" data-edge-id="Knee-Spring-5" data-edge-from="Knee" data-edge-to="Spring"><defs>
      <marker id="arrow-standard-Knee-Spring" markerWidth="10" markerHeight="10" refX="9" refY="3" orient="auto" markerUnits="strokeWidth">
        <polygon points="0,0 0,6 9,3" fill="#48677e" />
      </marker></defs><path d="M 512 55 L 547 55 L 547 180 L 632 180" fill="none" stroke="transparent" stroke-width="20" pointer-events="stroke" class="edge-hit-area" /><path d="M 512 55 L 547 55 L 547 180 L 632 180" fill="none" stroke="#48677e" stroke-width="1" marker-end="url(#arrow-standard-Knee-Spring)" pointer-events="none" /></g></svg>