<svg xmlns="http://www.w3.org/2000/svg" 
    width="310" 
    height="120" 
    viewBox="60 60 310 120"
    role="img" 
    aria-labelledby="schematic-title">
  <title id="schematic-title">SR Latch (NAND)</title>

  <defs>
    <style type="text/css"><![CDATA[
      .schematic-wire { stroke: #000000; stroke-width: 2; fill: none; }
      .schematic-component { color: #000000; }
      .schematic-label { font-family: sans-serif; font-size: 12px; fill: #000000; }
      .schematic-value { font-family: sans-serif; font-size: 10px; fill: #000000; }
      .schematic-net-label { font-family: sans-serif; font-size: 10px; fill: #0066cc; }
    ]]></style>
  </defs>
<g class="schematic-wires">
  <path d="M 100,128 L 215,128 L 215,120 L 330,120" class="schematic-wire"/>
  <text x="220" y="115" class="schematic-net-label">Q_N</text>
  <path d="M 165,120 L 215,120 L 215,128 L 265,128" class="schematic-wire"/>
  <text x="220" y="123" class="schematic-net-label">Q</text>
</g>
<g class="schematic-components">
  <g class="schematic-component" data-ref="U1">

      <!-- NAND gate body (AND shape) -->
      <path d="M 100,100 L 137.5,100 A 20,20 0 0,1 137.5,140 L 100,140 Z" 
        stroke="currentColor" 
        stroke-width="2" 
        fill="white"/>
      <!-- Inverter bubble -->
      <circle cx="155.5" cy="120" r="3" 
        stroke="currentColor" 
        stroke-width="2" 
        fill="white"/>
      <!-- Input lines -->
      <line x1="90" y1="112" x2="100" y2="112" 
        stroke="currentColor" stroke-width="2"/>
      <line x1="90" y1="128" x2="100" y2="128" 
        stroke="currentColor" stroke-width="2"/>
      <!-- Output line -->
      <line x1="158.5" y1="120" x2="175" y2="120" 
        stroke="currentColor" stroke-width="2"/>
        <text x="132.5" y="92" 
        class="schematic-label" 
        text-anchor="middle">U1</text>
  </g>
  <g class="schematic-component" data-ref="U2">

      <!-- NAND gate body (AND shape) -->
      <path d="M 265,100 L 302.5,100 A 20,20 0 0,1 302.5,140 L 265,140 Z" 
        stroke="currentColor" 
        stroke-width="2" 
        fill="white"/>
      <!-- Inverter bubble -->
      <circle cx="320.5" cy="120" r="3" 
        stroke="currentColor" 
        stroke-width="2" 
        fill="white"/>
      <!-- Input lines -->
      <line x1="255" y1="112" x2="265" y2="112" 
        stroke="currentColor" stroke-width="2"/>
      <line x1="255" y1="128" x2="265" y2="128" 
        stroke="currentColor" stroke-width="2"/>
      <!-- Output line -->
      <line x1="323.5" y1="120" x2="340" y2="120" 
        stroke="currentColor" stroke-width="2"/>
        <text x="297.5" y="92" 
        class="schematic-label" 
        text-anchor="middle">U2</text>
  </g>
</g>
<g class="schematic-grounds">
</g>
</svg>