<svg xmlns="http://www.w3.org/2000/svg" xmlns:xlink="http://www.w3.org/1999/xlink" 
    width="740" height="922.4" 
    viewBox="0 0 740 922.4"
    role="img" aria-labelledby="diagram-title" data-id="runiq-diagram">
<title id="diagram-title">Diagram</title><defs><style type="text/css"><![CDATA[.runiq-node-text { font-family: sans-serif; font-size: 14px; }.runiq-edge-text { font-family: sans-serif; font-size: 12px; }.runiq-container-label { font-family: sans-serif; font-size: 16px; font-weight: bold; fill: #666; }]]></style><pattern id="pedigree-half-fill" width="40" height="40" patternUnits="userSpaceOnUse"><rect x="0" y="0" width="20" height="40" fill="#000"/><rect x="20" y="0" width="20" height="40" fill="#fff"/></pattern></defs><g data-runiq-container="frontend" data-container-id="frontend"><rect x="496" y="12" width="224" height="271.2" 
    fill="#fce4ec" stroke="#c2185b" stroke-width="2" rx="8" /><text x="506" y="32" text-anchor="start" dominant-baseline="hanging" class="runiq-container-label">Frontend</text></g><g data-runiq-container="backend" data-container-id="backend"><rect x="12" y="406.79999999999995" width="462" height="495.6" 
    fill="#e3f2fd" stroke="#1976d2" stroke-width="2" rx="8" /><text x="22" y="426.79999999999995" text-anchor="start" dominant-baseline="hanging" class="runiq-container-label">Backend Services</text></g><g data-runiq-container="data" data-container-id="data"><rect x="12" y="12" width="224" height="374.79999999999995" 
    fill="#f3e5f5" stroke="#7b1fa2" stroke-width="2" rx="8" /><text x="22" y="32" text-anchor="start" dominant-baseline="hanging" class="runiq-container-label">Data Layer</text></g><g data-runiq-edge="gateway-auth-5" data-edge-id="gateway-auth-5" data-edge-from="gateway" data-edge-to="auth"><defs>
      <marker id="arrow-standard-gateway-auth" markerWidth="10" markerHeight="10" refX="9" refY="3" orient="auto" markerUnits="strokeWidth">
        <polygon points="0,0 0,6 9,3" fill="#48677e" />
      </marker></defs><path d="M 194 654.5999999999999 L 234 654.5999999999999 L 234 654.5999999999999 L 274 654.5999999999999" fill="none" stroke="transparent" stroke-width="20" pointer-events="stroke" class="edge-hit-area" /><path d="M 194 654.5999999999999 L 234 654.5999999999999 L 234 654.5999999999999 L 274 654.5999999999999" fill="none" stroke="#48677e" stroke-width="1" marker-end="url(#arrow-standard-gateway-auth)" pointer-events="none" /><text x="234" y="654.5999999999999" text-anchor="middle" dominant-baseline="middle" class="runiq-edge-text">Authenticates</text></g><g data-runiq-edge="gateway-catalog-6" data-edge-id="gateway-catalog-6" data-edge-from="gateway" data-edge-to="catalog"><defs>
      <marker id="arrow-standard-gateway-catalog" markerWidth="10" markerHeight="10" refX="9" refY="3" orient="auto" markerUnits="strokeWidth">
        <polygon points="0,0 0,6 9,3" fill="#48677e" />
      </marker></defs><path d="M 194 654.5999999999999 L 229 654.5999999999999 L 229 818.8 L 274 818.5999999999999" fill="none" stroke="transparent" stroke-width="20" pointer-events="stroke" class="edge-hit-area" /><path d="M 194 654.5999999999999 L 229 654.5999999999999 L 229 818.8 L 274 818.5999999999999" fill="none" stroke="#48677e" stroke-width="1" marker-end="url(#arrow-standard-gateway-catalog)" pointer-events="none" /><text x="229" y="818.8" text-anchor="middle" dominant-baseline="middle" class="runiq-edge-text">Fetches Products</text></g><g data-runiq-edge="gateway-orders-7" data-edge-id="gateway-orders-7" data-edge-from="gateway" data-edge-to="orders"><defs>
      <marker id="arrow-standard-gateway-orders" markerWidth="10" markerHeight="10" refX="9" refY="3" orient="auto" markerUnits="strokeWidth">
        <polygon points="0,0 0,6 9,3" fill="#48677e" />
      </marker></defs><path d="M 194 654.5999999999999 L 229 654.5999999999999 L 229 490.79999999999995 L 274 490.59999999999997" fill="none" stroke="transparent" stroke-width="20" pointer-events="stroke" class="edge-hit-area" /><path d="M 194 654.5999999999999 L 229 654.5999999999999 L 229 490.79999999999995 L 274 490.59999999999997" fill="none" stroke="#48677e" stroke-width="1" marker-end="url(#arrow-standard-gateway-orders)" pointer-events="none" /><text x="229" y="490.79999999999995" text-anchor="middle" dominant-baseline="middle" class="runiq-edge-text">Places Orders</text></g><g data-runiq-edge="customer-web" data-edge-id="customer-web" data-edge-from="customer" data-edge-to="web"><defs>
      <marker id="arrow-standard-customer-web" markerWidth="10" markerHeight="10" refX="9" refY="3" orient="auto" markerUnits="strokeWidth">
        <polygon points="0,0 0,6 9,3" fill="#48677e" />
      </marker></defs><path d="M 316 54 L 316 93.4 L 462 95.8 L 608 54" fill="none" stroke="transparent" stroke-width="20" pointer-events="stroke" class="edge-hit-area" /><path d="M 316 54 L 316 93.4 L 462 95.8 L 608 54" fill="none" stroke="#48677e" stroke-width="1" marker-end="url(#arrow-standard-customer-web)" pointer-events="none" /><text x="462" y="95.8" text-anchor="middle" dominant-baseline="middle" class="runiq-edge-text">Uses</text></g><g data-runiq-edge="customer-mobile" data-edge-id="customer-mobile" data-edge-from="customer" data-edge-to="mobile"><defs>
      <marker id="arrow-standard-customer-mobile" markerWidth="10" markerHeight="10" refX="9" refY="3" orient="auto" markerUnits="strokeWidth">
        <polygon points="0,0 0,6 9,3" fill="#48677e" />
      </marker></defs><path d="M 316 54 L 316 93.4 L 462 199.39999999999998 L 608 157.6" fill="none" stroke="transparent" stroke-width="20" pointer-events="stroke" class="edge-hit-area" /><path d="M 316 54 L 316 93.4 L 462 199.39999999999998 L 608 157.6" fill="none" stroke="#48677e" stroke-width="1" marker-end="url(#arrow-standard-customer-mobile)" pointer-events="none" /><text x="462" y="199.39999999999998" text-anchor="middle" dominant-baseline="middle" class="runiq-edge-text">Uses</text></g><g data-runiq-edge="admin-web" data-edge-id="admin-web" data-edge-from="admin" data-edge-to="web"><defs>
      <marker id="arrow-standard-admin-web" markerWidth="10" markerHeight="10" refX="9" refY="3" orient="auto" markerUnits="strokeWidth">
        <polygon points="0,0 0,6 9,3" fill="#48677e" />
      </marker></defs><path d="M 316 213 L 316 252.4 L 462 95.8 L 608 54" fill="none" stroke="transparent" stroke-width="20" pointer-events="stroke" class="edge-hit-area" /><path d="M 316 213 L 316 252.4 L 462 95.8 L 608 54" fill="none" stroke="#48677e" stroke-width="1" marker-end="url(#arrow-standard-admin-web)" pointer-events="none" /><text x="462" y="95.8" text-anchor="middle" dominant-baseline="middle" class="runiq-edge-text">Manages</text></g><g data-runiq-edge="web-gateway" data-edge-id="web-gateway" data-edge-from="web" data-edge-to="gateway"><defs>
      <marker id="arrow-standard-web-gateway" markerWidth="10" markerHeight="10" refX="9" refY="3" orient="auto" markerUnits="strokeWidth">
        <polygon points="0,0 0,6 9,3" fill="#48677e" />
      </marker></defs><path d="M 608 54 L 608 95.8 L 366 654.5999999999999 L 124 612.8" fill="none" stroke="transparent" stroke-width="20" pointer-events="stroke" class="edge-hit-area" /><path d="M 608 54 L 608 95.8 L 366 654.5999999999999 L 124 612.8" fill="none" stroke="#48677e" stroke-width="1" marker-end="url(#arrow-standard-web-gateway)" pointer-events="none" /><text x="366" y="654.5999999999999" text-anchor="middle" dominant-baseline="middle" class="runiq-edge-text">API Calls</text></g><g data-runiq-edge="mobile-gateway" data-edge-id="mobile-gateway" data-edge-from="mobile" data-edge-to="gateway"><defs>
      <marker id="arrow-standard-mobile-gateway" markerWidth="10" markerHeight="10" refX="9" refY="3" orient="auto" markerUnits="strokeWidth">
        <polygon points="0,0 0,6 9,3" fill="#48677e" />
      </marker></defs><path d="M 608 157.6 L 608 199.39999999999998 L 366 654.5999999999999 L 124 612.8" fill="none" stroke="transparent" stroke-width="20" pointer-events="stroke" class="edge-hit-area" /><path d="M 608 157.6 L 608 199.39999999999998 L 366 654.5999999999999 L 124 612.8" fill="none" stroke="#48677e" stroke-width="1" marker-end="url(#arrow-standard-mobile-gateway)" pointer-events="none" /><text x="366" y="654.5999999999999" text-anchor="middle" dominant-baseline="middle" class="runiq-edge-text">API Calls</text></g><g data-runiq-edge="auth-userDb" data-edge-id="auth-userDb" data-edge-from="auth" data-edge-to="userDb"><defs>
      <marker id="arrow-standard-auth-userDb" markerWidth="10" markerHeight="10" refX="9" refY="3" orient="auto" markerUnits="strokeWidth">
        <polygon points="0,0 0,6 9,3" fill="#48677e" />
      </marker></defs><path d="M 344 612.8 L 344 654.5999999999999 L 234 95.8 L 124 54" fill="none" stroke="transparent" stroke-width="20" pointer-events="stroke" class="edge-hit-area" /><path d="M 344 612.8 L 344 654.5999999999999 L 234 95.8 L 124 54" fill="none" stroke="#48677e" stroke-width="1" marker-end="url(#arrow-standard-auth-userDb)" pointer-events="none" /><text x="234" y="95.8" text-anchor="middle" dominant-baseline="middle" class="runiq-edge-text">Reads/Writes</text></g><g data-runiq-edge="catalog-catalogDb" data-edge-id="catalog-catalogDb" data-edge-from="catalog" data-edge-to="catalogDb"><defs>
      <marker id="arrow-standard-catalog-catalogDb" markerWidth="10" markerHeight="10" refX="9" refY="3" orient="auto" markerUnits="strokeWidth">
        <polygon points="0,0 0,6 9,3" fill="#48677e" />
      </marker></defs><path d="M 353 776.8 L 353 818.5999999999999 L 238.5 199.39999999999998 L 124 157.6" fill="none" stroke="transparent" stroke-width="20" pointer-events="stroke" class="edge-hit-area" /><path d="M 353 776.8 L 353 818.5999999999999 L 238.5 199.39999999999998 L 124 157.6" fill="none" stroke="#48677e" stroke-width="1" marker-end="url(#arrow-standard-catalog-catalogDb)" pointer-events="none" /><text x="238.5" y="199.39999999999998" text-anchor="middle" dominant-baseline="middle" class="runiq-edge-text">Reads</text></g><g data-runiq-edge="orders-cache" data-edge-id="orders-cache" data-edge-from="orders" data-edge-to="cache"><defs>
      <marker id="arrow-standard-orders-cache" markerWidth="10" markerHeight="10" refX="9" refY="3" orient="auto" markerUnits="strokeWidth">
        <polygon points="0,0 0,6 9,3" fill="#48677e" />
      </marker></defs><path d="M 348.8 448.79999999999995 L 348.8 490.59999999999997 L 236.4 303 L 124 344.79999999999995" fill="none" stroke="transparent" stroke-width="20" pointer-events="stroke" class="edge-hit-area" /><path d="M 348.8 448.79999999999995 L 348.8 490.59999999999997 L 236.4 303 L 124 344.79999999999995" fill="none" stroke="#48677e" stroke-width="1" marker-end="url(#arrow-standard-orders-cache)" pointer-events="none" /><text x="236.4" y="303" text-anchor="middle" dominant-baseline="middle" class="runiq-edge-text">Writes</text></g><g data-runiq-node="web" data-node-id="web" data-node-shape="c4Container">
      <!-- C4 Container -->
      <rect x="538" y="54" width="140" height="83.6"
            rx="8" ry="8" fill="#5a819e" stroke="#48677e" stroke-width="2" />

      <!-- Title -->
      <text text-anchor="middle" font-family="sans-serif" font-size="14" font-weight="bold" fill="#ffffff"><tspan x="608" y="87.39999999999999">Web UI</tspan><tspan x="608" y="104.19999999999999">[React]</tspan></text>

      
    </g><g data-runiq-node="mobile" data-node-id="mobile" data-node-shape="c4Container">
      <!-- C4 Container -->
      <rect x="538" y="157.6" width="140" height="83.6"
            rx="8" ry="8" fill="#73a3bf" stroke="#48677e" stroke-width="2" />

      <!-- Title -->
      <text text-anchor="middle" font-family="sans-serif" font-size="14" font-weight="bold" fill="#ffffff"><tspan x="608" y="190.99999999999997">Mobile App</tspan><tspan x="608" y="207.79999999999998">[Flutter]</tspan></text>

      
    </g><g data-runiq-node="gateway" data-node-id="gateway" data-node-shape="c4Container">
      <!-- C4 Container -->
      <rect x="54" y="612.8" width="140" height="83.6"
            rx="8" ry="8" fill="#96bacf" stroke="#48677e" stroke-width="2" />

      <!-- Title -->
      <text text-anchor="middle" font-family="sans-serif" font-size="14" font-weight="bold" fill="#ffffff"><tspan x="124" y="646.1999999999999">API Gateway</tspan><tspan x="124" y="662.9999999999999">[Node.js]</tspan></text>

      
    </g><g data-runiq-node="auth" data-node-id="auth" data-node-shape="c4Container">
      <!-- C4 Container -->
      <rect x="274" y="612.8" width="140" height="83.6"
            rx="8" ry="8" fill="#48677e" stroke="#48677e" stroke-width="2" />

      <!-- Title -->
      <text text-anchor="middle" font-family="sans-serif" font-size="14" font-weight="bold" fill="#ffffff"><tspan x="344" y="646.1999999999999">Auth Service</tspan><tspan x="344" y="662.9999999999999">[Java]</tspan></text>

      
    </g><g data-runiq-node="catalog" data-node-id="catalog" data-node-shape="c4Container">
      <!-- C4 Container -->
      <rect x="274" y="776.8" width="158" height="83.6"
            rx="8" ry="8" fill="#364d5f" stroke="#48677e" stroke-width="2" />

      <!-- Title -->
      <text text-anchor="middle" font-family="sans-serif" font-size="14" font-weight="bold" fill="#ffffff"><tspan x="353" y="810.1999999999999">Catalog Service</tspan><tspan x="353" y="826.9999999999999">[Python]</tspan></text>

      
    </g><g data-runiq-node="orders" data-node-id="orders" data-node-shape="c4Container">
      <!-- C4 Container -->
      <rect x="274" y="448.79999999999995" width="149.60000000000002" height="83.6"
            rx="8" ry="8" fill="#5a819e" stroke="#48677e" stroke-width="2" />

      <!-- Title -->
      <text text-anchor="middle" font-family="sans-serif" font-size="14" font-weight="bold" fill="#ffffff"><tspan x="348.8" y="482.2">Orders Service</tspan><tspan x="348.8" y="499">[Go]</tspan></text>

      
    </g><g data-runiq-node="userDb" data-node-id="userDb" data-node-shape="c4Container">
      <!-- C4 Container -->
      <rect x="54" y="54" width="140" height="83.6"
            rx="8" ry="8" fill="#73a3bf" stroke="#48677e" stroke-width="2" />

      <!-- Title -->
      <text text-anchor="middle" font-family="sans-serif" font-size="14" font-weight="bold" fill="#ffffff"><tspan x="124" y="87.39999999999999">User DB</tspan><tspan x="124" y="104.19999999999999">[PostgreSQL]</tspan></text>

      
    </g><g data-runiq-node="catalogDb" data-node-id="catalogDb" data-node-shape="c4Container">
      <!-- C4 Container -->
      <rect x="54" y="157.6" width="140" height="83.6"
            rx="8" ry="8" fill="#96bacf" stroke="#48677e" stroke-width="2" />

      <!-- Title -->
      <text text-anchor="middle" font-family="sans-serif" font-size="14" font-weight="bold" fill="#ffffff"><tspan x="124" y="190.99999999999997">Catalog DB</tspan><tspan x="124" y="207.79999999999998">[MongoDB]</tspan></text>

      
    </g><g data-runiq-node="cache" data-node-id="cache" data-node-shape="c4Container">
      <!-- C4 Container -->
      <rect x="54" y="261.2" width="140" height="83.6"
            rx="8" ry="8" fill="#48677e" stroke="#48677e" stroke-width="2" />

      <!-- Title -->
      <text text-anchor="middle" font-family="sans-serif" font-size="14" font-weight="bold" fill="#ffffff"><tspan x="124" y="294.6">Cache</tspan><tspan x="124" y="311.40000000000003">[Redis]</tspan></text>

      
    </g><g data-runiq-node="customer" data-node-id="customer" data-node-shape="c4Person">
      <!-- C4 Person Container -->
      <rect x="256" y="54" width="120" height="78.8"
            rx="8" ry="8" fill="#364d5f" stroke="#48677e" stroke-width="2" />

      <!-- Person Icon (simple stick figure) -->
      <circle cx="316" cy="74" r="6" fill="#ffffff" />
      <line x1="316" y1="80" x2="316" y2="88" stroke="#ffffff" stroke-width="2" />
      <line x1="308" y1="84" x2="324" y2="84" stroke="#ffffff" stroke-width="2" />
      <line x1="316" y1="88" x2="310" y2="96" stroke="#ffffff" stroke-width="2" />
      <line x1="316" y1="88" x2="322" y2="96" stroke="#ffffff" stroke-width="2" />

      <!-- Label -->
      <text x="316" y="99" 
      text-anchor="middle" 
      dominant-baseline="middle"
      font-family="sans-serif" 
      font-size="14"
      fill="#ffffff">
      Customer
    </text>
    </g><g data-runiq-node="admin" data-node-id="admin" data-node-shape="c4Person">
      <!-- C4 Person Container -->
      <rect x="256" y="213" width="120" height="78.8"
            rx="8" ry="8" fill="#5a819e" stroke="#48677e" stroke-width="2" />

      <!-- Person Icon (simple stick figure) -->
      <circle cx="316" cy="233" r="6" fill="#ffffff" />
      <line x1="316" y1="239" x2="316" y2="247" stroke="#ffffff" stroke-width="2" />
      <line x1="308" y1="243" x2="324" y2="243" stroke="#ffffff" stroke-width="2" />
      <line x1="316" y1="247" x2="310" y2="255" stroke="#ffffff" stroke-width="2" />
      <line x1="316" y1="247" x2="322" y2="255" stroke="#ffffff" stroke-width="2" />

      <!-- Label -->
      <text x="316" y="258" 
      text-anchor="middle" 
      dominant-baseline="middle"
      font-family="sans-serif" 
      font-size="14"
      fill="#ffffff">
      Admin
    </text>
    </g></svg>