<svg xmlns="http://www.w3.org/2000/svg" xmlns:xlink="http://www.w3.org/1999/xlink" 
    width="692" height="92" 
    viewBox="0 0 692 92"
    role="img" aria-labelledby="diagram-title" data-id="runiq-diagram">
<title id="diagram-title">Diagram</title><defs><style type="text/css"><![CDATA[.runiq-node-text { font-family: sans-serif; font-size: 14px; }.runiq-edge-text { font-family: sans-serif; font-size: 12px; }.runiq-container-label { font-family: sans-serif; font-size: 16px; font-weight: bold; fill: #666; }]]></style><pattern id="pedigree-half-fill" width="40" height="40" patternUnits="userSpaceOnUse"><rect x="0" y="0" width="20" height="40" fill="#000"/><rect x="20" y="0" width="20" height="40" fill="#fff"/></pattern></defs><g data-runiq-node="step1" data-node-id="step1" data-node-shape="processBox"><rect x="14" y="14" width="120" height="60" rx="4" ry="4" fill="#000000" fill-opacity="0.15" /><defs><linearGradient id="processGradient-step1" x1="0%" y1="0%" x2="0%" y2="100%"><stop offset="0%" style="stop-color:#4472C4;stop-opacity:1" /><stop offset="100%" style="stop-color:#4472C4;stop-opacity:0.8" /></linearGradient></defs><rect x="12" y="12" width="120" height="60" rx="4" ry="4" fill="url(#processGradient-step1)" stroke="#48677e" stroke-width="0" /><text x="72" y="42" 
      text-anchor="middle" 
      dominant-baseline="middle"
      font-family="sans-serif" 
      font-size="14"
      fill="#FFFFFF">
      Alpha
    </text></g><g data-runiq-node="step2" data-node-id="step2" data-node-shape="processBox"><rect x="284" y="14" width="120" height="60" rx="4" ry="4" fill="#000000" fill-opacity="0.15" /><defs><linearGradient id="processGradient-step2" x1="0%" y1="0%" x2="0%" y2="100%"><stop offset="0%" style="stop-color:#ED7D31;stop-opacity:1" /><stop offset="100%" style="stop-color:#ED7D31;stop-opacity:0.8" /></linearGradient></defs><rect x="282" y="12" width="120" height="60" rx="4" ry="4" fill="url(#processGradient-step2)" stroke="#48677e" stroke-width="0" /><text x="342" y="42" 
      text-anchor="middle" 
      dominant-baseline="middle"
      font-family="sans-serif" 
      font-size="14"
      fill="#FFFFFF">
      Beta
    </text></g><g data-runiq-node="step3" data-node-id="step3" data-node-shape="processBox"><rect x="554" y="14" width="120" height="60" rx="4" ry="4" fill="#000000" fill-opacity="0.15" /><defs><linearGradient id="processGradient-step3" x1="0%" y1="0%" x2="0%" y2="100%"><stop offset="0%" style="stop-color:#A5A5A5;stop-opacity:1" /><stop offset="100%" style="stop-color:#A5A5A5;stop-opacity:0.8" /></linearGradient></defs><rect x="552" y="12" width="120" height="60" rx="4" ry="4" fill="url(#processGradient-step3)" stroke="#48677e" stroke-width="0" /><text x="612" y="42" 
      text-anchor="middle" 
      dominant-baseline="middle"
      font-family="sans-serif" 
      font-size="14"
      fill="#FFFFFF">
      Gamma
    </text></g><g data-runiq-edge="step1-step2-0" data-edge-id="step1-step2-0" data-edge-from="step1" data-edge-to="step2"><defs>
      <marker id="arrow-standard-step1-step2" markerWidth="10" markerHeight="10" refX="9" refY="3" orient="auto" markerUnits="strokeWidth">
        <polygon points="0,0 0,6 9,3" fill="#48677e" />
      </marker></defs><path d="M 132 42 L 207 42 L 207 42 L 282 42" fill="none" stroke="transparent" stroke-width="20" pointer-events="stroke" class="edge-hit-area" /><path d="M 132 42 L 207 42 L 207 42 L 282 42" fill="none" stroke="#48677e" stroke-width="1" marker-end="url(#arrow-standard-step1-step2)" pointer-events="none" /></g><g data-runiq-edge="step2-step3-1" data-edge-id="step2-step3-1" data-edge-from="step2" data-edge-to="step3"><defs>
      <marker id="arrow-standard-step2-step3" markerWidth="10" markerHeight="10" refX="9" refY="3" orient="auto" markerUnits="strokeWidth">
        <polygon points="0,0 0,6 9,3" fill="#48677e" />
      </marker></defs><path d="M 402 42 L 477 42 L 477 42 L 552 42" fill="none" stroke="transparent" stroke-width="20" pointer-events="stroke" class="edge-hit-area" /><path d="M 402 42 L 477 42 L 477 42 L 552 42" fill="none" stroke="#48677e" stroke-width="1" marker-end="url(#arrow-standard-step2-step3)" pointer-events="none" /></g></svg>