<svg xmlns="http://www.w3.org/2000/svg" xmlns:xlink="http://www.w3.org/1999/xlink" 
    width="332" height="332" 
    viewBox="0 0 332 332"
    role="img" aria-labelledby="diagram-title" data-id="runiq-diagram">
<title id="diagram-title">Diagram</title><defs><style type="text/css"><![CDATA[.runiq-node-text { font-family: sans-serif; font-size: 14px; }.runiq-edge-text { font-family: sans-serif; font-size: 12px; }.runiq-container-label { font-family: sans-serif; font-size: 16px; font-weight: bold; fill: #666; }]]></style><pattern id="pedigree-half-fill" width="40" height="40" patternUnits="userSpaceOnUse"><rect x="0" y="0" width="20" height="40" fill="#000"/><rect x="20" y="0" width="20" height="40" fill="#fff"/></pattern></defs><g data-runiq-node="cycle" data-node-id="cycle" data-node-shape="cycle"><defs><marker id="cycle-arrow-cycle" markerWidth="10" markerHeight="10" refX="9" refY="3" orient="auto"><path d="M0,0 L0,6 L9,3 z" fill="#48677e" /></marker></defs><path d="M 162 52 A 104.5 104.5 0 0 1 257.2627944162883 216.99999999999997" stroke="#48677e" stroke-width="2" fill="none" marker-end="url(#cycle-arrow-cycle)" /><path d="M 257.2627944162883 216.99999999999997 A 104.5 104.5 0 0 1 66.73720558371177 217.00000000000003" stroke="#48677e" stroke-width="2" fill="none" marker-end="url(#cycle-arrow-cycle)" /><path d="M 66.73720558371177 217.00000000000003 A 104.5 104.5 0 0 1 162 52" stroke="#48677e" stroke-width="2" fill="none" marker-end="url(#cycle-arrow-cycle)" /><rect x="114" y="29" width="100" height="50" rx="4" fill="#000000" fill-opacity="0.15" /><linearGradient id="cycleGrad-cycle-0" x1="0%" y1="0%" x2="0%" y2="100%"><stop offset="0%" style="stop-color:#5a819e;stop-opacity:1" /><stop offset="100%" style="stop-color:#5a819e;stop-opacity:0.8" /></linearGradient><rect x="112" y="27" width="100" height="50" rx="4" fill="url(#cycleGrad-cycle-0)" stroke="#48677e" stroke-width="0" /><text x="162" y="52" 
      text-anchor="middle" 
      dominant-baseline="middle"
      font-family="sans-serif" 
      font-size="13"
      fill="#FFFFFF">
      Alpha
    </text><rect x="209.26279441628827" y="193.99999999999997" width="100" height="50" rx="4" fill="#000000" fill-opacity="0.15" /><linearGradient id="cycleGrad-cycle-1" x1="0%" y1="0%" x2="0%" y2="100%"><stop offset="0%" style="stop-color:#5a819e;stop-opacity:1" /><stop offset="100%" style="stop-color:#5a819e;stop-opacity:0.8" /></linearGradient><rect x="207.26279441628827" y="191.99999999999997" width="100" height="50" rx="4" fill="url(#cycleGrad-cycle-1)" stroke="#48677e" stroke-width="0" /><text x="257.2627944162883" y="216.99999999999997" 
      text-anchor="middle" 
      dominant-baseline="middle"
      font-family="sans-serif" 
      font-size="13"
      fill="#FFFFFF">
      Beta
    </text><rect x="18.73720558371177" y="194.00000000000003" width="100" height="50" rx="4" fill="#000000" fill-opacity="0.15" /><linearGradient id="cycleGrad-cycle-2" x1="0%" y1="0%" x2="0%" y2="100%"><stop offset="0%" style="stop-color:#5a819e;stop-opacity:1" /><stop offset="100%" style="stop-color:#5a819e;stop-opacity:0.8" /></linearGradient><rect x="16.73720558371177" y="192.00000000000003" width="100" height="50" rx="4" fill="url(#cycleGrad-cycle-2)" stroke="#48677e" stroke-width="0" /><text x="66.73720558371177" y="217.00000000000003" 
      text-anchor="middle" 
      dominant-baseline="middle"
      font-family="sans-serif" 
      font-size="13"
      fill="#FFFFFF">
      Gamma
    </text></g></svg>