<svg xmlns="http://www.w3.org/2000/svg" xmlns:xlink="http://www.w3.org/1999/xlink" 
    width="692" height="92" 
    viewBox="0 0 692 92"
    role="img" aria-labelledby="diagram-title" data-id="runiq-diagram">
<title id="diagram-title">Diagram</title><defs><style type="text/css"><![CDATA[.runiq-node-text { font-family: sans-serif; font-size: 14px; }.runiq-edge-text { font-family: sans-serif; font-size: 12px; }.runiq-container-label { font-family: sans-serif; font-size: 16px; font-weight: bold; fill: #666; }]]></style><pattern id="pedigree-half-fill" width="40" height="40" patternUnits="userSpaceOnUse"><rect x="0" y="0" width="20" height="40" fill="#000"/><rect x="20" y="0" width="20" height="40" fill="#fff"/></pattern></defs><g data-runiq-node="event1" data-node-id="event1" data-node-shape="processBox"><rect x="14" y="14" width="120" height="60" rx="4" ry="4" fill="#000000" fill-opacity="0.15" /><defs><linearGradient id="processGradient-event1" x1="0%" y1="0%" x2="0%" y2="100%"><stop offset="0%" style="stop-color:#546E7A;stop-opacity:1" /><stop offset="100%" style="stop-color:#546E7A;stop-opacity:0.8" /></linearGradient></defs><rect x="12" y="12" width="120" height="60" rx="4" ry="4" fill="url(#processGradient-event1)" stroke="#48677e" stroke-width="0" /><text x="72" y="42" 
      text-anchor="middle" 
      dominant-baseline="middle"
      font-family="sans-serif" 
      font-size="14"
      fill="#FFFFFF">
      Kickoff
    </text></g><g data-runiq-node="event2" data-node-id="event2" data-node-shape="processBox"><rect x="284" y="14" width="120" height="60" rx="4" ry="4" fill="#000000" fill-opacity="0.15" /><defs><linearGradient id="processGradient-event2" x1="0%" y1="0%" x2="0%" y2="100%"><stop offset="0%" style="stop-color:#607D8B;stop-opacity:1" /><stop offset="100%" style="stop-color:#607D8B;stop-opacity:0.8" /></linearGradient></defs><rect x="282" y="12" width="120" height="60" rx="4" ry="4" fill="url(#processGradient-event2)" stroke="#48677e" stroke-width="0" /><text x="342" y="42" 
      text-anchor="middle" 
      dominant-baseline="middle"
      font-family="sans-serif" 
      font-size="14"
      fill="#FFFFFF">
      Milestone
    </text></g><g data-runiq-node="event3" data-node-id="event3" data-node-shape="processBox"><rect x="554" y="14" width="120" height="60" rx="4" ry="4" fill="#000000" fill-opacity="0.15" /><defs><linearGradient id="processGradient-event3" x1="0%" y1="0%" x2="0%" y2="100%"><stop offset="0%" style="stop-color:#78909C;stop-opacity:1" /><stop offset="100%" style="stop-color:#78909C;stop-opacity:0.8" /></linearGradient></defs><rect x="552" y="12" width="120" height="60" rx="4" ry="4" fill="url(#processGradient-event3)" stroke="#48677e" stroke-width="0" /><text x="612" y="42" 
      text-anchor="middle" 
      dominant-baseline="middle"
      font-family="sans-serif" 
      font-size="14"
      fill="#FFFFFF">
      Launch
    </text></g><g data-runiq-edge="event1-event2-0" data-edge-id="event1-event2-0" data-edge-from="event1" data-edge-to="event2"><defs>
      <marker id="arrow-standard-event1-event2" markerWidth="10" markerHeight="10" refX="9" refY="3" orient="auto" markerUnits="strokeWidth">
        <polygon points="0,0 0,6 9,3" fill="#48677e" />
      </marker></defs><path d="M 132 42 L 207 42 L 207 42 L 282 42" fill="none" stroke="transparent" stroke-width="20" pointer-events="stroke" class="edge-hit-area" /><path d="M 132 42 L 207 42 L 207 42 L 282 42" fill="none" stroke="#48677e" stroke-width="1" marker-end="url(#arrow-standard-event1-event2)" pointer-events="none" /></g><g data-runiq-edge="event2-event3-1" data-edge-id="event2-event3-1" data-edge-from="event2" data-edge-to="event3"><defs>
      <marker id="arrow-standard-event2-event3" markerWidth="10" markerHeight="10" refX="9" refY="3" orient="auto" markerUnits="strokeWidth">
        <polygon points="0,0 0,6 9,3" fill="#48677e" />
      </marker></defs><path d="M 402 42 L 477 42 L 477 42 L 552 42" fill="none" stroke="transparent" stroke-width="20" pointer-events="stroke" class="edge-hit-area" /><path d="M 402 42 L 477 42 L 477 42 L 552 42" fill="none" stroke="#48677e" stroke-width="1" marker-end="url(#arrow-standard-event2-event3)" pointer-events="none" /></g></svg>