<svg xmlns="http://www.w3.org/2000/svg" xmlns:xlink="http://www.w3.org/1999/xlink" 
    width="374" height="182" 
    viewBox="0 0 374 182"
    role="img" aria-labelledby="diagram-title" data-id="runiq-diagram">
<title id="diagram-title">Diagram</title><defs><style type="text/css"><![CDATA[.runiq-node-text { font-family: sans-serif; font-size: 14px; }.runiq-edge-text { font-family: sans-serif; font-size: 12px; }.runiq-container-label { font-family: sans-serif; font-size: 16px; font-weight: bold; fill: #666; }]]></style><pattern id="pedigree-half-fill" width="40" height="40" patternUnits="userSpaceOnUse"><rect x="0" y="0" width="20" height="40" fill="#000"/><rect x="20" y="0" width="20" height="40" fill="#fff"/></pattern></defs><g data-runiq-node="gearCycle" data-node-id="gearCycle" data-node-shape="gearCycle">
        <g>
          <path d="M 132 111 L 130.68885604402834 123.47470144906556 L 122.8636752381579 121.81140792252349 L 121.45493884734799 127.06888370749726 L 129.06339097770922 129.54101966249684 L 116.58868952864366 151.14783638153148 L 110.6435309248245 145.79479153066063 L 106.79479153066063 149.6435309248245 L 112.1478363815315 155.58868952864364 L 90.54101966249685 168.06339097770922 L 88.06888370749726 160.454938847348 L 82.81140792252349 161.8636752381579 L 84.47470144906556 169.68885604402834 L 59.52529855093444 169.68885604402834 L 61.188592077476514 161.8636752381579 L 55.931116292502736 160.454938847348 L 53.458980337503164 168.06339097770922 L 31.852163618468524 155.58868952864367 L 37.20520846933939 149.64353092482452 L 33.356469075175504 145.79479153066063 L 27.41131047135635 151.1478363815315 L 14.936609022290796 129.54101966249686 L 22.545061152652025 127.06888370749729 L 21.13632476184211 121.8114079225235 L 13.311143955971666 123.47470144906558 L 13.311143955971659 98.52529855093445 L 21.136324761842104 100.18859207747653 L 22.54506115265201 94.93111629250274 L 14.936609022290781 92.45898033750316 L 27.41131047135633 70.85216361846852 L 33.35646907517549 76.2052084693394 L 37.20520846933936 72.35646907517551 L 31.852163618468495 66.41131047135636 L 53.45898033750315 53.93660902229079 L 55.93111629250272 61.54506115265202 L 61.18859207747649 60.13632476184211 L 59.52529855093441 52.311143955971666 L 84.47470144906556 52.311143955971666 L 82.81140792252349 60.13632476184211 L 88.06888370749726 61.54506115265201 L 90.54101966249684 53.93660902229078 L 112.14783638153148 66.41131047135633 L 106.7947915306606 72.35646907517548 L 110.64353092482447 76.20520846933934 L 116.58868952864361 70.85216361846847 L 129.06339097770922 92.45898033750314 L 121.45493884734799 94.93111629250272 L 122.8636752381579 100.18859207747649 L 130.68885604402834 98.52529855093441 Z"
                fill="#5B9BD5" stroke="#48677e" stroke-width="2" />
          
          <circle cx="72" cy="111" r="18"
                  fill="#FFFFFF" stroke="#48677e" stroke-width="2" />
          
          <text x="72" y="111" 
      text-anchor="middle" 
      dominant-baseline="middle"
      font-family="sans-serif" 
      font-size="12"
      fill="#333">
      Alpha
    </text>
        </g>
      
          <defs>
            <marker id="gear-arrow-0" markerWidth="8" markerHeight="8" 
                    refX="6" refY="3" orient="auto" markerUnits="strokeWidth">
              <path d="M0,0 L0,6 L8,3 z" fill="#333" />
            </marker>
          </defs>
          <path d="M 99.57716446627535 83.42283553372465 A 39 39 0 0 1 99.57716446627535 138.57716446627535"
                fill="none" stroke="#333" stroke-width="2" 
                marker-end="url(#gear-arrow-0)" 
                opacity="0.6" />
        
        <g>
          <path d="M 240.9555495773441 78.52914270615125 L 236.4603914513021 90.2394299843728 L 229.33233925779513 86.60750598645643 L 226.61086953316206 91.32122982078141 L 233.32023407672546 95.67834210090162 L 215.67834210090163 113.32023407672543 L 211.3212298207814 106.61086953316205 L 206.60750598645643 109.33233925779513 L 210.2394299843728 116.46039145130206 L 186.14015737457663 122.91777208527444 L 185.7214697246331 114.92873580723784 L 180.27853027536693 114.92873580723784 L 179.85984262542337 122.91777208527444 L 155.7605700156272 116.46039145130207 L 159.39249401354357 109.33233925779513 L 154.67877017921862 106.61086953316206 L 150.3216578990984 113.32023407672546 L 132.67976592327457 95.67834210090163 L 139.38913046683797 91.32122982078141 L 136.66766074220487 86.60750598645643 L 129.53960854869794 90.2394299843728 L 123.08222791472556 66.14015737457666 L 131.07126419276216 65.7214697246331 L 131.07126419276216 60.27853027536693 L 123.08222791472556 59.85984262542338 L 129.5396085486979 35.760570015627195 L 136.66766074220487 39.39249401354357 L 139.38913046683794 34.67877017921859 L 132.67976592327454 30.321657899098376 L 150.3216578990984 12.679765923274559 L 154.6787701792186 19.389130466837948 L 159.39249401354357 16.667660742204873 L 155.7605700156272 9.539608548697935 L 179.85984262542334 3.0822279147255713 L 180.2785302753669 11.071264192762158 L 185.72146972463304 11.071264192762158 L 186.14015737457657 3.0822279147255642 L 210.2394299843728 9.53960854869792 L 206.60750598645643 16.667660742204866 L 211.32122982078138 19.38913046683794 L 215.6783421009016 12.679765923274545 L 233.3202340767254 30.321657899098334 L 226.61086953316203 34.67877017921856 L 229.3323392577951 39.39249401354351 L 236.46039145130203 35.76057001562713 L 242.91777208527444 59.85984262542334 L 234.92873580723784 60.27853027536689 L 234.92873580723784 65.72146972463304 L 242.91777208527444 66.14015737457657 Z"
                fill="#70AD47" stroke="#48677e" stroke-width="2" />
          
          <circle cx="183" cy="63" r="18"
                  fill="#FFFFFF" stroke="#48677e" stroke-width="2" />
          
          <text x="183" y="63" 
      text-anchor="middle" 
      dominant-baseline="middle"
      font-family="sans-serif" 
      font-size="12"
      fill="#333">
      Beta
    </text>
        </g>
      
          <defs>
            <marker id="gear-arrow-1" markerWidth="8" markerHeight="8" 
                    refX="6" refY="3" orient="auto" markerUnits="strokeWidth">
              <path d="M0,0 L0,6 L8,3 z" fill="#333" />
            </marker>
          </defs>
          <path d="M 210.57716446627535 90.57716446627535 A 39 39 0 0 0 210.57716446627535 35.42283553372465"
                fill="none" stroke="#333" stroke-width="2" 
                marker-end="url(#gear-arrow-1)" 
                opacity="0.6" />
        
        <g>
          <path d="M 354 111 L 352.68885604402834 123.47470144906556 L 344.8636752381579 121.81140792252349 L 343.454938847348 127.06888370749726 L 351.0633909777092 129.54101966249684 L 338.58868952864367 151.14783638153148 L 332.6435309248245 145.79479153066063 L 328.79479153066063 149.6435309248245 L 334.1478363815315 155.58868952864364 L 312.54101966249686 168.06339097770922 L 310.06888370749726 160.454938847348 L 304.8114079225235 161.8636752381579 L 306.47470144906555 169.68885604402834 L 281.52529855093445 169.68885604402834 L 283.1885920774765 161.8636752381579 L 277.93111629250274 160.454938847348 L 275.45898033750314 168.06339097770922 L 253.85216361846852 155.58868952864367 L 259.20520846933937 149.64353092482452 L 255.3564690751755 145.79479153066063 L 249.41131047135636 151.1478363815315 L 236.93660902229078 129.54101966249686 L 244.545061152652 127.06888370749729 L 243.1363247618421 121.8114079225235 L 235.31114395597166 123.47470144906558 L 235.31114395597166 98.52529855093445 L 243.1363247618421 100.18859207747653 L 244.545061152652 94.93111629250274 L 236.93660902229078 92.45898033750316 L 249.41131047135633 70.85216361846852 L 255.35646907517548 76.2052084693394 L 259.20520846933937 72.35646907517551 L 253.8521636184685 66.41131047135636 L 275.45898033750314 53.93660902229079 L 277.93111629250274 61.54506115265202 L 283.18859207747647 60.13632476184211 L 281.5252985509344 52.311143955971666 L 306.47470144906555 52.311143955971666 L 304.8114079225235 60.13632476184211 L 310.06888370749726 61.54506115265201 L 312.5410196624968 53.93660902229078 L 334.1478363815315 66.41131047135633 L 328.79479153066063 72.35646907517548 L 332.64353092482446 76.20520846933934 L 338.5886895286436 70.85216361846847 L 351.0633909777092 92.45898033750314 L 343.454938847348 94.93111629250272 L 344.8636752381579 100.18859207747649 L 352.68885604402834 98.52529855093441 Z"
                fill="#FFC000" stroke="#48677e" stroke-width="2" />
          
          <circle cx="294" cy="111" r="18"
                  fill="#FFFFFF" stroke="#48677e" stroke-width="2" />
          
          <text x="294" y="111" 
      text-anchor="middle" 
      dominant-baseline="middle"
      font-family="sans-serif" 
      font-size="12"
      fill="#333">
      Gamma
    </text>
        </g>
      </g></svg>