<svg xmlns="http://www.w3.org/2000/svg" xmlns:xlink="http://www.w3.org/1999/xlink" 
    width="452" height="372" 
    viewBox="0 0 452 372"
    role="img" aria-labelledby="diagram-title" data-id="runiq-diagram">
<title id="diagram-title">Diagram</title><defs><style type="text/css"><![CDATA[.runiq-node-text { font-family: sans-serif; font-size: 14px; }.runiq-edge-text { font-family: sans-serif; font-size: 12px; }.runiq-container-label { font-family: sans-serif; font-size: 16px; font-weight: bold; fill: #666; }]]></style><pattern id="pedigree-half-fill" width="40" height="40" patternUnits="userSpaceOnUse"><rect x="0" y="0" width="20" height="40" fill="#000"/><rect x="20" y="0" width="20" height="40" fill="#fff"/></pattern></defs><g data-runiq-node="matrixOrgChart" data-node-id="matrixOrgChart" data-node-shape="matrixOrgChart"><g class="matrix-org-chart"><rect x="162" y="12" width="120" height="60" fill="#546E7A" stroke="#666" stroke-width="2" rx="8" /><text x="222" y="42" 
      text-anchor="middle" 
      dominant-baseline="middle"
      font-family="sans-serif" 
      font-size="12"
      fill="#000">
      CEO
    </text><rect x="87" y="152" width="120" height="60" fill="#607D8B" stroke="#666" stroke-width="2" rx="8" /><text x="147" y="182" 
      text-anchor="middle" 
      dominant-baseline="middle"
      font-family="sans-serif" 
      font-size="12"
      fill="#000">
      VP Engineering
    </text><line x1="222" y1="72" x2="147" y2="152" stroke="#666" stroke-width="2" /><rect x="12" y="292" width="120" height="60" fill="#78909C" stroke="#666" stroke-width="2" rx="0" /><text x="72" y="322" 
      text-anchor="middle" 
      dominant-baseline="middle"
      font-family="sans-serif" 
      font-size="12"
      fill="#000">
      Dev Lead
    </text><line x1="147" y1="212" x2="72" y2="292" stroke="#666" stroke-width="2" /><rect x="162" y="292" width="120" height="60" fill="#78909C" stroke="#666" stroke-width="2" rx="0" /><text x="222" y="322" 
      text-anchor="middle" 
      dominant-baseline="middle"
      font-family="sans-serif" 
      font-size="12"
      fill="#000">
      QA Lead
    </text><line x1="147" y1="212" x2="222" y2="292" stroke="#666" stroke-width="2" /><rect x="312" y="152" width="120" height="60" fill="#607D8B" stroke="#666" stroke-width="2" rx="8" /><text x="372" y="182" 
      text-anchor="middle" 
      dominant-baseline="middle"
      font-family="sans-serif" 
      font-size="12"
      fill="#000">
      VP Sales
    </text><line x1="222" y1="72" x2="372" y2="152" stroke="#666" stroke-width="2" /><rect x="312" y="292" width="120" height="60" fill="#90A4AE" stroke="#666" stroke-width="2" rx="0" /><text x="372" y="322" 
      text-anchor="middle" 
      dominant-baseline="middle"
      font-family="sans-serif" 
      font-size="12"
      fill="#000">
      Account Lead
    </text><line x1="372" y1="212" x2="372" y2="292" stroke="#666" stroke-width="2" /></g></g></svg>