<svg xmlns="http://www.w3.org/2000/svg" xmlns:xlink="http://www.w3.org/1999/xlink" 
    width="492" height="492" 
    viewBox="0 0 492 492"
    role="img" aria-labelledby="diagram-title" data-id="runiq-diagram">
<title id="diagram-title">Diagram</title><defs><style type="text/css"><![CDATA[.runiq-node-text { font-family: sans-serif; font-size: 14px; }.runiq-edge-text { font-family: sans-serif; font-size: 12px; }.runiq-container-label { font-family: sans-serif; font-size: 16px; font-weight: bold; fill: #666; }]]></style><pattern id="pedigree-half-fill" width="40" height="40" patternUnits="userSpaceOnUse"><rect x="0" y="0" width="20" height="40" fill="#000"/><rect x="20" y="0" width="20" height="40" fill="#fff"/></pattern></defs><g data-runiq-node="spiralCycle" data-node-id="spiralCycle" data-node-shape="spiralCycle">
      <path d="M 272 242 L 272.8887381207566 246.39611843645258 L 273.11351541593297 251.03931183567101 L 272.623150094951 255.82688244913166 L 271.38261180747014 260.64677246526907 L 269.3746147616011 265.3801297398866 L 266.60080139003986 269.9041317902531 L 263.08247621112827 274.0950026765416 L 258.86085994597687 277.8311512776544 L 253.996845269478 280.9963550037719 L 248.5702475316897 283.4829103049958 L 242.67855610787066 285.1946705232077 L 236.43520442974489 286.0498927383628 L 229.96738892157902 285.9838182816756 L 223.41347871829225 284.9509164820103 L 216.92006889363446 282.9267278889964 L 210.63873970436447 279.90925154456886 L 204.72259281307805 275.9198306808926 L 199.3226423674326 271.0035022971699 L 194.58414399983948 265.2287881683923 L 190.6429481200617 258.6869176962471 L 187.6219651962565 251.4904863354234 L 185.62782999537274 243.77156681200643 L 184.74784896578166 235.67930368115577 L 185.0473101256365 227.37703463470652 L 186.56722804932278 219.03899405809463 L 189.32258794735864 210.8466653560773 L 193.30114258208823 202.984858244652 L 198.46280406293542 195.6375952959982 L 204.7396596675955 188.98389831085854 L 212.03662701718991 183.19356940356772 L 220.23274949708434 178.42306388678895 L 229.18311808233642 174.81155205015767 L 238.72139103060883 172.4772647026469 L 248.66286858295084 171.51421290610193 L 258.8080661976251 171.9893657313673 L 268.94671725651847 173.94036123298002 L 278.8621249313711 177.37381532579855 L 288.33577325616506 182.26428106439784 L 297.1520996682129 188.55389722171026 L 305.1033255612459 196.15275032118714 L 311.9942379030245 204.93995871056256 L 317.64681382391973 214.76547121227856 L 321.9045813467361 225.45255669890858 L 324.6366131138609 236.80094498297285 L 325.7410560335827 248.59056404113906 L 325.14810811718127 260.58580416698544 L 322.8223642637006 272.54022650252773 L 318.7644651718424 284.2016218513103 L 313.0119976736537 295.31731600893846 L 305.6396103067893 305.6396103067893 L 296.75832454972067 314.93124085402263 L 286.51403948699857 322.97073723605297 L 275.0852453777384 329.5575612856756 L 262.67997928439223 334.51690903179326 L 249.5320731898731 337.7040640383803 L 235.89676150175063 339.008198003228 L 222.04573013691922 338.3555245651818 L 208.2617031435692 335.71172458784093 L 194.83267472253425 331.08357551294034 L 182.04590426616775 324.51973342624467 L 170.18179939167317 316.1106339291611 L 159.50781670797795 305.9874964013708 L 150.272512075327 294.32043538646224 L 142.69987130713474 281.3157022267236 L 136.9840485970509 267.21209929643777 L 133.2846334653437 252.27662781438192 L 131.72255780419852 236.79944784165522 L 132.37674281867834 221.0882452922331 L 135.28157152425285 205.4621152272489 L 140.42525624252602 190.2450830296918 L 147.7491525526372 175.75939496461444 L 157.14805176814775 162.31871686990058 L 168.47146361492116 150.22138409701236 L 181.5258798088558 139.74384719193156 L 196.07798811618915 131.13445609864561 L 211.8587856756197 124.60772087120985 L 228.56852032245598 120.33917905228601 L 245.88236982205657 118.46098913879558 L 263.4567517148702 119.05835609588419 L 280.93614129124353 122.16687894681068 L 297.96026240567255 127.77089236324977 L 314.1715057162136 135.80285426314623 L 329.22242175086643 146.14381009077204 L 342.78313215507325 158.62494214087138 L 354.54850169474 173.03018945749454 L 364.2449161411063 189.09990096744724 L 371.63651704072805 206.53546208465391 L 376.53075349824326 225.00481352868036 L 378.78312332349117 244.14876100825686 L 378.30099100212897 263.58795617555216 L 375.0463876599276 282.9304132723365 L 369.0377181662291 301.7794125357363 L 360.350322369747 319.7416310285355 L 349.1158607432299 336.4353343682172 L 335.52051895954673 351.4984590464042 L 319.8020506309502 364.5964147828926 L 302.2457020997878 375.4294396994293 L 283.17908725139034 383.7393480059168 L 262.9661033123124 389.31552026822374 L 242.00000000000009 392 "
            fill="none" stroke="#D0D0D0" stroke-width="2" stroke-dasharray="5,5" />
    
        <rect x="227" y="217" 
              width="90" height="50"
              rx="6" ry="6"
              fill="#5B9BD5" stroke="#48677e" stroke-width="2" />
        
        <text x="272" y="242" 
      text-anchor="middle" 
      dominant-baseline="middle"
      font-family="sans-serif" 
      font-size="12"
      fill="#FFFFFF">
      Alpha
    </text>
      
          <path d="M 272 242 L 273.11583745272566 249.47025164338896 L 272.2942218224045 257.4356769911446 L 269.3746147616011 265.3801297398866 L 264.335839587114 272.742645786248 L 257.3073372946036 278.9551813004515 L 248.5702475316897 283.4829103049958 L 238.54779978797484 285.8643626842576 L 227.78521825875242 285.74859974957707 L 216.92006889363446 282.9267278889964 L 206.64466094067262 277.3553390593274 L 197.6627114535872 269.16992536522935 L 190.6429481200617 258.6869176962472 L 186.17262931094484 246.39370936075932 L 184.714076245482 232.9268010276666 L 186.56722804932278 219.03899405809463 L 191.84094634875325 205.5573143578667 L 200.43532490686823 193.33401820159804 L 212.03662701718991 183.19356940356772 L 226.1257152577984 175.87884541295801 L 242 172"
                fill="none" stroke="#48677e" stroke-width="2" 
                opacity="0.5"
                marker-end="url(#spiral-arrow-0)" />
          
          <defs>
            <marker id="spiral-arrow-0" markerWidth="10" markerHeight="10" 
                    refX="8" refY="3" orient="auto" markerUnits="strokeWidth">
              <path d="M0,0 L0,6 L9,3 z" fill="#48677e" />
            </marker>
          </defs>
        
        <rect x="197" y="147" 
              width="90" height="50"
              rx="6" ry="6"
              fill="#70AD47" stroke="#48677e" stroke-width="2" />
        
        <text x="242" y="172" 
      text-anchor="middle" 
      dominant-baseline="middle"
      font-family="sans-serif" 
      font-size="12"
      fill="#FFFFFF">
      Beta
    </text>
      
          <path d="M 242 172 L 258.8080661976251 171.9893657313673 L 275.59529698072646 176.06551721006076 L 291.358051673094 184.20914661439767 L 305.1033255612459 196.15275032118709 L 315.9103626009029 211.38532541079277 L 322.99044392880126 229.17237386670104 L 325.74105603358277 248.590564041139 L 323.7908604013832 268.57546151624547 L 317.03233446316017 287.97987369500345 L 305.6396103067893 305.6396103067893 L 290.0698679538673 320.4428951205765 L 271.04759747124507 331.39931253174444 L 249.5320731898732 337.7040640383803 L 226.66942242605748 338.7934573783235 L 203.731656763491 334.3879532511287 L 182.04590426616775 324.51973342624467 L 162.91777957759683 309.54259702633914 L 147.55330843603298 290.1229929723919 L 136.98404859705096 267.21209929643794 L 132 242.00000000000003"
                fill="none" stroke="#48677e" stroke-width="2" 
                opacity="0.5"
                marker-end="url(#spiral-arrow-1)" />
          
          <defs>
            <marker id="spiral-arrow-1" markerWidth="10" markerHeight="10" 
                    refX="8" refY="3" orient="auto" markerUnits="strokeWidth">
              <path d="M0,0 L0,6 L9,3 z" fill="#48677e" />
            </marker>
          </defs>
        
        <rect x="87" y="217.00000000000003" 
              width="90" height="50"
              rx="6" ry="6"
              fill="#FFC000" stroke="#48677e" stroke-width="2" />
        
        <text x="132" y="242.00000000000003" 
      text-anchor="middle" 
      dominant-baseline="middle"
      font-family="sans-serif" 
      font-size="12"
      fill="#FFFFFF">
      Gamma
    </text>
      
      <circle cx="242" cy="242" r="5"
              fill="#48677e" />
    </g></svg>