<svg xmlns="http://www.w3.org/2000/svg" xmlns:xlink="http://www.w3.org/1999/xlink" 
    width="476" height="156" 
    viewBox="0 0 476 156"
    role="img" aria-labelledby="diagram-title" data-id="runiq-diagram">
<title id="diagram-title">Diagram</title><defs><style type="text/css"><![CDATA[.runiq-node-text { font-family: sans-serif; font-size: 14px; }.runiq-edge-text { font-family: sans-serif; font-size: 12px; }.runiq-container-label { font-family: sans-serif; font-size: 16px; font-weight: bold; fill: #666; }]]></style><pattern id="pedigree-half-fill" width="40" height="40" patternUnits="userSpaceOnUse"><rect x="0" y="0" width="20" height="40" fill="#000"/><rect x="20" y="0" width="20" height="40" fill="#fff"/></pattern></defs><g data-runiq-node="puzzle-composite" data-node-id="puzzle-composite" data-node-shape="puzzle"><path d="M 24,24 L 164,24 L 164,62 L 176,62 L 176,86 L 164,86 L 164,124 L 24,124 Z" fill="#4472C4" stroke="#333" stroke-width="2"/><text x="94" y="74" text-anchor="middle" dominant-baseline="middle" fill="#fff" font-size="13" font-weight="500">Alpha</text><path d="M 164,24 L 304,24 L 304,62 L 316,62 L 316,86 L 304,86 L 304,124 L 164,124 L 164,86 L 152,86 L 152,62 L 164,62 L 164,24" fill="#ED7D31" stroke="#333" stroke-width="2"/><text x="234" y="74" text-anchor="middle" dominant-baseline="middle" fill="#fff" font-size="13" font-weight="500">Beta</text><path d="M 304,24 L 444,24 L 444,124 L 304,124 L 304,86 L 292,86 L 292,62 L 304,62 L 304,24" fill="#A5A5A5" stroke="#333" stroke-width="2"/><text x="374" y="74" text-anchor="middle" dominant-baseline="middle" fill="#fff" font-size="13" font-weight="500">Gamma</text></g></svg>