<svg xmlns="http://www.w3.org/2000/svg" xmlns:xlink="http://www.w3.org/1999/xlink" 
    width="408" height="565.6" 
    viewBox="0 0 408 565.6"
    role="img" aria-labelledby="diagram-title" data-id="runiq-diagram">
<title id="diagram-title">Diagram</title><defs><style type="text/css"><![CDATA[.runiq-node-text { font-family: sans-serif; font-size: 14px; }.runiq-edge-text { font-family: sans-serif; font-size: 12px; }.runiq-container-label { font-family: sans-serif; font-size: 16px; font-weight: bold; fill: #666; }]]></style><pattern id="pedigree-half-fill" width="40" height="40" patternUnits="userSpaceOnUse"><rect x="0" y="0" width="20" height="40" fill="#000"/><rect x="20" y="0" width="20" height="40" fill="#fff"/></pattern></defs><g data-runiq-edge="u-b-0" data-edge-id="u-b-0" data-edge-from="u" data-edge-to="b"><defs>
      <marker id="arrow-standard-u-b" markerWidth="10" markerHeight="10" refX="9" refY="3" orient="auto" markerUnits="strokeWidth">
        <polygon points="0,0 0,6 9,3" fill="#48677e" />
      </marker></defs><path d="M 350.8 48.8 L 350.8 121.3 L 388 121.3 L 388 193.8" fill="none" stroke="transparent" stroke-width="20" pointer-events="stroke" class="edge-hit-area" /><path d="M 350.8 48.8 L 350.8 121.3 L 388 121.3 L 388 193.8" fill="none" stroke="#48677e" stroke-width="1" marker-end="url(#arrow-standard-u-b)" pointer-events="none" /></g><g data-runiq-edge="b-sum1-1" data-edge-id="b-sum1-1" data-edge-from="b" data-edge-to="sum1"><defs>
      <marker id="arrow-standard-b-sum1" markerWidth="10" markerHeight="10" refX="9" refY="3" orient="auto" markerUnits="strokeWidth">
        <polygon points="0,0 0,6 9,3" fill="#48677e" />
      </marker></defs><path d="M 388 193.8 L 351 253.8 L 202 253.8 L 199 345.73333333333335" fill="none" stroke="transparent" stroke-width="20" pointer-events="stroke" class="edge-hit-area" /><path d="M 388 193.8 L 351 253.8 L 202 253.8 L 199 345.73333333333335" fill="none" stroke="#48677e" stroke-width="1" marker-end="url(#arrow-standard-b-sum1)" pointer-events="none" /></g><g data-runiq-edge="sum1-int-2" data-edge-id="sum1-int-2" data-edge-from="sum1" data-edge-to="int"><defs>
      <marker id="arrow-standard-sum1-int" markerWidth="10" markerHeight="10" refX="9" refY="3" orient="auto" markerUnits="strokeWidth">
        <polygon points="0,0 0,6 9,3" fill="#48677e" />
      </marker></defs><path d="M 199 361.73333333333335 L 199 410.6 L 146 410.6 L 134 495.6" fill="none" stroke="transparent" stroke-width="20" pointer-events="stroke" class="edge-hit-area" /><path d="M 199 361.73333333333335 L 199 410.6 L 146 410.6 L 134 495.6" fill="none" stroke="#48677e" stroke-width="1" marker-end="url(#arrow-standard-sum1-int)" pointer-events="none" /></g><g data-runiq-edge="int-x-3" data-edge-id="int-x-3" data-edge-from="int" data-edge-to="x"><defs>
      <marker id="arrow-standard-int-x" markerWidth="10" markerHeight="10" refX="9" refY="3" orient="auto" markerUnits="strokeWidth">
        <polygon points="0,0 0,6 9,3" fill="#48677e" />
      </marker></defs><path d="M 134 495.6 L 134 357.2 L 122 193.8 L 121.8 48.8" fill="none" stroke="transparent" stroke-width="20" pointer-events="stroke" class="edge-hit-area" /><path d="M 134 495.6 L 134 357.2 L 122 193.8 L 121.8 48.8" fill="none" stroke="#48677e" stroke-width="1" marker-end="url(#arrow-standard-int-x)" pointer-events="none" /></g><g data-runiq-edge="x-c-4" data-edge-id="x-c-4" data-edge-from="x" data-edge-to="c"><defs>
      <marker id="arrow-standard-x-c" markerWidth="10" markerHeight="10" refX="9" refY="3" orient="auto" markerUnits="strokeWidth">
        <polygon points="0,0 0,6 9,3" fill="#48677e" />
      </marker></defs><path d="M 121.8 48.8 L 121.8 83.8 L 50 83.8 L 87 193.8" fill="none" stroke="transparent" stroke-width="20" pointer-events="stroke" class="edge-hit-area" /><path d="M 121.8 48.8 L 121.8 83.8 L 50 83.8 L 87 193.8" fill="none" stroke="#48677e" stroke-width="1" marker-end="url(#arrow-standard-x-c)" pointer-events="none" /></g><g data-runiq-edge="c-y-5" data-edge-id="c-y-5" data-edge-from="c" data-edge-to="y"><defs>
      <marker id="arrow-standard-c-y" markerWidth="10" markerHeight="10" refX="9" refY="3" orient="auto" markerUnits="strokeWidth">
        <polygon points="0,0 0,6 9,3" fill="#48677e" />
      </marker></defs><path d="M 87 193.8 L 87 266.3 L 49.8 266.3 L 49.8 338.8" fill="none" stroke="transparent" stroke-width="20" pointer-events="stroke" class="edge-hit-area" /><path d="M 87 193.8 L 87 266.3 L 49.8 266.3 L 49.8 338.8" fill="none" stroke="#48677e" stroke-width="1" marker-end="url(#arrow-standard-c-y)" pointer-events="none" /></g><g data-runiq-edge="x-a-6" data-edge-id="x-a-6" data-edge-from="x" data-edge-to="a"><defs>
      <marker id="arrow-standard-x-a" markerWidth="10" markerHeight="10" refX="9" refY="3" orient="auto" markerUnits="strokeWidth">
        <polygon points="0,0 0,6 9,3" fill="#48677e" />
      </marker></defs><path d="M 121.8 48.8 L 121.8 83.8 L 196 83.8 L 233 193.8" fill="none" stroke="transparent" stroke-width="20" pointer-events="stroke" class="edge-hit-area" /><path d="M 121.8 48.8 L 121.8 83.8 L 196 83.8 L 233 193.8" fill="none" stroke="#48677e" stroke-width="1" marker-end="url(#arrow-standard-x-a)" pointer-events="none" /></g><g data-runiq-edge="a-sum1-7" data-edge-id="a-sum1-7" data-edge-from="a" data-edge-to="sum1"><defs>
      <marker id="arrow-standard-a-sum1" markerWidth="10" markerHeight="10" refX="9" refY="3" orient="auto" markerUnits="strokeWidth">
        <polygon points="0,0 0,6 9,3" fill="#48677e" />
      </marker></defs><path d="M 233 193.8 L 233 269.76666666666665 L 199 269.76666666666665 L 199 345.73333333333335" fill="none" stroke="transparent" stroke-width="20" pointer-events="stroke" class="edge-hit-area" /><path d="M 233 193.8 L 233 269.76666666666665 L 199 269.76666666666665 L 199 345.73333333333335" fill="none" stroke="#48677e" stroke-width="1" marker-end="url(#arrow-standard-a-sum1)" pointer-events="none" /></g><g data-runiq-node="u" data-node-id="u" data-node-shape="rect">
      <rect x="324" y="12" width="53.6" height="36.8"
            fill="#5a819e" stroke="#48677e" stroke-width="1" />
      
      <text x="350.8" y="30.4" 
      text-anchor="middle" 
      dominant-baseline="middle"
      font-family="sans-serif" 
      font-size="14"
      fill="#FFFFFF">
      u(t)
    </text>
    </g><g data-runiq-node="b" data-node-id="b" data-node-shape="gain">
      <polygon points="313,168.8 313,218.8 388,193.8"
               fill="#73a3bf" stroke="#48677e" stroke-width="2" />
      
      <text x="343" y="193.8" 
      text-anchor="middle" 
      dominant-baseline="middle"
      font-family="sans-serif" 
      font-size="14"
      fill="#FFFFFF">
      B
    </text>
    </g><g data-runiq-node="sum1" data-node-id="sum1" data-node-shape="junction"><g class="junction-shape"><circle cx="199" cy="353.73333333333335" r="8" fill="#96bacf" /></g></g><g data-runiq-node="int" data-node-id="int" data-node-shape="integrator">
      <rect x="99" y="495.6" width="70" height="50"
            fill="#48677e" stroke="#48677e" stroke-width="2" />
      
      <text x="134" y="520.6" 
      text-anchor="middle" 
      dominant-baseline="middle"
      font-family="sans-serif" 
      font-size="16"
      fill="#FFFFFF">
      1/s
    </text>
    </g><g data-runiq-node="x" data-node-id="x" data-node-shape="rect">
      <rect x="95" y="12" width="53.6" height="36.8"
            fill="#364d5f" stroke="#48677e" stroke-width="1" />
      
      <text x="121.8" y="30.4" 
      text-anchor="middle" 
      dominant-baseline="middle"
      font-family="sans-serif" 
      font-size="14"
      fill="#FFFFFF">
      x(t)
    </text>
    </g><g data-runiq-node="c" data-node-id="c" data-node-shape="gain">
      <polygon points="12,168.8 12,218.8 87,193.8"
               fill="#5a819e" stroke="#48677e" stroke-width="2" />
      
      <text x="42" y="193.8" 
      text-anchor="middle" 
      dominant-baseline="middle"
      font-family="sans-serif" 
      font-size="14"
      fill="#FFFFFF">
      C
    </text>
    </g><g data-runiq-node="y" data-node-id="y" data-node-shape="rect">
      <rect x="23" y="338.8" width="53.6" height="36.8"
            fill="#73a3bf" stroke="#48677e" stroke-width="1" />
      
      <text x="49.8" y="357.2" 
      text-anchor="middle" 
      dominant-baseline="middle"
      font-family="sans-serif" 
      font-size="14"
      fill="#FFFFFF">
      y(t)
    </text>
    </g><g data-runiq-node="a" data-node-id="a" data-node-shape="gain">
      <polygon points="158,168.8 158,218.8 233,193.8"
               fill="#96bacf" stroke="#48677e" stroke-width="2" />
      
      <text x="188" y="193.8" 
      text-anchor="middle" 
      dominant-baseline="middle"
      font-family="sans-serif" 
      font-size="14"
      fill="#FFFFFF">
      A
    </text>
    </g></svg>