<svg xmlns="http://www.w3.org/2000/svg" xmlns:xlink="http://www.w3.org/1999/xlink" 
    width="552" height="737" 
    viewBox="0 0 552 737"
    role="img" aria-labelledby="diagram-title" data-id="runiq-diagram">
<title id="diagram-title">Diagram</title><defs><style type="text/css"><![CDATA[.runiq-node-text { font-family: sans-serif; font-size: 14px; }.runiq-edge-text { font-family: sans-serif; font-size: 12px; }.runiq-container-label { font-family: sans-serif; font-size: 16px; font-weight: bold; fill: #666; }]]></style><pattern id="pedigree-half-fill" width="40" height="40" patternUnits="userSpaceOnUse"><rect x="0" y="0" width="20" height="40" fill="#000"/><rect x="20" y="0" width="20" height="40" fill="#fff"/></pattern></defs><g data-runiq-edge="grandpa-grandma-0" data-edge-id="grandpa-grandma-0" data-edge-from="grandpa" data-edge-to="grandma"><defs>
      <marker id="arrow-standard-grandpa-grandma" markerWidth="10" markerHeight="10" refX="9" refY="3" orient="auto" markerUnits="strokeWidth">
        <polygon points="0,0 0,6 9,3" fill="#48677e" />
      </marker></defs><path d="M 198 52 L 198 112 L 198 112 L 198 172" fill="none" stroke="transparent" stroke-width="20" pointer-events="stroke" class="edge-hit-area" /><path d="M 198 52 L 198 112 L 198 112 L 198 172" fill="none" stroke="#48677e" stroke-width="1" marker-end="url(#arrow-standard-grandpa-grandma)" pointer-events="none" /></g><g data-runiq-edge="dad-mom-1" data-edge-id="dad-mom-1" data-edge-from="dad" data-edge-to="mom"><defs>
      <marker id="arrow-standard-dad-mom" markerWidth="10" markerHeight="10" refX="9" refY="3" orient="auto" markerUnits="strokeWidth">
        <polygon points="0,0 0,6 9,3" fill="#48677e" />
      </marker></defs><path d="M 277 372 L 277 432 L 347 432 L 347 492" fill="none" stroke="transparent" stroke-width="20" pointer-events="stroke" class="edge-hit-area" /><path d="M 277 372 L 277 432 L 347 432 L 347 492" fill="none" stroke="#48677e" stroke-width="1" marker-end="url(#arrow-standard-dad-mom)" pointer-events="none" /></g><g data-runiq-edge="uncle-aunt-2" data-edge-id="uncle-aunt-2" data-edge-from="uncle" data-edge-to="aunt"><defs>
      <marker id="arrow-standard-uncle-aunt" markerWidth="10" markerHeight="10" refX="9" refY="3" orient="auto" markerUnits="strokeWidth">
        <polygon points="0,0 0,6 9,3" fill="#48677e" />
      </marker></defs><path d="M 149 372 L 149 432 L 104 432 L 104 492" fill="none" stroke="transparent" stroke-width="20" pointer-events="stroke" class="edge-hit-area" /><path d="M 149 372 L 149 432 L 104 432 L 104 492" fill="none" stroke="#48677e" stroke-width="1" marker-end="url(#arrow-standard-uncle-aunt)" pointer-events="none" /></g><g data-runiq-edge="grandpa-dad-3" data-edge-id="grandpa-dad-3" data-edge-from="grandpa" data-edge-to="dad"><defs>
      <marker id="arrow-standard-grandpa-dad" markerWidth="10" markerHeight="10" refX="9" refY="3" orient="auto" markerUnits="strokeWidth">
        <polygon points="0,0 0,6 9,3" fill="#48677e" />
      </marker></defs><path d="M 198 52 L 198 87 L 284 87 L 284 192 L 277 332" fill="none" stroke="transparent" stroke-width="20" pointer-events="stroke" class="edge-hit-area" /><path d="M 198 52 L 198 87 L 284 87 L 284 192 L 277 332" fill="none" stroke="#48677e" stroke-width="1" marker-end="url(#arrow-standard-grandpa-dad)" pointer-events="none" /></g><g data-runiq-edge="grandpa-uncle-4" data-edge-id="grandpa-uncle-4" data-edge-from="grandpa" data-edge-to="uncle"><defs>
      <marker id="arrow-standard-grandpa-uncle" markerWidth="10" markerHeight="10" refX="9" refY="3" orient="auto" markerUnits="strokeWidth">
        <polygon points="0,0 0,6 9,3" fill="#48677e" />
      </marker></defs><path d="M 198 52 L 198 87 L 142 87 L 142 192 L 149 332" fill="none" stroke="transparent" stroke-width="20" pointer-events="stroke" class="edge-hit-area" /><path d="M 198 52 L 198 87 L 142 87 L 142 192 L 149 332" fill="none" stroke="#48677e" stroke-width="1" marker-end="url(#arrow-standard-grandpa-uncle)" pointer-events="none" /></g><g data-runiq-edge="grandma-dad-5" data-edge-id="grandma-dad-5" data-edge-from="grandma" data-edge-to="dad"><defs>
      <marker id="arrow-standard-grandma-dad" markerWidth="10" markerHeight="10" refX="9" refY="3" orient="auto" markerUnits="strokeWidth">
        <polygon points="0,0 0,6 9,3" fill="#48677e" />
      </marker></defs><path d="M 198 212 L 198 247 L 270 247 L 277 332" fill="none" stroke="transparent" stroke-width="20" pointer-events="stroke" class="edge-hit-area" /><path d="M 198 212 L 198 247 L 270 247 L 277 332" fill="none" stroke="#48677e" stroke-width="1" marker-end="url(#arrow-standard-grandma-dad)" pointer-events="none" /></g><g data-runiq-edge="grandma-uncle-6" data-edge-id="grandma-uncle-6" data-edge-from="grandma" data-edge-to="uncle"><defs>
      <marker id="arrow-standard-grandma-uncle" markerWidth="10" markerHeight="10" refX="9" refY="3" orient="auto" markerUnits="strokeWidth">
        <polygon points="0,0 0,6 9,3" fill="#48677e" />
      </marker></defs><path d="M 198 212 L 198 247 L 156 247 L 149 332" fill="none" stroke="transparent" stroke-width="20" pointer-events="stroke" class="edge-hit-area" /><path d="M 198 212 L 198 247 L 156 247 L 149 332" fill="none" stroke="#48677e" stroke-width="1" marker-end="url(#arrow-standard-grandma-uncle)" pointer-events="none" /></g><g data-runiq-edge="dad-emily-7" data-edge-id="dad-emily-7" data-edge-from="dad" data-edge-to="emily"><defs>
      <marker id="arrow-standard-dad-emily" markerWidth="10" markerHeight="10" refX="9" refY="3" orient="auto" markerUnits="strokeWidth">
        <polygon points="0,0 0,6 9,3" fill="#48677e" />
      </marker></defs><path d="M 277 372 Q 277 512 272 677" fill="none" stroke="transparent" stroke-width="20" pointer-events="stroke" class="edge-hit-area" /><path d="M 277 372 Q 277 512 272 677" fill="none" stroke="#48677e" stroke-width="1" marker-end="url(#arrow-standard-dad-emily)" pointer-events="none" /></g><g data-runiq-edge="dad-michael-8" data-edge-id="dad-michael-8" data-edge-from="dad" data-edge-to="michael"><defs>
      <marker id="arrow-standard-dad-michael" markerWidth="10" markerHeight="10" refX="9" refY="3" orient="auto" markerUnits="strokeWidth">
        <polygon points="0,0 0,6 9,3" fill="#48677e" />
      </marker></defs><path d="M 277 372 L 277 407 L 519 407 L 519 512 L 512 677" fill="none" stroke="transparent" stroke-width="20" pointer-events="stroke" class="edge-hit-area" /><path d="M 277 372 L 277 407 L 519 407 L 519 512 L 512 677" fill="none" stroke="#48677e" stroke-width="1" marker-end="url(#arrow-standard-dad-michael)" pointer-events="none" /></g><g data-runiq-edge="dad-sarah-9" data-edge-id="dad-sarah-9" data-edge-from="dad" data-edge-to="sarah"><defs>
      <marker id="arrow-standard-dad-sarah" markerWidth="10" markerHeight="10" refX="9" refY="3" orient="auto" markerUnits="strokeWidth">
        <polygon points="0,0 0,6 9,3" fill="#48677e" />
      </marker></defs><path d="M 277 372 L 277 457 L 291 457 L 291 512 L 291 617 L 385 617 L 392 677" fill="none" stroke="transparent" stroke-width="20" pointer-events="stroke" class="edge-hit-area" /><path d="M 277 372 L 277 457 L 291 457 L 291 512 L 291 617 L 385 617 L 392 677" fill="none" stroke="#48677e" stroke-width="1" marker-end="url(#arrow-standard-dad-sarah)" pointer-events="none" /></g><g data-runiq-edge="mom-emily-10" data-edge-id="mom-emily-10" data-edge-from="mom" data-edge-to="emily"><defs>
      <marker id="arrow-standard-mom-emily" markerWidth="10" markerHeight="10" refX="9" refY="3" orient="auto" markerUnits="strokeWidth">
        <polygon points="0,0 0,6 9,3" fill="#48677e" />
      </marker></defs><path d="M 347 532 L 347 642 L 279 642 L 272 677" fill="none" stroke="transparent" stroke-width="20" pointer-events="stroke" class="edge-hit-area" /><path d="M 347 532 L 347 642 L 279 642 L 272 677" fill="none" stroke="#48677e" stroke-width="1" marker-end="url(#arrow-standard-mom-emily)" pointer-events="none" /></g><g data-runiq-edge="mom-michael-11" data-edge-id="mom-michael-11" data-edge-from="mom" data-edge-to="michael"><defs>
      <marker id="arrow-standard-mom-michael" markerWidth="10" markerHeight="10" refX="9" refY="3" orient="auto" markerUnits="strokeWidth">
        <polygon points="0,0 0,6 9,3" fill="#48677e" />
      </marker></defs><path d="M 347 532 L 347 567 L 505 567 L 512 677" fill="none" stroke="transparent" stroke-width="20" pointer-events="stroke" class="edge-hit-area" /><path d="M 347 532 L 347 567 L 505 567 L 512 677" fill="none" stroke="#48677e" stroke-width="1" marker-end="url(#arrow-standard-mom-michael)" pointer-events="none" /></g><g data-runiq-edge="mom-sarah-12" data-edge-id="mom-sarah-12" data-edge-from="mom" data-edge-to="sarah"><defs>
      <marker id="arrow-standard-mom-sarah" markerWidth="10" markerHeight="10" refX="9" refY="3" orient="auto" markerUnits="strokeWidth">
        <polygon points="0,0 0,6 9,3" fill="#48677e" />
      </marker></defs><path d="M 347 532 L 347 592 L 399 592 L 392 677" fill="none" stroke="transparent" stroke-width="20" pointer-events="stroke" class="edge-hit-area" /><path d="M 347 532 L 347 592 L 399 592 L 392 677" fill="none" stroke="#48677e" stroke-width="1" marker-end="url(#arrow-standard-mom-sarah)" pointer-events="none" /></g><g data-runiq-edge="uncle-david-13" data-edge-id="uncle-david-13" data-edge-from="uncle" data-edge-to="david"><defs>
      <marker id="arrow-standard-uncle-david" markerWidth="10" markerHeight="10" refX="9" refY="3" orient="auto" markerUnits="strokeWidth">
        <polygon points="0,0 0,6 9,3" fill="#48677e" />
      </marker></defs><path d="M 149 372 L 149 407 L 25 407 L 25 512 L 32 677" fill="none" stroke="transparent" stroke-width="20" pointer-events="stroke" class="edge-hit-area" /><path d="M 149 372 L 149 407 L 25 407 L 25 512 L 32 677" fill="none" stroke="#48677e" stroke-width="1" marker-end="url(#arrow-standard-uncle-david)" pointer-events="none" /></g><g data-runiq-edge="uncle-jennifer-14" data-edge-id="uncle-jennifer-14" data-edge-from="uncle" data-edge-to="jennifer"><defs>
      <marker id="arrow-standard-uncle-jennifer" markerWidth="10" markerHeight="10" refX="9" refY="3" orient="auto" markerUnits="strokeWidth">
        <polygon points="0,0 0,6 9,3" fill="#48677e" />
      </marker></defs><path d="M 149 372 Q 149 512 152 677" fill="none" stroke="transparent" stroke-width="20" pointer-events="stroke" class="edge-hit-area" /><path d="M 149 372 Q 149 512 152 677" fill="none" stroke="#48677e" stroke-width="1" marker-end="url(#arrow-standard-uncle-jennifer)" pointer-events="none" /></g><g data-runiq-edge="aunt-david-15" data-edge-id="aunt-david-15" data-edge-from="aunt" data-edge-to="david"><defs>
      <marker id="arrow-standard-aunt-david" markerWidth="10" markerHeight="10" refX="9" refY="3" orient="auto" markerUnits="strokeWidth">
        <polygon points="0,0 0,6 9,3" fill="#48677e" />
      </marker></defs><path d="M 104 532 L 104 567 L 39 567 L 32 677" fill="none" stroke="transparent" stroke-width="20" pointer-events="stroke" class="edge-hit-area" /><path d="M 104 532 L 104 567 L 39 567 L 32 677" fill="none" stroke="#48677e" stroke-width="1" marker-end="url(#arrow-standard-aunt-david)" pointer-events="none" /></g><g data-runiq-edge="aunt-jennifer-16" data-edge-id="aunt-jennifer-16" data-edge-from="aunt" data-edge-to="jennifer"><defs>
      <marker id="arrow-standard-aunt-jennifer" markerWidth="10" markerHeight="10" refX="9" refY="3" orient="auto" markerUnits="strokeWidth">
        <polygon points="0,0 0,6 9,3" fill="#48677e" />
      </marker></defs><path d="M 104 532 L 104 567 L 145 567 L 152 677" fill="none" stroke="transparent" stroke-width="20" pointer-events="stroke" class="edge-hit-area" /><path d="M 104 532 L 104 567 L 145 567 L 152 677" fill="none" stroke="#48677e" stroke-width="1" marker-end="url(#arrow-standard-aunt-jennifer)" pointer-events="none" /></g><g data-runiq-node="grandpa" data-node-id="grandpa" data-node-shape="pedigreeMale"><rect x="178" y="12" width="40" height="40"
                fill="#5a819e" stroke="#48677e" stroke-width="2"/><text x="198" y="67" 
      text-anchor="middle" 
      dominant-baseline="middle"
      font-family="sans-serif" 
      font-size="12"
      fill="#FFFFFF">
      John Smith
    </text></g><g data-runiq-node="grandma" data-node-id="grandma" data-node-shape="pedigreeFemale"><circle cx="198" cy="192" r="19"
                fill="#73a3bf" stroke="#48677e" stroke-width="2"/><text x="198" y="227" 
      text-anchor="middle" 
      dominant-baseline="middle"
      font-family="sans-serif" 
      font-size="12"
      fill="#FFFFFF">
      Mary Johnson
    </text></g><g data-runiq-node="dad" data-node-id="dad" data-node-shape="pedigreeMale"><rect x="257" y="332" width="40" height="40"
                fill="#96bacf" stroke="#48677e" stroke-width="2"/><text x="277" y="387" 
      text-anchor="middle" 
      dominant-baseline="middle"
      font-family="sans-serif" 
      font-size="12"
      fill="#FFFFFF">
      Robert Smith
    </text></g><g data-runiq-node="mom" data-node-id="mom" data-node-shape="pedigreeFemale"><circle cx="347" cy="512" r="19"
                fill="#48677e" stroke="#48677e" stroke-width="2"/><text x="347" y="547" 
      text-anchor="middle" 
      dominant-baseline="middle"
      font-family="sans-serif" 
      font-size="12"
      fill="#FFFFFF">
      Susan Davis
    </text></g><g data-runiq-node="uncle" data-node-id="uncle" data-node-shape="pedigreeMale"><rect x="129" y="332" width="40" height="40"
                fill="#364d5f" stroke="#48677e" stroke-width="2"/><text x="149" y="387" 
      text-anchor="middle" 
      dominant-baseline="middle"
      font-family="sans-serif" 
      font-size="12"
      fill="#FFFFFF">
      James Smith
    </text></g><g data-runiq-node="aunt" data-node-id="aunt" data-node-shape="pedigreeFemale"><circle cx="104" cy="512" r="19"
                fill="#5a819e" stroke="#48677e" stroke-width="2"/><text x="104" y="547" 
      text-anchor="middle" 
      dominant-baseline="middle"
      font-family="sans-serif" 
      font-size="12"
      fill="#FFFFFF">
      Linda Brown
    </text></g><g data-runiq-node="emily" data-node-id="emily" data-node-shape="pedigreeFemale"><circle cx="272" cy="697" r="19"
                fill="#73a3bf" stroke="#48677e" stroke-width="2"/><text x="272" y="732" 
      text-anchor="middle" 
      dominant-baseline="middle"
      font-family="sans-serif" 
      font-size="12"
      fill="#FFFFFF">
      Emily Smith
    </text></g><g data-runiq-node="michael" data-node-id="michael" data-node-shape="pedigreeMale"><rect x="492" y="677" width="40" height="40"
                fill="#96bacf" stroke="#48677e" stroke-width="2"/><text x="512" y="732" 
      text-anchor="middle" 
      dominant-baseline="middle"
      font-family="sans-serif" 
      font-size="12"
      fill="#FFFFFF">
      Michael Smith
    </text></g><g data-runiq-node="sarah" data-node-id="sarah" data-node-shape="pedigreeFemale"><circle cx="392" cy="697" r="19"
                fill="#48677e" stroke="#48677e" stroke-width="2"/><text x="392" y="732" 
      text-anchor="middle" 
      dominant-baseline="middle"
      font-family="sans-serif" 
      font-size="12"
      fill="#FFFFFF">
      Sarah Smith
    </text></g><g data-runiq-node="david" data-node-id="david" data-node-shape="pedigreeMale"><rect x="12" y="677" width="40" height="40"
                fill="#364d5f" stroke="#48677e" stroke-width="2"/><text x="32" y="732" 
      text-anchor="middle" 
      dominant-baseline="middle"
      font-family="sans-serif" 
      font-size="12"
      fill="#FFFFFF">
      David Smith
    </text></g><g data-runiq-node="jennifer" data-node-id="jennifer" data-node-shape="pedigreeFemale"><circle cx="152" cy="697" r="19"
                fill="#5a819e" stroke="#48677e" stroke-width="2"/><text x="152" y="732" 
      text-anchor="middle" 
      dominant-baseline="middle"
      font-family="sans-serif" 
      font-size="12"
      fill="#FFFFFF">
      Jennifer Smith
    </text></g></svg>