<svg xmlns="http://www.w3.org/2000/svg" xmlns:xlink="http://www.w3.org/1999/xlink" 
    width="552" height="712" 
    viewBox="0 0 552 712"
    role="img" aria-labelledby="diagram-title" data-id="runiq-diagram">
<title id="diagram-title">Diagram</title><defs><style type="text/css"><![CDATA[.runiq-node-text { font-family: sans-serif; font-size: 14px; }.runiq-edge-text { font-family: sans-serif; font-size: 12px; }.runiq-container-label { font-family: sans-serif; font-size: 16px; font-weight: bold; fill: #666; }]]></style><pattern id="pedigree-half-fill" width="40" height="40" patternUnits="userSpaceOnUse"><rect x="0" y="0" width="20" height="40" fill="#000"/><rect x="20" y="0" width="20" height="40" fill="#fff"/></pattern></defs><g data-runiq-edge="i1-i2-0" data-edge-id="i1-i2-0" data-edge-from="i1" data-edge-to="i2"><path d="M 276 52 L 276 137 L 224 137 L 224 172" fill="none" stroke="transparent" stroke-width="20" pointer-events="stroke" class="edge-hit-area" /><path d="M 276 52 L 276 137 L 224 137 L 224 172" fill="none" stroke="#48677e" stroke-width="1" pointer-events="none" /></g><g data-runiq-edge="ii2-iipartner-1" data-edge-id="ii2-iipartner-1" data-edge-from="ii2" data-edge-to="iipartner"><path d="M 152 372 L 152 432 L 152 432 L 152 492" fill="none" stroke="transparent" stroke-width="20" pointer-events="stroke" class="edge-hit-area" /><path d="M 152 372 L 152 432 L 152 432 L 152 492" fill="none" stroke="#48677e" stroke-width="1" pointer-events="none" /></g><g data-runiq-edge="i1-ii1-2" data-edge-id="i1-ii1-2" data-edge-from="i1" data-edge-to="ii1"><defs>
      <marker id="arrow-standard-i1-ii1" markerWidth="10" markerHeight="10" refX="9" refY="3" orient="auto" markerUnits="strokeWidth">
        <polygon points="0,0 0,6 9,3" fill="#48677e" />
      </marker></defs><path d="M 276 52 L 276 87 L 25 87 L 25 192 L 32 332" fill="none" stroke="transparent" stroke-width="20" pointer-events="stroke" class="edge-hit-area" /><path d="M 276 52 L 276 87 L 25 87 L 25 192 L 32 332" fill="none" stroke="#48677e" stroke-width="1" marker-end="url(#arrow-standard-i1-ii1)" pointer-events="none" /></g><g data-runiq-edge="i1-ii2-3" data-edge-id="i1-ii2-3" data-edge-from="i1" data-edge-to="ii2"><defs>
      <marker id="arrow-standard-i1-ii2" markerWidth="10" markerHeight="10" refX="9" refY="3" orient="auto" markerUnits="strokeWidth">
        <polygon points="0,0 0,6 9,3" fill="#48677e" />
      </marker></defs><path d="M 276 52 L 276 112 L 145 112 L 145 192 L 152 332" fill="none" stroke="transparent" stroke-width="20" pointer-events="stroke" class="edge-hit-area" /><path d="M 276 52 L 276 112 L 145 112 L 145 192 L 152 332" fill="none" stroke="#48677e" stroke-width="1" marker-end="url(#arrow-standard-i1-ii2)" pointer-events="none" /></g><g data-runiq-edge="i1-ii3-4" data-edge-id="i1-ii3-4" data-edge-from="i1" data-edge-to="ii3"><defs>
      <marker id="arrow-standard-i1-ii3" markerWidth="10" markerHeight="10" refX="9" refY="3" orient="auto" markerUnits="strokeWidth">
        <polygon points="0,0 0,6 9,3" fill="#48677e" />
      </marker></defs><path d="M 276 52 Q 276 192 272 332" fill="none" stroke="transparent" stroke-width="20" pointer-events="stroke" class="edge-hit-area" /><path d="M 276 52 Q 276 192 272 332" fill="none" stroke="#48677e" stroke-width="1" marker-end="url(#arrow-standard-i1-ii3)" pointer-events="none" /></g><g data-runiq-edge="i1-ii4-5" data-edge-id="i1-ii4-5" data-edge-from="i1" data-edge-to="ii4"><defs>
      <marker id="arrow-standard-i1-ii4" markerWidth="10" markerHeight="10" refX="9" refY="3" orient="auto" markerUnits="strokeWidth">
        <polygon points="0,0 0,6 9,3" fill="#48677e" />
      </marker></defs><path d="M 276 52 L 276 112 L 399 112 L 399 192 L 392 332" fill="none" stroke="transparent" stroke-width="20" pointer-events="stroke" class="edge-hit-area" /><path d="M 276 52 L 276 112 L 399 112 L 399 192 L 392 332" fill="none" stroke="#48677e" stroke-width="1" marker-end="url(#arrow-standard-i1-ii4)" pointer-events="none" /></g><g data-runiq-edge="i1-ii5-6" data-edge-id="i1-ii5-6" data-edge-from="i1" data-edge-to="ii5"><defs>
      <marker id="arrow-standard-i1-ii5" markerWidth="10" markerHeight="10" refX="9" refY="3" orient="auto" markerUnits="strokeWidth">
        <polygon points="0,0 0,6 9,3" fill="#48677e" />
      </marker></defs><path d="M 276 52 L 276 87 L 519 87 L 519 192 L 512 332" fill="none" stroke="transparent" stroke-width="20" pointer-events="stroke" class="edge-hit-area" /><path d="M 276 52 L 276 87 L 519 87 L 519 192 L 512 332" fill="none" stroke="#48677e" stroke-width="1" marker-end="url(#arrow-standard-i1-ii5)" pointer-events="none" /></g><g data-runiq-edge="i2-ii1-7" data-edge-id="i2-ii1-7" data-edge-from="i2" data-edge-to="ii1"><defs>
      <marker id="arrow-standard-i2-ii1" markerWidth="10" markerHeight="10" refX="9" refY="3" orient="auto" markerUnits="strokeWidth">
        <polygon points="0,0 0,6 9,3" fill="#48677e" />
      </marker></defs><path d="M 224 212 L 224 247 L 39 247 L 32 332" fill="none" stroke="transparent" stroke-width="20" pointer-events="stroke" class="edge-hit-area" /><path d="M 224 212 L 224 247 L 39 247 L 32 332" fill="none" stroke="#48677e" stroke-width="1" marker-end="url(#arrow-standard-i2-ii1)" pointer-events="none" /></g><g data-runiq-edge="i2-ii2-8" data-edge-id="i2-ii2-8" data-edge-from="i2" data-edge-to="ii2"><defs>
      <marker id="arrow-standard-i2-ii2" markerWidth="10" markerHeight="10" refX="9" refY="3" orient="auto" markerUnits="strokeWidth">
        <polygon points="0,0 0,6 9,3" fill="#48677e" />
      </marker></defs><path d="M 224 212 L 224 272 L 159 272 L 152 332" fill="none" stroke="transparent" stroke-width="20" pointer-events="stroke" class="edge-hit-area" /><path d="M 224 212 L 224 272 L 159 272 L 152 332" fill="none" stroke="#48677e" stroke-width="1" marker-end="url(#arrow-standard-i2-ii2)" pointer-events="none" /></g><g data-runiq-edge="i2-ii3-9" data-edge-id="i2-ii3-9" data-edge-from="i2" data-edge-to="ii3"><defs>
      <marker id="arrow-standard-i2-ii3" markerWidth="10" markerHeight="10" refX="9" refY="3" orient="auto" markerUnits="strokeWidth">
        <polygon points="0,0 0,6 9,3" fill="#48677e" />
      </marker></defs><path d="M 224 212 L 224 297 L 265 297 L 272 332" fill="none" stroke="transparent" stroke-width="20" pointer-events="stroke" class="edge-hit-area" /><path d="M 224 212 L 224 297 L 265 297 L 272 332" fill="none" stroke="#48677e" stroke-width="1" marker-end="url(#arrow-standard-i2-ii3)" pointer-events="none" /></g><g data-runiq-edge="i2-ii4-10" data-edge-id="i2-ii4-10" data-edge-from="i2" data-edge-to="ii4"><defs>
      <marker id="arrow-standard-i2-ii4" markerWidth="10" markerHeight="10" refX="9" refY="3" orient="auto" markerUnits="strokeWidth">
        <polygon points="0,0 0,6 9,3" fill="#48677e" />
      </marker></defs><path d="M 224 212 L 224 272 L 385 272 L 392 332" fill="none" stroke="transparent" stroke-width="20" pointer-events="stroke" class="edge-hit-area" /><path d="M 224 212 L 224 272 L 385 272 L 392 332" fill="none" stroke="#48677e" stroke-width="1" marker-end="url(#arrow-standard-i2-ii4)" pointer-events="none" /></g><g data-runiq-edge="i2-ii5-11" data-edge-id="i2-ii5-11" data-edge-from="i2" data-edge-to="ii5"><defs>
      <marker id="arrow-standard-i2-ii5" markerWidth="10" markerHeight="10" refX="9" refY="3" orient="auto" markerUnits="strokeWidth">
        <polygon points="0,0 0,6 9,3" fill="#48677e" />
      </marker></defs><path d="M 224 212 L 224 247 L 505 247 L 512 332" fill="none" stroke="transparent" stroke-width="20" pointer-events="stroke" class="edge-hit-area" /><path d="M 224 212 L 224 247 L 505 247 L 512 332" fill="none" stroke="#48677e" stroke-width="1" marker-end="url(#arrow-standard-i2-ii5)" pointer-events="none" /></g><g data-runiq-edge="ii2-iii1-12" data-edge-id="ii2-iii1-12" data-edge-from="ii2" data-edge-to="iii1"><defs>
      <marker id="arrow-standard-ii2-iii1" markerWidth="10" markerHeight="10" refX="9" refY="3" orient="auto" markerUnits="strokeWidth">
        <polygon points="0,0 0,6 9,3" fill="#48677e" />
      </marker></defs><path d="M 152 372 L 152 407 L 96 407 L 96 512 L 103 652" fill="none" stroke="transparent" stroke-width="20" pointer-events="stroke" class="edge-hit-area" /><path d="M 152 372 L 152 407 L 96 407 L 96 512 L 103 652" fill="none" stroke="#48677e" stroke-width="1" marker-end="url(#arrow-standard-ii2-iii1)" pointer-events="none" /></g><g data-runiq-edge="ii2-iii2-13" data-edge-id="ii2-iii2-13" data-edge-from="ii2" data-edge-to="iii2"><defs>
      <marker id="arrow-standard-ii2-iii2" markerWidth="10" markerHeight="10" refX="9" refY="3" orient="auto" markerUnits="strokeWidth">
        <polygon points="0,0 0,6 9,3" fill="#48677e" />
      </marker></defs><path d="M 152 372 L 152 407 L 230 407 L 230 512 L 223 652" fill="none" stroke="transparent" stroke-width="20" pointer-events="stroke" class="edge-hit-area" /><path d="M 152 372 L 152 407 L 230 407 L 230 512 L 223 652" fill="none" stroke="#48677e" stroke-width="1" marker-end="url(#arrow-standard-ii2-iii2)" pointer-events="none" /></g><g data-runiq-edge="iipartner-iii1-14" data-edge-id="iipartner-iii1-14" data-edge-from="iipartner" data-edge-to="iii1"><defs>
      <marker id="arrow-standard-iipartner-iii1" markerWidth="10" markerHeight="10" refX="9" refY="3" orient="auto" markerUnits="strokeWidth">
        <polygon points="0,0 0,6 9,3" fill="#48677e" />
      </marker></defs><path d="M 152 532 L 152 567 L 110 567 L 103 652" fill="none" stroke="transparent" stroke-width="20" pointer-events="stroke" class="edge-hit-area" /><path d="M 152 532 L 152 567 L 110 567 L 103 652" fill="none" stroke="#48677e" stroke-width="1" marker-end="url(#arrow-standard-iipartner-iii1)" pointer-events="none" /></g><g data-runiq-edge="iipartner-iii2-15" data-edge-id="iipartner-iii2-15" data-edge-from="iipartner" data-edge-to="iii2"><defs>
      <marker id="arrow-standard-iipartner-iii2" markerWidth="10" markerHeight="10" refX="9" refY="3" orient="auto" markerUnits="strokeWidth">
        <polygon points="0,0 0,6 9,3" fill="#48677e" />
      </marker></defs><path d="M 152 532 L 152 567 L 216 567 L 223 652" fill="none" stroke="transparent" stroke-width="20" pointer-events="stroke" class="edge-hit-area" /><path d="M 152 532 L 152 567 L 216 567 L 223 652" fill="none" stroke="#48677e" stroke-width="1" marker-end="url(#arrow-standard-iipartner-iii2)" pointer-events="none" /></g><g data-runiq-node="i1" data-node-id="i1" data-node-shape="pedigreeMale"><rect x="256" y="12" width="40" height="40"
                fill="url(#pedigree-half-fill)" stroke="#48677e" stroke-width="2"/><text x="276" y="67" 
      text-anchor="middle" 
      dominant-baseline="middle"
      font-family="sans-serif" 
      font-size="12"
      fill="#FFFFFF">
      I-1
    </text></g><g data-runiq-node="i2" data-node-id="i2" data-node-shape="pedigreeFemale"><circle cx="224" cy="192" r="19"
                fill="url(#pedigree-half-fill)" stroke="#48677e" stroke-width="2"/><text x="224" y="227" 
      text-anchor="middle" 
      dominant-baseline="middle"
      font-family="sans-serif" 
      font-size="12"
      fill="#FFFFFF">
      I-2
    </text></g><g data-runiq-node="ii1" data-node-id="ii1" data-node-shape="pedigreeFemale"><circle cx="32" cy="352" r="19"
                fill="#96bacf" stroke="#48677e" stroke-width="2"/><text x="32" y="387" 
      text-anchor="middle" 
      dominant-baseline="middle"
      font-family="sans-serif" 
      font-size="12"
      fill="#FFFFFF">
      II-1
    </text></g><g data-runiq-node="ii2" data-node-id="ii2" data-node-shape="pedigreeMale"><rect x="132" y="332" width="40" height="40"
                fill="url(#pedigree-half-fill)" stroke="#48677e" stroke-width="2"/><text x="152" y="387" 
      text-anchor="middle" 
      dominant-baseline="middle"
      font-family="sans-serif" 
      font-size="12"
      fill="#FFFFFF">
      II-2
    </text></g><g data-runiq-node="ii3" data-node-id="ii3" data-node-shape="pedigreeFemale"><circle cx="272" cy="352" r="19"
                fill="#000" stroke="#48677e" stroke-width="2"/><text x="272" y="387" 
      text-anchor="middle" 
      dominant-baseline="middle"
      font-family="sans-serif" 
      font-size="12"
      fill="#FFFFFF">
      II-3
    </text></g><g data-runiq-node="ii4" data-node-id="ii4" data-node-shape="pedigreeMale"><rect x="372" y="332" width="40" height="40"
                fill="url(#pedigree-half-fill)" stroke="#48677e" stroke-width="2"/><text x="392" y="387" 
      text-anchor="middle" 
      dominant-baseline="middle"
      font-family="sans-serif" 
      font-size="12"
      fill="#FFFFFF">
      II-4
    </text></g><g data-runiq-node="ii5" data-node-id="ii5" data-node-shape="pedigreeFemale"><circle cx="512" cy="352" r="19"
                fill="#73a3bf" stroke="#48677e" stroke-width="2"/><text x="512" y="387" 
      text-anchor="middle" 
      dominant-baseline="middle"
      font-family="sans-serif" 
      font-size="12"
      fill="#FFFFFF">
      II-5
    </text></g><g data-runiq-node="iipartner" data-node-id="iipartner" data-node-shape="pedigreeFemale"><circle cx="152" cy="512" r="19"
                fill="#96bacf" stroke="#48677e" stroke-width="2"/><text x="152" y="547" 
      text-anchor="middle" 
      dominant-baseline="middle"
      font-family="sans-serif" 
      font-size="12"
      fill="#FFFFFF">
      II-partner
    </text></g><g data-runiq-node="iii1" data-node-id="iii1" data-node-shape="pedigreeMale"><rect x="83" y="652" width="40" height="40"
                fill="url(#pedigree-half-fill)" stroke="#48677e" stroke-width="2"/><text x="103" y="707" 
      text-anchor="middle" 
      dominant-baseline="middle"
      font-family="sans-serif" 
      font-size="12"
      fill="#FFFFFF">
      III-1
    </text></g><g data-runiq-node="iii2" data-node-id="iii2" data-node-shape="pedigreeFemale"><circle cx="223" cy="672" r="19"
                fill="#364d5f" stroke="#48677e" stroke-width="2"/><text x="223" y="707" 
      text-anchor="middle" 
      dominant-baseline="middle"
      font-family="sans-serif" 
      font-size="12"
      fill="#FFFFFF">
      III-2
    </text></g></svg>