<svg xmlns="http://www.w3.org/2000/svg" xmlns:xlink="http://www.w3.org/1999/xlink" 
    width="792" height="712" 
    viewBox="0 0 792 712"
    role="img" aria-labelledby="diagram-title" data-id="runiq-diagram">
<title id="diagram-title">Diagram</title><defs><style type="text/css"><![CDATA[.runiq-node-text { font-family: sans-serif; font-size: 14px; }.runiq-edge-text { font-family: sans-serif; font-size: 12px; }.runiq-container-label { font-family: sans-serif; font-size: 16px; font-weight: bold; fill: #666; }]]></style><pattern id="pedigree-half-fill" width="40" height="40" patternUnits="userSpaceOnUse"><rect x="0" y="0" width="20" height="40" fill="#000"/><rect x="20" y="0" width="20" height="40" fill="#fff"/></pattern></defs><g data-runiq-edge="g1m1-g1f1-0" data-edge-id="g1m1-g1f1-0" data-edge-from="g1m1" data-edge-to="g1f1"><defs>
      <marker id="arrow-standard-g1m1-g1f1" markerWidth="10" markerHeight="10" refX="9" refY="3" orient="auto" markerUnits="strokeWidth">
        <polygon points="0,0 0,6 9,3" fill="#48677e" />
      </marker></defs><path d="M 398 52 L 398 112 L 347 112 L 347 172" fill="none" stroke="transparent" stroke-width="20" pointer-events="stroke" class="edge-hit-area" /><path d="M 398 52 L 398 112 L 347 112 L 347 172" fill="none" stroke="#48677e" stroke-width="1" marker-end="url(#arrow-standard-g1m1-g1f1)" pointer-events="none" /></g><g data-runiq-edge="g1m1-g2m1-1" data-edge-id="g1m1-g2m1-1" data-edge-from="g1m1" data-edge-to="g2m1"><defs>
      <marker id="arrow-standard-g1m1-g2m1" markerWidth="10" markerHeight="10" refX="9" refY="3" orient="auto" markerUnits="strokeWidth">
        <polygon points="0,0 0,6 9,3" fill="#48677e" />
      </marker></defs><path d="M 398 52 L 398 87 L 642 87 L 642 192 L 635 332" fill="none" stroke="transparent" stroke-width="20" pointer-events="stroke" class="edge-hit-area" /><path d="M 398 52 L 398 87 L 642 87 L 642 192 L 635 332" fill="none" stroke="#48677e" stroke-width="1" marker-end="url(#arrow-standard-g1m1-g2m1)" pointer-events="none" /></g><g data-runiq-edge="g1m1-g2m2-2" data-edge-id="g1m1-g2m2-2" data-edge-from="g1m1" data-edge-to="g2m2"><defs>
      <marker id="arrow-standard-g1m1-g2m2" markerWidth="10" markerHeight="10" refX="9" refY="3" orient="auto" markerUnits="strokeWidth">
        <polygon points="0,0 0,6 9,3" fill="#48677e" />
      </marker></defs><path d="M 398 52 L 398 87 L 142 87 L 142 192 L 149 332" fill="none" stroke="transparent" stroke-width="20" pointer-events="stroke" class="edge-hit-area" /><path d="M 398 52 L 398 87 L 142 87 L 142 192 L 149 332" fill="none" stroke="#48677e" stroke-width="1" marker-end="url(#arrow-standard-g1m1-g2m2)" pointer-events="none" /></g><g data-runiq-edge="g1m1-g2m3-3" data-edge-id="g1m1-g2m3-3" data-edge-from="g1m1" data-edge-to="g2m3"><defs>
      <marker id="arrow-standard-g1m1-g2m3" markerWidth="10" markerHeight="10" refX="9" refY="3" orient="auto" markerUnits="strokeWidth">
        <polygon points="0,0 0,6 9,3" fill="#48677e" />
      </marker></defs><path d="M 398 52 Q 398 192 395 332" fill="none" stroke="transparent" stroke-width="20" pointer-events="stroke" class="edge-hit-area" /><path d="M 398 52 Q 398 192 395 332" fill="none" stroke="#48677e" stroke-width="1" marker-end="url(#arrow-standard-g1m1-g2m3)" pointer-events="none" /></g><g data-runiq-edge="g1f1-g2m1-4" data-edge-id="g1f1-g2m1-4" data-edge-from="g1f1" data-edge-to="g2m1"><defs>
      <marker id="arrow-standard-g1f1-g2m1" markerWidth="10" markerHeight="10" refX="9" refY="3" orient="auto" markerUnits="strokeWidth">
        <polygon points="0,0 0,6 9,3" fill="#48677e" />
      </marker></defs><path d="M 347 212 L 347 247 L 628 247 L 635 332" fill="none" stroke="transparent" stroke-width="20" pointer-events="stroke" class="edge-hit-area" /><path d="M 347 212 L 347 247 L 628 247 L 635 332" fill="none" stroke="#48677e" stroke-width="1" marker-end="url(#arrow-standard-g1f1-g2m1)" pointer-events="none" /></g><g data-runiq-edge="g1f1-g2m2-5" data-edge-id="g1f1-g2m2-5" data-edge-from="g1f1" data-edge-to="g2m2"><defs>
      <marker id="arrow-standard-g1f1-g2m2" markerWidth="10" markerHeight="10" refX="9" refY="3" orient="auto" markerUnits="strokeWidth">
        <polygon points="0,0 0,6 9,3" fill="#48677e" />
      </marker></defs><path d="M 347 212 L 347 247 L 156 247 L 149 332" fill="none" stroke="transparent" stroke-width="20" pointer-events="stroke" class="edge-hit-area" /><path d="M 347 212 L 347 247 L 156 247 L 149 332" fill="none" stroke="#48677e" stroke-width="1" marker-end="url(#arrow-standard-g1f1-g2m2)" pointer-events="none" /></g><g data-runiq-edge="g1f1-g2m3-6" data-edge-id="g1f1-g2m3-6" data-edge-from="g1f1" data-edge-to="g2m3"><defs>
      <marker id="arrow-standard-g1f1-g2m3" markerWidth="10" markerHeight="10" refX="9" refY="3" orient="auto" markerUnits="strokeWidth">
        <polygon points="0,0 0,6 9,3" fill="#48677e" />
      </marker></defs><path d="M 347 212 L 347 272 L 388 272 L 395 332" fill="none" stroke="transparent" stroke-width="20" pointer-events="stroke" class="edge-hit-area" /><path d="M 347 212 L 347 272 L 388 272 L 395 332" fill="none" stroke="#48677e" stroke-width="1" marker-end="url(#arrow-standard-g1f1-g2m3)" pointer-events="none" /></g><g data-runiq-edge="g2m1-g2f1-7" data-edge-id="g2m1-g2f1-7" data-edge-from="g2m1" data-edge-to="g2f1"><defs>
      <marker id="arrow-standard-g2m1-g2f1" markerWidth="10" markerHeight="10" refX="9" refY="3" orient="auto" markerUnits="strokeWidth">
        <polygon points="0,0 0,6 9,3" fill="#48677e" />
      </marker></defs><path d="M 635 372 L 635 432 L 681 432 L 681 492" fill="none" stroke="transparent" stroke-width="20" pointer-events="stroke" class="edge-hit-area" /><path d="M 635 372 L 635 432 L 681 432 L 681 492" fill="none" stroke="#48677e" stroke-width="1" marker-end="url(#arrow-standard-g2m1-g2f1)" pointer-events="none" /></g><g data-runiq-edge="g2m2-g2f2-8" data-edge-id="g2m2-g2f2-8" data-edge-from="g2m2" data-edge-to="g2f2"><defs>
      <marker id="arrow-standard-g2m2-g2f2" markerWidth="10" markerHeight="10" refX="9" refY="3" orient="auto" markerUnits="strokeWidth">
        <polygon points="0,0 0,6 9,3" fill="#48677e" />
      </marker></defs><path d="M 149 372 L 149 432 L 104 432 L 104 492" fill="none" stroke="transparent" stroke-width="20" pointer-events="stroke" class="edge-hit-area" /><path d="M 149 372 L 149 432 L 104 432 L 104 492" fill="none" stroke="#48677e" stroke-width="1" marker-end="url(#arrow-standard-g2m2-g2f2)" pointer-events="none" /></g><g data-runiq-edge="g2m3-g2f3-9" data-edge-id="g2m3-g2f3-9" data-edge-from="g2m3" data-edge-to="g2f3"><defs>
      <marker id="arrow-standard-g2m3-g2f3" markerWidth="10" markerHeight="10" refX="9" refY="3" orient="auto" markerUnits="strokeWidth">
        <polygon points="0,0 0,6 9,3" fill="#48677e" />
      </marker></defs><path d="M 395 372 L 395 432 L 344 432 L 344 492" fill="none" stroke="transparent" stroke-width="20" pointer-events="stroke" class="edge-hit-area" /><path d="M 395 372 L 395 432 L 344 432 L 344 492" fill="none" stroke="#48677e" stroke-width="1" marker-end="url(#arrow-standard-g2m3-g2f3)" pointer-events="none" /></g><g data-runiq-edge="g2m1-g3f1-10" data-edge-id="g2m1-g3f1-10" data-edge-from="g2m1" data-edge-to="g3f1"><defs>
      <marker id="arrow-standard-g2m1-g3f1" markerWidth="10" markerHeight="10" refX="9" refY="3" orient="auto" markerUnits="strokeWidth">
        <polygon points="0,0 0,6 9,3" fill="#48677e" />
      </marker></defs><path d="M 635 372 L 635 407 L 759 407 L 759 512 L 752 652" fill="none" stroke="transparent" stroke-width="20" pointer-events="stroke" class="edge-hit-area" /><path d="M 635 372 L 635 407 L 759 407 L 759 512 L 752 652" fill="none" stroke="#48677e" stroke-width="1" marker-end="url(#arrow-standard-g2m1-g3f1)" pointer-events="none" /></g><g data-runiq-edge="g2m1-g3m1-11" data-edge-id="g2m1-g3m1-11" data-edge-from="g2m1" data-edge-to="g3m1"><defs>
      <marker id="arrow-standard-g2m1-g3m1" markerWidth="10" markerHeight="10" refX="9" refY="3" orient="auto" markerUnits="strokeWidth">
        <polygon points="0,0 0,6 9,3" fill="#48677e" />
      </marker></defs><path d="M 635 372 Q 635 512 632 652" fill="none" stroke="transparent" stroke-width="20" pointer-events="stroke" class="edge-hit-area" /><path d="M 635 372 Q 635 512 632 652" fill="none" stroke="#48677e" stroke-width="1" marker-end="url(#arrow-standard-g2m1-g3m1)" pointer-events="none" /></g><g data-runiq-edge="g2f1-g3f1-12" data-edge-id="g2f1-g3f1-12" data-edge-from="g2f1" data-edge-to="g3f1"><defs>
      <marker id="arrow-standard-g2f1-g3f1" markerWidth="10" markerHeight="10" refX="9" refY="3" orient="auto" markerUnits="strokeWidth">
        <polygon points="0,0 0,6 9,3" fill="#48677e" />
      </marker></defs><path d="M 681 532 L 681 567 L 745 567 L 752 652" fill="none" stroke="transparent" stroke-width="20" pointer-events="stroke" class="edge-hit-area" /><path d="M 681 532 L 681 567 L 745 567 L 752 652" fill="none" stroke="#48677e" stroke-width="1" marker-end="url(#arrow-standard-g2f1-g3f1)" pointer-events="none" /></g><g data-runiq-edge="g2f1-g3m1-13" data-edge-id="g2f1-g3m1-13" data-edge-from="g2f1" data-edge-to="g3m1"><defs>
      <marker id="arrow-standard-g2f1-g3m1" markerWidth="10" markerHeight="10" refX="9" refY="3" orient="auto" markerUnits="strokeWidth">
        <polygon points="0,0 0,6 9,3" fill="#48677e" />
      </marker></defs><path d="M 681 532 L 681 567 L 639 567 L 632 652" fill="none" stroke="transparent" stroke-width="20" pointer-events="stroke" class="edge-hit-area" /><path d="M 681 532 L 681 567 L 639 567 L 632 652" fill="none" stroke="#48677e" stroke-width="1" marker-end="url(#arrow-standard-g2f1-g3m1)" pointer-events="none" /></g><g data-runiq-edge="g2m2-g3f2-14" data-edge-id="g2m2-g3f2-14" data-edge-from="g2m2" data-edge-to="g3f2"><defs>
      <marker id="arrow-standard-g2m2-g3f2" markerWidth="10" markerHeight="10" refX="9" refY="3" orient="auto" markerUnits="strokeWidth">
        <polygon points="0,0 0,6 9,3" fill="#48677e" />
      </marker></defs><path d="M 149 372 Q 149 512 152 652" fill="none" stroke="transparent" stroke-width="20" pointer-events="stroke" class="edge-hit-area" /><path d="M 149 372 Q 149 512 152 652" fill="none" stroke="#48677e" stroke-width="1" marker-end="url(#arrow-standard-g2m2-g3f2)" pointer-events="none" /></g><g data-runiq-edge="g2m2-g3m2-15" data-edge-id="g2m2-g3m2-15" data-edge-from="g2m2" data-edge-to="g3m2"><defs>
      <marker id="arrow-standard-g2m2-g3m2" markerWidth="10" markerHeight="10" refX="9" refY="3" orient="auto" markerUnits="strokeWidth">
        <polygon points="0,0 0,6 9,3" fill="#48677e" />
      </marker></defs><path d="M 149 372 L 149 407 L 25 407 L 25 512 L 32 652" fill="none" stroke="transparent" stroke-width="20" pointer-events="stroke" class="edge-hit-area" /><path d="M 149 372 L 149 407 L 25 407 L 25 512 L 32 652" fill="none" stroke="#48677e" stroke-width="1" marker-end="url(#arrow-standard-g2m2-g3m2)" pointer-events="none" /></g><g data-runiq-edge="g2f2-g3f2-16" data-edge-id="g2f2-g3f2-16" data-edge-from="g2f2" data-edge-to="g3f2"><defs>
      <marker id="arrow-standard-g2f2-g3f2" markerWidth="10" markerHeight="10" refX="9" refY="3" orient="auto" markerUnits="strokeWidth">
        <polygon points="0,0 0,6 9,3" fill="#48677e" />
      </marker></defs><path d="M 104 532 L 104 567 L 145 567 L 152 652" fill="none" stroke="transparent" stroke-width="20" pointer-events="stroke" class="edge-hit-area" /><path d="M 104 532 L 104 567 L 145 567 L 152 652" fill="none" stroke="#48677e" stroke-width="1" marker-end="url(#arrow-standard-g2f2-g3f2)" pointer-events="none" /></g><g data-runiq-edge="g2f2-g3m2-17" data-edge-id="g2f2-g3m2-17" data-edge-from="g2f2" data-edge-to="g3m2"><defs>
      <marker id="arrow-standard-g2f2-g3m2" markerWidth="10" markerHeight="10" refX="9" refY="3" orient="auto" markerUnits="strokeWidth">
        <polygon points="0,0 0,6 9,3" fill="#48677e" />
      </marker></defs><path d="M 104 532 L 104 567 L 39 567 L 32 652" fill="none" stroke="transparent" stroke-width="20" pointer-events="stroke" class="edge-hit-area" /><path d="M 104 532 L 104 567 L 39 567 L 32 652" fill="none" stroke="#48677e" stroke-width="1" marker-end="url(#arrow-standard-g2f2-g3m2)" pointer-events="none" /></g><g data-runiq-edge="g2m3-g3f3-18" data-edge-id="g2m3-g3f3-18" data-edge-from="g2m3" data-edge-to="g3f3"><defs>
      <marker id="arrow-standard-g2m3-g3f3" markerWidth="10" markerHeight="10" refX="9" refY="3" orient="auto" markerUnits="strokeWidth">
        <polygon points="0,0 0,6 9,3" fill="#48677e" />
      </marker></defs><path d="M 395 372 Q 395 512 392 652" fill="none" stroke="transparent" stroke-width="20" pointer-events="stroke" class="edge-hit-area" /><path d="M 395 372 Q 395 512 392 652" fill="none" stroke="#48677e" stroke-width="1" marker-end="url(#arrow-standard-g2m3-g3f3)" pointer-events="none" /></g><g data-runiq-edge="g2m3-g3m3-19" data-edge-id="g2m3-g3m3-19" data-edge-from="g2m3" data-edge-to="g3m3"><defs>
      <marker id="arrow-standard-g2m3-g3m3" markerWidth="10" markerHeight="10" refX="9" refY="3" orient="auto" markerUnits="strokeWidth">
        <polygon points="0,0 0,6 9,3" fill="#48677e" />
      </marker></defs><path d="M 395 372 L 395 407 L 265 407 L 265 512 L 272 652" fill="none" stroke="transparent" stroke-width="20" pointer-events="stroke" class="edge-hit-area" /><path d="M 395 372 L 395 407 L 265 407 L 265 512 L 272 652" fill="none" stroke="#48677e" stroke-width="1" marker-end="url(#arrow-standard-g2m3-g3m3)" pointer-events="none" /></g><g data-runiq-edge="g2m3-g3f4-20" data-edge-id="g2m3-g3f4-20" data-edge-from="g2m3" data-edge-to="g3f4"><defs>
      <marker id="arrow-standard-g2m3-g3f4" markerWidth="10" markerHeight="10" refX="9" refY="3" orient="auto" markerUnits="strokeWidth">
        <polygon points="0,0 0,6 9,3" fill="#48677e" />
      </marker></defs><path d="M 395 372 L 395 407 L 519 407 L 519 512 L 512 652" fill="none" stroke="transparent" stroke-width="20" pointer-events="stroke" class="edge-hit-area" /><path d="M 395 372 L 395 407 L 519 407 L 519 512 L 512 652" fill="none" stroke="#48677e" stroke-width="1" marker-end="url(#arrow-standard-g2m3-g3f4)" pointer-events="none" /></g><g data-runiq-edge="g2f3-g3f3-21" data-edge-id="g2f3-g3f3-21" data-edge-from="g2f3" data-edge-to="g3f3"><defs>
      <marker id="arrow-standard-g2f3-g3f3" markerWidth="10" markerHeight="10" refX="9" refY="3" orient="auto" markerUnits="strokeWidth">
        <polygon points="0,0 0,6 9,3" fill="#48677e" />
      </marker></defs><path d="M 344 532 L 344 592 L 385 592 L 392 652" fill="none" stroke="transparent" stroke-width="20" pointer-events="stroke" class="edge-hit-area" /><path d="M 344 532 L 344 592 L 385 592 L 392 652" fill="none" stroke="#48677e" stroke-width="1" marker-end="url(#arrow-standard-g2f3-g3f3)" pointer-events="none" /></g><g data-runiq-edge="g2f3-g3m3-22" data-edge-id="g2f3-g3m3-22" data-edge-from="g2f3" data-edge-to="g3m3"><defs>
      <marker id="arrow-standard-g2f3-g3m3" markerWidth="10" markerHeight="10" refX="9" refY="3" orient="auto" markerUnits="strokeWidth">
        <polygon points="0,0 0,6 9,3" fill="#48677e" />
      </marker></defs><path d="M 344 532 L 344 567 L 279 567 L 272 652" fill="none" stroke="transparent" stroke-width="20" pointer-events="stroke" class="edge-hit-area" /><path d="M 344 532 L 344 567 L 279 567 L 272 652" fill="none" stroke="#48677e" stroke-width="1" marker-end="url(#arrow-standard-g2f3-g3m3)" pointer-events="none" /></g><g data-runiq-edge="g2f3-g3f4-23" data-edge-id="g2f3-g3f4-23" data-edge-from="g2f3" data-edge-to="g3f4"><defs>
      <marker id="arrow-standard-g2f3-g3f4" markerWidth="10" markerHeight="10" refX="9" refY="3" orient="auto" markerUnits="strokeWidth">
        <polygon points="0,0 0,6 9,3" fill="#48677e" />
      </marker></defs><path d="M 344 532 L 344 567 L 505 567 L 512 652" fill="none" stroke="transparent" stroke-width="20" pointer-events="stroke" class="edge-hit-area" /><path d="M 344 532 L 344 567 L 505 567 L 512 652" fill="none" stroke="#48677e" stroke-width="1" marker-end="url(#arrow-standard-g2f3-g3f4)" pointer-events="none" /></g><g data-runiq-node="g1m1" data-node-id="g1m1" data-node-shape="pedigreeMale"><rect x="378" y="12" width="40" height="40"
                fill="#5a819e" stroke="#48677e" stroke-width="2"/><line x1="378" y1="12" x2="418" y2="52"
                   stroke="#48677e" stroke-width="2"/><text x="398" y="67" 
      text-anchor="middle" 
      dominant-baseline="middle"
      font-family="sans-serif" 
      font-size="12"
      fill="#FFFFFF">
      I-1
    </text></g><g data-runiq-node="g1f1" data-node-id="g1f1" data-node-shape="pedigreeFemale"><circle cx="347" cy="192" r="19"
                fill="url(#pedigree-half-fill)" stroke="#48677e" stroke-width="2"/><line x1="327" y1="172" x2="367" y2="212"
                   stroke="#48677e" stroke-width="2"/><text x="347" y="227" 
      text-anchor="middle" 
      dominant-baseline="middle"
      font-family="sans-serif" 
      font-size="12"
      fill="#FFFFFF">
      I-2
    </text></g><g data-runiq-node="g2m1" data-node-id="g2m1" data-node-shape="pedigreeMale"><rect x="615" y="332" width="40" height="40"
                fill="#000" stroke="#48677e" stroke-width="2"/><text x="635" y="387" 
      text-anchor="middle" 
      dominant-baseline="middle"
      font-family="sans-serif" 
      font-size="12"
      fill="#FFFFFF">
      II-1
    </text></g><g data-runiq-node="g2f1" data-node-id="g2f1" data-node-shape="pedigreeFemale"><circle cx="681" cy="512" r="19"
                fill="#48677e" stroke="#48677e" stroke-width="2"/><text x="681" y="547" 
      text-anchor="middle" 
      dominant-baseline="middle"
      font-family="sans-serif" 
      font-size="12"
      fill="#FFFFFF">
      II-2
    </text></g><g data-runiq-node="g2m2" data-node-id="g2m2" data-node-shape="pedigreeMale"><rect x="129" y="332" width="40" height="40"
                fill="#364d5f" stroke="#48677e" stroke-width="2"/><text x="149" y="387" 
      text-anchor="middle" 
      dominant-baseline="middle"
      font-family="sans-serif" 
      font-size="12"
      fill="#FFFFFF">
      II-3
    </text></g><g data-runiq-node="g2f2" data-node-id="g2f2" data-node-shape="pedigreeFemale"><circle cx="104" cy="512" r="19"
                fill="url(#pedigree-half-fill)" stroke="#48677e" stroke-width="2"/><text x="104" y="547" 
      text-anchor="middle" 
      dominant-baseline="middle"
      font-family="sans-serif" 
      font-size="12"
      fill="#FFFFFF">
      II-4
    </text></g><g data-runiq-node="g2m3" data-node-id="g2m3" data-node-shape="pedigreeMale"><rect x="375" y="332" width="40" height="40"
                fill="#73a3bf" stroke="#48677e" stroke-width="2"/><line x1="375" y1="332" x2="415" y2="372"
                   stroke="#48677e" stroke-width="2"/><text x="395" y="387" 
      text-anchor="middle" 
      dominant-baseline="middle"
      font-family="sans-serif" 
      font-size="12"
      fill="#FFFFFF">
      II-5
    </text></g><g data-runiq-node="g2f3" data-node-id="g2f3" data-node-shape="pedigreeFemale"><circle cx="344" cy="512" r="19"
                fill="url(#pedigree-half-fill)" stroke="#48677e" stroke-width="2"/><text x="344" y="547" 
      text-anchor="middle" 
      dominant-baseline="middle"
      font-family="sans-serif" 
      font-size="12"
      fill="#FFFFFF">
      II-6
    </text></g><g data-runiq-node="g3f1" data-node-id="g3f1" data-node-shape="pedigreeFemale"><circle cx="752" cy="672" r="19"
                fill="url(#pedigree-half-fill)" stroke="#48677e" stroke-width="2"/><text x="752" y="707" 
      text-anchor="middle" 
      dominant-baseline="middle"
      font-family="sans-serif" 
      font-size="12"
      fill="#FFFFFF">
      III-1
    </text></g><g data-runiq-node="g3m1" data-node-id="g3m1" data-node-shape="pedigreeMale"><rect x="612" y="652" width="40" height="40"
                fill="#000" stroke="#48677e" stroke-width="2"/><text x="632" y="707" 
      text-anchor="middle" 
      dominant-baseline="middle"
      font-family="sans-serif" 
      font-size="12"
      fill="#FFFFFF">
      III-2
    </text></g><g data-runiq-node="g3f2" data-node-id="g3f2" data-node-shape="pedigreeFemale"><circle cx="152" cy="672" r="19"
                fill="#5a819e" stroke="#48677e" stroke-width="2"/><text x="152" y="707" 
      text-anchor="middle" 
      dominant-baseline="middle"
      font-family="sans-serif" 
      font-size="12"
      fill="#FFFFFF">
      III-3
    </text></g><g data-runiq-node="g3m2" data-node-id="g3m2" data-node-shape="pedigreeMale"><rect x="12" y="652" width="40" height="40"
                fill="#73a3bf" stroke="#48677e" stroke-width="2"/><text x="32" y="707" 
      text-anchor="middle" 
      dominant-baseline="middle"
      font-family="sans-serif" 
      font-size="12"
      fill="#FFFFFF">
      III-4
    </text></g><g data-runiq-node="g3f3" data-node-id="g3f3" data-node-shape="pedigreeFemale"><circle cx="392" cy="672" r="19"
                fill="#000" stroke="#48677e" stroke-width="2"/><text x="392" y="707" 
      text-anchor="middle" 
      dominant-baseline="middle"
      font-family="sans-serif" 
      font-size="12"
      fill="#FFFFFF">
      III-5
    </text></g><g data-runiq-node="g3m3" data-node-id="g3m3" data-node-shape="pedigreeMale"><rect x="252" y="652" width="40" height="40"
                fill="#48677e" stroke="#48677e" stroke-width="2"/><text x="272" y="707" 
      text-anchor="middle" 
      dominant-baseline="middle"
      font-family="sans-serif" 
      font-size="12"
      fill="#FFFFFF">
      III-6
    </text></g><g data-runiq-node="g3f4" data-node-id="g3f4" data-node-shape="pedigreeFemale"><circle cx="512" cy="672" r="19"
                fill="url(#pedigree-half-fill)" stroke="#48677e" stroke-width="2"/><text x="512" y="707" 
      text-anchor="middle" 
      dominant-baseline="middle"
      font-family="sans-serif" 
      font-size="12"
      fill="#FFFFFF">
      III-7
    </text></g></svg>