<svg xmlns="http://www.w3.org/2000/svg" xmlns:xlink="http://www.w3.org/1999/xlink" 
    width="192" height="392" 
    viewBox="0 0 192 392"
    role="img" aria-labelledby="diagram-title" data-id="runiq-diagram">
<title id="diagram-title">Diagram</title><defs><style type="text/css"><![CDATA[.runiq-node-text { font-family: sans-serif; font-size: 14px; }.runiq-edge-text { font-family: sans-serif; font-size: 12px; }.runiq-container-label { font-family: sans-serif; font-size: 16px; font-weight: bold; fill: #666; }]]></style><pattern id="pedigree-half-fill" width="40" height="40" patternUnits="userSpaceOnUse"><rect x="0" y="0" width="20" height="40" fill="#000"/><rect x="20" y="0" width="20" height="40" fill="#fff"/></pattern></defs><g data-runiq-edge="dad-mom-0" data-edge-id="dad-mom-0" data-edge-from="dad" data-edge-to="mom"><defs>
      <marker id="arrow-standard-dad-mom" markerWidth="10" markerHeight="10" refX="9" refY="3" orient="auto" markerUnits="strokeWidth">
        <polygon points="0,0 0,6 9,3" fill="#48677e" />
      </marker></defs><path d="M 81 52 L 81 112 L 81 112 L 81 172" fill="none" stroke="transparent" stroke-width="20" pointer-events="stroke" class="edge-hit-area" /><path d="M 81 52 L 81 112 L 81 112 L 81 172" fill="none" stroke="#48677e" stroke-width="1" marker-end="url(#arrow-standard-dad-mom)" pointer-events="none" /></g><g data-runiq-edge="dad-son-1" data-edge-id="dad-son-1" data-edge-from="dad" data-edge-to="son"><defs>
      <marker id="arrow-standard-dad-son" markerWidth="10" markerHeight="10" refX="9" refY="3" orient="auto" markerUnits="strokeWidth">
        <polygon points="0,0 0,6 9,3" fill="#48677e" />
      </marker></defs><path d="M 81 52 L 81 87 L 25 87 L 25 192 L 32 332" fill="none" stroke="transparent" stroke-width="20" pointer-events="stroke" class="edge-hit-area" /><path d="M 81 52 L 81 87 L 25 87 L 25 192 L 32 332" fill="none" stroke="#48677e" stroke-width="1" marker-end="url(#arrow-standard-dad-son)" pointer-events="none" /></g><g data-runiq-edge="dad-daughter-2" data-edge-id="dad-daughter-2" data-edge-from="dad" data-edge-to="daughter"><defs>
      <marker id="arrow-standard-dad-daughter" markerWidth="10" markerHeight="10" refX="9" refY="3" orient="auto" markerUnits="strokeWidth">
        <polygon points="0,0 0,6 9,3" fill="#48677e" />
      </marker></defs><path d="M 81 52 L 81 87 L 159 87 L 159 192 L 152 332" fill="none" stroke="transparent" stroke-width="20" pointer-events="stroke" class="edge-hit-area" /><path d="M 81 52 L 81 87 L 159 87 L 159 192 L 152 332" fill="none" stroke="#48677e" stroke-width="1" marker-end="url(#arrow-standard-dad-daughter)" pointer-events="none" /></g><g data-runiq-edge="mom-son-3" data-edge-id="mom-son-3" data-edge-from="mom" data-edge-to="son"><defs>
      <marker id="arrow-standard-mom-son" markerWidth="10" markerHeight="10" refX="9" refY="3" orient="auto" markerUnits="strokeWidth">
        <polygon points="0,0 0,6 9,3" fill="#48677e" />
      </marker></defs><path d="M 81 212 L 81 247 L 39 247 L 32 332" fill="none" stroke="transparent" stroke-width="20" pointer-events="stroke" class="edge-hit-area" /><path d="M 81 212 L 81 247 L 39 247 L 32 332" fill="none" stroke="#48677e" stroke-width="1" marker-end="url(#arrow-standard-mom-son)" pointer-events="none" /></g><g data-runiq-edge="mom-daughter-4" data-edge-id="mom-daughter-4" data-edge-from="mom" data-edge-to="daughter"><defs>
      <marker id="arrow-standard-mom-daughter" markerWidth="10" markerHeight="10" refX="9" refY="3" orient="auto" markerUnits="strokeWidth">
        <polygon points="0,0 0,6 9,3" fill="#48677e" />
      </marker></defs><path d="M 81 212 L 81 247 L 145 247 L 152 332" fill="none" stroke="transparent" stroke-width="20" pointer-events="stroke" class="edge-hit-area" /><path d="M 81 212 L 81 247 L 145 247 L 152 332" fill="none" stroke="#48677e" stroke-width="1" marker-end="url(#arrow-standard-mom-daughter)" pointer-events="none" /></g><g data-runiq-node="dad" data-node-id="dad" data-node-shape="pedigreeMale"><rect x="61" y="12" width="40" height="40"
                fill="#5a819e" stroke="#48677e" stroke-width="2"/><text x="81" y="67" 
      text-anchor="middle" 
      dominant-baseline="middle"
      font-family="sans-serif" 
      font-size="12"
      fill="#FFFFFF">
      Tom Johnson
    </text></g><g data-runiq-node="mom" data-node-id="mom" data-node-shape="pedigreeFemale"><circle cx="81" cy="192" r="19"
                fill="#73a3bf" stroke="#48677e" stroke-width="2"/><text x="81" y="227" 
      text-anchor="middle" 
      dominant-baseline="middle"
      font-family="sans-serif" 
      font-size="12"
      fill="#FFFFFF">
      Lisa Johnson
    </text></g><g data-runiq-node="son" data-node-id="son" data-node-shape="pedigreeMale"><rect x="12" y="332" width="40" height="40"
                fill="#96bacf" stroke="#48677e" stroke-width="2"/><text x="32" y="387" 
      text-anchor="middle" 
      dominant-baseline="middle"
      font-family="sans-serif" 
      font-size="12"
      fill="#FFFFFF">
      Jake
    </text></g><g data-runiq-node="daughter" data-node-id="daughter" data-node-shape="pedigreeFemale"><circle cx="152" cy="352" r="19"
                fill="#48677e" stroke="#48677e" stroke-width="2"/><text x="152" y="387" 
      text-anchor="middle" 
      dominant-baseline="middle"
      font-family="sans-serif" 
      font-size="12"
      fill="#FFFFFF">
      Emma
    </text></g></svg>