<svg xmlns="http://www.w3.org/2000/svg" xmlns:xlink="http://www.w3.org/1999/xlink" 
    width="315" height="712" 
    viewBox="0 0 315 712"
    role="img" aria-labelledby="diagram-title" data-id="runiq-diagram">
<title id="diagram-title">Diagram</title><defs><style type="text/css"><![CDATA[.runiq-node-text { font-family: sans-serif; font-size: 14px; }.runiq-edge-text { font-family: sans-serif; font-size: 12px; }.runiq-container-label { font-family: sans-serif; font-size: 16px; font-weight: bold; fill: #666; }]]></style><pattern id="pedigree-half-fill" width="40" height="40" patternUnits="userSpaceOnUse"><rect x="0" y="0" width="20" height="40" fill="#000"/><rect x="20" y="0" width="20" height="40" fill="#fff"/></pattern></defs><g data-runiq-edge="grandfather-grandmother-0" data-edge-id="grandfather-grandmother-0" data-edge-from="grandfather" data-edge-to="grandmother"><path d="M 204 52 L 204 112 L 204 112 L 204 172" fill="none" stroke="transparent" stroke-width="20" pointer-events="stroke" class="edge-hit-area" /><path d="M 204 52 L 204 112 L 204 112 L 204 172" fill="none" stroke="#48677e" stroke-width="1" pointer-events="none" /></g><g data-runiq-edge="father-mother-1" data-edge-id="father-mother-1" data-edge-from="father" data-edge-to="mother"><path d="M 155 372 L 155 432 L 104 432 L 104 492" fill="none" stroke="transparent" stroke-width="20" pointer-events="stroke" class="edge-hit-area" /><path d="M 155 372 L 155 432 L 104 432 L 104 492" fill="none" stroke="#48677e" stroke-width="1" pointer-events="none" /></g><g data-runiq-edge="grandfather-father-2" data-edge-id="grandfather-father-2" data-edge-from="grandfather" data-edge-to="father"><defs>
      <marker id="arrow-standard-grandfather-father" markerWidth="10" markerHeight="10" refX="9" refY="3" orient="auto" markerUnits="strokeWidth">
        <polygon points="0,0 0,6 9,3" fill="#48677e" />
      </marker></defs><path d="M 204 52 L 204 87 L 148 87 L 148 192 L 155 332" fill="none" stroke="transparent" stroke-width="20" pointer-events="stroke" class="edge-hit-area" /><path d="M 204 52 L 204 87 L 148 87 L 148 192 L 155 332" fill="none" stroke="#48677e" stroke-width="1" marker-end="url(#arrow-standard-grandfather-father)" pointer-events="none" /></g><g data-runiq-edge="grandfather-uncle-3" data-edge-id="grandfather-uncle-3" data-edge-from="grandfather" data-edge-to="uncle"><defs>
      <marker id="arrow-standard-grandfather-uncle" markerWidth="10" markerHeight="10" refX="9" refY="3" orient="auto" markerUnits="strokeWidth">
        <polygon points="0,0 0,6 9,3" fill="#48677e" />
      </marker></defs><path d="M 204 52 L 204 87 L 282 87 L 282 192 L 275 332" fill="none" stroke="transparent" stroke-width="20" pointer-events="stroke" class="edge-hit-area" /><path d="M 204 52 L 204 87 L 282 87 L 282 192 L 275 332" fill="none" stroke="#48677e" stroke-width="1" marker-end="url(#arrow-standard-grandfather-uncle)" pointer-events="none" /></g><g data-runiq-edge="grandmother-father-4" data-edge-id="grandmother-father-4" data-edge-from="grandmother" data-edge-to="father"><defs>
      <marker id="arrow-standard-grandmother-father" markerWidth="10" markerHeight="10" refX="9" refY="3" orient="auto" markerUnits="strokeWidth">
        <polygon points="0,0 0,6 9,3" fill="#48677e" />
      </marker></defs><path d="M 204 212 L 204 247 L 162 247 L 155 332" fill="none" stroke="transparent" stroke-width="20" pointer-events="stroke" class="edge-hit-area" /><path d="M 204 212 L 204 247 L 162 247 L 155 332" fill="none" stroke="#48677e" stroke-width="1" marker-end="url(#arrow-standard-grandmother-father)" pointer-events="none" /></g><g data-runiq-edge="grandmother-uncle-5" data-edge-id="grandmother-uncle-5" data-edge-from="grandmother" data-edge-to="uncle"><defs>
      <marker id="arrow-standard-grandmother-uncle" markerWidth="10" markerHeight="10" refX="9" refY="3" orient="auto" markerUnits="strokeWidth">
        <polygon points="0,0 0,6 9,3" fill="#48677e" />
      </marker></defs><path d="M 204 212 L 204 247 L 268 247 L 275 332" fill="none" stroke="transparent" stroke-width="20" pointer-events="stroke" class="edge-hit-area" /><path d="M 204 212 L 204 247 L 268 247 L 275 332" fill="none" stroke="#48677e" stroke-width="1" marker-end="url(#arrow-standard-grandmother-uncle)" pointer-events="none" /></g><g data-runiq-edge="father-son1-6" data-edge-id="father-son1-6" data-edge-from="father" data-edge-to="son1"><defs>
      <marker id="arrow-standard-father-son1" markerWidth="10" markerHeight="10" refX="9" refY="3" orient="auto" markerUnits="strokeWidth">
        <polygon points="0,0 0,6 9,3" fill="#48677e" />
      </marker></defs><path d="M 155 372 L 155 407 L 25 407 L 25 512 L 32 652" fill="none" stroke="transparent" stroke-width="20" pointer-events="stroke" class="edge-hit-area" /><path d="M 155 372 L 155 407 L 25 407 L 25 512 L 32 652" fill="none" stroke="#48677e" stroke-width="1" marker-end="url(#arrow-standard-father-son1)" pointer-events="none" /></g><g data-runiq-edge="father-son2-7" data-edge-id="father-son2-7" data-edge-from="father" data-edge-to="son2"><defs>
      <marker id="arrow-standard-father-son2" markerWidth="10" markerHeight="10" refX="9" refY="3" orient="auto" markerUnits="strokeWidth">
        <polygon points="0,0 0,6 9,3" fill="#48677e" />
      </marker></defs><path d="M 155 372 Q 155 512 152 652" fill="none" stroke="transparent" stroke-width="20" pointer-events="stroke" class="edge-hit-area" /><path d="M 155 372 Q 155 512 152 652" fill="none" stroke="#48677e" stroke-width="1" marker-end="url(#arrow-standard-father-son2)" pointer-events="none" /></g><g data-runiq-edge="father-daughter-8" data-edge-id="father-daughter-8" data-edge-from="father" data-edge-to="daughter"><defs>
      <marker id="arrow-standard-father-daughter" markerWidth="10" markerHeight="10" refX="9" refY="3" orient="auto" markerUnits="strokeWidth">
        <polygon points="0,0 0,6 9,3" fill="#48677e" />
      </marker></defs><path d="M 155 372 L 155 407 L 279 407 L 279 512 L 272 652" fill="none" stroke="transparent" stroke-width="20" pointer-events="stroke" class="edge-hit-area" /><path d="M 155 372 L 155 407 L 279 407 L 279 512 L 272 652" fill="none" stroke="#48677e" stroke-width="1" marker-end="url(#arrow-standard-father-daughter)" pointer-events="none" /></g><g data-runiq-edge="mother-son1-9" data-edge-id="mother-son1-9" data-edge-from="mother" data-edge-to="son1"><defs>
      <marker id="arrow-standard-mother-son1" markerWidth="10" markerHeight="10" refX="9" refY="3" orient="auto" markerUnits="strokeWidth">
        <polygon points="0,0 0,6 9,3" fill="#48677e" />
      </marker></defs><path d="M 104 532 L 104 567 L 39 567 L 32 652" fill="none" stroke="transparent" stroke-width="20" pointer-events="stroke" class="edge-hit-area" /><path d="M 104 532 L 104 567 L 39 567 L 32 652" fill="none" stroke="#48677e" stroke-width="1" marker-end="url(#arrow-standard-mother-son1)" pointer-events="none" /></g><g data-runiq-edge="mother-son2-10" data-edge-id="mother-son2-10" data-edge-from="mother" data-edge-to="son2"><defs>
      <marker id="arrow-standard-mother-son2" markerWidth="10" markerHeight="10" refX="9" refY="3" orient="auto" markerUnits="strokeWidth">
        <polygon points="0,0 0,6 9,3" fill="#48677e" />
      </marker></defs><path d="M 104 532 L 104 592 L 145 592 L 152 652" fill="none" stroke="transparent" stroke-width="20" pointer-events="stroke" class="edge-hit-area" /><path d="M 104 532 L 104 592 L 145 592 L 152 652" fill="none" stroke="#48677e" stroke-width="1" marker-end="url(#arrow-standard-mother-son2)" pointer-events="none" /></g><g data-runiq-edge="mother-daughter-11" data-edge-id="mother-daughter-11" data-edge-from="mother" data-edge-to="daughter"><defs>
      <marker id="arrow-standard-mother-daughter" markerWidth="10" markerHeight="10" refX="9" refY="3" orient="auto" markerUnits="strokeWidth">
        <polygon points="0,0 0,6 9,3" fill="#48677e" />
      </marker></defs><path d="M 104 532 L 104 567 L 265 567 L 272 652" fill="none" stroke="transparent" stroke-width="20" pointer-events="stroke" class="edge-hit-area" /><path d="M 104 532 L 104 567 L 265 567 L 272 652" fill="none" stroke="#48677e" stroke-width="1" marker-end="url(#arrow-standard-mother-daughter)" pointer-events="none" /></g><g data-runiq-node="grandfather" data-node-id="grandfather" data-node-shape="pedigreeMale"><rect x="184" y="12" width="40" height="40"
                fill="#5a819e" stroke="#48677e" stroke-width="2"/><text x="204" y="67" 
      text-anchor="middle" 
      dominant-baseline="middle"
      font-family="sans-serif" 
      font-size="12"
      fill="#FFFFFF">
      Grandfather
    </text></g><g data-runiq-node="grandmother" data-node-id="grandmother" data-node-shape="pedigreeFemale"><circle cx="204" cy="192" r="19"
                fill="#73a3bf" stroke="#48677e" stroke-width="2"/><text x="204" y="227" 
      text-anchor="middle" 
      dominant-baseline="middle"
      font-family="sans-serif" 
      font-size="12"
      fill="#FFFFFF">
      Grandmother
    </text></g><g data-runiq-node="father" data-node-id="father" data-node-shape="pedigreeMale"><rect x="135" y="332" width="40" height="40"
                fill="#000" stroke="#48677e" stroke-width="2"/><text x="155" y="387" 
      text-anchor="middle" 
      dominant-baseline="middle"
      font-family="sans-serif" 
      font-size="12"
      fill="#FFFFFF">
      Father
    </text></g><g data-runiq-node="mother" data-node-id="mother" data-node-shape="pedigreeFemale"><circle cx="104" cy="512" r="19"
                fill="#48677e" stroke="#48677e" stroke-width="2"/><text x="104" y="547" 
      text-anchor="middle" 
      dominant-baseline="middle"
      font-family="sans-serif" 
      font-size="12"
      fill="#FFFFFF">
      Mother
    </text></g><g data-runiq-node="uncle" data-node-id="uncle" data-node-shape="pedigreeMale"><rect x="255" y="332" width="40" height="40"
                fill="#364d5f" stroke="#48677e" stroke-width="2"/><line x1="255" y1="332" x2="295" y2="372"
                   stroke="#48677e" stroke-width="2"/><text x="275" y="387" 
      text-anchor="middle" 
      dominant-baseline="middle"
      font-family="sans-serif" 
      font-size="12"
      fill="#FFFFFF">
      Uncle
    </text></g><g data-runiq-node="son1" data-node-id="son1" data-node-shape="pedigreeMale"><rect x="12" y="652" width="40" height="40"
                fill="#000" stroke="#48677e" stroke-width="2"/><text x="32" y="707" 
      text-anchor="middle" 
      dominant-baseline="middle"
      font-family="sans-serif" 
      font-size="12"
      fill="#FFFFFF">
      Son 1
    </text></g><g data-runiq-node="son2" data-node-id="son2" data-node-shape="pedigreeMale"><rect x="132" y="652" width="40" height="40"
                fill="#73a3bf" stroke="#48677e" stroke-width="2"/><text x="152" y="707" 
      text-anchor="middle" 
      dominant-baseline="middle"
      font-family="sans-serif" 
      font-size="12"
      fill="#FFFFFF">
      Son 2
    </text></g><g data-runiq-node="daughter" data-node-id="daughter" data-node-shape="pedigreeFemale"><circle cx="272" cy="672" r="19"
                fill="url(#pedigree-half-fill)" stroke="#48677e" stroke-width="2"/><text x="272" y="707" 
      text-anchor="middle" 
      dominant-baseline="middle"
      font-family="sans-serif" 
      font-size="12"
      fill="#FFFFFF">
      Daughter
    </text></g></svg>