<svg xmlns="http://www.w3.org/2000/svg" 
    width="1200" 
    height="140" 
    viewBox="60 60 1200 140"
    role="img" 
    aria-labelledby="schematic-title">
  <title id="schematic-title">Op-Amp Non-Inverting Amplifier</title>

  <defs>
    <style type="text/css"><![CDATA[
      .schematic-wire { stroke: #000000; stroke-width: 2; fill: none; }
      .schematic-component { color: #000000; }
      .schematic-label { font-family: sans-serif; font-size: 12px; fill: #000000; }
      .schematic-value { font-family: sans-serif; font-size: 10px; fill: #000000; }
      .schematic-net-label { font-family: sans-serif; font-size: 10px; fill: #0066cc; }
    ]]></style>
  </defs>
<g class="schematic-wires">
  <path d="M 100,120 L 710,100" class="schematic-wire"/>
  <text x="715" y="95" class="schematic-net-label">VCC</text>
  <path d="M 280,120 L 710,160" class="schematic-wire"/>
  <text x="715" y="155" class="schematic-net-label">VEE</text>
  <path d="M 380,120 L 520,110" class="schematic-wire"/>
  <text x="525" y="105" class="schematic-net-label">VIN</text>
  <path d="M 580,110 L 680,115" class="schematic-wire"/>
  <text x="685" y="110" class="schematic-net-label">VP</text>
  <path d="M 680,145 L 840,110" class="schematic-wire"/>
  <text x="845" y="105" class="schematic-net-label">VN</text>
  <path d="M 840,110 L 1060,110" class="schematic-wire"/>
  <text x="1065" y="105" class="schematic-net-label">VN</text>
  <path d="M 740,130 L 1000,110" class="schematic-wire"/>
  <text x="1005" y="105" class="schematic-net-label">VOUT</text>
  <path d="M 1000,110 L 1160,110" class="schematic-wire"/>
  <text x="1165" y="105" class="schematic-net-label">VOUT</text>
</g>
<g class="schematic-components">
  <g class="schematic-component" data-ref="V1">

      <circle cx="120" cy="120" r="15" 
        stroke="currentColor" 
        stroke-width="2" 
        fill="white"/>
      <line x1="100" y1="120" x2="105" y2="120" 
        stroke="currentColor" stroke-width="2"/>
      <line x1="135" y1="120" x2="140" y2="120" 
        stroke="currentColor" stroke-width="2"/>
      <text x="114" y="124" 
        font-family="sans-serif" 
        font-size="12" 
        fill="currentColor">+</text>
      <line x1="115" y1="120" x2="109" y2="120" 
        stroke="currentColor" stroke-width="1.5"/>
        <text x="120" y="92" 
        class="schematic-label" 
        text-anchor="middle">V1</text>
    <text x="120" y="155" 
          class="schematic-value" 
          text-anchor="middle">15</text>
  </g>
  <g class="schematic-component" data-ref="V2">

      <circle cx="260" cy="120" r="15" 
        stroke="currentColor" 
        stroke-width="2" 
        fill="white"/>
      <line x1="240" y1="120" x2="245" y2="120" 
        stroke="currentColor" stroke-width="2"/>
      <line x1="275" y1="120" x2="280" y2="120" 
        stroke="currentColor" stroke-width="2"/>
      <text x="254" y="124" 
        font-family="sans-serif" 
        font-size="12" 
        fill="currentColor">+</text>
      <line x1="255" y1="120" x2="249" y2="120" 
        stroke="currentColor" stroke-width="1.5"/>
        <text x="260" y="92" 
        class="schematic-label" 
        text-anchor="middle">V2</text>
    <text x="260" y="155" 
          class="schematic-value" 
          text-anchor="middle">15</text>
  </g>
  <g class="schematic-component" data-ref="V3">

      <circle cx="400" cy="120" r="15" 
        stroke="currentColor" 
        stroke-width="2" 
        fill="white"/>
      <line x1="380" y1="120" x2="385" y2="120" 
        stroke="currentColor" stroke-width="2"/>
      <line x1="415" y1="120" x2="420" y2="120" 
        stroke="currentColor" stroke-width="2"/>
      <text x="394" y="124" 
        font-family="sans-serif" 
        font-size="12" 
        fill="currentColor">+</text>
      <line x1="395" y1="120" x2="389" y2="120" 
        stroke="currentColor" stroke-width="1.5"/>
        <text x="400" y="92" 
        class="schematic-label" 
        text-anchor="middle">V3</text>
    <text x="400" y="155" 
          class="schematic-value" 
          text-anchor="middle">SIN(0 0.1 1k)</text>
  </g>
  <g class="schematic-component" data-ref="R1">

      <path d="M 520,110 l 5,0 l 2.5,-5 l 5,10 l 5,-10 l 5,10 l 5,-10 l 5,10 l 2.5,-5 l 5,0" 
        stroke="currentColor" 
        stroke-width="2" 
        fill="none" 
        stroke-linecap="round" 
        stroke-linejoin="round"/>
        <text x="550" y="92" 
        class="schematic-label" 
        text-anchor="middle">R1</text>
    <text x="550" y="135" 
          class="schematic-value" 
          text-anchor="middle">10k</text>
  </g>
  <g class="schematic-component" data-ref="U1">

      <!-- Triangle body -->
      <path d="M 680,115 L 680,145 L 740,130 Z" 
        fill="white" 
        stroke="currentColor" 
        stroke-width="2"/>
      <!-- + input -->
      <line x1="688" y1="115" x2="694" y2="115" 
        stroke="currentColor" stroke-width="1.5"/>
      <line x1="691" y1="112" x2="691" y2="118" 
        stroke="currentColor" stroke-width="1.5"/>
      <!-- - input -->
      <line x1="688" y1="145" x2="694" y2="145" 
        stroke="currentColor" stroke-width="1.5"/>
      <!-- Power supply markers (optional) -->
      <text x="710" y="98" font-size="10" text-anchor="middle" fill="currentColor">+</text>
      <text x="710" y="168" font-size="10" text-anchor="middle" fill="currentColor">−</text>
        <text x="710" y="92" 
        class="schematic-label" 
        text-anchor="middle">U1</text>
    <text x="710" y="175" 
          class="schematic-value" 
          text-anchor="middle">LM358</text>
  </g>
  <g class="schematic-component" data-ref="R2">

      <path d="M 840,110 l 5,0 l 2.5,-5 l 5,10 l 5,-10 l 5,10 l 5,-10 l 5,10 l 2.5,-5 l 5,0" 
        stroke="currentColor" 
        stroke-width="2" 
        fill="none" 
        stroke-linecap="round" 
        stroke-linejoin="round"/>
        <text x="870" y="92" 
        class="schematic-label" 
        text-anchor="middle">R2</text>
    <text x="870" y="135" 
          class="schematic-value" 
          text-anchor="middle">1k</text>
  </g>
  <g class="schematic-component" data-ref="R3">

      <path d="M 1000,110 l 5,0 l 2.5,-5 l 5,10 l 5,-10 l 5,10 l 5,-10 l 5,10 l 2.5,-5 l 5,0" 
        stroke="currentColor" 
        stroke-width="2" 
        fill="none" 
        stroke-linecap="round" 
        stroke-linejoin="round"/>
        <text x="1030" y="92" 
        class="schematic-label" 
        text-anchor="middle">R3</text>
    <text x="1030" y="135" 
          class="schematic-value" 
          text-anchor="middle">10k</text>
  </g>
  <g class="schematic-component" data-ref="R4">

      <path d="M 1160,110 l 5,0 l 2.5,-5 l 5,10 l 5,-10 l 5,10 l 5,-10 l 5,10 l 2.5,-5 l 5,0" 
        stroke="currentColor" 
        stroke-width="2" 
        fill="none" 
        stroke-linecap="round" 
        stroke-linejoin="round"/>
        <text x="1190" y="92" 
        class="schematic-label" 
        text-anchor="middle">R4</text>
    <text x="1190" y="135" 
          class="schematic-value" 
          text-anchor="middle">10k</text>
  </g>
</g>
<g class="schematic-grounds">

      <line x1="140" y1="125.5" x2="140" y2="137.5" 
        stroke="currentColor" stroke-width="2"/>
      <line x1="130" y1="137.5" x2="150" y2="137.5" 
        stroke="currentColor" stroke-width="2"/>
      <line x1="134" y1="141.5" x2="146" y2="141.5" 
        stroke="currentColor" stroke-width="2"/>
      <line x1="137" y1="145.5" x2="143" y2="145.5" 
        stroke="currentColor" stroke-width="2"/>
    
      <line x1="240" y1="125.5" x2="240" y2="137.5" 
        stroke="currentColor" stroke-width="2"/>
      <line x1="230" y1="137.5" x2="250" y2="137.5" 
        stroke="currentColor" stroke-width="2"/>
      <line x1="234" y1="141.5" x2="246" y2="141.5" 
        stroke="currentColor" stroke-width="2"/>
      <line x1="237" y1="145.5" x2="243" y2="145.5" 
        stroke="currentColor" stroke-width="2"/>
    
      <line x1="420" y1="125.5" x2="420" y2="137.5" 
        stroke="currentColor" stroke-width="2"/>
      <line x1="410" y1="137.5" x2="430" y2="137.5" 
        stroke="currentColor" stroke-width="2"/>
      <line x1="414" y1="141.5" x2="426" y2="141.5" 
        stroke="currentColor" stroke-width="2"/>
      <line x1="417" y1="145.5" x2="423" y2="145.5" 
        stroke="currentColor" stroke-width="2"/>
    
      <line x1="900" y1="115.5" x2="900" y2="127.5" 
        stroke="currentColor" stroke-width="2"/>
      <line x1="890" y1="127.5" x2="910" y2="127.5" 
        stroke="currentColor" stroke-width="2"/>
      <line x1="894" y1="131.5" x2="906" y2="131.5" 
        stroke="currentColor" stroke-width="2"/>
      <line x1="897" y1="135.5" x2="903" y2="135.5" 
        stroke="currentColor" stroke-width="2"/>
    
      <line x1="1220" y1="115.5" x2="1220" y2="127.5" 
        stroke="currentColor" stroke-width="2"/>
      <line x1="1210" y1="127.5" x2="1230" y2="127.5" 
        stroke="currentColor" stroke-width="2"/>
      <line x1="1214" y1="131.5" x2="1226" y2="131.5" 
        stroke="currentColor" stroke-width="2"/>
      <line x1="1217" y1="135.5" x2="1223" y2="135.5" 
        stroke="currentColor" stroke-width="2"/>
    </g>
</svg>