<svg xmlns="http://www.w3.org/2000/svg" width="416.8" height="1145.6" viewBox="0 0 416.8 1145.6" role="img" aria-labelledby="diagram-title" data-id="runiq-diagram">
  <title id="diagram-title">Custom Colors</title>
  <rect x="0" y="0" width="416.8" height="1145.6" fill="#f0f5f8" />
  <defs>
    <marker id="railroad-arrow" markerWidth="8" markerHeight="6" refX="7" refY="3" orient="auto" markerUnits="strokeWidth">
      <path d="M0,0 L8,3 L0,6 Z" fill="#1f2937" />
    </marker>
  </defs>
  <g stroke="#0f172a" stroke-width="1.5" stroke-linecap="round" stroke-linejoin="round"><text x="32" y="36" font-family="sans-serif" font-size="14" fill="#0f172a">Expr</text><g transform="translate(44, 48)"><circle cx="4" cy="61.8" r="4" fill="#1f2937" /><line x1="8" y1="61.8" x2="16" y2="61.8" />
        <rect x="16" y="45.4" width="57.6" height="32.8" rx="6" fill="#d7e5ed" stroke="#0f172a" stroke-dasharray="4 2" />
        <text x="44.8" y="61.8" text-anchor="middle" dominant-baseline="middle"
          font-family="sans-serif" font-size="14" font-style="italic" font-weight="normal" fill="#0f172a">
          Term
        </text>
      
<line x1="73.6" y1="61.8" x2="89.6" y2="61.8" />

        <rect x="121.6" y="20" width="32.4" height="32.8" rx="6" fill="#c7d8f5" stroke="#0f172a" />
        <text x="137.79999999999998" y="36.4" text-anchor="middle" dominant-baseline="middle"
          font-family="sans-serif" font-size="14" font-style="normal" font-weight="600" fill="#0f172a">
          +
        </text>
      
<path d="M 105.6 61.8 L 109.6 61.8 A 4 4 0 0 1 113.6 57.8 L 113.6 40.4 A 4 4 0 0 0 117.6 36.4 L 121.6 36.4" fill="none" />
<path d="M 154 36.4 L 163.6 36.4 A 6 6 0 0 0 169.6 42.4 L 169.6 57.8 A 4 4 0 0 1 173.6 61.8 L 177.6 61.8" fill="none" />

        <rect x="121.6" y="70.8" width="32.4" height="32.8" rx="6" fill="#c7d8f5" stroke="#0f172a" />
        <text x="137.79999999999998" y="87.19999999999999" text-anchor="middle" dominant-baseline="middle"
          font-family="sans-serif" font-size="14" font-style="normal" font-weight="600" fill="#0f172a">
          -
        </text>
      
<path d="M 105.6 61.8 L 109.6 61.8 A 4 4 0 0 0 113.6 65.8 L 113.6 83.19999999999999 A 4 4 0 0 1 117.6 87.19999999999999 L 121.6 87.19999999999999" fill="none" />
<path d="M 154 87.19999999999999 L 163.6 87.19999999999999 A 6 6 0 0 1 169.6 81.19999999999999 L 169.6 65.8 A 4 4 0 0 0 173.6 61.8 L 177.6 61.8" fill="none" />
<line x1="177.6" y1="61.8" x2="193.6" y2="61.8" />

        <rect x="193.6" y="45.4" width="57.6" height="32.8" rx="6" fill="#d7e5ed" stroke="#0f172a" stroke-dasharray="4 2" />
        <text x="222.4" y="61.8" text-anchor="middle" dominant-baseline="middle"
          font-family="sans-serif" font-size="14" font-style="italic" font-weight="normal" fill="#0f172a">
          Term
        </text>
      
<line x1="89.6" y1="61.8" x2="105.6" y2="61.8" />
<line x1="251.2" y1="61.8" x2="267.2" y2="61.8" />
<path d="M 251.2 61.8 L 255.2 61.8 A 4 4 0 0 0 259.2 65.8 L 259.2 107.6 A 6 6 0 0 0 253.2 113.6 L 103.6 113.6 A 6 6 0 0 0 97.6 107.6 L 97.6 65.8 A 4 4 0 0 0 101.6 61.8 L 105.6 61.8" fill="none" />
<path d="M 89.6 61.8 L 89.6 16 A 6 6 0 0 0 95.6 10 L 261.2 10 A 6 6 0 0 0 267.2 16 L 267.2 61.8" fill="none" /><line x1="267.2" y1="61.8" x2="287.2" y2="61.8" marker-end="url(#railroad-arrow)" /></g><text x="32" y="201.6" font-family="sans-serif" font-size="14" fill="#0f172a">Term</text><g transform="translate(44, 213.6)"><circle cx="4" cy="61.8" r="4" fill="#1f2937" /><line x1="8" y1="61.8" x2="16" y2="61.8" />
        <rect x="16" y="45.4" width="74.4" height="32.8" rx="6" fill="#d7e5ed" stroke="#0f172a" stroke-dasharray="4 2" />
        <text x="53.2" y="61.8" text-anchor="middle" dominant-baseline="middle"
          font-family="sans-serif" font-size="14" font-style="italic" font-weight="normal" fill="#0f172a">
          Factor
        </text>
      
<line x1="90.4" y1="61.8" x2="106.4" y2="61.8" />

        <rect x="138.4" y="20" width="32.4" height="32.8" rx="6" fill="#c7d8f5" stroke="#0f172a" />
        <text x="154.6" y="36.4" text-anchor="middle" dominant-baseline="middle"
          font-family="sans-serif" font-size="14" font-style="normal" font-weight="600" fill="#0f172a">
          *
        </text>
      
<path d="M 122.4 61.8 L 126.4 61.8 A 4 4 0 0 1 130.4 57.8 L 130.4 40.4 A 4 4 0 0 0 134.4 36.4 L 138.4 36.4" fill="none" />
<path d="M 170.8 36.4 L 180.4 36.4 A 6 6 0 0 0 186.4 42.4 L 186.4 57.8 A 4 4 0 0 1 190.4 61.8 L 194.4 61.8" fill="none" />

        <rect x="138.4" y="70.8" width="32.4" height="32.8" rx="6" fill="#c7d8f5" stroke="#0f172a" />
        <text x="154.6" y="87.19999999999999" text-anchor="middle" dominant-baseline="middle"
          font-family="sans-serif" font-size="14" font-style="normal" font-weight="600" fill="#0f172a">
          /
        </text>
      
<path d="M 122.4 61.8 L 126.4 61.8 A 4 4 0 0 0 130.4 65.8 L 130.4 83.19999999999999 A 4 4 0 0 1 134.4 87.19999999999999 L 138.4 87.19999999999999" fill="none" />
<path d="M 170.8 87.19999999999999 L 180.4 87.19999999999999 A 6 6 0 0 1 186.4 81.19999999999999 L 186.4 65.8 A 4 4 0 0 0 190.4 61.8 L 194.4 61.8" fill="none" />
<line x1="194.4" y1="61.8" x2="210.4" y2="61.8" />

        <rect x="210.4" y="45.4" width="74.4" height="32.8" rx="6" fill="#d7e5ed" stroke="#0f172a" stroke-dasharray="4 2" />
        <text x="247.60000000000002" y="61.8" text-anchor="middle" dominant-baseline="middle"
          font-family="sans-serif" font-size="14" font-style="italic" font-weight="normal" fill="#0f172a">
          Factor
        </text>
      
<line x1="106.4" y1="61.8" x2="122.4" y2="61.8" />
<line x1="284.8" y1="61.8" x2="300.8" y2="61.8" />
<path d="M 284.8 61.8 L 288.8 61.8 A 4 4 0 0 0 292.8 65.8 L 292.8 107.6 A 6 6 0 0 0 286.8 113.6 L 120.4 113.6 A 6 6 0 0 0 114.4 107.6 L 114.4 65.8 A 4 4 0 0 0 118.4 61.8 L 122.4 61.8" fill="none" />
<path d="M 106.4 61.8 L 106.4 16 A 6 6 0 0 0 112.4 10 L 294.8 10 A 6 6 0 0 0 300.8 16 L 300.8 61.8" fill="none" /><line x1="300.8" y1="61.8" x2="320.8" y2="61.8" marker-end="url(#railroad-arrow)" /></g><text x="32" y="367.2" font-family="sans-serif" font-size="14" fill="#0f172a">Factor</text><g transform="translate(44, 379.2)"><circle cx="4" cy="41.8" r="4" fill="#1f2937" /><line x1="8" y1="41.8" x2="16" y2="41.8" />
        <rect x="32" y="0" width="74.4" height="32.8" rx="6" fill="#d7e5ed" stroke="#0f172a" stroke-dasharray="4 2" />
        <text x="69.2" y="16.4" text-anchor="middle" dominant-baseline="middle"
          font-family="sans-serif" font-size="14" font-style="italic" font-weight="normal" fill="#0f172a">
          Number
        </text>
      
<path d="M 16 41.8 L 20 41.8 A 4 4 0 0 1 24 37.8 L 24 20.4 A 4 4 0 0 0 28 16.4 L 32 16.4" fill="none" />
<path d="M 106.4 16.4 L 188.4 16.4 A 6 6 0 0 0 194.4 22.4 L 194.4 37.8 A 4 4 0 0 1 198.4 41.8 L 202.4 41.8" fill="none" />

        <rect x="32" y="50.79999999999999" width="32.4" height="32.8" rx="6" fill="#c7d8f5" stroke="#0f172a" />
        <text x="48.2" y="67.19999999999999" text-anchor="middle" dominant-baseline="middle"
          font-family="sans-serif" font-size="14" font-style="normal" font-weight="600" fill="#0f172a">
          (
        </text>
      
<line x1="64.4" y1="67.19999999999999" x2="80.4" y2="67.19999999999999" />

        <rect x="80.4" y="50.79999999999999" width="57.6" height="32.8" rx="6" fill="#d7e5ed" stroke="#0f172a" stroke-dasharray="4 2" />
        <text x="109.2" y="67.19999999999999" text-anchor="middle" dominant-baseline="middle"
          font-family="sans-serif" font-size="14" font-style="italic" font-weight="normal" fill="#0f172a">
          Expr
        </text>
      
<line x1="138" y1="67.19999999999999" x2="154" y2="67.19999999999999" />

        <rect x="154" y="50.79999999999999" width="32.4" height="32.8" rx="6" fill="#c7d8f5" stroke="#0f172a" />
        <text x="170.2" y="67.19999999999999" text-anchor="middle" dominant-baseline="middle"
          font-family="sans-serif" font-size="14" font-style="normal" font-weight="600" fill="#0f172a">
          )
        </text>
      
<path d="M 16 41.8 L 20 41.8 A 4 4 0 0 0 24 45.8 L 24 63.19999999999999 A 4 4 0 0 1 28 67.19999999999999 L 32 67.19999999999999" fill="none" />
<path d="M 186.4 67.19999999999999 L 190.4 67.19999999999999 A 4 4 0 0 1 194.4 63.19999999999999 L 194.4 45.8 A 4 4 0 0 0 198.4 41.8 L 202.4 41.8" fill="none" /><line x1="202.4" y1="41.8" x2="222.4" y2="41.8" marker-end="url(#railroad-arrow)" /></g><text x="32" y="492.79999999999995" font-family="sans-serif" font-size="14" fill="#0f172a">Number</text><g transform="translate(44, 504.79999999999995)"><circle cx="4" cy="16.4" r="4" fill="#1f2937" /><line x1="8" y1="16.4" x2="16" y2="16.4" />
        <rect x="32" y="0" width="66" height="32.8" rx="6" fill="#d7e5ed" stroke="#0f172a" stroke-dasharray="4 2" />
        <text x="65" y="16.4" text-anchor="middle" dominant-baseline="middle"
          font-family="sans-serif" font-size="14" font-style="italic" font-weight="normal" fill="#0f172a">
          digit
        </text>
      
<line x1="16" y1="16.4" x2="32" y2="16.4" />
<line x1="98" y1="16.4" x2="114" y2="16.4" />
<path d="M 98 16.4 L 102 16.4 A 4 4 0 0 0 106 20.4 L 106 36.8 A 6 6 0 0 0 100 42.8 L 30 42.8 A 6 6 0 0 0 24 36.8 L 24 20.4 A 4 4 0 0 0 28 16.4 L 32 16.4" fill="none" /><line x1="114" y1="16.4" x2="134" y2="16.4" marker-end="url(#railroad-arrow)" /></g><text x="32" y="587.5999999999999" font-family="sans-serif" font-size="14" fill="#0f172a">digit</text><g transform="translate(44, 599.5999999999999)"><circle cx="4" cy="245.00000000000003" r="4" fill="#1f2937" /><line x1="8" y1="245.00000000000003" x2="16" y2="245.00000000000003" />
        <rect x="32" y="0" width="32.4" height="32.8" rx="6" fill="#cbd8e2" stroke="#0f172a" />
        <text x="48.2" y="16.4" text-anchor="middle" dominant-baseline="middle"
          font-family="sans-serif" font-size="14" font-style="normal" font-weight="600" fill="#0f172a">
          0
        </text>
      
<path d="M 16 245.00000000000003 L 20 245.00000000000003 A 4 4 0 0 1 24 241.00000000000003 L 24 20.4 A 4 4 0 0 0 28 16.4 L 32 16.4" fill="none" />
<path d="M 64.4 16.4 L 74 16.4 A 6 6 0 0 0 80 22.4 L 80 241.00000000000003 A 4 4 0 0 1 84 245.00000000000003 L 88 245.00000000000003" fill="none" />

        <rect x="32" y="50.8" width="32.4" height="32.8" rx="6" fill="#cbd8e2" stroke="#0f172a" />
        <text x="48.2" y="67.19999999999999" text-anchor="middle" dominant-baseline="middle"
          font-family="sans-serif" font-size="14" font-style="normal" font-weight="600" fill="#0f172a">
          1
        </text>
      
<path d="M 16 245.00000000000003 L 20 245.00000000000003 A 4 4 0 0 1 24 241.00000000000003 L 24 71.19999999999999 A 4 4 0 0 0 28 67.19999999999999 L 32 67.19999999999999" fill="none" />
<path d="M 64.4 67.19999999999999 L 74 67.19999999999999 A 6 6 0 0 0 80 73.19999999999999 L 80 241.00000000000003 A 4 4 0 0 1 84 245.00000000000003 L 88 245.00000000000003" fill="none" />

        <rect x="32" y="101.6" width="32.4" height="32.8" rx="6" fill="#cbd8e2" stroke="#0f172a" />
        <text x="48.2" y="118" text-anchor="middle" dominant-baseline="middle"
          font-family="sans-serif" font-size="14" font-style="normal" font-weight="600" fill="#0f172a">
          2
        </text>
      
<path d="M 16 245.00000000000003 L 20 245.00000000000003 A 4 4 0 0 1 24 241.00000000000003 L 24 122 A 4 4 0 0 0 28 118 L 32 118" fill="none" />
<path d="M 64.4 118 L 74 118 A 6 6 0 0 0 80 124 L 80 241.00000000000003 A 4 4 0 0 1 84 245.00000000000003 L 88 245.00000000000003" fill="none" />

        <rect x="32" y="152.39999999999998" width="32.4" height="32.8" rx="6" fill="#cbd8e2" stroke="#0f172a" />
        <text x="48.2" y="168.79999999999998" text-anchor="middle" dominant-baseline="middle"
          font-family="sans-serif" font-size="14" font-style="normal" font-weight="600" fill="#0f172a">
          3
        </text>
      
<path d="M 16 245.00000000000003 L 20 245.00000000000003 A 4 4 0 0 1 24 241.00000000000003 L 24 172.79999999999998 A 4 4 0 0 0 28 168.79999999999998 L 32 168.79999999999998" fill="none" />
<path d="M 64.4 168.79999999999998 L 74 168.79999999999998 A 6 6 0 0 0 80 174.79999999999998 L 80 241.00000000000003 A 4 4 0 0 1 84 245.00000000000003 L 88 245.00000000000003" fill="none" />

        <rect x="32" y="203.2" width="32.4" height="32.8" rx="6" fill="#cbd8e2" stroke="#0f172a" />
        <text x="48.2" y="219.6" text-anchor="middle" dominant-baseline="middle"
          font-family="sans-serif" font-size="14" font-style="normal" font-weight="600" fill="#0f172a">
          4
        </text>
      
<path d="M 16 245.00000000000003 L 20 245.00000000000003 A 4 4 0 0 1 24 241.00000000000003 L 24 223.6 A 4 4 0 0 0 28 219.6 L 32 219.6" fill="none" />
<path d="M 64.4 219.6 L 74 219.6 A 6 6 0 0 0 80 225.6 L 80 241.00000000000003 A 4 4 0 0 1 84 245.00000000000003 L 88 245.00000000000003" fill="none" />

        <rect x="32" y="254" width="32.4" height="32.8" rx="6" fill="#cbd8e2" stroke="#0f172a" />
        <text x="48.2" y="270.4" text-anchor="middle" dominant-baseline="middle"
          font-family="sans-serif" font-size="14" font-style="normal" font-weight="600" fill="#0f172a">
          5
        </text>
      
<path d="M 16 245.00000000000003 L 20 245.00000000000003 A 4 4 0 0 0 24 249.00000000000003 L 24 266.4 A 4 4 0 0 1 28 270.4 L 32 270.4" fill="none" />
<path d="M 64.4 270.4 L 74 270.4 A 6 6 0 0 1 80 264.4 L 80 249.00000000000003 A 4 4 0 0 0 84 245.00000000000003 L 88 245.00000000000003" fill="none" />

        <rect x="32" y="304.8" width="32.4" height="32.8" rx="6" fill="#cbd8e2" stroke="#0f172a" />
        <text x="48.2" y="321.2" text-anchor="middle" dominant-baseline="middle"
          font-family="sans-serif" font-size="14" font-style="normal" font-weight="600" fill="#0f172a">
          6
        </text>
      
<path d="M 16 245.00000000000003 L 20 245.00000000000003 A 4 4 0 0 0 24 249.00000000000003 L 24 317.2 A 4 4 0 0 1 28 321.2 L 32 321.2" fill="none" />
<path d="M 64.4 321.2 L 74 321.2 A 6 6 0 0 1 80 315.2 L 80 249.00000000000003 A 4 4 0 0 0 84 245.00000000000003 L 88 245.00000000000003" fill="none" />

        <rect x="32" y="355.6" width="32.4" height="32.8" rx="6" fill="#cbd8e2" stroke="#0f172a" />
        <text x="48.2" y="372" text-anchor="middle" dominant-baseline="middle"
          font-family="sans-serif" font-size="14" font-style="normal" font-weight="600" fill="#0f172a">
          7
        </text>
      
<path d="M 16 245.00000000000003 L 20 245.00000000000003 A 4 4 0 0 0 24 249.00000000000003 L 24 368 A 4 4 0 0 1 28 372 L 32 372" fill="none" />
<path d="M 64.4 372 L 74 372 A 6 6 0 0 1 80 366 L 80 249.00000000000003 A 4 4 0 0 0 84 245.00000000000003 L 88 245.00000000000003" fill="none" />

        <rect x="32" y="406.40000000000003" width="32.4" height="32.8" rx="6" fill="#cbd8e2" stroke="#0f172a" />
        <text x="48.2" y="422.8" text-anchor="middle" dominant-baseline="middle"
          font-family="sans-serif" font-size="14" font-style="normal" font-weight="600" fill="#0f172a">
          8
        </text>
      
<path d="M 16 245.00000000000003 L 20 245.00000000000003 A 4 4 0 0 0 24 249.00000000000003 L 24 418.8 A 4 4 0 0 1 28 422.8 L 32 422.8" fill="none" />
<path d="M 64.4 422.8 L 74 422.8 A 6 6 0 0 1 80 416.8 L 80 249.00000000000003 A 4 4 0 0 0 84 245.00000000000003 L 88 245.00000000000003" fill="none" />

        <rect x="32" y="457.20000000000005" width="32.4" height="32.8" rx="6" fill="#cbd8e2" stroke="#0f172a" />
        <text x="48.2" y="473.6" text-anchor="middle" dominant-baseline="middle"
          font-family="sans-serif" font-size="14" font-style="normal" font-weight="600" fill="#0f172a">
          9
        </text>
      
<path d="M 16 245.00000000000003 L 20 245.00000000000003 A 4 4 0 0 0 24 249.00000000000003 L 24 469.6 A 4 4 0 0 1 28 473.6 L 32 473.6" fill="none" />
<path d="M 64.4 473.6 L 74 473.6 A 6 6 0 0 1 80 467.6 L 80 249.00000000000003 A 4 4 0 0 0 84 245.00000000000003 L 88 245.00000000000003" fill="none" /><line x1="88" y1="245.00000000000003" x2="108" y2="245.00000000000003" marker-end="url(#railroad-arrow)" /></g></g></svg>