<svg xmlns="http://www.w3.org/2000/svg" xmlns:xlink="http://www.w3.org/1999/xlink" 
    width="665.2" height="388" 
    viewBox="0 0 665.2 388"
    role="img" aria-labelledby="diagram-title" data-id="runiq-diagram">
<title id="diagram-title">Diagram</title><defs><style type="text/css"><![CDATA[.runiq-node-text { font-family: sans-serif; font-size: 14px; }.runiq-edge-text { font-family: sans-serif; font-size: 12px; }.runiq-container-label { font-family: sans-serif; font-size: 16px; font-weight: bold; fill: #666; }]]></style><pattern id="pedigree-half-fill" width="40" height="40" patternUnits="userSpaceOnUse"><rect x="0" y="0" width="20" height="40" fill="#000"/><rect x="20" y="0" width="20" height="40" fill="#fff"/></pattern></defs><g data-runiq-container="pool1" data-container-id="pool1"><rect x="0" y="0" width="645.2" height="144" fill="#f5f5f5" stroke="#ddd" stroke-width="2"/><line x1="30" y1="0" x2="30" y2="144" stroke="#ddd" stroke-width="2"/><g transform="rotate(-90 15 72)"><text x="15" y="72" dominant-baseline="middle" text-anchor="middle" font-family="sans-serif" font-size="14" fill="#000">Customer</text></g></g><g data-runiq-container="pool2" data-container-id="pool2"><rect x="0" y="224" width="464" height="144" fill="#f5f5f5" stroke="#ddd" stroke-width="2"/><line x1="30" y1="224" x2="30" y2="368" stroke="#ddd" stroke-width="2"/><g transform="rotate(-90 15 296)"><text x="15" y="296" dominant-baseline="middle" text-anchor="middle" font-family="sans-serif" font-size="14" fill="#000">System</text></g></g><g data-runiq-edge="start-task1-0" data-edge-id="start-task1-0" data-edge-from="start" data-edge-to="task1"><defs>
      <marker id="arrow-standard-start-task1" markerWidth="10" markerHeight="10" refX="9" refY="3" orient="auto" markerUnits="strokeWidth">
        <polygon points="0,0 0,6 9,3" fill="#48677e" />
      </marker></defs><path d="M 82 72 L 122 72 L 122 72 L 162 72" fill="none" stroke="transparent" stroke-width="20" pointer-events="stroke" class="edge-hit-area" /><path d="M 82 72 L 122 72 L 122 72 L 162 72" fill="none" stroke="#48677e" stroke-width="1" marker-end="url(#arrow-standard-start-task1)" pointer-events="none" /></g><g data-runiq-edge="task1-task2-1" data-edge-id="task1-task2-1" data-edge-from="task1" data-edge-to="task2"><defs>
      <marker id="arrow-standard-task1-task2" markerWidth="10" markerHeight="10" refX="9" refY="3" orient="auto" markerUnits="strokeWidth">
        <polygon points="0,0 0,6 9,3" fill="#48677e" />
      </marker></defs><path d="M 278.4 72 L 318.4 72 L 318.4 72 L 358.4 72" fill="none" stroke="transparent" stroke-width="20" pointer-events="stroke" class="edge-hit-area" /><path d="M 278.4 72 L 318.4 72 L 318.4 72 L 358.4 72" fill="none" stroke="#48677e" stroke-width="1" marker-end="url(#arrow-standard-task1-task2)" pointer-events="none" /></g><g data-runiq-edge="task2-end-2" data-edge-id="task2-end-2" data-edge-from="task2" data-edge-to="end"><defs>
      <marker id="arrow-standard-task2-end" markerWidth="10" markerHeight="10" refX="9" refY="3" orient="auto" markerUnits="strokeWidth">
        <polygon points="0,0 0,6 9,3" fill="#48677e" />
      </marker></defs><path d="M 483.2 72 L 523.2 72 L 523.2 72 L 563.2 72" fill="none" stroke="transparent" stroke-width="20" pointer-events="stroke" class="edge-hit-area" /><path d="M 483.2 72 L 523.2 72 L 523.2 72 L 563.2 72" fill="none" stroke="#48677e" stroke-width="1" marker-end="url(#arrow-standard-task2-end)" pointer-events="none" /></g><g data-runiq-edge="process-notify-3" data-edge-id="process-notify-3" data-edge-from="process" data-edge-to="notify"><defs>
      <marker id="arrow-standard-process-notify" markerWidth="10" markerHeight="10" refX="9" refY="3" orient="auto" markerUnits="strokeWidth">
        <polygon points="0,0 0,6 9,3" fill="#48677e" />
      </marker></defs><path d="M 175.2 296 L 215.2 296 L 215.2 296 L 255.2 296" fill="none" stroke="transparent" stroke-width="20" pointer-events="stroke" class="edge-hit-area" /><path d="M 175.2 296 L 215.2 296 L 215.2 296 L 255.2 296" fill="none" stroke="#48677e" stroke-width="1" marker-end="url(#arrow-standard-process-notify)" pointer-events="none" /></g><g data-runiq-edge="task1-process" data-edge-id="task1-process" data-edge-from="task1" data-edge-to="process"><defs>
      <marker id="arrow-standard-task1-process" markerWidth="10" markerHeight="10" refX="9" refY="3" orient="auto" markerUnits="strokeWidth">
        <polygon points="0,0 0,6 9,3" fill="#48677e" />
      </marker></defs><path d="M 220.2 42 L 220.2 184 L 108.6 184 L 108.6 266" fill="none" stroke="transparent" stroke-width="20" pointer-events="stroke" class="edge-hit-area" /><path d="M 220.2 42 L 220.2 184 L 108.6 184 L 108.6 266" fill="none" stroke="#48677e" stroke-width="1" marker-end="url(#arrow-standard-task1-process)" pointer-events="none" /><text x="108.6" y="184" text-anchor="middle" dominant-baseline="middle" class="runiq-edge-text">Order Data</text></g><g data-runiq-node="start" data-node-id="start" data-node-shape="bpmnEvent"><circle cx="62" cy="72" r="19" fill="#5a819e" stroke="#48677e" stroke-width="1"/><text x="62" y="108" 
      text-anchor="middle" 
      dominant-baseline="middle"
      font-family="sans-serif" 
      font-size="11.9"
      fill="#FFFFFF">
      Start
    </text></g><g data-runiq-node="task1" data-node-id="task1" data-node-shape="bpmnTask"><rect x="162" y="42" width="116.4" height="60" fill="#73a3bf" stroke="#48677e" stroke-width="2" rx="8" ry="8"/><text x="220.2" y="76.66666666666667" 
      text-anchor="middle" 
      dominant-baseline="middle"
      font-family="sans-serif" 
      font-size="14"
      fill="#FFFFFF">
      Place Order
    </text></g><g data-runiq-node="task2" data-node-id="task2" data-node-shape="bpmnTask"><rect x="358.4" y="42" width="124.80000000000001" height="60" fill="#96bacf" stroke="#48677e" stroke-width="2" rx="8" ry="8"/><text x="420.79999999999995" y="76.66666666666667" 
      text-anchor="middle" 
      dominant-baseline="middle"
      font-family="sans-serif" 
      font-size="14"
      fill="#FFFFFF">
      Make Payment
    </text></g><g data-runiq-node="end" data-node-id="end" data-node-shape="bpmnEvent"><circle cx="583.2" cy="72" r="17.5" fill="#48677e" stroke="#48677e" stroke-width="5"/><text x="583.2" y="108" 
      text-anchor="middle" 
      dominant-baseline="middle"
      font-family="sans-serif" 
      font-size="11.9"
      fill="#FFFFFF">
      End
    </text></g><g data-runiq-node="process" data-node-id="process" data-node-shape="bpmnTask"><rect x="42" y="266" width="133.2" height="60" fill="#364d5f" stroke="#48677e" stroke-width="2" rx="8" ry="8"/><text x="108.6" y="300.6666666666667" 
      text-anchor="middle" 
      dominant-baseline="middle"
      font-family="sans-serif" 
      font-size="14"
      fill="#FFFFFF">
      Process Order
    </text></g><g data-runiq-node="notify" data-node-id="notify" data-node-shape="bpmnTask"><rect x="255.2" y="266" width="166.8" height="60" fill="#5a819e" stroke="#48677e" stroke-width="2" rx="8" ry="8"/><text x="338.6" y="300.6666666666667" 
      text-anchor="middle" 
      dominant-baseline="middle"
      font-family="sans-serif" 
      font-size="14"
      fill="#FFFFFF">
      Send Confirmation
    </text></g></svg>