<svg xmlns="http://www.w3.org/2000/svg" xmlns:xlink="http://www.w3.org/1999/xlink" 
    width="862.4000000000001" height="222.8" 
    viewBox="0 0 862.4000000000001 222.8"
    role="img" aria-labelledby="diagram-title"><title id="diagram-title">Auth Flow</title><defs><style type="text/css"><![CDATA[.runiq-node-text { font-family: sans-serif; font-size: 14px; }.runiq-edge-text { font-family: sans-serif; font-size: 12px; }.runiq-container-label { font-family: sans-serif; font-size: 16px; font-weight: bold; fill: #666; }]]></style><pattern id="pedigree-half-fill" width="40" height="40" patternUnits="userSpaceOnUse"><rect x="0" y="0" width="20" height="40" fill="#000"/><rect x="20" y="0" width="20" height="40" fill="#fff"/></pattern></defs><g data-runiq-edge="User-Landing"><defs>
      <marker id="arrow-standard-User-Landing" markerWidth="10" markerHeight="10" refX="9" refY="3" orient="auto" markerUnits="strokeWidth">
        <polygon points="0,0 0,6 9,3" fill="#333" />
      </marker></defs><path d="M 94.80000000000001 52.4 L 169.8 52.4 L 169.8 52.4 L 244.8 52.4" fill="none" stroke="#333" stroke-width="1" marker-end="url(#arrow-standard-User-Landing)" /><text x="169.8" y="52.4" text-anchor="middle" dominant-baseline="middle" class="runiq-edge-text">visits</text></g><g data-runiq-edge="Landing-Check"><defs>
      <marker id="arrow-standard-Landing-Check" markerWidth="10" markerHeight="10" refX="9" refY="3" orient="auto" markerUnits="strokeWidth">
        <polygon points="0,0 0,6 9,3" fill="#333" />
      </marker></defs><path d="M 369.6 52.4 L 429.6 52.4 L 429.6 52 L 489.6 52" fill="none" stroke="#333" stroke-width="1" marker-end="url(#arrow-standard-Landing-Check)" /></g><g data-runiq-edge="Check-Welcome"><defs>
      <marker id="arrow-standard-Check-Welcome" markerWidth="10" markerHeight="10" refX="9" refY="3" orient="auto" markerUnits="strokeWidth">
        <polygon points="0,0 0,6 9,3" fill="#333" />
      </marker></defs><path d="M 609.6 52 L 669.6 52 L 669.6 42 L 729.6 42" fill="none" stroke="#333" stroke-width="1" marker-end="url(#arrow-standard-Check-Welcome)" /><text x="669.6" y="42" text-anchor="middle" dominant-baseline="middle" class="runiq-edge-text">yes</text></g><g data-runiq-edge="Check-Pricing"><defs>
      <marker id="arrow-standard-Check-Pricing" markerWidth="10" markerHeight="10" refX="9" refY="3" orient="auto" markerUnits="strokeWidth">
        <polygon points="0,0 0,6 9,3" fill="#333" />
      </marker></defs><path d="M 609.6 52 L 644.6 52 L 644.6 177 L 729.6 177.4" fill="none" stroke="#333" stroke-width="1" marker-end="url(#arrow-standard-Check-Pricing)" /><text x="644.6" y="177" text-anchor="middle" dominant-baseline="middle" class="runiq-edge-text">no</text></g><g data-runiq-node="User">
      <!-- Actor head -->
      <circle cx="53.400000000000006" cy="32" r="15" 
              fill="#f0f0f0" stroke="#333" stroke-width="1" />
      
      <!-- Actor body -->
      <rect x="17" y="52" width="72.80000000000001" height="30.799999999999997"
            rx="5" fill="#f0f0f0" stroke="#333" stroke-width="1" />
      
      <!-- Label -->
      <text x="53.400000000000006" y="67.4" 
      text-anchor="middle" 
      dominant-baseline="middle"
      font-family="sans-serif" 
      font-size="14"
      fill="#000">
      Visitor
    </text>
    </g><g data-runiq-node="Landing">
      <rect x="244.8" y="32" width="124.80000000000001" height="40.8"
            rx="8" ry="8" fill="#f0f0f0" stroke="#333" stroke-width="1" />
      
      <text x="307.20000000000005" y="52.4" 
      text-anchor="middle" 
      dominant-baseline="middle"
      font-family="sans-serif" 
      font-size="14"
      fill="#000">
      Landing Page
    </text>
    </g><g data-runiq-node="Check">
      <polygon points="549.6,22 609.6,52 549.6,82 489.6,52"
               fill="#fff7e6" stroke="#aa7700" stroke-width="1" />
      
      <text x="549.6" y="52" 
      text-anchor="middle" 
      dominant-baseline="middle"
      font-family="sans-serif" 
      font-size="14"
      fill="#000">
      Signed up?
    </text>
    </g><g data-runiq-node="Welcome">
      <polygon points="744.6,12 814.6,12 829.6,42 814.6,72 744.6,72 729.6,42" 
               fill="#f0f0f0" stroke="#333" stroke-width="1" />
      
      <text x="779.6" y="42" 
      text-anchor="middle" 
      dominant-baseline="middle"
      font-family="sans-serif" 
      font-size="14"
      fill="#000">
      Welcome
    </text>
    </g><a xlink:href="/pricing">
      <g data-runiq-node="Pricing">
      <path d="M 729.6 152 L 802.4000000000001 152 L 812.4000000000001 162 L 812.4000000000001 202.8 L 729.6 202.8 Z M 802.4000000000001 152 L 802.4000000000001 162 L 812.4000000000001 162" fill="#f0f0f0" stroke="#333" stroke-width="1" />
      
      <text x="771" y="177.4" 
      text-anchor="middle" 
      dominant-baseline="middle"
      font-family="sans-serif" 
      font-size="14"
      fill="#000">
      Pricing
    </text>
    <title>See pricing</title></g>
    </a></svg>