<svg xmlns="http://www.w3.org/2000/svg" xmlns:xlink="http://www.w3.org/1999/xlink" 
    width="445.8" height="659" 
    viewBox="0 0 445.8 659"
    role="img" aria-labelledby="diagram-title" data-id="runiq-diagram">
<title id="diagram-title">Diagram</title><defs><style type="text/css"><![CDATA[.runiq-node-text { font-family: sans-serif; font-size: 14px; }.runiq-edge-text { font-family: sans-serif; font-size: 12px; }.runiq-container-label { font-family: sans-serif; font-size: 16px; font-weight: bold; fill: #666; }]]></style><pattern id="pedigree-half-fill" width="40" height="40" patternUnits="userSpaceOnUse"><rect x="0" y="0" width="20" height="40" fill="#000"/><rect x="20" y="0" width="20" height="40" fill="#fff"/></pattern></defs><g data-runiq-container="vpc1" data-container-id="vpc1"><g><rect x="12" y="238" 
                   width="413.8" height="401" 
                   fill="#E6F3FF" 
                   stroke="#147EB8" 
                   stroke-width="2" 
                   stroke-dasharray="10,5" 
                   rx="8" ry="8"/><circle cx="37" cy="268" r="8" fill="#147EB8"/><circle cx="47" cy="263" r="10" fill="#147EB8"/><circle cx="57" cy="268" r="8" fill="#147EB8"/><rect x="37" y="268" width="20" height="8" fill="#147EB8"/><text x="72" y="263" 
                      fill="#147EB8" 
                      font-size="16" 
                      font-weight="bold" 
                      font-family="Arial">Production VPC</text></g></g><g data-runiq-edge="ec2_1-rds-0" data-edge-id="ec2_1-rds-0" data-edge-from="ec2_1" data-edge-to="rds"><defs>
      <marker id="arrow-standard-ec2_1-rds" markerWidth="10" markerHeight="10" refX="9" refY="3" orient="auto" markerUnits="strokeWidth">
        <polygon points="0,0 0,6 9,3" fill="#48677e" />
      </marker></defs><path d="M 321.4 386 L 321.4 446 L 132 446 L 114 481" fill="none" stroke="transparent" stroke-width="20" pointer-events="stroke" class="edge-hit-area" /><path d="M 321.4 386 L 321.4 446 L 132 446 L 114 481" fill="none" stroke="#48677e" stroke-width="1" marker-end="url(#arrow-standard-ec2_1-rds)" pointer-events="none" /><text x="132" y="446" text-anchor="middle" dominant-baseline="middle" class="runiq-edge-text">DB Query</text></g><g data-runiq-edge="ec2_2-rds-1" data-edge-id="ec2_2-rds-1" data-edge-from="ec2_2" data-edge-to="rds"><defs>
      <marker id="arrow-standard-ec2_2-rds" markerWidth="10" markerHeight="10" refX="9" refY="3" orient="auto" markerUnits="strokeWidth">
        <polygon points="0,0 0,6 9,3" fill="#48677e" />
      </marker></defs><path d="M 116.4 386 L 116.4 433.5 L 114 433.5 L 114 481" fill="none" stroke="transparent" stroke-width="20" pointer-events="stroke" class="edge-hit-area" /><path d="M 116.4 386 L 116.4 433.5 L 114 433.5 L 114 481" fill="none" stroke="#48677e" stroke-width="1" marker-end="url(#arrow-standard-ec2_2-rds)" pointer-events="none" /><text x="114" y="433.5" text-anchor="middle" dominant-baseline="middle" class="runiq-edge-text">DB Query</text></g><g data-runiq-edge="ec2_1-s3-2" data-edge-id="ec2_1-s3-2" data-edge-from="ec2_1" data-edge-to="s3"><defs>
      <marker id="arrow-standard-ec2_1-s3" markerWidth="10" markerHeight="10" refX="9" refY="3" orient="auto" markerUnits="strokeWidth">
        <polygon points="0,0 0,6 9,3" fill="#48677e" />
      </marker></defs><path d="M 321.4 386 L 321.4 421 L 337 421 L 314.6 481" fill="none" stroke="transparent" stroke-width="20" pointer-events="stroke" class="edge-hit-area" /><path d="M 321.4 386 L 321.4 421 L 337 421 L 314.6 481" fill="none" stroke="#48677e" stroke-width="1" marker-end="url(#arrow-standard-ec2_1-s3)" pointer-events="none" /><text x="337" y="421" text-anchor="middle" dominant-baseline="middle" class="runiq-edge-text">Read Assets</text></g><g data-runiq-edge="ec2_2-s3-3" data-edge-id="ec2_2-s3-3" data-edge-from="ec2_2" data-edge-to="s3"><defs>
      <marker id="arrow-standard-ec2_2-s3" markerWidth="10" markerHeight="10" refX="9" refY="3" orient="auto" markerUnits="strokeWidth">
        <polygon points="0,0 0,6 9,3" fill="#48677e" />
      </marker></defs><path d="M 116.4 386 L 116.4 421 L 292 421 L 314.6 481" fill="none" stroke="transparent" stroke-width="20" pointer-events="stroke" class="edge-hit-area" /><path d="M 116.4 386 L 116.4 421 L 292 421 L 314.6 481" fill="none" stroke="#48677e" stroke-width="1" marker-end="url(#arrow-standard-ec2_2-s3)" pointer-events="none" /><text x="292" y="421" text-anchor="middle" dominant-baseline="middle" class="runiq-edge-text">Read Assets</text></g><g data-runiq-edge="api-ec2_1" data-edge-id="api-ec2_1" data-edge-from="api" data-edge-to="ec2_1"><defs>
      <marker id="arrow-standard-api-ec2_1" markerWidth="10" markerHeight="10" refX="9" refY="3" orient="auto" markerUnits="strokeWidth">
        <polygon points="0,0 0,6 9,3" fill="#48677e" />
      </marker></defs><path d="M 133 12 L 133 199 L 321.4 199 L 321.4 280" fill="none" stroke="transparent" stroke-width="20" pointer-events="stroke" class="edge-hit-area" /><path d="M 133 12 L 133 199 L 321.4 199 L 321.4 280" fill="none" stroke="#48677e" stroke-width="1" marker-end="url(#arrow-standard-api-ec2_1)" pointer-events="none" /><text x="321.4" y="199" text-anchor="middle" dominant-baseline="middle" class="runiq-edge-text">HTTP</text></g><g data-runiq-edge="api-ec2_2" data-edge-id="api-ec2_2" data-edge-from="api" data-edge-to="ec2_2"><defs>
      <marker id="arrow-standard-api-ec2_2" markerWidth="10" markerHeight="10" refX="9" refY="3" orient="auto" markerUnits="strokeWidth">
        <polygon points="0,0 0,6 9,3" fill="#48677e" />
      </marker></defs><path d="M 133 12 L 133 199 L 116.4 199 L 116.4 280" fill="none" stroke="transparent" stroke-width="20" pointer-events="stroke" class="edge-hit-area" /><path d="M 133 12 L 133 199 L 116.4 199 L 116.4 280" fill="none" stroke="#48677e" stroke-width="1" marker-end="url(#arrow-standard-api-ec2_2)" pointer-events="none" /><text x="116.4" y="199" text-anchor="middle" dominant-baseline="middle" class="runiq-edge-text">HTTP</text></g><g data-runiq-edge="lambda-rds" data-edge-id="lambda-rds" data-edge-from="lambda" data-edge-to="rds"><defs>
      <marker id="arrow-standard-lambda-rds" markerWidth="10" markerHeight="10" refX="9" refY="3" orient="auto" markerUnits="strokeWidth">
        <polygon points="0,0 0,6 9,3" fill="#48677e" />
      </marker></defs><path d="M 325.2 12 L 325.2 302 L 114 302 L 168 539" fill="none" stroke="transparent" stroke-width="20" pointer-events="stroke" class="edge-hit-area" /><path d="M 325.2 12 L 325.2 302 L 114 302 L 168 539" fill="none" stroke="#48677e" stroke-width="1" marker-end="url(#arrow-standard-lambda-rds)" pointer-events="none" /><text x="114" y="302" text-anchor="middle" dominant-baseline="middle" class="runiq-edge-text">Write</text></g><g data-runiq-node="ec2_1" data-node-id="ec2_1" data-node-shape="awsEc2"><g><path d="M 321.4 292 
                       L 351.4 307 
                       L 351.4 337 
                       L 321.4 352 
                       L 291.4 337 
                       L 291.4 307 Z" fill="#FF9900" stroke="#232F3E" stroke-width="2"/><path d="M 321.4 352 
                         L 351.4 337 
                         L 351.4 352 
                         L 321.4 367 Z" fill="#FF9900" stroke="#232F3E" stroke-width="2" opacity="0.8"/><path d="M 291.4 337 
                        L 321.4 352 
                        L 321.4 367 
                        L 291.4 352 Z" fill="#FF9900" stroke="#232F3E" stroke-width="2" opacity="0.6"/><text x="321.4" y="382" 
      text-anchor="middle" 
      dominant-baseline="middle"
      font-family="sans-serif" 
      font-size="14"
      fill="#232F3E">
      Web Server 1
    </text></g></g><g data-runiq-node="ec2_2" data-node-id="ec2_2" data-node-shape="awsEc2"><g><path d="M 116.4 292 
                       L 146.4 307 
                       L 146.4 337 
                       L 116.4 352 
                       L 86.4 337 
                       L 86.4 307 Z" fill="#FF9900" stroke="#232F3E" stroke-width="2"/><path d="M 116.4 352 
                         L 146.4 337 
                         L 146.4 352 
                         L 116.4 367 Z" fill="#FF9900" stroke="#232F3E" stroke-width="2" opacity="0.8"/><path d="M 86.4 337 
                        L 116.4 352 
                        L 116.4 367 
                        L 86.4 352 Z" fill="#FF9900" stroke="#232F3E" stroke-width="2" opacity="0.6"/><text x="116.4" y="382" 
      text-anchor="middle" 
      dominant-baseline="middle"
      font-family="sans-serif" 
      font-size="14"
      fill="#232F3E">
      Web Server 2
    </text></g></g><g data-runiq-node="rds" data-node-id="rds" data-node-shape="awsRds"><g><ellipse cx="114" cy="504.6666666666667" 
                   rx="30" ry="11.666666666666666" 
                   fill="#3F5BE7" stroke="#232F3E" stroke-width="2"/><rect x="84" y="504.6666666666667" 
                   width="60" height="46.66666666666667" 
                   fill="#3F5BE7" stroke="none"/><line x1="84" y1="504.6666666666667" 
                   x2="84" y2="551.3333333333334" 
                   stroke="#232F3E" stroke-width="2"/><line x1="144" y1="504.6666666666667" 
                   x2="144" y2="551.3333333333334" 
                   stroke="#232F3E" stroke-width="2"/><ellipse cx="114" cy="521" 
                   rx="30" ry="11.666666666666666" 
                   fill="none" stroke="#232F3E" stroke-width="1"/><ellipse cx="114" cy="535" 
                   rx="30" ry="11.666666666666666" 
                   fill="none" stroke="#232F3E" stroke-width="1"/><ellipse cx="114" cy="551.3333333333334" 
                   rx="30" ry="11.666666666666666" 
                   fill="#3F5BE7" stroke="#232F3E" stroke-width="2"/><text x="114" y="593" 
      text-anchor="middle" 
      dominant-baseline="middle"
      font-family="sans-serif" 
      font-size="14"
      fill="#232F3E">
      PostgreSQL
    </text></g></g><g data-runiq-node="s3" data-node-id="s3" data-node-shape="awsS3"><g><ellipse cx="314.6" cy="503" 
                   rx="30" ry="10" 
                   fill="#569A31" stroke="#232F3E" stroke-width="2"/><rect x="284.6" y="503" 
                   width="60" height="40" 
                   fill="#569A31" stroke="none"/><line x1="284.6" y1="503" 
                   x2="284.6" y2="543" 
                   stroke="#232F3E" stroke-width="2"/><line x1="344.6" y1="503" 
                   x2="344.6" y2="543" 
                   stroke="#232F3E" stroke-width="2"/><ellipse cx="314.6" cy="543" 
                   rx="30" ry="10" 
                   fill="#569A31" stroke="#232F3E" stroke-width="2"/><text x="314.6" y="583" 
      text-anchor="middle" 
      dominant-baseline="middle"
      font-family="sans-serif" 
      font-size="14"
      fill="#232F3E">
      Assets Bucket
    </text></g></g><g data-runiq-node="api" data-node-id="api" data-node-shape="awsApiGateway"><g><polygon points="163,54 148,79.98076211353316 118,79.98076211353316 103,54.00000000000001 117.99999999999999,28.019237886466847 147.99999999999997,28.01923788646683" 
                   fill="#945BB3" 
                   stroke="#232F3E" 
                   stroke-width="2"/><path d="M 112 54 
                        L 121 49.5 
                        L 121 58.5 Z" 
                   fill="white"/><path d="M 154 54 
                        L 145 49.5 
                        L 145 58.5 Z" 
                   fill="white"/><circle cx="133" cy="54" r="9" fill="white"/><text x="133" y="114" 
      text-anchor="middle" 
      dominant-baseline="middle"
      font-family="sans-serif" 
      font-size="14"
      fill="#232F3E">
      Public API
    </text></g></g><g data-runiq-node="lambda" data-node-id="lambda" data-node-shape="awsLambda"><g><rect x="295.2" y="24" 
                   width="60" height="60" 
                   rx="8" ry="8" 
                   fill="#FF9900" stroke="#232F3E" stroke-width="2"/><text x="325.2" y="66" 
                   text-anchor="middle" 
                   fill="white" 
                   font-size="36" 
                   font-weight="bold" 
                   font-family="Arial">λ</text><text x="325.2" y="114" 
      text-anchor="middle" 
      dominant-baseline="middle"
      font-family="sans-serif" 
      font-size="14"
      fill="#232F3E">
      ProcessData
    </text></g></g></svg>