<svg xmlns="http://www.w3.org/2000/svg" xmlns:xlink="http://www.w3.org/1999/xlink" 
    width="152" height="312" 
    viewBox="0 0 152 312"
    role="img" aria-labelledby="diagram-title" data-id="runiq-diagram">
<title id="diagram-title">Diagram</title><defs><style type="text/css"><![CDATA[.runiq-node-text { font-family: sans-serif; font-size: 14px; }.runiq-edge-text { font-family: sans-serif; font-size: 12px; }.runiq-container-label { font-family: sans-serif; font-size: 16px; font-weight: bold; fill: #666; }]]></style><pattern id="pedigree-half-fill" width="40" height="40" patternUnits="userSpaceOnUse"><rect x="0" y="0" width="20" height="40" fill="#000"/><rect x="20" y="0" width="20" height="40" fill="#fff"/></pattern></defs><g data-runiq-edge="speed-temp-0" data-edge-id="speed-temp-0" data-edge-from="speed" data-edge-to="temp"><defs>
      <marker id="arrow-standard-speed-temp" markerWidth="10" markerHeight="10" refX="9" refY="3" orient="auto" markerUnits="strokeWidth">
        <polygon points="0,0 0,6 9,3" fill="#48677e" />
      </marker></defs><path d="M 72 92 L 72 152 L 72 152 L 72 212" fill="none" stroke="transparent" stroke-width="20" pointer-events="stroke" class="edge-hit-area" /><path d="M 72 92 L 72 152 L 72 152 L 72 212" fill="none" stroke="#48677e" stroke-width="1" marker-end="url(#arrow-standard-speed-temp)" pointer-events="none" /></g><g data-runiq-node="speed" data-node-id="speed" data-node-shape="gauge">
      <!-- Gauge body -->
      <path d="M 72 24 A 32 32 0 0 1 72 88" stroke="#48677e" stroke-width="1" fill="none" />
      <line x1="72" y1="30" x2="72" y2="26" stroke="#48677e" stroke-width="1" />
      <line x1="90.38477631085024" y1="37.615223689149765" x2="93.21320343559643" y2="34.78679656440357" stroke="#48677e" stroke-width="1" />
      <line x1="98" y1="56" x2="102" y2="56" stroke="#48677e" stroke-width="1" />
      <line x1="90.38477631085024" y1="74.38477631085024" x2="93.21320343559643" y2="77.21320343559643" stroke="#48677e" stroke-width="1" />
      <line x1="72" y1="82" x2="72" y2="86" stroke="#48677e" stroke-width="1" />

      <!-- Needle -->
      <line x1="72" y1="56" x2="94.62741699796952" y2="78.62741699796952" stroke="#48677e" stroke-width="2" stroke-linecap="round" />
      <circle cx="72" cy="56" r="3" fill="#48677e" />

      <!-- Optional numeric value -->
      <text x="72" y="82" 
      text-anchor="middle" 
      dominant-baseline="middle"
      font-family="sans-serif" 
      font-size="14"
      fill="#FFFFFF">
      75
    </text>

      <!-- Shape label -->
      <text x="72" y="26" 
      text-anchor="middle" 
      dominant-baseline="middle"
      font-family="sans-serif" 
      font-size="11"
      fill="#FFFFFF">
      Speed
    </text>
    </g><g data-runiq-node="temp" data-node-id="temp" data-node-shape="gauge">
      <!-- Gauge body -->
      <path d="M 72 224 A 32 32 0 0 1 72 288" stroke="#48677e" stroke-width="1" fill="none" />
      <line x1="72" y1="230" x2="72" y2="226" stroke="#48677e" stroke-width="1" />
      <line x1="90.38477631085024" y1="237.61522368914976" x2="93.21320343559643" y2="234.78679656440357" stroke="#48677e" stroke-width="1" />
      <line x1="98" y1="256" x2="102" y2="256" stroke="#48677e" stroke-width="1" />
      <line x1="90.38477631085024" y1="274.3847763108502" x2="93.21320343559643" y2="277.2132034355964" stroke="#48677e" stroke-width="1" />
      <line x1="72" y1="282" x2="72" y2="286" stroke="#48677e" stroke-width="1" />

      <!-- Needle -->
      <line x1="72" y1="256" x2="103.60602689904441" y2="250.9940971187126" stroke="#48677e" stroke-width="2" stroke-linecap="round" />
      <circle cx="72" cy="256" r="3" fill="#48677e" />

      <!-- Optional numeric value -->
      <text x="72" y="282" 
      text-anchor="middle" 
      dominant-baseline="middle"
      font-family="sans-serif" 
      font-size="14"
      fill="#FFFFFF">
      45
    </text>

      <!-- Shape label -->
      <text x="72" y="226" 
      text-anchor="middle" 
      dominant-baseline="middle"
      font-family="sans-serif" 
      font-size="11"
      fill="#FFFFFF">
      Temperature
    </text>
    </g></svg>