<svg xmlns="http://www.w3.org/2000/svg" xmlns:xlink="http://www.w3.org/1999/xlink" 
    width="733.6" height="740" 
    viewBox="0 0 733.6 740"
    role="img" aria-labelledby="diagram-title" data-id="runiq-diagram">
<title id="diagram-title">Diagram</title><defs><style type="text/css"><![CDATA[.runiq-node-text { font-family: sans-serif; font-size: 14px; }.runiq-edge-text { font-family: sans-serif; font-size: 12px; }.runiq-container-label { font-family: sans-serif; font-size: 16px; font-weight: bold; fill: #666; }]]></style><pattern id="pedigree-half-fill" width="40" height="40" patternUnits="userSpaceOnUse"><rect x="0" y="0" width="20" height="40" fill="#000"/><rect x="20" y="0" width="20" height="40" fill="#fff"/></pattern></defs><g data-runiq-container="frontend" data-container-id="frontend"><rect x="12" y="12" width="192" height="185.6" 
    fill="#e3f2fd" stroke="#1976d2" stroke-width="3" rx="8" /><text x="22" y="32" text-anchor="start" dominant-baseline="hanging" class="runiq-container-label">Frontend Layer</text></g><g data-runiq-container="backend" data-container-id="backend"><rect x="12" y="296" width="425.6" height="424" 
    fill="#f3e5f5" stroke="#7b1fa2" stroke-width="3" rx="8" /><text x="22" y="316" text-anchor="start" dominant-baseline="hanging" class="runiq-container-label">Backend Services</text></g><g data-runiq-container="data" data-container-id="data"><rect x="224" y="12" width="299.2" height="264" 
    fill="#fff3e0" stroke="#f57c00" stroke-width="3" rx="8" /><text x="234" y="32" text-anchor="start" dominant-baseline="hanging" class="runiq-container-label">Data Layer</text></g><g data-runiq-edge="api-auth-0" data-edge-id="api-auth-0" data-edge-from="api" data-edge-to="auth"><defs>
      <marker id="arrow-standard-api-auth" markerWidth="10" markerHeight="10" refX="9" refY="3" orient="auto" markerUnits="strokeWidth">
        <polygon points="0,0 0,6 9,3" fill="#48677e" />
      </marker></defs><path d="M 176.4 508 L 216.39999999999998 508 L 216.39999999999998 508 L 256.4 508" fill="none" stroke="transparent" stroke-width="20" pointer-events="stroke" class="edge-hit-area" /><path d="M 176.4 508 L 216.39999999999998 508 L 216.39999999999998 508 L 256.4 508" fill="none" stroke="#48677e" stroke-width="1" marker-end="url(#arrow-standard-api-auth)" pointer-events="none" /></g><g data-runiq-edge="api-users-1" data-edge-id="api-users-1" data-edge-from="api" data-edge-to="users"><defs>
      <marker id="arrow-standard-api-users" markerWidth="10" markerHeight="10" refX="9" refY="3" orient="auto" markerUnits="strokeWidth">
        <polygon points="0,0 0,6 9,3" fill="#48677e" />
      </marker></defs><path d="M 176.4 508 L 211.4 508 L 211.4 648 L 256.4 648" fill="none" stroke="transparent" stroke-width="20" pointer-events="stroke" class="edge-hit-area" /><path d="M 176.4 508 L 211.4 508 L 211.4 648 L 256.4 648" fill="none" stroke="#48677e" stroke-width="1" marker-end="url(#arrow-standard-api-users)" pointer-events="none" /></g><g data-runiq-edge="api-orders-2" data-edge-id="api-orders-2" data-edge-from="api" data-edge-to="orders"><defs>
      <marker id="arrow-standard-api-orders" markerWidth="10" markerHeight="10" refX="9" refY="3" orient="auto" markerUnits="strokeWidth">
        <polygon points="0,0 0,6 9,3" fill="#48677e" />
      </marker></defs><path d="M 176.4 508 L 211.4 508 L 211.4 368 L 256.4 368" fill="none" stroke="transparent" stroke-width="20" pointer-events="stroke" class="edge-hit-area" /><path d="M 176.4 508 L 211.4 508 L 211.4 368 L 256.4 368" fill="none" stroke="#48677e" stroke-width="1" marker-end="url(#arrow-standard-api-orders)" pointer-events="none" /></g><g data-runiq-edge="api-payment" data-edge-id="api-payment" data-edge-from="api" data-edge-to="payment"><defs>
      <marker id="arrow-standard-api-payment" markerWidth="10" markerHeight="10" refX="9" refY="3" orient="auto" markerUnits="strokeWidth">
        <polygon points="0,0 0,6 9,3" fill="#48677e" />
      </marker></defs><path d="M 115.2 478 L 115.2 508 L 375.40000000000003 437 L 635.6 407" fill="none" stroke="transparent" stroke-width="20" pointer-events="stroke" class="edge-hit-area" /><path d="M 115.2 478 L 115.2 508 L 375.40000000000003 437 L 635.6 407" fill="none" stroke="#48677e" stroke-width="1" marker-end="url(#arrow-standard-api-payment)" pointer-events="none" /></g><g data-runiq-edge="api-email" data-edge-id="api-email" data-edge-from="api" data-edge-to="email"><defs>
      <marker id="arrow-standard-api-email" markerWidth="10" markerHeight="10" refX="9" refY="3" orient="auto" markerUnits="strokeWidth">
        <polygon points="0,0 0,6 9,3" fill="#48677e" />
      </marker></defs><path d="M 115.2 478 L 115.2 508 L 371.20000000000005 579 L 627.2 549" fill="none" stroke="transparent" stroke-width="20" pointer-events="stroke" class="edge-hit-area" /><path d="M 115.2 478 L 115.2 508 L 371.20000000000005 579 L 627.2 549" fill="none" stroke="#48677e" stroke-width="1" marker-end="url(#arrow-standard-api-email)" pointer-events="none" /></g><g data-runiq-edge="web-api" data-edge-id="web-api" data-edge-from="web" data-edge-to="api"><defs>
      <marker id="arrow-standard-web-api" markerWidth="10" markerHeight="10" refX="9" refY="3" orient="auto" markerUnits="strokeWidth">
        <polygon points="0,0 0,6 9,3" fill="#48677e" />
      </marker></defs><path d="M 91.2 94.8 L 91.2 74.4 L 103.2 508 L 115.2 478" fill="none" stroke="transparent" stroke-width="20" pointer-events="stroke" class="edge-hit-area" /><path d="M 91.2 94.8 L 91.2 74.4 L 103.2 508 L 115.2 478" fill="none" stroke="#48677e" stroke-width="1" marker-end="url(#arrow-standard-web-api)" pointer-events="none" /></g><g data-runiq-edge="mobile-api" data-edge-id="mobile-api" data-edge-from="mobile" data-edge-to="api"><defs>
      <marker id="arrow-standard-mobile-api" markerWidth="10" markerHeight="10" refX="9" refY="3" orient="auto" markerUnits="strokeWidth">
        <polygon points="0,0 0,6 9,3" fill="#48677e" />
      </marker></defs><path d="M 108 114.8 L 108 135.2 L 111.6 508 L 115.2 478" fill="none" stroke="transparent" stroke-width="20" pointer-events="stroke" class="edge-hit-area" /><path d="M 108 114.8 L 108 135.2 L 111.6 508 L 115.2 478" fill="none" stroke="#48677e" stroke-width="1" marker-end="url(#arrow-standard-mobile-api)" pointer-events="none" /></g><g data-runiq-edge="auth-db" data-edge-id="auth-db" data-edge-from="auth" data-edge-to="db"><defs>
      <marker id="arrow-standard-auth-db" markerWidth="10" markerHeight="10" refX="9" refY="3" orient="auto" markerUnits="strokeWidth">
        <polygon points="0,0 0,6 9,3" fill="#48677e" />
      </marker></defs><path d="M 321.79999999999995 478 L 321.79999999999995 508 L 320.9 194 L 320 166" fill="none" stroke="transparent" stroke-width="20" pointer-events="stroke" class="edge-hit-area" /><path d="M 321.79999999999995 478 L 321.79999999999995 508 L 320.9 194 L 320 166" fill="none" stroke="#48677e" stroke-width="1" marker-end="url(#arrow-standard-auth-db)" pointer-events="none" /></g><g data-runiq-edge="users-db" data-edge-id="users-db" data-edge-from="users" data-edge-to="db"><defs>
      <marker id="arrow-standard-users-db" markerWidth="10" markerHeight="10" refX="9" refY="3" orient="auto" markerUnits="strokeWidth">
        <polygon points="0,0 0,6 9,3" fill="#48677e" />
      </marker></defs><path d="M 321.79999999999995 618 L 321.79999999999995 648 L 320.9 194 L 320 166" fill="none" stroke="transparent" stroke-width="20" pointer-events="stroke" class="edge-hit-area" /><path d="M 321.79999999999995 618 L 321.79999999999995 648 L 320.9 194 L 320 166" fill="none" stroke="#48677e" stroke-width="1" marker-end="url(#arrow-standard-users-db)" pointer-events="none" /></g><g data-runiq-edge="orders-db" data-edge-id="orders-db" data-edge-from="orders" data-edge-to="db"><defs>
      <marker id="arrow-standard-orders-db" markerWidth="10" markerHeight="10" refX="9" refY="3" orient="auto" markerUnits="strokeWidth">
        <polygon points="0,0 0,6 9,3" fill="#48677e" />
      </marker></defs><path d="M 326 338 L 326 368 L 323 194 L 320 166" fill="none" stroke="transparent" stroke-width="20" pointer-events="stroke" class="edge-hit-area" /><path d="M 326 338 L 326 368 L 323 194 L 320 166" fill="none" stroke="#48677e" stroke-width="1" marker-end="url(#arrow-standard-orders-db)" pointer-events="none" /></g><g data-runiq-edge="api-cache" data-edge-id="api-cache" data-edge-from="api" data-edge-to="cache"><defs>
      <marker id="arrow-standard-api-cache" markerWidth="10" markerHeight="10" refX="9" refY="3" orient="auto" markerUnits="strokeWidth">
        <polygon points="0,0 0,6 9,3" fill="#48677e" />
      </marker></defs><path d="M 115.2 478 L 115.2 508 L 281.7 94 L 448.2 66" fill="none" stroke="transparent" stroke-width="20" pointer-events="stroke" class="edge-hit-area" /><path d="M 115.2 478 L 115.2 508 L 281.7 94 L 448.2 66" fill="none" stroke="#48677e" stroke-width="1" marker-end="url(#arrow-standard-api-cache)" pointer-events="none" /></g><g data-runiq-edge="orders-queue" data-edge-id="orders-queue" data-edge-from="orders" data-edge-to="queue"><defs>
      <marker id="arrow-standard-orders-queue" markerWidth="10" markerHeight="10" refX="9" refY="3" orient="auto" markerUnits="strokeWidth">
        <polygon points="0,0 0,6 9,3" fill="#48677e" />
      </marker></defs><path d="M 326 338 L 326 368 L 328.3 72.4 L 330.6 90.8" fill="none" stroke="transparent" stroke-width="20" pointer-events="stroke" class="edge-hit-area" /><path d="M 326 338 L 326 368 L 328.3 72.4 L 330.6 90.8" fill="none" stroke="#48677e" stroke-width="1" marker-end="url(#arrow-standard-orders-queue)" pointer-events="none" /></g><g data-runiq-node="web" data-node-id="web" data-node-shape="rounded">
      <rect x="54" y="54" width="74.4" height="40.8"
            rx="8" ry="8" fill="#5a819e" stroke="#48677e" stroke-width="1" />
      
      <text x="91.2" y="74.4" 
      text-anchor="middle" 
      dominant-baseline="middle"
      font-family="sans-serif" 
      font-size="14"
      fill="#FFFFFF">
      Web UI
    </text>
    </g><g data-runiq-node="mobile" data-node-id="mobile" data-node-shape="rounded">
      <rect x="54" y="114.8" width="108" height="40.8"
            rx="8" ry="8" fill="#73a3bf" stroke="#48677e" stroke-width="1" />
      
      <text x="108" y="135.2" 
      text-anchor="middle" 
      dominant-baseline="middle"
      font-family="sans-serif" 
      font-size="14"
      fill="#FFFFFF">
      Mobile App
    </text>
    </g><g data-runiq-node="auth" data-node-id="auth" data-node-shape="hexagon">
      <polygon points="276.02,478 367.58,478 387.2,508 367.58,538 276.02,538 256.4,508" 
               fill="#96bacf" stroke="#48677e" stroke-width="1" />
      
      <text x="321.79999999999995" y="508" 
      text-anchor="middle" 
      dominant-baseline="middle"
      font-family="sans-serif" 
      font-size="14"
      fill="#FFFFFF">
      Auth Service
    </text>
    </g><g data-runiq-node="api" data-node-id="api" data-node-shape="hexagon">
      <polygon points="72.36,478 158.04000000000002,478 176.4,508 158.04000000000002,538 72.36,538 54,508" 
               fill="#48677e" stroke="#48677e" stroke-width="1" />
      
      <text x="115.2" y="508" 
      text-anchor="middle" 
      dominant-baseline="middle"
      font-family="sans-serif" 
      font-size="14"
      fill="#FFFFFF">
      API Gateway
    </text>
    </g><g data-runiq-node="users" data-node-id="users" data-node-shape="hexagon">
      <polygon points="276.02,618 367.58,618 387.2,648 367.58,678 276.02,678 256.4,648" 
               fill="#364d5f" stroke="#48677e" stroke-width="1" />
      
      <text x="321.79999999999995" y="648" 
      text-anchor="middle" 
      dominant-baseline="middle"
      font-family="sans-serif" 
      font-size="14"
      fill="#FFFFFF">
      User Service
    </text>
    </g><g data-runiq-node="orders" data-node-id="orders" data-node-shape="hexagon">
      <polygon points="277.28,338 374.71999999999997,338 395.59999999999997,368 374.71999999999997,398 277.28,398 256.4,368" 
               fill="#5a819e" stroke="#48677e" stroke-width="1" />
      
      <text x="326" y="368" 
      text-anchor="middle" 
      dominant-baseline="middle"
      font-family="sans-serif" 
      font-size="14"
      fill="#FFFFFF">
      Order Service
    </text>
    </g><g data-runiq-node="db" data-node-id="db" data-node-shape="cylinder">
      <g>
        <!-- Top ellipse -->
        <ellipse cx="320" cy="166" rx="54" ry="12" 
                 fill="#73a3bf" stroke="#48677e" stroke-width="1" />
        
        <!-- Side rectangles -->
        <rect x="266" y="166" width="108" height="56" 
              fill="#73a3bf" stroke="none" />
        
        <!-- Side lines -->
        <line x1="266" y1="166" x2="266" y2="222" 
              stroke="#48677e" stroke-width="1" />
        <line x1="374" y1="166" x2="374" y2="222" 
              stroke="#48677e" stroke-width="1" />
        
        <!-- Bottom ellipse (only bottom arc visible) -->
        <path d="M 266,222 Q 320,246 374,222"
              fill="none" stroke="#48677e" stroke-width="1" />
        
        <text x="320" y="194" 
      text-anchor="middle" 
      dominant-baseline="middle"
      font-family="sans-serif" 
      font-size="14"
      fill="#FFFFFF">
      PostgreSQL
    </text>
      </g>
    </g><g data-runiq-node="cache" data-node-id="cache" data-node-shape="cylinder">
      <g>
        <!-- Top ellipse -->
        <ellipse cx="448.2" cy="66" rx="33" ry="12" 
                 fill="#96bacf" stroke="#48677e" stroke-width="1" />
        
        <!-- Side rectangles -->
        <rect x="415.2" y="66" width="66" height="56" 
              fill="#96bacf" stroke="none" />
        
        <!-- Side lines -->
        <line x1="415.2" y1="66" x2="415.2" y2="122" 
              stroke="#48677e" stroke-width="1" />
        <line x1="481.2" y1="66" x2="481.2" y2="122" 
              stroke="#48677e" stroke-width="1" />
        
        <!-- Bottom ellipse (only bottom arc visible) -->
        <path d="M 415.2,122 Q 448.2,146 481.2,122"
              fill="none" stroke="#48677e" stroke-width="1" />
        
        <text x="448.2" y="94" 
      text-anchor="middle" 
      dominant-baseline="middle"
      font-family="sans-serif" 
      font-size="14"
      fill="#FFFFFF">
      Redis
    </text>
      </g>
    </g><g data-runiq-node="queue" data-node-id="queue" data-node-shape="rect">
      <rect x="266" y="54" width="129.2" height="36.8"
            fill="#48677e" stroke="#48677e" stroke-width="1" />
      
      <text x="330.6" y="72.4" 
      text-anchor="middle" 
      dominant-baseline="middle"
      font-family="sans-serif" 
      font-size="14"
      fill="#FFFFFF">
      Message Queue
    </text>
    </g><g data-runiq-node="payment" data-node-id="payment" data-node-shape="rhombus">
      <polygon points="635.6,407 713.6,437 635.6,467 557.6,437"
               fill="#364d5f" stroke="#48677e" stroke-width="1" />
      
      <text x="635.6" y="437" 
      text-anchor="middle" 
      dominant-baseline="middle"
      font-family="sans-serif" 
      font-size="14"
      fill="#FFFFFF">
      Payment Gateway
    </text>
    </g><g data-runiq-node="email" data-node-id="email" data-node-shape="rhombus">
      <polygon points="627.2,549 696.8,579 627.2,609 557.6,579"
               fill="#5a819e" stroke="#48677e" stroke-width="1" />
      
      <text x="627.2" y="579" 
      text-anchor="middle" 
      dominant-baseline="middle"
      font-family="sans-serif" 
      font-size="14"
      fill="#FFFFFF">
      Email Service
    </text>
    </g></svg>