<svg xmlns="http://www.w3.org/2000/svg" xmlns:xlink="http://www.w3.org/1999/xlink" 
    width="316" height="912" 
    viewBox="0 0 316 912"
    role="img" aria-labelledby="diagram-title" data-id="runiq-diagram">
<title id="diagram-title">Diagram</title><defs><style type="text/css"><![CDATA[.runiq-node-text { font-family: sans-serif; font-size: 14px; }.runiq-edge-text { font-family: sans-serif; font-size: 12px; }.runiq-container-label { font-family: sans-serif; font-size: 16px; font-weight: bold; fill: #666; }]]></style><pattern id="pedigree-half-fill" width="40" height="40" patternUnits="userSpaceOnUse"><rect x="0" y="0" width="20" height="40" fill="#000"/><rect x="20" y="0" width="20" height="40" fill="#fff"/></pattern></defs><g data-runiq-edge="lb-web1-0" data-edge-id="lb-web1-0" data-edge-from="lb" data-edge-to="web1"><defs>
      <marker id="arrow-standard-lb-web1" markerWidth="10" markerHeight="10" refX="9" refY="3" orient="auto" markerUnits="strokeWidth">
        <polygon points="0,0 0,6 9,3" fill="#48677e" />
      </marker></defs><path d="M 94 92 L 94 152 L 84 152 L 84 212" fill="none" stroke="transparent" stroke-width="20" pointer-events="stroke" class="edge-hit-area" /><path d="M 94 92 L 94 152 L 84 152 L 84 212" fill="none" stroke="#48677e" stroke-width="1" marker-end="url(#arrow-standard-lb-web1)" pointer-events="none" /></g><g data-runiq-edge="lb-web2-1" data-edge-id="lb-web2-1" data-edge-from="lb" data-edge-to="web2"><defs>
      <marker id="arrow-standard-lb-web2" markerWidth="10" markerHeight="10" refX="9" refY="3" orient="auto" markerUnits="strokeWidth">
        <polygon points="0,0 0,6 9,3" fill="#48677e" />
      </marker></defs><path d="M 94 92 L 94 127 L 224 127 L 224 212" fill="none" stroke="transparent" stroke-width="20" pointer-events="stroke" class="edge-hit-area" /><path d="M 94 92 L 94 127 L 224 127 L 224 212" fill="none" stroke="#48677e" stroke-width="1" marker-end="url(#arrow-standard-lb-web2)" pointer-events="none" /></g><g data-runiq-edge="web1-api1-2" data-edge-id="web1-api1-2" data-edge-from="web1" data-edge-to="api1"><defs>
      <marker id="arrow-standard-web1-api1" markerWidth="10" markerHeight="10" refX="9" refY="3" orient="auto" markerUnits="strokeWidth">
        <polygon points="0,0 0,6 9,3" fill="#48677e" />
      </marker></defs><path d="M 84 292 L 84 352 L 84 352 L 84 412" fill="none" stroke="transparent" stroke-width="20" pointer-events="stroke" class="edge-hit-area" /><path d="M 84 292 L 84 352 L 84 352 L 84 412" fill="none" stroke="#48677e" stroke-width="1" marker-end="url(#arrow-standard-web1-api1)" pointer-events="none" /></g><g data-runiq-edge="web1-api2-3" data-edge-id="web1-api2-3" data-edge-from="web1" data-edge-to="api2"><defs>
      <marker id="arrow-standard-web1-api2" markerWidth="10" markerHeight="10" refX="9" refY="3" orient="auto" markerUnits="strokeWidth">
        <polygon points="0,0 0,6 9,3" fill="#48677e" />
      </marker></defs><path d="M 84 292 L 84 352 L 214 352 L 224 412" fill="none" stroke="transparent" stroke-width="20" pointer-events="stroke" class="edge-hit-area" /><path d="M 84 292 L 84 352 L 214 352 L 224 412" fill="none" stroke="#48677e" stroke-width="1" marker-end="url(#arrow-standard-web1-api2)" pointer-events="none" /></g><g data-runiq-edge="web2-api1-4" data-edge-id="web2-api1-4" data-edge-from="web2" data-edge-to="api1"><defs>
      <marker id="arrow-standard-web2-api1" markerWidth="10" markerHeight="10" refX="9" refY="3" orient="auto" markerUnits="strokeWidth">
        <polygon points="0,0 0,6 9,3" fill="#48677e" />
      </marker></defs><path d="M 224 292 L 224 327 L 154 327 L 154 377 L 94 377 L 84 412" fill="none" stroke="transparent" stroke-width="20" pointer-events="stroke" class="edge-hit-area" /><path d="M 224 292 L 224 327 L 154 327 L 154 377 L 94 377 L 84 412" fill="none" stroke="#48677e" stroke-width="1" marker-end="url(#arrow-standard-web2-api1)" pointer-events="none" /></g><g data-runiq-edge="web2-api2-5" data-edge-id="web2-api2-5" data-edge-from="web2" data-edge-to="api2"><defs>
      <marker id="arrow-standard-web2-api2" markerWidth="10" markerHeight="10" refX="9" refY="3" orient="auto" markerUnits="strokeWidth">
        <polygon points="0,0 0,6 9,3" fill="#48677e" />
      </marker></defs><path d="M 224 292 L 224 352 L 224 352 L 224 412" fill="none" stroke="transparent" stroke-width="20" pointer-events="stroke" class="edge-hit-area" /><path d="M 224 292 L 224 352 L 224 352 L 224 412" fill="none" stroke="#48677e" stroke-width="1" marker-end="url(#arrow-standard-web2-api2)" pointer-events="none" /></g><g data-runiq-edge="api1-db1-6" data-edge-id="api1-db1-6" data-edge-from="api1" data-edge-to="db1"><defs>
      <marker id="arrow-standard-api1-db1" markerWidth="10" markerHeight="10" refX="9" refY="3" orient="auto" markerUnits="strokeWidth">
        <polygon points="0,0 0,6 9,3" fill="#48677e" />
      </marker></defs><path d="M 84 492 L 84 558 L 102 558 L 102 624" fill="none" stroke="transparent" stroke-width="20" pointer-events="stroke" class="edge-hit-area" /><path d="M 84 492 L 84 558 L 102 558 L 102 624" fill="none" stroke="#48677e" stroke-width="1" marker-end="url(#arrow-standard-api1-db1)" pointer-events="none" /></g><g data-runiq-edge="api1-db2-7" data-edge-id="api1-db2-7" data-edge-from="api1" data-edge-to="db2"><defs>
      <marker id="arrow-standard-api1-db2" markerWidth="10" markerHeight="10" refX="9" refY="3" orient="auto" markerUnits="strokeWidth">
        <polygon points="0,0 0,6 9,3" fill="#48677e" />
      </marker></defs><path d="M 84 492 L 84 527 L 12 527 L 12 652 L 12 727 L 75 727 L 102 824" fill="none" stroke="transparent" stroke-width="20" pointer-events="stroke" class="edge-hit-area" /><path d="M 84 492 L 84 527 L 12 527 L 12 652 L 12 727 L 75 727 L 102 824" fill="none" stroke="#48677e" stroke-width="1" marker-end="url(#arrow-standard-api1-db2)" pointer-events="none" /></g><g data-runiq-edge="api2-db1-8" data-edge-id="api2-db1-8" data-edge-from="api2" data-edge-to="db1"><defs>
      <marker id="arrow-standard-api2-db1" markerWidth="10" markerHeight="10" refX="9" refY="3" orient="auto" markerUnits="strokeWidth">
        <polygon points="0,0 0,6 9,3" fill="#48677e" />
      </marker></defs><path d="M 224 492 L 224 527 L 120 527 L 102 624" fill="none" stroke="transparent" stroke-width="20" pointer-events="stroke" class="edge-hit-area" /><path d="M 224 492 L 224 527 L 120 527 L 102 624" fill="none" stroke="#48677e" stroke-width="1" marker-end="url(#arrow-standard-api2-db1)" pointer-events="none" /></g><g data-runiq-edge="api2-db2-9" data-edge-id="api2-db2-9" data-edge-from="api2" data-edge-to="db2"><defs>
      <marker id="arrow-standard-api2-db2" markerWidth="10" markerHeight="10" refX="9" refY="3" orient="auto" markerUnits="strokeWidth">
        <polygon points="0,0 0,6 9,3" fill="#48677e" />
      </marker></defs><path d="M 224 492 L 224 527 L 331 527 L 331 652 L 331 727 L 129 727 L 102 824" fill="none" stroke="transparent" stroke-width="20" pointer-events="stroke" class="edge-hit-area" /><path d="M 224 492 L 224 527 L 331 527 L 331 652 L 331 727 L 129 727 L 102 824" fill="none" stroke="#48677e" stroke-width="1" marker-end="url(#arrow-standard-api2-db2)" pointer-events="none" /></g><g data-runiq-edge="api1-cache-10" data-edge-id="api1-cache-10" data-edge-from="api1" data-edge-to="cache"><defs>
      <marker id="arrow-standard-api1-cache" markerWidth="10" markerHeight="10" refX="9" refY="3" orient="auto" markerUnits="strokeWidth">
        <polygon points="0,0 0,6 9,3" fill="#48677e" />
      </marker></defs><path d="M 84 492 L 84 577 L 256 577 L 266 612" fill="none" stroke="transparent" stroke-width="20" pointer-events="stroke" class="edge-hit-area" /><path d="M 84 492 L 84 577 L 256 577 L 266 612" fill="none" stroke="#48677e" stroke-width="1" marker-end="url(#arrow-standard-api1-cache)" pointer-events="none" /></g><g data-runiq-edge="api2-cache-11" data-edge-id="api2-cache-11" data-edge-from="api2" data-edge-to="cache"><defs>
      <marker id="arrow-standard-api2-cache" markerWidth="10" markerHeight="10" refX="9" refY="3" orient="auto" markerUnits="strokeWidth">
        <polygon points="0,0 0,6 9,3" fill="#48677e" />
      </marker></defs><path d="M 224 492 L 224 552 L 276 552 L 266 612" fill="none" stroke="transparent" stroke-width="20" pointer-events="stroke" class="edge-hit-area" /><path d="M 224 492 L 224 552 L 276 552 L 266 612" fill="none" stroke="#48677e" stroke-width="1" marker-end="url(#arrow-standard-api2-cache)" pointer-events="none" /></g><g data-runiq-edge="db1-db2-12" data-edge-id="db1-db2-12" data-edge-from="db1" data-edge-to="db2"><defs>
      <marker id="arrow-standard-db1-db2" markerWidth="10" markerHeight="10" refX="9" refY="3" orient="auto" markerUnits="strokeWidth">
        <polygon points="0,0 0,6 9,3" fill="#48677e" />
      </marker></defs><path d="M 102 680 L 102 752 L 102 752 L 102 824" fill="none" stroke="transparent" stroke-width="20" pointer-events="stroke" class="edge-hit-area" /><path d="M 102 680 L 102 752 L 102 752 L 102 824" fill="none" stroke="#48677e" stroke-width="1" marker-end="url(#arrow-standard-db1-db2)" pointer-events="none" /><text x="102" y="752" text-anchor="middle" dominant-baseline="middle" class="runiq-edge-text">replicate</text></g><g data-runiq-node="lb" data-node-id="lb" data-node-shape="server"><g><rect x="64" y="12" width="60" height="80" fill="#5a819e" stroke="#48677e" stroke-width="2" /><line x1="69" y1="32" x2="119" y2="32" stroke="#48677e" stroke-width="1" /><line x1="69" y1="52" x2="119" y2="52" stroke="#48677e" stroke-width="1" /><line x1="69" y1="72" x2="119" y2="72" stroke="#48677e" stroke-width="1" /><text x="94" y="57" 
      text-anchor="middle" 
      dominant-baseline="middle"
      font-family="sans-serif" 
      font-size="14"
      fill="#FFFFFF">
      Load Balancer
    </text></g>
    <g class="runiq-metric-badge">
      <rect x="60" y="8" 
            width="32" height="18" 
            fill="#ffffff" stroke="#2196f3" stroke-width="1.5" 
            rx="3" opacity="0.95" />
      <text x="76" y="17" 
            text-anchor="middle" dominant-baseline="middle"
            font-family="sans-serif" font-size="10" 
            font-weight="600" fill="#2196f3">
        C:0.47
      </text>
    </g>
  </g><g data-runiq-node="web1" data-node-id="web1" data-node-shape="server"><g><rect x="54" y="212" width="60" height="80" fill="#73a3bf" stroke="#48677e" stroke-width="2" /><line x1="59" y1="232" x2="109" y2="232" stroke="#48677e" stroke-width="1" /><line x1="59" y1="252" x2="109" y2="252" stroke="#48677e" stroke-width="1" /><line x1="59" y1="272" x2="109" y2="272" stroke="#48677e" stroke-width="1" /><text x="84" y="257" 
      text-anchor="middle" 
      dominant-baseline="middle"
      font-family="sans-serif" 
      font-size="14"
      fill="#FFFFFF">
      Web Server 1
    </text></g>
    <g class="runiq-metric-badge">
      <rect x="86" y="208" 
            width="32" height="18" 
            fill="#ffffff" stroke="#2196f3" stroke-width="1.5" 
            rx="3" opacity="0.95" />
      <text x="102" y="217" 
            text-anchor="middle" dominant-baseline="middle"
            font-family="sans-serif" font-size="10" 
            font-weight="600" fill="#2196f3">
        C:0.63
      </text>
    </g>
  </g><g data-runiq-node="web2" data-node-id="web2" data-node-shape="server"><g><rect x="194" y="212" width="60" height="80" fill="#96bacf" stroke="#48677e" stroke-width="2" /><line x1="199" y1="232" x2="249" y2="232" stroke="#48677e" stroke-width="1" /><line x1="199" y1="252" x2="249" y2="252" stroke="#48677e" stroke-width="1" /><line x1="199" y1="272" x2="249" y2="272" stroke="#48677e" stroke-width="1" /><text x="224" y="257" 
      text-anchor="middle" 
      dominant-baseline="middle"
      font-family="sans-serif" 
      font-size="14"
      fill="#FFFFFF">
      Web Server 2
    </text></g>
    <g class="runiq-metric-badge">
      <rect x="226" y="208" 
            width="32" height="18" 
            fill="#ffffff" stroke="#2196f3" stroke-width="1.5" 
            rx="3" opacity="0.95" />
      <text x="242" y="217" 
            text-anchor="middle" dominant-baseline="middle"
            font-family="sans-serif" font-size="10" 
            font-weight="600" fill="#2196f3">
        C:0.63
      </text>
    </g>
  </g><g data-runiq-node="api1" data-node-id="api1" data-node-shape="server"><g><rect x="54" y="412" width="60" height="80" fill="#48677e" stroke="#48677e" stroke-width="2" /><line x1="59" y1="432" x2="109" y2="432" stroke="#48677e" stroke-width="1" /><line x1="59" y1="452" x2="109" y2="452" stroke="#48677e" stroke-width="1" /><line x1="59" y1="472" x2="109" y2="472" stroke="#48677e" stroke-width="1" /><text x="84" y="457" 
      text-anchor="middle" 
      dominant-baseline="middle"
      font-family="sans-serif" 
      font-size="14"
      fill="#FFFFFF">
      API Server 1
    </text></g>
    <g class="runiq-metric-badge">
      <rect x="86" y="408" 
            width="32" height="18" 
            fill="#ffffff" stroke="#2196f3" stroke-width="1.5" 
            rx="3" opacity="0.95" />
      <text x="102" y="417" 
            text-anchor="middle" dominant-baseline="middle"
            font-family="sans-serif" font-size="10" 
            font-weight="600" fill="#2196f3">
        C:1.00
      </text>
    </g>
  </g><g data-runiq-node="api2" data-node-id="api2" data-node-shape="server"><g><rect x="194" y="412" width="60" height="80" fill="#364d5f" stroke="#48677e" stroke-width="2" /><line x1="199" y1="432" x2="249" y2="432" stroke="#48677e" stroke-width="1" /><line x1="199" y1="452" x2="249" y2="452" stroke="#48677e" stroke-width="1" /><line x1="199" y1="472" x2="249" y2="472" stroke="#48677e" stroke-width="1" /><text x="224" y="457" 
      text-anchor="middle" 
      dominant-baseline="middle"
      font-family="sans-serif" 
      font-size="14"
      fill="#FFFFFF">
      API Server 2
    </text></g>
    <g class="runiq-metric-badge">
      <rect x="226" y="408" 
            width="32" height="18" 
            fill="#ffffff" stroke="#2196f3" stroke-width="1.5" 
            rx="3" opacity="0.95" />
      <text x="242" y="417" 
            text-anchor="middle" dominant-baseline="middle"
            font-family="sans-serif" font-size="10" 
            font-weight="600" fill="#2196f3">
        C:1.00
      </text>
    </g>
  </g><g data-runiq-node="db1" data-node-id="db1" data-node-shape="database">
      <g>
        <!-- Top ellipse -->
        <ellipse cx="102" cy="624" rx="54" ry="12" 
                 fill="#5a819e" stroke="#48677e" stroke-width="1" />
        
        <!-- Side rectangles -->
        <rect x="48" y="624" width="108" height="56" 
              fill="#5a819e" stroke="none" />
        
        <!-- Side lines -->
        <line x1="48" y1="624" x2="48" y2="680" 
              stroke="#48677e" stroke-width="1" />
        <line x1="156" y1="624" x2="156" y2="680" 
              stroke="#48677e" stroke-width="1" />
        
        <!-- Bottom ellipse (only bottom arc visible) -->
        <path d="M 48,680 Q 102,704 156,680"
              fill="none" stroke="#48677e" stroke-width="1" />
        
        <text x="102" y="652" 
      text-anchor="middle" 
      dominant-baseline="middle"
      font-family="sans-serif" 
      font-size="14"
      fill="#FFFFFF">
      Database 1
    </text>
      </g>
    
    <g class="runiq-metric-badge">
      <rect x="128" y="608" 
            width="32" height="18" 
            fill="#ffffff" stroke="#2196f3" stroke-width="1.5" 
            rx="3" opacity="0.95" />
      <text x="144" y="617" 
            text-anchor="middle" dominant-baseline="middle"
            font-family="sans-serif" font-size="10" 
            font-weight="600" fill="#2196f3">
        C:1.00
      </text>
    </g>
  </g><g data-runiq-node="db2" data-node-id="db2" data-node-shape="database">
      <g>
        <!-- Top ellipse -->
        <ellipse cx="102" cy="824" rx="54" ry="12" 
                 fill="#73a3bf" stroke="#48677e" stroke-width="1" />
        
        <!-- Side rectangles -->
        <rect x="48" y="824" width="108" height="56" 
              fill="#73a3bf" stroke="none" />
        
        <!-- Side lines -->
        <line x1="48" y1="824" x2="48" y2="880" 
              stroke="#48677e" stroke-width="1" />
        <line x1="156" y1="824" x2="156" y2="880" 
              stroke="#48677e" stroke-width="1" />
        
        <!-- Bottom ellipse (only bottom arc visible) -->
        <path d="M 48,880 Q 102,904 156,880"
              fill="none" stroke="#48677e" stroke-width="1" />
        
        <text x="102" y="852" 
      text-anchor="middle" 
      dominant-baseline="middle"
      font-family="sans-serif" 
      font-size="14"
      fill="#FFFFFF">
      Database 2
    </text>
      </g>
    
    <g class="runiq-metric-badge">
      <rect x="128" y="808" 
            width="32" height="18" 
            fill="#ffffff" stroke="#2196f3" stroke-width="1.5" 
            rx="3" opacity="0.95" />
      <text x="144" y="817" 
            text-anchor="middle" dominant-baseline="middle"
            font-family="sans-serif" font-size="10" 
            font-weight="600" fill="#2196f3">
        C:0.00
      </text>
    </g>
  </g><g data-runiq-node="cache" data-node-id="cache" data-node-shape="storage"><g><rect x="241" y="617" width="50" height="12" rx="2" fill="#96bacf" stroke="#48677e" stroke-width="1.5" /><line x1="241" y1="623" x2="291" y2="623" stroke="#48677e" stroke-width="0.5" opacity="0.5" /><rect x="241" y="630" width="50" height="12" rx="2" fill="#96bacf" stroke="#48677e" stroke-width="1.5" /><line x1="241" y1="636" x2="291" y2="636" stroke="#48677e" stroke-width="0.5" opacity="0.5" /><rect x="241" y="643" width="50" height="12" rx="2" fill="#96bacf" stroke="#48677e" stroke-width="1.5" /><line x1="241" y1="649" x2="291" y2="649" stroke="#48677e" stroke-width="0.5" opacity="0.5" /><rect x="241" y="656" width="50" height="12" rx="2" fill="#96bacf" stroke="#48677e" stroke-width="1.5" /><line x1="241" y1="662" x2="291" y2="662" stroke="#48677e" stroke-width="0.5" opacity="0.5" /><text x="266" y="670" 
      text-anchor="middle" 
      dominant-baseline="middle"
      font-family="sans-serif" 
      font-size="8"
      fill="#FFFFFF">
      Cache
    </text></g>
    <g class="runiq-metric-badge">
      <rect x="268" y="608" 
            width="32" height="18" 
            fill="#ffffff" stroke="#2196f3" stroke-width="1.5" 
            rx="3" opacity="0.95" />
      <text x="284" y="617" 
            text-anchor="middle" dominant-baseline="middle"
            font-family="sans-serif" font-size="10" 
            font-weight="600" fill="#2196f3">
        C:0.00
      </text>
    </g>
  </g></svg>