<svg xmlns="http://www.w3.org/2000/svg" xmlns:xlink="http://www.w3.org/1999/xlink" 
    width="514.6" height="719" 
    viewBox="0 0 514.6 719"
    role="img" aria-labelledby="diagram-title" data-id="runiq-diagram">
<title id="diagram-title">Diagram</title><defs><style type="text/css"><![CDATA[.runiq-node-text { font-family: sans-serif; font-size: 14px; }.runiq-edge-text { font-family: sans-serif; font-size: 12px; }.runiq-container-label { font-family: sans-serif; font-size: 16px; font-weight: bold; fill: #666; }]]></style><pattern id="pedigree-half-fill" width="40" height="40" patternUnits="userSpaceOnUse"><rect x="0" y="0" width="20" height="40" fill="#000"/><rect x="20" y="0" width="20" height="40" fill="#fff"/></pattern></defs><g data-runiq-edge="initial-unlocked-0" data-edge-id="initial-unlocked-0" data-edge-from="initial" data-edge-to="unlocked"><defs>
      <marker id="arrow-standard-initial-unlocked" markerWidth="10" markerHeight="10" refX="9" refY="3" orient="auto" markerUnits="strokeWidth">
        <polygon points="0,0 0,6 9,3" fill="#48677e" />
      </marker></defs><path d="M 252 30 L 252 90 L 252 90 L 252 150" fill="none" stroke="transparent" stroke-width="20" pointer-events="stroke" class="edge-hit-area" /><path d="M 252 30 L 252 90 L 252 90 L 252 150" fill="none" stroke="#48677e" stroke-width="1" marker-end="url(#arrow-standard-initial-unlocked)" pointer-events="none" /></g><g data-runiq-edge="unlocked-locked-1" data-edge-id="unlocked-locked-1" data-edge-from="unlocked" data-edge-to="locked"><defs>
      <marker id="arrow-standard-unlocked-locked" markerWidth="10" markerHeight="10" refX="9" refY="3" orient="auto" markerUnits="strokeWidth">
        <polygon points="0,0 0,6 9,3" fill="#48677e" />
      </marker></defs><path d="M 252 259 L 252 294 L 132 294 L 192 379" fill="none" stroke="transparent" stroke-width="20" pointer-events="stroke" class="edge-hit-area" /><path d="M 252 259 L 252 294 L 132 294 L 192 379" fill="none" stroke="#48677e" stroke-width="1" marker-end="url(#arrow-standard-unlocked-locked)" pointer-events="none" /><text x="132" y="294" text-anchor="middle" dominant-baseline="middle" class="runiq-edge-text">lock</text></g><g data-runiq-edge="locked-unlocked-2" data-edge-id="locked-unlocked-2" data-edge-from="locked" data-edge-to="unlocked"><defs>
      <marker id="arrow-standard-locked-unlocked" markerWidth="10" markerHeight="10" refX="9" refY="3" orient="auto" markerUnits="strokeWidth">
        <polygon points="0,0 0,6 9,3" fill="#48677e" />
      </marker></defs><path d="M 192 379 L 192 319 L 252 319 L 252 259" fill="none" stroke="transparent" stroke-width="20" pointer-events="stroke" class="edge-hit-area" /><path d="M 192 379 L 192 319 L 252 319 L 252 259" fill="none" stroke="#48677e" stroke-width="1" marker-end="url(#arrow-standard-locked-unlocked)" pointer-events="none" /><text x="252" y="319" text-anchor="middle" dominant-baseline="middle" class="runiq-edge-text">unlock</text></g><g data-runiq-edge="unlocked-alarmed-3" data-edge-id="unlocked-alarmed-3" data-edge-from="unlocked" data-edge-to="alarmed"><defs>
      <marker id="arrow-standard-unlocked-alarmed" markerWidth="10" markerHeight="10" refX="9" refY="3" orient="auto" markerUnits="strokeWidth">
        <polygon points="0,0 0,6 9,3" fill="#48677e" />
      </marker></defs><path d="M 252 259 L 252 294 L 407 294 L 407 424.5 L 318.8 590" fill="none" stroke="transparent" stroke-width="20" pointer-events="stroke" class="edge-hit-area" /><path d="M 252 259 L 252 294 L 407 294 L 407 424.5 L 318.8 590" fill="none" stroke="#48677e" stroke-width="1" marker-end="url(#arrow-standard-unlocked-alarmed)" pointer-events="none" /><text x="407" y="294" text-anchor="middle" dominant-baseline="middle" class="runiq-edge-text">tamper</text></g><g data-runiq-edge="locked-alarmed-4" data-edge-id="locked-alarmed-4" data-edge-from="locked" data-edge-to="alarmed"><defs>
      <marker id="arrow-standard-locked-alarmed" markerWidth="10" markerHeight="10" refX="9" refY="3" orient="auto" markerUnits="strokeWidth">
        <polygon points="0,0 0,6 9,3" fill="#48677e" />
      </marker></defs><path d="M 192 470 L 192 505 L 231 505 L 318.8 590" fill="none" stroke="transparent" stroke-width="20" pointer-events="stroke" class="edge-hit-area" /><path d="M 192 470 L 192 505 L 231 505 L 318.8 590" fill="none" stroke="#48677e" stroke-width="1" marker-end="url(#arrow-standard-locked-alarmed)" pointer-events="none" /><text x="231" y="505" text-anchor="middle" dominant-baseline="middle" class="runiq-edge-text">forceDetected</text></g><g data-runiq-edge="alarmed-locked-5" data-edge-id="alarmed-locked-5" data-edge-from="alarmed" data-edge-to="locked"><defs>
      <marker id="arrow-standard-alarmed-locked" markerWidth="10" markerHeight="10" refX="9" refY="3" orient="auto" markerUnits="strokeWidth">
        <polygon points="0,0 0,6 9,3" fill="#48677e" />
      </marker></defs><path d="M 318.8 590 L 318.8 505 L 282 505 L 192 470" fill="none" stroke="transparent" stroke-width="20" pointer-events="stroke" class="edge-hit-area" /><path d="M 318.8 590 L 318.8 505 L 282 505 L 192 470" fill="none" stroke="#48677e" stroke-width="1" marker-end="url(#arrow-standard-alarmed-locked)" pointer-events="none" /><text x="282" y="505" text-anchor="middle" dominant-baseline="middle" class="runiq-edge-text">reset</text></g><g data-runiq-edge="locked-final-6" data-edge-id="locked-final-6" data-edge-from="locked" data-edge-to="final"><defs>
      <marker id="arrow-standard-locked-final" markerWidth="10" markerHeight="10" refX="9" refY="3" orient="auto" markerUnits="strokeWidth">
        <polygon points="0,0 0,6 9,3" fill="#48677e" />
      </marker></defs><path d="M 192 470 L 192 505 L 52 505 L 52 590" fill="none" stroke="transparent" stroke-width="20" pointer-events="stroke" class="edge-hit-area" /><path d="M 192 470 L 192 505 L 52 505 L 52 590" fill="none" stroke="#48677e" stroke-width="1" marker-end="url(#arrow-standard-locked-final)" pointer-events="none" /><text x="52" y="505" text-anchor="middle" dominant-baseline="middle" class="runiq-edge-text">deactivate</text></g><g data-runiq-node="initial" data-node-id="initial" data-node-shape="initialState"><g class="initial-state-shape"><circle cx="252" cy="21" r="9" fill="#000000" stroke="none" /></g></g><g data-runiq-node="unlocked" data-node-id="unlocked" data-node-shape="state"><g class="state-shape"><rect x="135" y="150" width="234" height="109" rx="10" ry="10" fill="#73a3bf" stroke="#48677e" stroke-width="1" /><text x="252" y="174.6" 
      text-anchor="middle" 
      dominant-baseline="middle"
      font-family="sans-serif" 
      font-size="14"
      fill="#48677e">
      Unlocked
    </text><line x1="147" y1="183.6" x2="357" y2="183.6" stroke="#48677e" stroke-width="1" /><text x="147" y="204.6" 
      text-anchor="start" 
      dominant-baseline="middle"
      font-family="sans-serif" 
      font-size="12.6"
      fill="#48677e">
      entry / releaseLockBolt()
    </text><text x="147" y="222.6" 
      text-anchor="start" 
      dominant-baseline="middle"
      font-family="sans-serif" 
      font-size="12.6"
      fill="#48677e">
      do / monitorDoor()
    </text><text x="147" y="240.6" 
      text-anchor="start" 
      dominant-baseline="middle"
      font-family="sans-serif" 
      font-size="12.6"
      fill="#48677e">
      exit / stopMonitoring()
    </text></g></g><g data-runiq-node="locked" data-node-id="locked" data-node-shape="state"><g class="state-shape"><rect x="12" y="379" width="360" height="91" rx="10" ry="10" fill="#96bacf" stroke="#48677e" stroke-width="1" /><text x="192" y="403.6" 
      text-anchor="middle" 
      dominant-baseline="middle"
      font-family="sans-serif" 
      font-size="14"
      fill="#48677e">
      Locked
    </text><line x1="24" y1="412.6" x2="360" y2="412.6" stroke="#48677e" stroke-width="1" /><text x="24" y="433.6" 
      text-anchor="start" 
      dominant-baseline="middle"
      font-family="sans-serif" 
      font-size="12.6"
      fill="#48677e">
      entry / engageLockBolt() ; enableAlarm()
    </text><text x="24" y="451.6" 
      text-anchor="start" 
      dominant-baseline="middle"
      font-family="sans-serif" 
      font-size="12.6"
      fill="#48677e">
      exit / disableAlarm()
    </text></g></g><g data-runiq-node="alarmed" data-node-id="alarmed" data-node-shape="state"><g class="state-shape"><rect x="143" y="590" width="351.6" height="109" rx="10" ry="10" fill="#48677e" stroke="#48677e" stroke-width="1" /><text x="318.8" y="614.6" 
      text-anchor="middle" 
      dominant-baseline="middle"
      font-family="sans-serif" 
      font-size="14"
      fill="#48677e">
      Alarmed
    </text><line x1="155" y1="623.6" x2="482.6" y2="623.6" stroke="#48677e" stroke-width="1" /><text x="155" y="644.6" 
      text-anchor="start" 
      dominant-baseline="middle"
      font-family="sans-serif" 
      font-size="12.6"
      fill="#48677e">
      entry / soundAlarm() ; notifySecurity()
    </text><text x="155" y="662.6" 
      text-anchor="start" 
      dominant-baseline="middle"
      font-family="sans-serif" 
      font-size="12.6"
      fill="#48677e">
      do / flashLights()
    </text><text x="155" y="680.6" 
      text-anchor="start" 
      dominant-baseline="middle"
      font-family="sans-serif" 
      font-size="12.6"
      fill="#48677e">
      exit / silenceAlarm()
    </text></g></g><g data-runiq-node="final" data-node-id="final" data-node-shape="finalState"><g class="final-state-shape"><circle cx="52" cy="601" r="11" fill="none" stroke="#48677e" stroke-width="1.5" /><circle cx="52" cy="601" r="6.050000000000001" fill="#000000" stroke="none" /></g></g></svg>