<svg xmlns="http://www.w3.org/2000/svg" xmlns:xlink="http://www.w3.org/1999/xlink" 
    width="324" height="1314" 
    viewBox="0 0 324 1314"
    role="img" aria-labelledby="diagram-title" data-id="runiq-diagram">
<title id="diagram-title">Diagram</title><defs><style type="text/css"><![CDATA[.runiq-node-text { font-family: sans-serif; font-size: 14px; }.runiq-edge-text { font-family: sans-serif; font-size: 12px; }.runiq-container-label { font-family: sans-serif; font-size: 16px; font-weight: bold; fill: #666; }]]></style><pattern id="pedigree-half-fill" width="40" height="40" patternUnits="userSpaceOnUse"><rect x="0" y="0" width="20" height="40" fill="#000"/><rect x="20" y="0" width="20" height="40" fill="#fff"/></pattern></defs><g data-runiq-edge="start-submitted-0" data-edge-id="start-submitted-0" data-edge-from="start" data-edge-to="submitted"><defs>
      <marker id="arrow-standard-start-submitted" markerWidth="10" markerHeight="10" refX="9" refY="3" orient="auto" markerUnits="strokeWidth">
        <polygon points="0,0 0,6 9,3" fill="#48677e" />
      </marker></defs><path d="M 250 32 L 250 92 L 249.8 92 L 249.8 152" fill="none" stroke="transparent" stroke-width="20" pointer-events="stroke" class="edge-hit-area" /><path d="M 250 32 L 250 92 L 249.8 92 L 249.8 152" fill="none" stroke="#48677e" stroke-width="1" marker-end="url(#arrow-standard-start-submitted)" pointer-events="none" /></g><g data-runiq-edge="submitted-validating-1" data-edge-id="submitted-validating-1" data-edge-from="submitted" data-edge-to="validating"><defs>
      <marker id="arrow-standard-submitted-validating" markerWidth="10" markerHeight="10" refX="9" refY="3" orient="auto" markerUnits="strokeWidth">
        <polygon points="0,0 0,6 9,3" fill="#48677e" />
      </marker></defs><path d="M 249.8 202 L 249.8 262 L 250 262 L 250 322" fill="none" stroke="transparent" stroke-width="20" pointer-events="stroke" class="edge-hit-area" /><path d="M 249.8 202 L 249.8 262 L 250 262 L 250 322" fill="none" stroke="#48677e" stroke-width="1" marker-end="url(#arrow-standard-submitted-validating)" pointer-events="none" /><text x="250" y="262" text-anchor="middle" dominant-baseline="middle" class="runiq-edge-text">validate</text></g><g data-runiq-edge="validating-checkValid-2" data-edge-id="validating-checkValid-2" data-edge-from="validating" data-edge-to="checkValid"><defs>
      <marker id="arrow-standard-validating-checkValid" markerWidth="10" markerHeight="10" refX="9" refY="3" orient="auto" markerUnits="strokeWidth">
        <polygon points="0,0 0,6 9,3" fill="#48677e" />
      </marker></defs><path d="M 250 372 L 250 432 L 250 432 L 250 492" fill="none" stroke="transparent" stroke-width="20" pointer-events="stroke" class="edge-hit-area" /><path d="M 250 372 L 250 432 L 250 432 L 250 492" fill="none" stroke="#48677e" stroke-width="1" marker-end="url(#arrow-standard-validating-checkValid)" pointer-events="none" /></g><g data-runiq-edge="checkValid-processing-3" data-edge-id="checkValid-processing-3" data-edge-from="checkValid" data-edge-to="processing"><defs>
      <marker id="arrow-standard-checkValid-processing" markerWidth="10" markerHeight="10" refX="9" refY="3" orient="auto" markerUnits="strokeWidth">
        <polygon points="0,0 0,6 9,3" fill="#48677e" />
      </marker></defs><path d="M 250 508 L 250 543 L 148 543 L 148 628" fill="none" stroke="transparent" stroke-width="20" pointer-events="stroke" class="edge-hit-area" /><path d="M 250 508 L 250 543 L 148 543 L 148 628" fill="none" stroke="#48677e" stroke-width="1" marker-end="url(#arrow-standard-checkValid-processing)" pointer-events="none" /><text x="148" y="543" text-anchor="middle" dominant-baseline="middle" class="runiq-edge-text">valid</text></g><g data-runiq-edge="checkValid-rejected-4" data-edge-id="checkValid-rejected-4" data-edge-from="checkValid" data-edge-to="rejected"><defs>
      <marker id="arrow-standard-checkValid-rejected" markerWidth="10" markerHeight="10" refX="9" refY="3" orient="auto" markerUnits="strokeWidth">
        <polygon points="0,0 0,6 9,3" fill="#48677e" />
      </marker></defs><path d="M 250 508 L 250 653 L 253 806 L 253 959 L 253 1019 L 179 1019 L 176 1104" fill="none" stroke="transparent" stroke-width="20" pointer-events="stroke" class="edge-hit-area" /><path d="M 250 508 L 250 653 L 253 806 L 253 959 L 253 1019 L 179 1019 L 176 1104" fill="none" stroke="#48677e" stroke-width="1" marker-end="url(#arrow-standard-checkValid-rejected)" pointer-events="none" /><text x="253" y="959" text-anchor="middle" dominant-baseline="middle" class="runiq-edge-text">invalid</text></g><g data-runiq-edge="processing-checkResult-5" data-edge-id="processing-checkResult-5" data-edge-from="processing" data-edge-to="checkResult"><defs>
      <marker id="arrow-standard-processing-checkResult" markerWidth="10" markerHeight="10" refX="9" refY="3" orient="auto" markerUnits="strokeWidth">
        <polygon points="0,0 0,6 9,3" fill="#48677e" />
      </marker></defs><path d="M 148 678 L 148 738 L 148 738 L 148 798" fill="none" stroke="transparent" stroke-width="20" pointer-events="stroke" class="edge-hit-area" /><path d="M 148 678 L 148 738 L 148 738 L 148 798" fill="none" stroke="#48677e" stroke-width="1" marker-end="url(#arrow-standard-processing-checkResult)" pointer-events="none" /></g><g data-runiq-edge="checkResult-review-6" data-edge-id="checkResult-review-6" data-edge-from="checkResult" data-edge-to="review"><defs>
      <marker id="arrow-standard-checkResult-review" markerWidth="10" markerHeight="10" refX="9" refY="3" orient="auto" markerUnits="strokeWidth">
        <polygon points="0,0 0,6 9,3" fill="#48677e" />
      </marker></defs><path d="M 148 814 L 148 874 L 150.6 874 L 150.6 934" fill="none" stroke="transparent" stroke-width="20" pointer-events="stroke" class="edge-hit-area" /><path d="M 148 814 L 148 874 L 150.6 874 L 150.6 934" fill="none" stroke="#48677e" stroke-width="1" marker-end="url(#arrow-standard-checkResult-review)" pointer-events="none" /><text x="150.6" y="874" text-anchor="middle" dominant-baseline="middle" class="runiq-edge-text">needs review</text></g><g data-runiq-edge="checkResult-approved-7" data-edge-id="checkResult-approved-7" data-edge-from="checkResult" data-edge-to="approved"><defs>
      <marker id="arrow-standard-checkResult-approved" markerWidth="10" markerHeight="10" refX="9" refY="3" orient="auto" markerUnits="strokeWidth">
        <polygon points="0,0 0,6 9,3" fill="#48677e" />
      </marker></defs><path d="M 148 814 L 148 849 L 48 849 L 48 959 L 48 1019 L 73 1019 L 76 1104" fill="none" stroke="transparent" stroke-width="20" pointer-events="stroke" class="edge-hit-area" /><path d="M 148 814 L 148 849 L 48 849 L 48 959 L 48 1019 L 73 1019 L 76 1104" fill="none" stroke="#48677e" stroke-width="1" marker-end="url(#arrow-standard-checkResult-approved)" pointer-events="none" /><text x="48" y="959" text-anchor="middle" dominant-baseline="middle" class="runiq-edge-text">auto-approve</text></g><g data-runiq-edge="review-approved-8" data-edge-id="review-approved-8" data-edge-from="review" data-edge-to="approved"><defs>
      <marker id="arrow-standard-review-approved" markerWidth="10" markerHeight="10" refX="9" refY="3" orient="auto" markerUnits="strokeWidth">
        <polygon points="0,0 0,6 9,3" fill="#48677e" />
      </marker></defs><path d="M 150.6 984 L 150.6 1019 L 79 1019 L 76 1104" fill="none" stroke="transparent" stroke-width="20" pointer-events="stroke" class="edge-hit-area" /><path d="M 150.6 984 L 150.6 1019 L 79 1019 L 76 1104" fill="none" stroke="#48677e" stroke-width="1" marker-end="url(#arrow-standard-review-approved)" pointer-events="none" /><text x="79" y="1019" text-anchor="middle" dominant-baseline="middle" class="runiq-edge-text">approved</text></g><g data-runiq-edge="review-rejected-9" data-edge-id="review-rejected-9" data-edge-from="review" data-edge-to="rejected"><defs>
      <marker id="arrow-standard-review-rejected" markerWidth="10" markerHeight="10" refX="9" refY="3" orient="auto" markerUnits="strokeWidth">
        <polygon points="0,0 0,6 9,3" fill="#48677e" />
      </marker></defs><path d="M 150.6 984 L 150.6 1044 L 176 1044 L 176 1104" fill="none" stroke="transparent" stroke-width="20" pointer-events="stroke" class="edge-hit-area" /><path d="M 150.6 984 L 150.6 1044 L 176 1044 L 176 1104" fill="none" stroke="#48677e" stroke-width="1" marker-end="url(#arrow-standard-review-rejected)" pointer-events="none" /><text x="176" y="1044" text-anchor="middle" dominant-baseline="middle" class="runiq-edge-text">rejected</text></g><g data-runiq-edge="approved-complete-10" data-edge-id="approved-complete-10" data-edge-from="approved" data-edge-to="complete"><defs>
      <marker id="arrow-standard-approved-complete" markerWidth="10" markerHeight="10" refX="9" refY="3" orient="auto" markerUnits="strokeWidth">
        <polygon points="0,0 0,6 9,3" fill="#48677e" />
      </marker></defs><path d="M 76 1124 L 76 1184 L 91.6 1184 L 91.6 1244" fill="none" stroke="transparent" stroke-width="20" pointer-events="stroke" class="edge-hit-area" /><path d="M 76 1124 L 76 1184 L 91.6 1184 L 91.6 1244" fill="none" stroke="#48677e" stroke-width="1" marker-end="url(#arrow-standard-approved-complete)" pointer-events="none" /></g><g data-runiq-edge="rejected-complete-11" data-edge-id="rejected-complete-11" data-edge-from="rejected" data-edge-to="complete"><defs>
      <marker id="arrow-standard-rejected-complete" markerWidth="10" markerHeight="10" refX="9" refY="3" orient="auto" markerUnits="strokeWidth">
        <polygon points="0,0 0,6 9,3" fill="#48677e" />
      </marker></defs><path d="M 176 1124 L 176 1159 L 107 1159 L 91.6 1244" fill="none" stroke="transparent" stroke-width="20" pointer-events="stroke" class="edge-hit-area" /><path d="M 176 1124 L 176 1159 L 107 1159 L 91.6 1244" fill="none" stroke="#48677e" stroke-width="1" marker-end="url(#arrow-standard-rejected-complete)" pointer-events="none" /><text x="107" y="1159" text-anchor="middle" dominant-baseline="middle" class="runiq-edge-text">archive</text></g><g data-runiq-node="start" data-node-id="start" data-node-shape="entryPoint"><g class="entryPoint-shape"><circle cx="250" cy="22" r="10" fill="#5a819e" stroke="#48677e" stroke-width="1.5" /></g></g><g data-runiq-node="submitted" data-node-id="submitted" data-node-shape="state"><g class="state-shape"><rect x="200" y="152" width="99.60000000000001" height="50" rx="10" ry="10" fill="#73a3bf" stroke="#48677e" stroke-width="1" /><text x="249.8" y="176.6" 
      text-anchor="middle" 
      dominant-baseline="middle"
      font-family="sans-serif" 
      font-size="14"
      fill="#48677e">
      Submitted
    </text></g></g><g data-runiq-node="validating" data-node-id="validating" data-node-shape="state"><g class="state-shape"><rect x="196" y="322" width="108" height="50" rx="10" ry="10" fill="#96bacf" stroke="#48677e" stroke-width="1" /><text x="250" y="346.6" 
      text-anchor="middle" 
      dominant-baseline="middle"
      font-family="sans-serif" 
      font-size="14"
      fill="#48677e">
      Validating
    </text></g></g><g data-runiq-node="checkValid" data-node-id="checkValid" data-node-shape="junction"><g class="junction-shape"><circle cx="250" cy="500" r="8" fill="#48677e" /></g></g><g data-runiq-node="processing" data-node-id="processing" data-node-shape="state"><g class="state-shape"><rect x="94" y="628" width="108" height="50" rx="10" ry="10" fill="#364d5f" stroke="#48677e" stroke-width="1" /><text x="148" y="652.6" 
      text-anchor="middle" 
      dominant-baseline="middle"
      font-family="sans-serif" 
      font-size="14"
      fill="#48677e">
      Processing
    </text></g></g><g data-runiq-node="review" data-node-id="review" data-node-shape="state"><g class="state-shape"><rect x="84" y="934" width="133.2" height="50" rx="10" ry="10" fill="#5a819e" stroke="#48677e" stroke-width="1" /><text x="150.6" y="958.6" 
      text-anchor="middle" 
      dominant-baseline="middle"
      font-family="sans-serif" 
      font-size="14"
      fill="#48677e">
      Manual Review
    </text></g></g><g data-runiq-node="checkResult" data-node-id="checkResult" data-node-shape="junction"><g class="junction-shape"><circle cx="148" cy="806" r="8" fill="#73a3bf" /></g></g><g data-runiq-node="approved" data-node-id="approved" data-node-shape="exitPoint"><g class="exitPoint-shape"><circle cx="76" cy="1114" r="10" fill="#96bacf" stroke="#48677e" stroke-width="1.5" /><line x1="70" y1="1108" x2="82" y2="1120" stroke="#48677e" stroke-width="1.0499999999999998" /><line x1="82" y1="1108" x2="70" y2="1120" stroke="#48677e" stroke-width="1.0499999999999998" /></g></g><g data-runiq-node="rejected" data-node-id="rejected" data-node-shape="exitPoint"><g class="exitPoint-shape"><circle cx="176" cy="1114" r="10" fill="#48677e" stroke="#48677e" stroke-width="1.5" /><line x1="170" y1="1108" x2="182" y2="1120" stroke="#48677e" stroke-width="1.0499999999999998" /><line x1="182" y1="1108" x2="170" y2="1120" stroke="#48677e" stroke-width="1.0499999999999998" /></g></g><g data-runiq-node="complete" data-node-id="complete" data-node-shape="state"><g class="state-shape"><rect x="46" y="1244" width="91.2" height="50" rx="10" ry="10" fill="#364d5f" stroke="#48677e" stroke-width="1" /><text x="91.6" y="1268.6" 
      text-anchor="middle" 
      dominant-baseline="middle"
      font-family="sans-serif" 
      font-size="14"
      fill="#48677e">
      Complete
    </text></g></g></svg>