<svg xmlns="http://www.w3.org/2000/svg" xmlns:xlink="http://www.w3.org/1999/xlink" 
    width="528" height="127" 
    viewBox="0 0 528 127"
    role="img" aria-labelledby="diagram-title" data-id="runiq-diagram">
<title id="diagram-title">Diagram</title><defs><style type="text/css"><![CDATA[.runiq-node-text { font-family: sans-serif; font-size: 14px; }.runiq-edge-text { font-family: sans-serif; font-size: 12px; }.runiq-container-label { font-family: sans-serif; font-size: 16px; font-weight: bold; fill: #666; }]]></style><pattern id="pedigree-half-fill" width="40" height="40" patternUnits="userSpaceOnUse"><rect x="0" y="0" width="20" height="40" fill="#000"/><rect x="20" y="0" width="20" height="40" fill="#fff"/></pattern></defs><g data-runiq-edge="q0-H0-0" data-edge-id="q0-H0-0" data-edge-from="q0" data-edge-to="H0"><defs>
      <marker id="arrow-standard-q0-H0" markerWidth="10" markerHeight="10" refX="9" refY="3" orient="auto" markerUnits="strokeWidth">
        <polygon points="0,0 0,6 9,3" fill="#48677e" />
      </marker></defs><path d="M 62 96.5 L 122 96.5 L 122 97 L 182 97" fill="none" stroke="transparent" stroke-width="20" pointer-events="stroke" class="edge-hit-area" /><path d="M 62 96.5 L 122 96.5 L 122 97 L 182 97" fill="none" stroke="#48677e" stroke-width="1" marker-end="url(#arrow-standard-q0-H0)" pointer-events="none" /></g><g data-runiq-edge="H0-control0-1" data-edge-id="H0-control0-1" data-edge-from="H0" data-edge-to="control0"><defs>
      <marker id="arrow-standard-H0-control0" markerWidth="10" markerHeight="10" refX="9" refY="3" orient="auto" markerUnits="strokeWidth">
        <polygon points="0,0 0,6 9,3" fill="#48677e" />
      </marker></defs><path d="M 202 97 L 272.5 97 L 272.5 97 L 343 97" fill="none" stroke="transparent" stroke-width="20" pointer-events="stroke" class="edge-hit-area" /><path d="M 202 97 L 272.5 97 L 272.5 97 L 343 97" fill="none" stroke="#48677e" stroke-width="1" marker-end="url(#arrow-standard-H0-control0)" pointer-events="none" /></g><g data-runiq-edge="q1-target1-2" data-edge-id="q1-target1-2" data-edge-from="q1" data-edge-to="target1"><defs>
      <marker id="arrow-standard-q1-target1" markerWidth="10" markerHeight="10" refX="9" refY="3" orient="auto" markerUnits="strokeWidth">
        <polygon points="0,0 0,6 9,3" fill="#48677e" />
      </marker></defs><path d="M 372 12.5 L 407 12.5 L 407 91 L 492 94" fill="none" stroke="transparent" stroke-width="20" pointer-events="stroke" class="edge-hit-area" /><path d="M 372 12.5 L 407 12.5 L 407 91 L 492 94" fill="none" stroke="#48677e" stroke-width="1" marker-end="url(#arrow-standard-q1-target1)" pointer-events="none" /></g><g data-runiq-edge="control0-target1-3" data-edge-id="control0-target1-3" data-edge-from="control0" data-edge-to="target1"><defs>
      <marker id="arrow-standard-control0-target1" markerWidth="10" markerHeight="10" refX="9" refY="3" orient="auto" markerUnits="strokeWidth">
        <polygon points="0,0 0,6 9,3" fill="#48677e" />
      </marker></defs><path d="M 351 97 L 421.5 97 L 421.5 94 L 492 94" fill="none" stroke="transparent" stroke-width="20" pointer-events="stroke" class="edge-hit-area" /><path d="M 351 97 L 421.5 97 L 421.5 94 L 492 94" fill="none" stroke="#48677e" stroke-width="1" marker-end="url(#arrow-standard-control0-target1)" pointer-events="none" /></g><g data-runiq-node="q0" data-node-id="q0" data-node-shape="qubitWire"><g><line x1="12" y1="96" x2="62" y2="96" stroke="#48677e" stroke-width="1" /></g></g><g data-runiq-node="q1" data-node-id="q1" data-node-shape="qubitWire"><g><line x1="322" y1="12" x2="372" y2="12" stroke="#48677e" stroke-width="1" /></g></g><g data-runiq-node="H0" data-node-id="H0" data-node-shape="gateH"><g><rect x="182" y="87" width="20" height="20" fill="#e8f5e9" stroke="#000" stroke-width="2" rx="2" /><text x="192" y="101" 
      text-anchor="middle" 
      dominant-baseline="middle"
      font-family="sans-serif" 
      font-size="14"
      fill="#000">
      H
    </text></g></g><g data-runiq-node="control0" data-node-id="control0" data-node-shape="controlDot"><g><circle cx="347" cy="97" r="4" fill="#000" stroke="none" /></g></g><g data-runiq-node="target1" data-node-id="target1" data-node-shape="cnotTarget"><g><circle cx="500" cy="94" r="8" fill="#fff" stroke="#000" stroke-width="2" /><line x1="494" y1="94" x2="506" y2="94" stroke="#000" stroke-width="2" /><line x1="500" y1="88" x2="500" y2="100" stroke="#000" stroke-width="2" /></g></g></svg>