<svg xmlns="http://www.w3.org/2000/svg" xmlns:xlink="http://www.w3.org/1999/xlink" 
    width="1935.2" height="291.8" 
    viewBox="0 0 1935.2 291.8"
    role="img" aria-labelledby="diagram-title" data-id="runiq-diagram">
<title id="diagram-title">Diagram</title><defs><style type="text/css"><![CDATA[.runiq-node-text { font-family: sans-serif; font-size: 14px; }.runiq-edge-text { font-family: sans-serif; font-size: 12px; }.runiq-container-label { font-family: sans-serif; font-size: 16px; font-weight: bold; fill: #666; }]]></style><pattern id="pedigree-half-fill" width="40" height="40" patternUnits="userSpaceOnUse"><rect x="0" y="0" width="20" height="40" fill="#000"/><rect x="20" y="0" width="20" height="40" fill="#fff"/></pattern></defs><g data-runiq-edge="q0-H0_init-0" data-edge-id="q0-H0_init-0" data-edge-from="q0" data-edge-to="H0_init"><defs>
      <marker id="arrow-standard-q0-H0_init" markerWidth="10" markerHeight="10" refX="9" refY="3" orient="auto" markerUnits="strokeWidth">
        <polygon points="0,0 0,6 9,3" fill="#48677e" />
      </marker></defs><path d="M 62 32.5 L 122 32.5 L 122 33 L 182 33" fill="none" stroke="transparent" stroke-width="20" pointer-events="stroke" class="edge-hit-area" /><path d="M 62 32.5 L 122 32.5 L 122 33 L 182 33" fill="none" stroke="#48677e" stroke-width="1" marker-end="url(#arrow-standard-q0-H0_init)" pointer-events="none" /></g><g data-runiq-edge="H0_init-barrier1-1" data-edge-id="H0_init-barrier1-1" data-edge-from="H0_init" data-edge-to="barrier1"><defs>
      <marker id="arrow-standard-H0_init-barrier1" markerWidth="10" markerHeight="10" refX="9" refY="3" orient="auto" markerUnits="strokeWidth">
        <polygon points="0,0 0,6 9,3" fill="#48677e" />
      </marker></defs><path d="M 202 33 L 262.5 33 L 262.5 13 L 323 13" fill="none" stroke="transparent" stroke-width="20" pointer-events="stroke" class="edge-hit-area" /><path d="M 202 33 L 262.5 33 L 262.5 13 L 323 13" fill="none" stroke="#48677e" stroke-width="1" marker-end="url(#arrow-standard-H0_init-barrier1)" pointer-events="none" /></g><g data-runiq-edge="barrier1-oracle0-2" data-edge-id="barrier1-oracle0-2" data-edge-from="barrier1" data-edge-to="oracle0"><defs>
      <marker id="arrow-standard-barrier1-oracle0" markerWidth="10" markerHeight="10" refX="9" refY="3" orient="auto" markerUnits="strokeWidth">
        <polygon points="0,0 0,6 9,3" fill="#48677e" />
      </marker></defs><path d="M 323 13 L 323 23.2 L 444 23.2 L 444 33.4" fill="none" stroke="transparent" stroke-width="20" pointer-events="stroke" class="edge-hit-area" /><path d="M 323 13 L 323 23.2 L 444 23.2 L 444 33.4" fill="none" stroke="#48677e" stroke-width="1" marker-end="url(#arrow-standard-barrier1-oracle0)" pointer-events="none" /></g><g data-runiq-edge="oracle0-barrier2-3" data-edge-id="oracle0-barrier2-3" data-edge-from="oracle0" data-edge-to="barrier2"><defs>
      <marker id="arrow-standard-oracle0-barrier2" markerWidth="10" markerHeight="10" refX="9" refY="3" orient="auto" markerUnits="strokeWidth">
        <polygon points="0,0 0,6 9,3" fill="#48677e" />
      </marker></defs><path d="M 514.4 33.4 L 586.9 33.4 L 586.9 13 L 659.4 13" fill="none" stroke="transparent" stroke-width="20" pointer-events="stroke" class="edge-hit-area" /><path d="M 514.4 33.4 L 586.9 33.4 L 586.9 13 L 659.4 13" fill="none" stroke="#48677e" stroke-width="1" marker-end="url(#arrow-standard-oracle0-barrier2)" pointer-events="none" /></g><g data-runiq-edge="barrier2-H0_diff-4" data-edge-id="barrier2-H0_diff-4" data-edge-from="barrier2" data-edge-to="H0_diff"><defs>
      <marker id="arrow-standard-barrier2-H0_diff" markerWidth="10" markerHeight="10" refX="9" refY="3" orient="auto" markerUnits="strokeWidth">
        <polygon points="0,0 0,6 9,3" fill="#48677e" />
      </marker></defs><path d="M 659.4 13 L 659.4 23 L 829.6 23 L 829.6 33" fill="none" stroke="transparent" stroke-width="20" pointer-events="stroke" class="edge-hit-area" /><path d="M 659.4 13 L 659.4 23 L 829.6 23 L 829.6 33" fill="none" stroke="#48677e" stroke-width="1" marker-end="url(#arrow-standard-barrier2-H0_diff)" pointer-events="none" /></g><g data-runiq-edge="H0_diff-X0_diff-5" data-edge-id="H0_diff-X0_diff-5" data-edge-from="H0_diff" data-edge-to="X0_diff"><defs>
      <marker id="arrow-standard-H0_diff-X0_diff" markerWidth="10" markerHeight="10" refX="9" refY="3" orient="auto" markerUnits="strokeWidth">
        <polygon points="0,0 0,6 9,3" fill="#48677e" />
      </marker></defs><path d="M 849.6 33 L 934.8 33 L 934.8 33 L 1020 33" fill="none" stroke="transparent" stroke-width="20" pointer-events="stroke" class="edge-hit-area" /><path d="M 849.6 33 L 934.8 33 L 934.8 33 L 1020 33" fill="none" stroke="#48677e" stroke-width="1" marker-end="url(#arrow-standard-H0_diff-X0_diff)" pointer-events="none" /></g><g data-runiq-edge="X0_diff-control0_diff-6" data-edge-id="X0_diff-control0_diff-6" data-edge-from="X0_diff" data-edge-to="control0_diff"><defs>
      <marker id="arrow-standard-X0_diff-control0_diff" markerWidth="10" markerHeight="10" refX="9" refY="3" orient="auto" markerUnits="strokeWidth">
        <polygon points="0,0 0,6 9,3" fill="#48677e" />
      </marker></defs><path d="M 1040 33 L 1116.6 33 L 1116.6 33 L 1193.2 33" fill="none" stroke="transparent" stroke-width="20" pointer-events="stroke" class="edge-hit-area" /><path d="M 1040 33 L 1116.6 33 L 1116.6 33 L 1193.2 33" fill="none" stroke="#48677e" stroke-width="1" marker-end="url(#arrow-standard-X0_diff-control0_diff)" pointer-events="none" /></g><g data-runiq-edge="control0_diff-X0_undo-7" data-edge-id="control0_diff-X0_undo-7" data-edge-from="control0_diff" data-edge-to="X0_undo"><defs>
      <marker id="arrow-standard-control0_diff-X0_undo" markerWidth="10" markerHeight="10" refX="9" refY="3" orient="auto" markerUnits="strokeWidth">
        <polygon points="0,0 0,6 9,3" fill="#48677e" />
      </marker></defs><path d="M 1201.2 33 L 1263.2 33 L 1263.2 32 L 1325.2 32" fill="none" stroke="transparent" stroke-width="20" pointer-events="stroke" class="edge-hit-area" /><path d="M 1201.2 33 L 1263.2 33 L 1263.2 32 L 1325.2 32" fill="none" stroke="#48677e" stroke-width="1" marker-end="url(#arrow-standard-control0_diff-X0_undo)" pointer-events="none" /></g><g data-runiq-edge="X0_undo-H0_final-8" data-edge-id="X0_undo-H0_final-8" data-edge-from="X0_undo" data-edge-to="H0_final"><defs>
      <marker id="arrow-standard-X0_undo-H0_final" markerWidth="10" markerHeight="10" refX="9" refY="3" orient="auto" markerUnits="strokeWidth">
        <polygon points="0,0 0,6 9,3" fill="#48677e" />
      </marker></defs><path d="M 1345.2 32 L 1405.2 32 L 1405.2 32 L 1465.2 32" fill="none" stroke="transparent" stroke-width="20" pointer-events="stroke" class="edge-hit-area" /><path d="M 1345.2 32 L 1405.2 32 L 1405.2 32 L 1465.2 32" fill="none" stroke="#48677e" stroke-width="1" marker-end="url(#arrow-standard-X0_undo-H0_final)" pointer-events="none" /></g><g data-runiq-edge="H0_final-barrier3-9" data-edge-id="H0_final-barrier3-9" data-edge-from="H0_final" data-edge-to="barrier3"><defs>
      <marker id="arrow-standard-H0_final-barrier3" markerWidth="10" markerHeight="10" refX="9" refY="3" orient="auto" markerUnits="strokeWidth">
        <polygon points="0,0 0,6 9,3" fill="#48677e" />
      </marker></defs><path d="M 1485.2 32 L 1550.2 32 L 1550.2 12 L 1615.2 12" fill="none" stroke="transparent" stroke-width="20" pointer-events="stroke" class="edge-hit-area" /><path d="M 1485.2 32 L 1550.2 32 L 1550.2 12 L 1615.2 12" fill="none" stroke="#48677e" stroke-width="1" marker-end="url(#arrow-standard-H0_final-barrier3)" pointer-events="none" /></g><g data-runiq-edge="barrier3-M0-10" data-edge-id="barrier3-M0-10" data-edge-from="barrier3" data-edge-to="M0"><defs>
      <marker id="arrow-standard-barrier3-M0" markerWidth="10" markerHeight="10" refX="9" refY="3" orient="auto" markerUnits="strokeWidth">
        <polygon points="0,0 0,6 9,3" fill="#48677e" />
      </marker></defs><path d="M 1615.2 12 L 1615.2 22 L 1745.2 22 L 1745.2 32" fill="none" stroke="transparent" stroke-width="20" pointer-events="stroke" class="edge-hit-area" /><path d="M 1615.2 12 L 1615.2 22 L 1745.2 22 L 1745.2 32" fill="none" stroke="#48677e" stroke-width="1" marker-end="url(#arrow-standard-barrier3-M0)" pointer-events="none" /></g><g data-runiq-edge="q1-H1_init-11" data-edge-id="q1-H1_init-11" data-edge-from="q1" data-edge-to="H1_init"><defs>
      <marker id="arrow-standard-q1-H1_init" markerWidth="10" markerHeight="10" refX="9" refY="3" orient="auto" markerUnits="strokeWidth">
        <polygon points="0,0 0,6 9,3" fill="#48677e" />
      </marker></defs><path d="M 514.4 143.5 L 581.9 143.5 L 581.9 144 L 649.4 144" fill="none" stroke="transparent" stroke-width="20" pointer-events="stroke" class="edge-hit-area" /><path d="M 514.4 143.5 L 581.9 143.5 L 581.9 144 L 649.4 144" fill="none" stroke="#48677e" stroke-width="1" marker-end="url(#arrow-standard-q1-H1_init)" pointer-events="none" /></g><g data-runiq-edge="H1_init-oracle1-12" data-edge-id="H1_init-oracle1-12" data-edge-from="H1_init" data-edge-to="oracle1"><defs>
      <marker id="arrow-standard-H1_init-oracle1" markerWidth="10" markerHeight="10" refX="9" refY="3" orient="auto" markerUnits="strokeWidth">
        <polygon points="0,0 0,6 9,3" fill="#48677e" />
      </marker></defs><path d="M 669.4 144 L 736.9 144 L 736.9 144.4 L 804.4 144.4" fill="none" stroke="transparent" stroke-width="20" pointer-events="stroke" class="edge-hit-area" /><path d="M 669.4 144 L 736.9 144 L 736.9 144.4 L 804.4 144.4" fill="none" stroke="#48677e" stroke-width="1" marker-end="url(#arrow-standard-H1_init-oracle1)" pointer-events="none" /></g><g data-runiq-edge="oracle1-H1_diff-13" data-edge-id="oracle1-H1_diff-13" data-edge-from="oracle1" data-edge-to="H1_diff"><defs>
      <marker id="arrow-standard-oracle1-H1_diff" markerWidth="10" markerHeight="10" refX="9" refY="3" orient="auto" markerUnits="strokeWidth">
        <polygon points="0,0 0,6 9,3" fill="#48677e" />
      </marker></defs><path d="M 874.8 144.4 L 947.4 144.4 L 947.4 144 L 1020 144" fill="none" stroke="transparent" stroke-width="20" pointer-events="stroke" class="edge-hit-area" /><path d="M 874.8 144.4 L 947.4 144.4 L 947.4 144 L 1020 144" fill="none" stroke="#48677e" stroke-width="1" marker-end="url(#arrow-standard-oracle1-H1_diff)" pointer-events="none" /></g><g data-runiq-edge="H1_diff-X1_diff-14" data-edge-id="H1_diff-X1_diff-14" data-edge-from="H1_diff" data-edge-to="X1_diff"><defs>
      <marker id="arrow-standard-H1_diff-X1_diff" markerWidth="10" markerHeight="10" refX="9" refY="3" orient="auto" markerUnits="strokeWidth">
        <polygon points="0,0 0,6 9,3" fill="#48677e" />
      </marker></defs><path d="M 1040 144 L 1112.6 144 L 1112.6 144 L 1185.2 144" fill="none" stroke="transparent" stroke-width="20" pointer-events="stroke" class="edge-hit-area" /><path d="M 1040 144 L 1112.6 144 L 1112.6 144 L 1185.2 144" fill="none" stroke="#48677e" stroke-width="1" marker-end="url(#arrow-standard-H1_diff-X1_diff)" pointer-events="none" /></g><g data-runiq-edge="X1_diff-control1_diff-15" data-edge-id="X1_diff-control1_diff-15" data-edge-from="X1_diff" data-edge-to="control1_diff"><defs>
      <marker id="arrow-standard-X1_diff-control1_diff" markerWidth="10" markerHeight="10" refX="9" refY="3" orient="auto" markerUnits="strokeWidth">
        <polygon points="0,0 0,6 9,3" fill="#48677e" />
      </marker></defs><path d="M 1205.2 144 L 1268.2 144 L 1268.2 143 L 1331.2 143" fill="none" stroke="transparent" stroke-width="20" pointer-events="stroke" class="edge-hit-area" /><path d="M 1205.2 144 L 1268.2 144 L 1268.2 143 L 1331.2 143" fill="none" stroke="#48677e" stroke-width="1" marker-end="url(#arrow-standard-X1_diff-control1_diff)" pointer-events="none" /></g><g data-runiq-edge="control1_diff-X1_undo-16" data-edge-id="control1_diff-X1_undo-16" data-edge-from="control1_diff" data-edge-to="X1_undo"><defs>
      <marker id="arrow-standard-control1_diff-X1_undo" markerWidth="10" markerHeight="10" refX="9" refY="3" orient="auto" markerUnits="strokeWidth">
        <polygon points="0,0 0,6 9,3" fill="#48677e" />
      </marker></defs><path d="M 1339.2 143 L 1402.2 143 L 1402.2 142 L 1465.2 142" fill="none" stroke="transparent" stroke-width="20" pointer-events="stroke" class="edge-hit-area" /><path d="M 1339.2 143 L 1402.2 143 L 1402.2 142 L 1465.2 142" fill="none" stroke="#48677e" stroke-width="1" marker-end="url(#arrow-standard-control1_diff-X1_undo)" pointer-events="none" /></g><g data-runiq-edge="X1_undo-H1_final-17" data-edge-id="X1_undo-H1_final-17" data-edge-from="X1_undo" data-edge-to="H1_final"><defs>
      <marker id="arrow-standard-X1_undo-H1_final" markerWidth="10" markerHeight="10" refX="9" refY="3" orient="auto" markerUnits="strokeWidth">
        <polygon points="0,0 0,6 9,3" fill="#48677e" />
      </marker></defs><path d="M 1485.2 142 L 1545.2 142 L 1545.2 142 L 1605.2 142" fill="none" stroke="transparent" stroke-width="20" pointer-events="stroke" class="edge-hit-area" /><path d="M 1485.2 142 L 1545.2 142 L 1545.2 142 L 1605.2 142" fill="none" stroke="#48677e" stroke-width="1" marker-end="url(#arrow-standard-X1_undo-H1_final)" pointer-events="none" /></g><g data-runiq-edge="H1_final-M1-18" data-edge-id="H1_final-M1-18" data-edge-from="H1_final" data-edge-to="M1"><defs>
      <marker id="arrow-standard-H1_final-M1" markerWidth="10" markerHeight="10" refX="9" refY="3" orient="auto" markerUnits="strokeWidth">
        <polygon points="0,0 0,6 9,3" fill="#48677e" />
      </marker></defs><path d="M 1625.2 142 L 1685.2 142 L 1685.2 142 L 1745.2 142" fill="none" stroke="transparent" stroke-width="20" pointer-events="stroke" class="edge-hit-area" /><path d="M 1625.2 142 L 1685.2 142 L 1685.2 142 L 1745.2 142" fill="none" stroke="#48677e" stroke-width="1" marker-end="url(#arrow-standard-H1_final-M1)" pointer-events="none" /></g><g data-runiq-edge="q2-H2_init-19" data-edge-id="q2-H2_init-19" data-edge-from="q2" data-edge-to="H2_init"><defs>
      <marker id="arrow-standard-q2-H2_init" markerWidth="10" markerHeight="10" refX="9" refY="3" orient="auto" markerUnits="strokeWidth">
        <polygon points="0,0 0,6 9,3" fill="#48677e" />
      </marker></defs><path d="M 684.4 252.5 L 757 252.5 L 757 253 L 829.6 253" fill="none" stroke="transparent" stroke-width="20" pointer-events="stroke" class="edge-hit-area" /><path d="M 684.4 252.5 L 757 252.5 L 757 253 L 829.6 253" fill="none" stroke="#48677e" stroke-width="1" marker-end="url(#arrow-standard-q2-H2_init)" pointer-events="none" /></g><g data-runiq-edge="H2_init-oracle2-20" data-edge-id="H2_init-oracle2-20" data-edge-from="H2_init" data-edge-to="oracle2"><defs>
      <marker id="arrow-standard-H2_init-oracle2" markerWidth="10" markerHeight="10" refX="9" refY="3" orient="auto" markerUnits="strokeWidth">
        <polygon points="0,0 0,6 9,3" fill="#48677e" />
      </marker></defs><path d="M 849.6 253 L 922.2 253 L 922.2 253.4 L 994.8 253.4" fill="none" stroke="transparent" stroke-width="20" pointer-events="stroke" class="edge-hit-area" /><path d="M 849.6 253 L 922.2 253 L 922.2 253.4 L 994.8 253.4" fill="none" stroke="#48677e" stroke-width="1" marker-end="url(#arrow-standard-H2_init-oracle2)" pointer-events="none" /></g><g data-runiq-edge="oracle2-H2_diff-21" data-edge-id="oracle2-H2_diff-21" data-edge-from="oracle2" data-edge-to="H2_diff"><defs>
      <marker id="arrow-standard-oracle2-H2_diff" markerWidth="10" markerHeight="10" refX="9" refY="3" orient="auto" markerUnits="strokeWidth">
        <polygon points="0,0 0,6 9,3" fill="#48677e" />
      </marker></defs><path d="M 1065.2 253.4 L 1125.2 253.4 L 1125.2 253 L 1185.2 253" fill="none" stroke="transparent" stroke-width="20" pointer-events="stroke" class="edge-hit-area" /><path d="M 1065.2 253.4 L 1125.2 253.4 L 1125.2 253 L 1185.2 253" fill="none" stroke="#48677e" stroke-width="1" marker-end="url(#arrow-standard-oracle2-H2_diff)" pointer-events="none" /></g><g data-runiq-edge="H2_diff-X2_diff-22" data-edge-id="H2_diff-X2_diff-22" data-edge-from="H2_diff" data-edge-to="X2_diff"><defs>
      <marker id="arrow-standard-H2_diff-X2_diff" markerWidth="10" markerHeight="10" refX="9" refY="3" orient="auto" markerUnits="strokeWidth">
        <polygon points="0,0 0,6 9,3" fill="#48677e" />
      </marker></defs><path d="M 1205.2 253 L 1265.2 253 L 1265.2 253 L 1325.2 253" fill="none" stroke="transparent" stroke-width="20" pointer-events="stroke" class="edge-hit-area" /><path d="M 1205.2 253 L 1265.2 253 L 1265.2 253 L 1325.2 253" fill="none" stroke="#48677e" stroke-width="1" marker-end="url(#arrow-standard-H2_diff-X2_diff)" pointer-events="none" /></g><g data-runiq-edge="X2_diff-target2_diff-23" data-edge-id="X2_diff-target2_diff-23" data-edge-from="X2_diff" data-edge-to="target2_diff"><defs>
      <marker id="arrow-standard-X2_diff-target2_diff" markerWidth="10" markerHeight="10" refX="9" refY="3" orient="auto" markerUnits="strokeWidth">
        <polygon points="0,0 0,6 9,3" fill="#48677e" />
      </marker></defs><path d="M 1345.2 253 L 1405.2 253 L 1405.2 250 L 1465.2 250" fill="none" stroke="transparent" stroke-width="20" pointer-events="stroke" class="edge-hit-area" /><path d="M 1345.2 253 L 1405.2 253 L 1405.2 250 L 1465.2 250" fill="none" stroke="#48677e" stroke-width="1" marker-end="url(#arrow-standard-X2_diff-target2_diff)" pointer-events="none" /></g><g data-runiq-edge="target2_diff-X2_undo-24" data-edge-id="target2_diff-X2_undo-24" data-edge-from="target2_diff" data-edge-to="X2_undo"><defs>
      <marker id="arrow-standard-target2_diff-X2_undo" markerWidth="10" markerHeight="10" refX="9" refY="3" orient="auto" markerUnits="strokeWidth">
        <polygon points="0,0 0,6 9,3" fill="#48677e" />
      </marker></defs><path d="M 1485.2 250 L 1545.2 250 L 1545.2 250 L 1605.2 250" fill="none" stroke="transparent" stroke-width="20" pointer-events="stroke" class="edge-hit-area" /><path d="M 1485.2 250 L 1545.2 250 L 1545.2 250 L 1605.2 250" fill="none" stroke="#48677e" stroke-width="1" marker-end="url(#arrow-standard-target2_diff-X2_undo)" pointer-events="none" /></g><g data-runiq-edge="X2_undo-H2_final-25" data-edge-id="X2_undo-H2_final-25" data-edge-from="X2_undo" data-edge-to="H2_final"><defs>
      <marker id="arrow-standard-X2_undo-H2_final" markerWidth="10" markerHeight="10" refX="9" refY="3" orient="auto" markerUnits="strokeWidth">
        <polygon points="0,0 0,6 9,3" fill="#48677e" />
      </marker></defs><path d="M 1625.2 250 L 1686.45 250 L 1686.45 250 L 1747.7 250" fill="none" stroke="transparent" stroke-width="20" pointer-events="stroke" class="edge-hit-area" /><path d="M 1625.2 250 L 1686.45 250 L 1686.45 250 L 1747.7 250" fill="none" stroke="#48677e" stroke-width="1" marker-end="url(#arrow-standard-X2_undo-H2_final)" pointer-events="none" /></g><g data-runiq-edge="H2_final-M2-26" data-edge-id="H2_final-M2-26" data-edge-from="H2_final" data-edge-to="M2"><defs>
      <marker id="arrow-standard-H2_final-M2" markerWidth="10" markerHeight="10" refX="9" refY="3" orient="auto" markerUnits="strokeWidth">
        <polygon points="0,0 0,6 9,3" fill="#48677e" />
      </marker></defs><path d="M 1767.7 250 L 1828.95 250 L 1828.95 250 L 1890.2 250" fill="none" stroke="transparent" stroke-width="20" pointer-events="stroke" class="edge-hit-area" /><path d="M 1767.7 250 L 1828.95 250 L 1828.95 250 L 1890.2 250" fill="none" stroke="#48677e" stroke-width="1" marker-end="url(#arrow-standard-H2_final-M2)" pointer-events="none" /></g><g data-runiq-edge="control0_diff-control1_diff-27" data-edge-id="control0_diff-control1_diff-27" data-edge-from="control0_diff" data-edge-to="control1_diff"><defs>
      <marker id="arrow-standard-control0_diff-control1_diff" markerWidth="10" markerHeight="10" refX="9" refY="3" orient="auto" markerUnits="strokeWidth">
        <polygon points="0,0 0,6 9,3" fill="#48677e" />
      </marker></defs><path d="M 1201.2 33 L 1240.2 33 L 1240.2 142 L 1331.2 143" fill="none" stroke="transparent" stroke-width="20" pointer-events="stroke" class="edge-hit-area" /><path d="M 1201.2 33 L 1240.2 33 L 1240.2 142 L 1331.2 143" fill="none" stroke="#48677e" stroke-width="1" marker-end="url(#arrow-standard-control0_diff-control1_diff)" pointer-events="none" /></g><g data-runiq-edge="control1_diff-target2_diff-28" data-edge-id="control1_diff-target2_diff-28" data-edge-from="control1_diff" data-edge-to="target2_diff"><defs>
      <marker id="arrow-standard-control1_diff-target2_diff" markerWidth="10" markerHeight="10" refX="9" refY="3" orient="auto" markerUnits="strokeWidth">
        <polygon points="0,0 0,6 9,3" fill="#48677e" />
      </marker></defs><path d="M 1339.2 143 L 1380.2 143 L 1380.2 247 L 1465.2 250" fill="none" stroke="transparent" stroke-width="20" pointer-events="stroke" class="edge-hit-area" /><path d="M 1339.2 143 L 1380.2 143 L 1380.2 247 L 1465.2 250" fill="none" stroke="#48677e" stroke-width="1" marker-end="url(#arrow-standard-control1_diff-target2_diff)" pointer-events="none" /></g><g data-runiq-node="q0" data-node-id="q0" data-node-shape="qubitWire"><g><line x1="12" y1="32" x2="62" y2="32" stroke="#48677e" stroke-width="1" /></g></g><g data-runiq-node="q1" data-node-id="q1" data-node-shape="qubitWire"><g><line x1="464.4" y1="143" x2="514.4" y2="143" stroke="#48677e" stroke-width="1" /></g></g><g data-runiq-node="q2" data-node-id="q2" data-node-shape="qubitWire"><g><line x1="634.4" y1="252" x2="684.4" y2="252" stroke="#48677e" stroke-width="1" /></g></g><g data-runiq-node="H0_init" data-node-id="H0_init" data-node-shape="gateH"><g><rect x="182" y="23" width="20" height="20" fill="#e8f5e9" stroke="#000" stroke-width="2" rx="2" /><text x="192" y="37" 
      text-anchor="middle" 
      dominant-baseline="middle"
      font-family="sans-serif" 
      font-size="14"
      fill="#000">
      H
    </text></g></g><g data-runiq-node="H1_init" data-node-id="H1_init" data-node-shape="gateH"><g><rect x="649.4" y="134" width="20" height="20" fill="#e8f5e9" stroke="#000" stroke-width="2" rx="2" /><text x="659.4" y="148" 
      text-anchor="middle" 
      dominant-baseline="middle"
      font-family="sans-serif" 
      font-size="14"
      fill="#000">
      H
    </text></g></g><g data-runiq-node="H2_init" data-node-id="H2_init" data-node-shape="gateH"><g><rect x="829.6" y="243" width="20" height="20" fill="#e8f5e9" stroke="#000" stroke-width="2" rx="2" /><text x="839.6" y="257" 
      text-anchor="middle" 
      dominant-baseline="middle"
      font-family="sans-serif" 
      font-size="14"
      fill="#000">
      H
    </text></g></g><g data-runiq-node="barrier1" data-node-id="barrier1" data-node-shape="barrier"><g><line x1="323" y1="13" x2="323" y2="53" 
            stroke="#48677e" stroke-width="2" stroke-dasharray="4,4" /></g></g><g data-runiq-node="oracle0" data-node-id="oracle0" data-node-shape="rectangle">
      <rect x="444" y="15" width="70.4" height="36.8"
            fill="#f3e5f5" stroke="#000" stroke-width="1" />
      
      <text x="479.2" y="33.4" 
      text-anchor="middle" 
      dominant-baseline="middle"
      font-family="sans-serif" 
      font-size="14"
      fill="#FFFFFF">
      Oracle
    </text>
    </g><g data-runiq-node="oracle1" data-node-id="oracle1" data-node-shape="rectangle">
      <rect x="804.4" y="126" width="70.4" height="36.8"
            fill="#f3e5f5" stroke="#000" stroke-width="1" />
      
      <text x="839.6" y="144.4" 
      text-anchor="middle" 
      dominant-baseline="middle"
      font-family="sans-serif" 
      font-size="14"
      fill="#FFFFFF">
      Oracle
    </text>
    </g><g data-runiq-node="oracle2" data-node-id="oracle2" data-node-shape="rectangle">
      <rect x="994.8" y="235" width="70.4" height="36.8"
            fill="#f3e5f5" stroke="#000" stroke-width="1" />
      
      <text x="1030" y="253.4" 
      text-anchor="middle" 
      dominant-baseline="middle"
      font-family="sans-serif" 
      font-size="14"
      fill="#FFFFFF">
      Oracle
    </text>
    </g><g data-runiq-node="barrier2" data-node-id="barrier2" data-node-shape="barrier"><g><line x1="659.4" y1="13" x2="659.4" y2="53" 
            stroke="#48677e" stroke-width="2" stroke-dasharray="4,4" /></g></g><g data-runiq-node="H0_diff" data-node-id="H0_diff" data-node-shape="gateH"><g><rect x="829.6" y="23" width="20" height="20" fill="#e8f5e9" stroke="#000" stroke-width="2" rx="2" /><text x="839.6" y="37" 
      text-anchor="middle" 
      dominant-baseline="middle"
      font-family="sans-serif" 
      font-size="14"
      fill="#000">
      H
    </text></g></g><g data-runiq-node="H1_diff" data-node-id="H1_diff" data-node-shape="gateH"><g><rect x="1020" y="134" width="20" height="20" fill="#e8f5e9" stroke="#000" stroke-width="2" rx="2" /><text x="1030" y="148" 
      text-anchor="middle" 
      dominant-baseline="middle"
      font-family="sans-serif" 
      font-size="14"
      fill="#000">
      H
    </text></g></g><g data-runiq-node="H2_diff" data-node-id="H2_diff" data-node-shape="gateH"><g><rect x="1185.2" y="243" width="20" height="20" fill="#e8f5e9" stroke="#000" stroke-width="2" rx="2" /><text x="1195.2" y="257" 
      text-anchor="middle" 
      dominant-baseline="middle"
      font-family="sans-serif" 
      font-size="14"
      fill="#000">
      H
    </text></g></g><g data-runiq-node="X0_diff" data-node-id="X0_diff" data-node-shape="gateX"><g><rect x="1020" y="23" width="20" height="20" fill="#ffebee" stroke="#000" stroke-width="2" rx="2" /><text x="1030" y="37" 
      text-anchor="middle" 
      dominant-baseline="middle"
      font-family="sans-serif" 
      font-size="14"
      fill="#000">
      X
    </text></g></g><g data-runiq-node="X1_diff" data-node-id="X1_diff" data-node-shape="gateX"><g><rect x="1185.2" y="134" width="20" height="20" fill="#ffebee" stroke="#000" stroke-width="2" rx="2" /><text x="1195.2" y="148" 
      text-anchor="middle" 
      dominant-baseline="middle"
      font-family="sans-serif" 
      font-size="14"
      fill="#000">
      X
    </text></g></g><g data-runiq-node="X2_diff" data-node-id="X2_diff" data-node-shape="gateX"><g><rect x="1325.2" y="243" width="20" height="20" fill="#ffebee" stroke="#000" stroke-width="2" rx="2" /><text x="1335.2" y="257" 
      text-anchor="middle" 
      dominant-baseline="middle"
      font-family="sans-serif" 
      font-size="14"
      fill="#000">
      X
    </text></g></g><g data-runiq-node="control0_diff" data-node-id="control0_diff" data-node-shape="controlDot"><g><circle cx="1197.2" cy="33" r="4" fill="#000" stroke="none" /></g></g><g data-runiq-node="control1_diff" data-node-id="control1_diff" data-node-shape="controlDot"><g><circle cx="1335.2" cy="143" r="4" fill="#000" stroke="none" /></g></g><g data-runiq-node="target2_diff" data-node-id="target2_diff" data-node-shape="gateZ"><g><rect x="1465.2" y="240" width="20" height="20" fill="#ffebee" stroke="#000" stroke-width="2" rx="2" /><text x="1475.2" y="254" 
      text-anchor="middle" 
      dominant-baseline="middle"
      font-family="sans-serif" 
      font-size="14"
      fill="#000">
      Z
    </text></g></g><g data-runiq-node="X0_undo" data-node-id="X0_undo" data-node-shape="gateX"><g><rect x="1325.2" y="22" width="20" height="20" fill="#ffebee" stroke="#000" stroke-width="2" rx="2" /><text x="1335.2" y="36" 
      text-anchor="middle" 
      dominant-baseline="middle"
      font-family="sans-serif" 
      font-size="14"
      fill="#000">
      X
    </text></g></g><g data-runiq-node="X1_undo" data-node-id="X1_undo" data-node-shape="gateX"><g><rect x="1465.2" y="132" width="20" height="20" fill="#ffebee" stroke="#000" stroke-width="2" rx="2" /><text x="1475.2" y="146" 
      text-anchor="middle" 
      dominant-baseline="middle"
      font-family="sans-serif" 
      font-size="14"
      fill="#000">
      X
    </text></g></g><g data-runiq-node="X2_undo" data-node-id="X2_undo" data-node-shape="gateX"><g><rect x="1605.2" y="240" width="20" height="20" fill="#ffebee" stroke="#000" stroke-width="2" rx="2" /><text x="1615.2" y="254" 
      text-anchor="middle" 
      dominant-baseline="middle"
      font-family="sans-serif" 
      font-size="14"
      fill="#000">
      X
    </text></g></g><g data-runiq-node="H0_final" data-node-id="H0_final" data-node-shape="gateH"><g><rect x="1465.2" y="22" width="20" height="20" fill="#e8f5e9" stroke="#000" stroke-width="2" rx="2" /><text x="1475.2" y="36" 
      text-anchor="middle" 
      dominant-baseline="middle"
      font-family="sans-serif" 
      font-size="14"
      fill="#000">
      H
    </text></g></g><g data-runiq-node="H1_final" data-node-id="H1_final" data-node-shape="gateH"><g><rect x="1605.2" y="132" width="20" height="20" fill="#e8f5e9" stroke="#000" stroke-width="2" rx="2" /><text x="1615.2" y="146" 
      text-anchor="middle" 
      dominant-baseline="middle"
      font-family="sans-serif" 
      font-size="14"
      fill="#000">
      H
    </text></g></g><g data-runiq-node="H2_final" data-node-id="H2_final" data-node-shape="gateH"><g><rect x="1747.7" y="240" width="20" height="20" fill="#e8f5e9" stroke="#000" stroke-width="2" rx="2" /><text x="1757.7" y="254" 
      text-anchor="middle" 
      dominant-baseline="middle"
      font-family="sans-serif" 
      font-size="14"
      fill="#000">
      H
    </text></g></g><g data-runiq-node="barrier3" data-node-id="barrier3" data-node-shape="barrier"><g><line x1="1615.2" y1="12" x2="1615.2" y2="52" 
            stroke="#48677e" stroke-width="2" stroke-dasharray="4,4" /></g></g><g data-runiq-node="M0" data-node-id="M0" data-node-shape="measurement"><g><rect x="1745.2" y="22" width="25" height="20" fill="#e3f2fd" stroke="#000" stroke-width="2" rx="2" /><path d="M 1750.2,36 A 7.5,7.5 0 0,1 1765.2,36" 
            fill="none" stroke="#000" stroke-width="1.5" /><line x1="1757.7" y1="36" x2="1761.7" y2="30" 
            stroke="#000" stroke-width="1.5" /></g></g><g data-runiq-node="M1" data-node-id="M1" data-node-shape="measurement"><g><rect x="1745.2" y="132" width="25" height="20" fill="#e3f2fd" stroke="#000" stroke-width="2" rx="2" /><path d="M 1750.2,146 A 7.5,7.5 0 0,1 1765.2,146" 
            fill="none" stroke="#000" stroke-width="1.5" /><line x1="1757.7" y1="146" x2="1761.7" y2="140" 
            stroke="#000" stroke-width="1.5" /></g></g><g data-runiq-node="M2" data-node-id="M2" data-node-shape="measurement"><g><rect x="1890.2" y="240" width="25" height="20" fill="#e3f2fd" stroke="#000" stroke-width="2" rx="2" /><path d="M 1895.2,254 A 7.5,7.5 0 0,1 1910.2,254" 
            fill="none" stroke="#000" stroke-width="1.5" /><line x1="1902.7" y1="254" x2="1906.7" y2="248" 
            stroke="#000" stroke-width="1.5" /></g></g></svg>