<svg xmlns="http://www.w3.org/2000/svg" width="472.8" height="1087.6" viewBox="0 0 472.8 1087.6" role="img" aria-labelledby="diagram-title" data-id="runiq-diagram">
  <title id="diagram-title">Expression Grammar</title>
  <rect x="0" y="0" width="472.8" height="1087.6" fill="#f0f5f8" />
  <defs>
    <marker id="railroad-arrow" markerWidth="8" markerHeight="6" refX="7" refY="3" orient="auto" markerUnits="strokeWidth">
      <path d="M0,0 L8,3 L0,6 Z" fill="#0f172a" />
    </marker>
  </defs>
  <g stroke="#0f172a" stroke-width="1.5" stroke-linecap="round" stroke-linejoin="round"><text x="32" y="36" font-family="sans-serif" font-size="14" fill="#0f172a">Expr</text><g transform="translate(44, 48)"><circle cx="4" cy="59.8" r="4" fill="#0f172a" /><line x1="8" y1="59.8" x2="16" y2="59.8" />
        <rect x="16" y="45.4" width="57.6" height="28.8" rx="6" fill="#d7e5ed" stroke="#0f172a" stroke-dasharray="4 2" />
        <text x="44.8" y="59.8" text-anchor="middle" dominant-baseline="middle"
          font-family="sans-serif" font-size="14" font-style="italic" font-weight="normal" fill="#0f172a">
          Term
        </text>
      
<line x1="73.6" y1="59.8" x2="93.6" y2="59.8" />

        <rect x="141.6" y="22" width="32.4" height="28.8" rx="6" fill="#d7e5ed" stroke="#0f172a" />
        <text x="157.79999999999998" y="36.4" text-anchor="middle" dominant-baseline="middle"
          font-family="sans-serif" font-size="14" font-style="normal" font-weight="600" fill="#0f172a">
          +
        </text>
      
<path d="M 117.6 59.8 L 123.6 59.8 A 6 6 0 0 1 129.6 53.8 L 129.6 42.4 A 6 6 0 0 0 135.6 36.4 L 141.6 36.4" fill="none" />
<path d="M 174 36.4 L 187.6 36.4 A 6 6 0 0 0 193.6 42.4 L 193.6 53.8 A 6 6 0 0 1 199.6 59.8 L 205.6 59.8" fill="none" />

        <rect x="141.6" y="68.8" width="32.4" height="28.8" rx="6" fill="#d7e5ed" stroke="#0f172a" />
        <text x="157.79999999999998" y="83.2" text-anchor="middle" dominant-baseline="middle"
          font-family="sans-serif" font-size="14" font-style="normal" font-weight="600" fill="#0f172a">
          -
        </text>
      
<path d="M 117.6 59.8 L 123.6 59.8 A 6 6 0 0 0 129.6 65.8 L 129.6 77.2 A 6 6 0 0 1 135.6 83.2 L 141.6 83.2" fill="none" />
<path d="M 174 83.2 L 187.6 83.2 A 6 6 0 0 1 193.6 77.2 L 193.6 65.8 A 6 6 0 0 0 199.6 59.8 L 205.6 59.8" fill="none" />
<line x1="205.6" y1="59.8" x2="225.6" y2="59.8" />

        <rect x="225.6" y="45.4" width="57.6" height="28.8" rx="6" fill="#d7e5ed" stroke="#0f172a" stroke-dasharray="4 2" />
        <text x="254.4" y="59.8" text-anchor="middle" dominant-baseline="middle"
          font-family="sans-serif" font-size="14" font-style="italic" font-weight="normal" fill="#0f172a">
          Term
        </text>
      
<line x1="93.6" y1="59.8" x2="117.6" y2="59.8" />
<line x1="283.2" y1="59.8" x2="307.2" y2="59.8" />
<path d="M 283.2 59.8 L 289.2 59.8 A 6 6 0 0 0 295.2 65.8 L 295.2 102.6 A 6 6 0 0 0 289.2 108.6 L 111.6 108.6 A 6 6 0 0 0 105.6 102.6 L 105.6 65.8 A 6 6 0 0 0 111.6 59.8 L 117.6 59.8" fill="none" />
<path d="M 93.6 59.8 L 93.6 17 A 6 6 0 0 0 99.6 11 L 301.2 11 A 6 6 0 0 0 307.2 17 L 307.2 59.8" fill="none" /><line x1="307.2" y1="59.8" x2="327.2" y2="59.8" marker-end="url(#railroad-arrow)" /></g><text x="32" y="197.6" font-family="sans-serif" font-size="14" fill="#0f172a">Term</text><g transform="translate(44, 209.6)"><circle cx="4" cy="59.8" r="4" fill="#0f172a" /><line x1="8" y1="59.8" x2="16" y2="59.8" />
        <rect x="16" y="45.4" width="74.4" height="28.8" rx="6" fill="#d7e5ed" stroke="#0f172a" stroke-dasharray="4 2" />
        <text x="53.2" y="59.8" text-anchor="middle" dominant-baseline="middle"
          font-family="sans-serif" font-size="14" font-style="italic" font-weight="normal" fill="#0f172a">
          Factor
        </text>
      
<line x1="90.4" y1="59.8" x2="110.4" y2="59.8" />

        <rect x="158.4" y="22" width="32.4" height="28.8" rx="6" fill="#d7e5ed" stroke="#0f172a" />
        <text x="174.6" y="36.4" text-anchor="middle" dominant-baseline="middle"
          font-family="sans-serif" font-size="14" font-style="normal" font-weight="600" fill="#0f172a">
          *
        </text>
      
<path d="M 134.4 59.8 L 140.4 59.8 A 6 6 0 0 1 146.4 53.8 L 146.4 42.4 A 6 6 0 0 0 152.4 36.4 L 158.4 36.4" fill="none" />
<path d="M 190.8 36.4 L 204.4 36.4 A 6 6 0 0 0 210.4 42.4 L 210.4 53.8 A 6 6 0 0 1 216.4 59.8 L 222.4 59.8" fill="none" />

        <rect x="158.4" y="68.8" width="32.4" height="28.8" rx="6" fill="#d7e5ed" stroke="#0f172a" />
        <text x="174.6" y="83.2" text-anchor="middle" dominant-baseline="middle"
          font-family="sans-serif" font-size="14" font-style="normal" font-weight="600" fill="#0f172a">
          /
        </text>
      
<path d="M 134.4 59.8 L 140.4 59.8 A 6 6 0 0 0 146.4 65.8 L 146.4 77.2 A 6 6 0 0 1 152.4 83.2 L 158.4 83.2" fill="none" />
<path d="M 190.8 83.2 L 204.4 83.2 A 6 6 0 0 1 210.4 77.2 L 210.4 65.8 A 6 6 0 0 0 216.4 59.8 L 222.4 59.8" fill="none" />
<line x1="222.4" y1="59.8" x2="242.4" y2="59.8" />

        <rect x="242.4" y="45.4" width="74.4" height="28.8" rx="6" fill="#d7e5ed" stroke="#0f172a" stroke-dasharray="4 2" />
        <text x="279.6" y="59.8" text-anchor="middle" dominant-baseline="middle"
          font-family="sans-serif" font-size="14" font-style="italic" font-weight="normal" fill="#0f172a">
          Factor
        </text>
      
<line x1="110.4" y1="59.8" x2="134.4" y2="59.8" />
<line x1="316.8" y1="59.8" x2="340.8" y2="59.8" />
<path d="M 316.8 59.8 L 322.8 59.8 A 6 6 0 0 0 328.8 65.8 L 328.8 102.6 A 6 6 0 0 0 322.8 108.6 L 128.4 108.6 A 6 6 0 0 0 122.4 102.6 L 122.4 65.8 A 6 6 0 0 0 128.4 59.8 L 134.4 59.8" fill="none" />
<path d="M 110.4 59.8 L 110.4 17 A 6 6 0 0 0 116.4 11 L 334.8 11 A 6 6 0 0 0 340.8 17 L 340.8 59.8" fill="none" /><line x1="340.8" y1="59.8" x2="360.8" y2="59.8" marker-end="url(#railroad-arrow)" /></g><text x="32" y="359.2" font-family="sans-serif" font-size="14" fill="#0f172a">Factor</text><g transform="translate(44, 371.2)"><circle cx="4" cy="37.8" r="4" fill="#0f172a" /><line x1="8" y1="37.8" x2="16" y2="37.8" />
        <rect x="40" y="0" width="74.4" height="28.8" rx="6" fill="#d7e5ed" stroke="#0f172a" stroke-dasharray="4 2" />
        <text x="77.2" y="14.4" text-anchor="middle" dominant-baseline="middle"
          font-family="sans-serif" font-size="14" font-style="italic" font-weight="normal" fill="#0f172a">
          Number
        </text>
      
<path d="M 16 37.8 L 22 37.8 A 6 6 0 0 1 28 31.799999999999997 L 28 20.4 A 6 6 0 0 0 34 14.4 L 40 14.4" fill="none" />
<path d="M 114.4 14.4 L 208.4 14.4 A 6 6 0 0 0 214.4 20.4 L 214.4 31.799999999999997 A 6 6 0 0 1 220.4 37.8 L 226.4 37.8" fill="none" />

        <rect x="40" y="46.8" width="32.4" height="28.8" rx="6" fill="#d7e5ed" stroke="#0f172a" />
        <text x="56.2" y="61.199999999999996" text-anchor="middle" dominant-baseline="middle"
          font-family="sans-serif" font-size="14" font-style="normal" font-weight="600" fill="#0f172a">
          (
        </text>
      
<line x1="72.4" y1="61.199999999999996" x2="92.4" y2="61.199999999999996" />

        <rect x="92.4" y="46.8" width="57.6" height="28.8" rx="6" fill="#d7e5ed" stroke="#0f172a" stroke-dasharray="4 2" />
        <text x="121.2" y="61.199999999999996" text-anchor="middle" dominant-baseline="middle"
          font-family="sans-serif" font-size="14" font-style="italic" font-weight="normal" fill="#0f172a">
          Expr
        </text>
      
<line x1="150" y1="61.199999999999996" x2="170" y2="61.199999999999996" />

        <rect x="170" y="46.8" width="32.4" height="28.8" rx="6" fill="#d7e5ed" stroke="#0f172a" />
        <text x="186.2" y="61.199999999999996" text-anchor="middle" dominant-baseline="middle"
          font-family="sans-serif" font-size="14" font-style="normal" font-weight="600" fill="#0f172a">
          )
        </text>
      
<path d="M 16 37.8 L 22 37.8 A 6 6 0 0 0 28 43.8 L 28 55.199999999999996 A 6 6 0 0 1 34 61.199999999999996 L 40 61.199999999999996" fill="none" />
<path d="M 202.4 61.199999999999996 L 208.4 61.199999999999996 A 6 6 0 0 1 214.4 55.199999999999996 L 214.4 43.8 A 6 6 0 0 0 220.4 37.8 L 226.4 37.8" fill="none" /><line x1="226.4" y1="37.8" x2="246.4" y2="37.8" marker-end="url(#railroad-arrow)" /></g><text x="32" y="476.79999999999995" font-family="sans-serif" font-size="14" fill="#0f172a">Number</text><g transform="translate(44, 488.79999999999995)"><circle cx="4" cy="14.4" r="4" fill="#0f172a" /><line x1="8" y1="14.4" x2="16" y2="14.4" />
        <rect x="40" y="0" width="66" height="28.8" rx="6" fill="#d7e5ed" stroke="#0f172a" stroke-dasharray="4 2" />
        <text x="73" y="14.4" text-anchor="middle" dominant-baseline="middle"
          font-family="sans-serif" font-size="14" font-style="italic" font-weight="normal" fill="#0f172a">
          digit
        </text>
      
<line x1="16" y1="14.4" x2="40" y2="14.4" />
<line x1="106" y1="14.4" x2="130" y2="14.4" />
<path d="M 106 14.4 L 112 14.4 A 6 6 0 0 0 118 20.4 L 118 33.8 A 6 6 0 0 0 112 39.8 L 34 39.8 A 6 6 0 0 0 28 33.8 L 28 20.4 A 6 6 0 0 0 34 14.4 L 40 14.4" fill="none" /><line x1="130" y1="14.4" x2="150" y2="14.4" marker-end="url(#railroad-arrow)" /></g><text x="32" y="569.5999999999999" font-family="sans-serif" font-size="14" fill="#0f172a">digit</text><g transform="translate(44, 581.5999999999999)"><circle cx="4" cy="225.00000000000003" r="4" fill="#0f172a" /><line x1="8" y1="225.00000000000003" x2="16" y2="225.00000000000003" />
        <rect x="40" y="0" width="32.4" height="28.8" rx="6" fill="#cbd8e2" stroke="#0f172a" />
        <text x="56.2" y="14.4" text-anchor="middle" dominant-baseline="middle"
          font-family="sans-serif" font-size="14" font-style="normal" font-weight="600" fill="#0f172a">
          0
        </text>
      
<path d="M 16 225.00000000000003 L 22 225.00000000000003 A 6 6 0 0 1 28 219.00000000000003 L 28 20.4 A 6 6 0 0 0 34 14.4 L 40 14.4" fill="none" />
<path d="M 72.4 14.4 L 86 14.4 A 6 6 0 0 0 92 20.4 L 92 219.00000000000003 A 6 6 0 0 1 98 225.00000000000003 L 104 225.00000000000003" fill="none" />

        <rect x="40" y="46.8" width="32.4" height="28.8" rx="6" fill="#cbd8e2" stroke="#0f172a" />
        <text x="56.2" y="61.199999999999996" text-anchor="middle" dominant-baseline="middle"
          font-family="sans-serif" font-size="14" font-style="normal" font-weight="600" fill="#0f172a">
          1
        </text>
      
<path d="M 16 225.00000000000003 L 22 225.00000000000003 A 6 6 0 0 1 28 219.00000000000003 L 28 67.19999999999999 A 6 6 0 0 0 34 61.199999999999996 L 40 61.199999999999996" fill="none" />
<path d="M 72.4 61.199999999999996 L 86 61.199999999999996 A 6 6 0 0 0 92 67.19999999999999 L 92 219.00000000000003 A 6 6 0 0 1 98 225.00000000000003 L 104 225.00000000000003" fill="none" />

        <rect x="40" y="93.6" width="32.4" height="28.8" rx="6" fill="#cbd8e2" stroke="#0f172a" />
        <text x="56.2" y="108" text-anchor="middle" dominant-baseline="middle"
          font-family="sans-serif" font-size="14" font-style="normal" font-weight="600" fill="#0f172a">
          2
        </text>
      
<path d="M 16 225.00000000000003 L 22 225.00000000000003 A 6 6 0 0 1 28 219.00000000000003 L 28 114 A 6 6 0 0 0 34 108 L 40 108" fill="none" />
<path d="M 72.4 108 L 86 108 A 6 6 0 0 0 92 114 L 92 219.00000000000003 A 6 6 0 0 1 98 225.00000000000003 L 104 225.00000000000003" fill="none" />

        <rect x="40" y="140.39999999999998" width="32.4" height="28.8" rx="6" fill="#cbd8e2" stroke="#0f172a" />
        <text x="56.2" y="154.79999999999998" text-anchor="middle" dominant-baseline="middle"
          font-family="sans-serif" font-size="14" font-style="normal" font-weight="600" fill="#0f172a">
          3
        </text>
      
<path d="M 16 225.00000000000003 L 22 225.00000000000003 A 6 6 0 0 1 28 219.00000000000003 L 28 160.79999999999998 A 6 6 0 0 0 34 154.79999999999998 L 40 154.79999999999998" fill="none" />
<path d="M 72.4 154.79999999999998 L 86 154.79999999999998 A 6 6 0 0 0 92 160.79999999999998 L 92 219.00000000000003 A 6 6 0 0 1 98 225.00000000000003 L 104 225.00000000000003" fill="none" />

        <rect x="40" y="187.2" width="32.4" height="28.8" rx="6" fill="#cbd8e2" stroke="#0f172a" />
        <text x="56.2" y="201.6" text-anchor="middle" dominant-baseline="middle"
          font-family="sans-serif" font-size="14" font-style="normal" font-weight="600" fill="#0f172a">
          4
        </text>
      
<path d="M 16 225.00000000000003 L 22 225.00000000000003 A 6 6 0 0 1 28 219.00000000000003 L 28 207.6 A 6 6 0 0 0 34 201.6 L 40 201.6" fill="none" />
<path d="M 72.4 201.6 L 86 201.6 A 6 6 0 0 0 92 207.6 L 92 219.00000000000003 A 6 6 0 0 1 98 225.00000000000003 L 104 225.00000000000003" fill="none" />

        <rect x="40" y="234" width="32.4" height="28.8" rx="6" fill="#cbd8e2" stroke="#0f172a" />
        <text x="56.2" y="248.4" text-anchor="middle" dominant-baseline="middle"
          font-family="sans-serif" font-size="14" font-style="normal" font-weight="600" fill="#0f172a">
          5
        </text>
      
<path d="M 16 225.00000000000003 L 22 225.00000000000003 A 6 6 0 0 0 28 231.00000000000003 L 28 242.4 A 6 6 0 0 1 34 248.4 L 40 248.4" fill="none" />
<path d="M 72.4 248.4 L 86 248.4 A 6 6 0 0 1 92 242.4 L 92 231.00000000000003 A 6 6 0 0 0 98 225.00000000000003 L 104 225.00000000000003" fill="none" />

        <rect x="40" y="280.8" width="32.4" height="28.8" rx="6" fill="#cbd8e2" stroke="#0f172a" />
        <text x="56.2" y="295.2" text-anchor="middle" dominant-baseline="middle"
          font-family="sans-serif" font-size="14" font-style="normal" font-weight="600" fill="#0f172a">
          6
        </text>
      
<path d="M 16 225.00000000000003 L 22 225.00000000000003 A 6 6 0 0 0 28 231.00000000000003 L 28 289.2 A 6 6 0 0 1 34 295.2 L 40 295.2" fill="none" />
<path d="M 72.4 295.2 L 86 295.2 A 6 6 0 0 1 92 289.2 L 92 231.00000000000003 A 6 6 0 0 0 98 225.00000000000003 L 104 225.00000000000003" fill="none" />

        <rect x="40" y="327.6" width="32.4" height="28.8" rx="6" fill="#cbd8e2" stroke="#0f172a" />
        <text x="56.2" y="342" text-anchor="middle" dominant-baseline="middle"
          font-family="sans-serif" font-size="14" font-style="normal" font-weight="600" fill="#0f172a">
          7
        </text>
      
<path d="M 16 225.00000000000003 L 22 225.00000000000003 A 6 6 0 0 0 28 231.00000000000003 L 28 336 A 6 6 0 0 1 34 342 L 40 342" fill="none" />
<path d="M 72.4 342 L 86 342 A 6 6 0 0 1 92 336 L 92 231.00000000000003 A 6 6 0 0 0 98 225.00000000000003 L 104 225.00000000000003" fill="none" />

        <rect x="40" y="374.40000000000003" width="32.4" height="28.8" rx="6" fill="#cbd8e2" stroke="#0f172a" />
        <text x="56.2" y="388.8" text-anchor="middle" dominant-baseline="middle"
          font-family="sans-serif" font-size="14" font-style="normal" font-weight="600" fill="#0f172a">
          8
        </text>
      
<path d="M 16 225.00000000000003 L 22 225.00000000000003 A 6 6 0 0 0 28 231.00000000000003 L 28 382.8 A 6 6 0 0 1 34 388.8 L 40 388.8" fill="none" />
<path d="M 72.4 388.8 L 86 388.8 A 6 6 0 0 1 92 382.8 L 92 231.00000000000003 A 6 6 0 0 0 98 225.00000000000003 L 104 225.00000000000003" fill="none" />

        <rect x="40" y="421.20000000000005" width="32.4" height="28.8" rx="6" fill="#cbd8e2" stroke="#0f172a" />
        <text x="56.2" y="435.6" text-anchor="middle" dominant-baseline="middle"
          font-family="sans-serif" font-size="14" font-style="normal" font-weight="600" fill="#0f172a">
          9
        </text>
      
<path d="M 16 225.00000000000003 L 22 225.00000000000003 A 6 6 0 0 0 28 231.00000000000003 L 28 429.6 A 6 6 0 0 1 34 435.6 L 40 435.6" fill="none" />
<path d="M 72.4 435.6 L 86 435.6 A 6 6 0 0 1 92 429.6 L 92 231.00000000000003 A 6 6 0 0 0 98 225.00000000000003 L 104 225.00000000000003" fill="none" /><line x1="104" y1="225.00000000000003" x2="124" y2="225.00000000000003" marker-end="url(#railroad-arrow)" /></g></g></svg>