<svg xmlns="http://www.w3.org/2000/svg" width="806.8000000000001" height="3487.2" viewBox="0 0 806.8000000000001 3487.2" role="img" aria-labelledby="diagram-title" data-id="runiq-diagram">
  <title id="diagram-title">URL Grammar</title>
  <rect x="0" y="0" width="806.8000000000001" height="3487.2" fill="#f0f5f8" />
  <defs>
    <marker id="railroad-arrow" markerWidth="8" markerHeight="6" refX="7" refY="3" orient="auto" markerUnits="strokeWidth">
      <path d="M0,0 L8,3 L0,6 Z" fill="#0f172a" />
    </marker>
  </defs>
  <g stroke="#0f172a" stroke-width="1.5" stroke-linecap="round" stroke-linejoin="round"><text x="32" y="36" font-family="sans-serif" font-size="14" fill="#0f172a">URL</text><g transform="translate(44, 48)"><circle cx="4" cy="25.4" r="4" fill="#0f172a" /><line x1="8" y1="25.4" x2="16" y2="25.4" />
        <rect x="16" y="10.999999999999998" width="74.4" height="28.8" rx="6" fill="#d7e5ed" stroke="#0f172a" stroke-dasharray="4 2" />
        <text x="53.2" y="25.4" text-anchor="middle" dominant-baseline="middle"
          font-family="sans-serif" font-size="14" font-style="italic" font-weight="normal" fill="#0f172a">
          Scheme
        </text>
      
<line x1="90.4" y1="25.4" x2="110.4" y2="25.4" />

        <rect x="110.4" y="10.999999999999998" width="49.2" height="28.8" rx="6" fill="#d7e5ed" stroke="#0f172a" />
        <text x="135" y="25.4" text-anchor="middle" dominant-baseline="middle"
          font-family="sans-serif" font-size="14" font-style="normal" font-weight="600" fill="#0f172a">
          ://
        </text>
      
<line x1="159.60000000000002" y1="25.4" x2="179.60000000000002" y2="25.4" />

        <rect x="179.60000000000002" y="10.999999999999998" width="57.6" height="28.8" rx="6" fill="#d7e5ed" stroke="#0f172a" stroke-dasharray="4 2" />
        <text x="208.40000000000003" y="25.4" text-anchor="middle" dominant-baseline="middle"
          font-family="sans-serif" font-size="14" font-style="italic" font-weight="normal" fill="#0f172a">
          Host
        </text>
      
<line x1="237.20000000000002" y1="25.4" x2="257.20000000000005" y2="25.4" />

        <rect x="281.20000000000005" y="10.999999999999998" width="32.4" height="28.8" rx="6" fill="#d7e5ed" stroke="#0f172a" />
        <text x="297.40000000000003" y="25.4" text-anchor="middle" dominant-baseline="middle"
          font-family="sans-serif" font-size="14" font-style="normal" font-weight="600" fill="#0f172a">
          :
        </text>
      
<line x1="313.6" y1="25.4" x2="333.6" y2="25.4" />

        <rect x="333.6" y="10.999999999999998" width="57.6" height="28.8" rx="6" fill="#d7e5ed" stroke="#0f172a" stroke-dasharray="4 2" />
        <text x="362.40000000000003" y="25.4" text-anchor="middle" dominant-baseline="middle"
          font-family="sans-serif" font-size="14" font-style="italic" font-weight="normal" fill="#0f172a">
          Port
        </text>
      
<line x1="257.20000000000005" y1="25.4" x2="281.20000000000005" y2="25.4" />
<line x1="391.20000000000005" y1="25.4" x2="415.20000000000005" y2="25.4" />
<path d="M 257.20000000000005 25.4 L 257.20000000000005 6 A 6 6 0 0 0 263.20000000000005 0 L 409.20000000000005 0 A 6 6 0 0 0 415.20000000000005 6 L 415.20000000000005 25.4" fill="none" />
<line x1="415.20000000000005" y1="25.4" x2="435.20000000000005" y2="25.4" />

        <rect x="459.20000000000005" y="11" width="57.6" height="28.8" rx="6" fill="#d7e5ed" stroke="#0f172a" stroke-dasharray="4 2" />
        <text x="488.00000000000006" y="25.4" text-anchor="middle" dominant-baseline="middle"
          font-family="sans-serif" font-size="14" font-style="italic" font-weight="normal" fill="#0f172a">
          Path
        </text>
      
<line x1="435.20000000000005" y1="25.4" x2="459.20000000000005" y2="25.4" />
<line x1="516.8000000000001" y1="25.4" x2="540.8000000000001" y2="25.4" />
<path d="M 435.20000000000005 25.4 L 435.20000000000005 6 A 6 6 0 0 0 441.20000000000005 0 L 534.8000000000001 0 A 6 6 0 0 0 540.8000000000001 6 L 540.8000000000001 25.4" fill="none" />
<line x1="540.8000000000001" y1="25.4" x2="560.8000000000001" y2="25.4" />

        <rect x="584.8000000000001" y="11" width="66" height="28.8" rx="6" fill="#d7e5ed" stroke="#0f172a" stroke-dasharray="4 2" />
        <text x="617.8000000000001" y="25.4" text-anchor="middle" dominant-baseline="middle"
          font-family="sans-serif" font-size="14" font-style="italic" font-weight="normal" fill="#0f172a">
          Query
        </text>
      
<line x1="560.8000000000001" y1="25.4" x2="584.8000000000001" y2="25.4" />
<line x1="650.8000000000001" y1="25.4" x2="674.8000000000001" y2="25.4" />
<path d="M 560.8000000000001 25.4 L 560.8000000000001 6 A 6 6 0 0 0 566.8000000000001 0 L 668.8000000000001 0 A 6 6 0 0 0 674.8000000000001 6 L 674.8000000000001 25.4" fill="none" /><line x1="674.8000000000001" y1="25.4" x2="694.8000000000001" y2="25.4" marker-end="url(#railroad-arrow)" /></g><text x="32" y="128.8" font-family="sans-serif" font-size="14" fill="#0f172a">Scheme</text><g transform="translate(44, 140.8)"><circle cx="4" cy="37.8" r="4" fill="#0f172a" /><line x1="8" y1="37.8" x2="16" y2="37.8" />
        <rect x="40" y="0" width="57.6" height="28.8" rx="6" fill="#cbd8e2" stroke="#0f172a" />
        <text x="68.8" y="14.4" text-anchor="middle" dominant-baseline="middle"
          font-family="sans-serif" font-size="14" font-style="normal" font-weight="600" fill="#0f172a">
          http
        </text>
      
<path d="M 16 37.8 L 22 37.8 A 6 6 0 0 1 28 31.799999999999997 L 28 20.4 A 6 6 0 0 0 34 14.4 L 40 14.4" fill="none" />
<path d="M 97.6 14.4 L 112 14.4 A 6 6 0 0 0 118 20.4 L 118 31.799999999999997 A 6 6 0 0 1 124 37.8 L 130 37.8" fill="none" />

        <rect x="40" y="46.8" width="66" height="28.8" rx="6" fill="#cbd8e2" stroke="#0f172a" />
        <text x="73" y="61.199999999999996" text-anchor="middle" dominant-baseline="middle"
          font-family="sans-serif" font-size="14" font-style="normal" font-weight="600" fill="#0f172a">
          https
        </text>
      
<path d="M 16 37.8 L 22 37.8 A 6 6 0 0 0 28 43.8 L 28 55.199999999999996 A 6 6 0 0 1 34 61.199999999999996 L 40 61.199999999999996" fill="none" />
<path d="M 106 61.199999999999996 L 112 61.199999999999996 A 6 6 0 0 1 118 55.199999999999996 L 118 43.8 A 6 6 0 0 0 124 37.8 L 130 37.8" fill="none" /><line x1="130" y1="37.8" x2="150" y2="37.8" marker-end="url(#railroad-arrow)" /></g><text x="32" y="246.4" font-family="sans-serif" font-size="14" fill="#0f172a">Host</text><g transform="translate(44, 258.4)"><circle cx="4" cy="36.4" r="4" fill="#0f172a" /><line x1="8" y1="36.4" x2="16" y2="36.4" />
        <rect x="16" y="22" width="99.60000000000001" height="28.8" rx="6" fill="#d7e5ed" stroke="#0f172a" stroke-dasharray="4 2" />
        <text x="65.80000000000001" y="36.4" text-anchor="middle" dominant-baseline="middle"
          font-family="sans-serif" font-size="14" font-style="italic" font-weight="normal" fill="#0f172a">
          Subdomain
        </text>
      
<line x1="115.60000000000001" y1="36.4" x2="135.60000000000002" y2="36.4" />

        <rect x="159.60000000000002" y="22" width="32.4" height="28.8" rx="6" fill="#d7e5ed" stroke="#0f172a" />
        <text x="175.8" y="36.4" text-anchor="middle" dominant-baseline="middle"
          font-family="sans-serif" font-size="14" font-style="normal" font-weight="600" fill="#0f172a">
          .
        </text>
      
<line x1="192.00000000000003" y1="36.4" x2="212.00000000000003" y2="36.4" />

        <rect x="212.00000000000003" y="22" width="99.60000000000001" height="28.8" rx="6" fill="#d7e5ed" stroke="#0f172a" stroke-dasharray="4 2" />
        <text x="261.8" y="36.4" text-anchor="middle" dominant-baseline="middle"
          font-family="sans-serif" font-size="14" font-style="italic" font-weight="normal" fill="#0f172a">
          Subdomain
        </text>
      
<line x1="135.60000000000002" y1="36.4" x2="159.60000000000002" y2="36.4" />
<line x1="311.6" y1="36.4" x2="335.6" y2="36.4" />
<path d="M 311.6 36.4 L 317.6 36.4 A 6 6 0 0 0 323.6 42.4 L 323.6 55.8 A 6 6 0 0 0 317.6 61.8 L 153.60000000000002 61.8 A 6 6 0 0 0 147.60000000000002 55.8 L 147.60000000000002 42.4 A 6 6 0 0 0 153.60000000000002 36.4 L 159.60000000000002 36.4" fill="none" />
<path d="M 135.60000000000002 36.4 L 135.60000000000002 17 A 6 6 0 0 0 141.60000000000002 11 L 329.6 11 A 6 6 0 0 0 335.6 17 L 335.6 36.4" fill="none" /><line x1="335.6" y1="36.4" x2="355.6" y2="36.4" marker-end="url(#railroad-arrow)" /></g><text x="32" y="361.2" font-family="sans-serif" font-size="14" fill="#0f172a">Subdomain</text><g transform="translate(44, 373.2)"><circle cx="4" cy="83.2" r="4" fill="#0f172a" /><line x1="8" y1="83.2" x2="16" y2="83.2" />
        <rect x="16" y="68.8" width="74.4" height="28.8" rx="6" fill="#d7e5ed" stroke="#0f172a" stroke-dasharray="4 2" />
        <text x="53.2" y="83.2" text-anchor="middle" dominant-baseline="middle"
          font-family="sans-serif" font-size="14" font-style="italic" font-weight="normal" fill="#0f172a">
          letter
        </text>
      
<line x1="90.4" y1="83.2" x2="110.4" y2="83.2" />

        <rect x="158.4" y="22" width="74.4" height="28.8" rx="6" fill="#d7e5ed" stroke="#0f172a" stroke-dasharray="4 2" />
        <text x="195.60000000000002" y="36.4" text-anchor="middle" dominant-baseline="middle"
          font-family="sans-serif" font-size="14" font-style="italic" font-weight="normal" fill="#0f172a">
          letter
        </text>
      
<path d="M 134.4 83.2 L 140.4 83.2 A 6 6 0 0 1 146.4 77.2 L 146.4 42.4 A 6 6 0 0 0 152.4 36.4 L 158.4 36.4" fill="none" />
<path d="M 232.8 36.4 L 238.8 36.4 A 6 6 0 0 0 244.8 42.4 L 244.8 77.2 A 6 6 0 0 1 250.8 83.2 L 256.8 83.2" fill="none" />

        <rect x="158.4" y="68.8" width="66" height="28.8" rx="6" fill="#d7e5ed" stroke="#0f172a" stroke-dasharray="4 2" />
        <text x="191.4" y="83.2" text-anchor="middle" dominant-baseline="middle"
          font-family="sans-serif" font-size="14" font-style="italic" font-weight="normal" fill="#0f172a">
          digit
        </text>
      
<path d="M 134.4 83.2 L 146.4 83.2 L 146.4 83.2 L 158.4 83.2" fill="none" />
<path d="M 224.4 83.2 L 244.8 83.2 L 244.8 83.2 L 256.8 83.2" fill="none" />

        <rect x="158.4" y="115.6" width="32.4" height="28.8" rx="6" fill="#d7e5ed" stroke="#0f172a" />
        <text x="174.6" y="130" text-anchor="middle" dominant-baseline="middle"
          font-family="sans-serif" font-size="14" font-style="normal" font-weight="600" fill="#0f172a">
          -
        </text>
      
<path d="M 134.4 83.2 L 140.4 83.2 A 6 6 0 0 0 146.4 89.2 L 146.4 124 A 6 6 0 0 1 152.4 130 L 158.4 130" fill="none" />
<path d="M 190.8 130 L 238.8 130 A 6 6 0 0 1 244.8 124 L 244.8 89.2 A 6 6 0 0 0 250.8 83.2 L 256.8 83.2" fill="none" />
<line x1="110.4" y1="83.2" x2="134.4" y2="83.2" />
<line x1="256.8" y1="83.2" x2="280.8" y2="83.2" />
<path d="M 256.8 83.2 L 262.8 83.2 A 6 6 0 0 0 268.8 89.2 L 268.8 149.4 A 6 6 0 0 0 262.8 155.4 L 128.4 155.4 A 6 6 0 0 0 122.4 149.4 L 122.4 89.2 A 6 6 0 0 0 128.4 83.2 L 134.4 83.2" fill="none" />
<path d="M 110.4 83.2 L 110.4 17 A 6 6 0 0 0 116.4 11 L 274.8 11 A 6 6 0 0 0 280.8 17 L 280.8 83.2" fill="none" /><line x1="280.8" y1="83.2" x2="300.8" y2="83.2" marker-end="url(#railroad-arrow)" /></g><text x="32" y="569.6" font-family="sans-serif" font-size="14" fill="#0f172a">Port</text><g transform="translate(44, 581.6)"><circle cx="4" cy="14.4" r="4" fill="#0f172a" /><line x1="8" y1="14.4" x2="16" y2="14.4" />
        <rect x="40" y="0" width="66" height="28.8" rx="6" fill="#d7e5ed" stroke="#0f172a" stroke-dasharray="4 2" />
        <text x="73" y="14.4" text-anchor="middle" dominant-baseline="middle"
          font-family="sans-serif" font-size="14" font-style="italic" font-weight="normal" fill="#0f172a">
          digit
        </text>
      
<line x1="16" y1="14.4" x2="40" y2="14.4" />
<line x1="106" y1="14.4" x2="130" y2="14.4" />
<path d="M 106 14.4 L 112 14.4 A 6 6 0 0 0 118 20.4 L 118 33.8 A 6 6 0 0 0 112 39.8 L 34 39.8 A 6 6 0 0 0 28 33.8 L 28 20.4 A 6 6 0 0 0 34 14.4 L 40 14.4" fill="none" /><line x1="130" y1="14.4" x2="150" y2="14.4" marker-end="url(#railroad-arrow)" /></g><text x="32" y="662.4" font-family="sans-serif" font-size="14" fill="#0f172a">Path</text><g transform="translate(44, 674.4)"><circle cx="4" cy="36.4" r="4" fill="#0f172a" /><line x1="8" y1="36.4" x2="16" y2="36.4" />
        <rect x="16" y="22" width="32.4" height="28.8" rx="6" fill="#d7e5ed" stroke="#0f172a" />
        <text x="32.2" y="36.4" text-anchor="middle" dominant-baseline="middle"
          font-family="sans-serif" font-size="14" font-style="normal" font-weight="600" fill="#0f172a">
          /
        </text>
      
<line x1="48.4" y1="36.4" x2="68.4" y2="36.4" />

        <rect x="68.4" y="22" width="82.80000000000001" height="28.8" rx="6" fill="#d7e5ed" stroke="#0f172a" stroke-dasharray="4 2" />
        <text x="109.80000000000001" y="36.4" text-anchor="middle" dominant-baseline="middle"
          font-family="sans-serif" font-size="14" font-style="italic" font-weight="normal" fill="#0f172a">
          Segment
        </text>
      
<line x1="151.20000000000002" y1="36.4" x2="171.20000000000002" y2="36.4" />

        <rect x="195.20000000000002" y="22" width="32.4" height="28.8" rx="6" fill="#d7e5ed" stroke="#0f172a" />
        <text x="211.4" y="36.4" text-anchor="middle" dominant-baseline="middle"
          font-family="sans-serif" font-size="14" font-style="normal" font-weight="600" fill="#0f172a">
          /
        </text>
      
<line x1="227.60000000000002" y1="36.4" x2="247.60000000000002" y2="36.4" />

        <rect x="247.60000000000002" y="22" width="82.80000000000001" height="28.8" rx="6" fill="#d7e5ed" stroke="#0f172a" stroke-dasharray="4 2" />
        <text x="289" y="36.4" text-anchor="middle" dominant-baseline="middle"
          font-family="sans-serif" font-size="14" font-style="italic" font-weight="normal" fill="#0f172a">
          Segment
        </text>
      
<line x1="171.20000000000002" y1="36.4" x2="195.20000000000002" y2="36.4" />
<line x1="330.40000000000003" y1="36.4" x2="354.40000000000003" y2="36.4" />
<path d="M 330.40000000000003 36.4 L 336.40000000000003 36.4 A 6 6 0 0 0 342.40000000000003 42.4 L 342.40000000000003 55.8 A 6 6 0 0 0 336.40000000000003 61.8 L 189.20000000000002 61.8 A 6 6 0 0 0 183.20000000000002 55.8 L 183.20000000000002 42.4 A 6 6 0 0 0 189.20000000000002 36.4 L 195.20000000000002 36.4" fill="none" />
<path d="M 171.20000000000002 36.4 L 171.20000000000002 17 A 6 6 0 0 0 177.20000000000002 11 L 348.40000000000003 11 A 6 6 0 0 0 354.40000000000003 17 L 354.40000000000003 36.4" fill="none" /><line x1="354.40000000000003" y1="36.4" x2="374.40000000000003" y2="36.4" marker-end="url(#railroad-arrow)" /></g><text x="32" y="777.1999999999999" font-family="sans-serif" font-size="14" fill="#0f172a">Segment</text><g transform="translate(44, 789.1999999999999)"><circle cx="4" cy="106.6" r="4" fill="#0f172a" /><line x1="8" y1="106.6" x2="16" y2="106.6" />
        <rect x="16" y="92.19999999999999" width="74.4" height="28.8" rx="6" fill="#d7e5ed" stroke="#0f172a" stroke-dasharray="4 2" />
        <text x="53.2" y="106.6" text-anchor="middle" dominant-baseline="middle"
          font-family="sans-serif" font-size="14" font-style="italic" font-weight="normal" fill="#0f172a">
          letter
        </text>
      
<line x1="90.4" y1="106.6" x2="110.4" y2="106.6" />

        <rect x="158.4" y="22" width="74.4" height="28.8" rx="6" fill="#d7e5ed" stroke="#0f172a" stroke-dasharray="4 2" />
        <text x="195.60000000000002" y="36.4" text-anchor="middle" dominant-baseline="middle"
          font-family="sans-serif" font-size="14" font-style="italic" font-weight="normal" fill="#0f172a">
          letter
        </text>
      
<path d="M 134.4 106.6 L 140.4 106.6 A 6 6 0 0 1 146.4 100.6 L 146.4 42.4 A 6 6 0 0 0 152.4 36.4 L 158.4 36.4" fill="none" />
<path d="M 232.8 36.4 L 238.8 36.4 A 6 6 0 0 0 244.8 42.4 L 244.8 100.6 A 6 6 0 0 1 250.8 106.6 L 256.8 106.6" fill="none" />

        <rect x="158.4" y="68.8" width="66" height="28.8" rx="6" fill="#d7e5ed" stroke="#0f172a" stroke-dasharray="4 2" />
        <text x="191.4" y="83.2" text-anchor="middle" dominant-baseline="middle"
          font-family="sans-serif" font-size="14" font-style="italic" font-weight="normal" fill="#0f172a">
          digit
        </text>
      
<path d="M 134.4 106.6 L 140.4 106.6 A 6 6 0 0 1 146.4 100.6 L 146.4 89.2 A 6 6 0 0 0 152.4 83.2 L 158.4 83.2" fill="none" />
<path d="M 224.4 83.2 L 238.8 83.2 A 6 6 0 0 0 244.8 89.2 L 244.8 100.6 A 6 6 0 0 1 250.8 106.6 L 256.8 106.6" fill="none" />

        <rect x="158.4" y="115.6" width="32.4" height="28.8" rx="6" fill="#d7e5ed" stroke="#0f172a" />
        <text x="174.6" y="130" text-anchor="middle" dominant-baseline="middle"
          font-family="sans-serif" font-size="14" font-style="normal" font-weight="600" fill="#0f172a">
          -
        </text>
      
<path d="M 134.4 106.6 L 140.4 106.6 A 6 6 0 0 0 146.4 112.6 L 146.4 124 A 6 6 0 0 1 152.4 130 L 158.4 130" fill="none" />
<path d="M 190.8 130 L 238.8 130 A 6 6 0 0 1 244.8 124 L 244.8 112.6 A 6 6 0 0 0 250.8 106.6 L 256.8 106.6" fill="none" />

        <rect x="158.4" y="162.39999999999998" width="32.4" height="28.8" rx="6" fill="#d7e5ed" stroke="#0f172a" />
        <text x="174.6" y="176.79999999999998" text-anchor="middle" dominant-baseline="middle"
          font-family="sans-serif" font-size="14" font-style="normal" font-weight="600" fill="#0f172a">
          _
        </text>
      
<path d="M 134.4 106.6 L 140.4 106.6 A 6 6 0 0 0 146.4 112.6 L 146.4 170.79999999999998 A 6 6 0 0 1 152.4 176.79999999999998 L 158.4 176.79999999999998" fill="none" />
<path d="M 190.8 176.79999999999998 L 238.8 176.79999999999998 A 6 6 0 0 1 244.8 170.79999999999998 L 244.8 112.6 A 6 6 0 0 0 250.8 106.6 L 256.8 106.6" fill="none" />
<line x1="110.4" y1="106.6" x2="134.4" y2="106.6" />
<line x1="256.8" y1="106.6" x2="280.8" y2="106.6" />
<path d="M 256.8 106.6 L 262.8 106.6 A 6 6 0 0 0 268.8 112.6 L 268.8 196.2 A 6 6 0 0 0 262.8 202.2 L 128.4 202.2 A 6 6 0 0 0 122.4 196.2 L 122.4 112.6 A 6 6 0 0 0 128.4 106.6 L 134.4 106.6" fill="none" />
<path d="M 110.4 106.6 L 110.4 17 A 6 6 0 0 0 116.4 11 L 274.8 11 A 6 6 0 0 0 280.8 17 L 280.8 106.6" fill="none" /><line x1="280.8" y1="106.6" x2="300.8" y2="106.6" marker-end="url(#railroad-arrow)" /></g><text x="32" y="1032.3999999999999" font-family="sans-serif" font-size="14" fill="#0f172a">Query</text><g transform="translate(44, 1044.3999999999999)"><circle cx="4" cy="36.4" r="4" fill="#0f172a" /><line x1="8" y1="36.4" x2="16" y2="36.4" />
        <rect x="16" y="22" width="32.4" height="28.8" rx="6" fill="#d7e5ed" stroke="#0f172a" />
        <text x="32.2" y="36.4" text-anchor="middle" dominant-baseline="middle"
          font-family="sans-serif" font-size="14" font-style="normal" font-weight="600" fill="#0f172a">
          ?
        </text>
      
<line x1="48.4" y1="36.4" x2="68.4" y2="36.4" />

        <rect x="68.4" y="22" width="57.6" height="28.8" rx="6" fill="#d7e5ed" stroke="#0f172a" stroke-dasharray="4 2" />
        <text x="97.2" y="36.4" text-anchor="middle" dominant-baseline="middle"
          font-family="sans-serif" font-size="14" font-style="italic" font-weight="normal" fill="#0f172a">
          Pair
        </text>
      
<line x1="126" y1="36.4" x2="146" y2="36.4" />

        <rect x="170" y="22" width="32.4" height="28.8" rx="6" fill="#d7e5ed" stroke="#0f172a" />
        <text x="186.2" y="36.4" text-anchor="middle" dominant-baseline="middle"
          font-family="sans-serif" font-size="14" font-style="normal" font-weight="600" fill="#0f172a">
          &amp;
        </text>
      
<line x1="202.4" y1="36.4" x2="222.4" y2="36.4" />

        <rect x="222.4" y="22" width="57.6" height="28.8" rx="6" fill="#d7e5ed" stroke="#0f172a" stroke-dasharray="4 2" />
        <text x="251.20000000000002" y="36.4" text-anchor="middle" dominant-baseline="middle"
          font-family="sans-serif" font-size="14" font-style="italic" font-weight="normal" fill="#0f172a">
          Pair
        </text>
      
<line x1="146" y1="36.4" x2="170" y2="36.4" />
<line x1="280" y1="36.4" x2="304" y2="36.4" />
<path d="M 280 36.4 L 286 36.4 A 6 6 0 0 0 292 42.4 L 292 55.8 A 6 6 0 0 0 286 61.8 L 164 61.8 A 6 6 0 0 0 158 55.8 L 158 42.4 A 6 6 0 0 0 164 36.4 L 170 36.4" fill="none" />
<path d="M 146 36.4 L 146 17 A 6 6 0 0 0 152 11 L 298 11 A 6 6 0 0 0 304 17 L 304 36.4" fill="none" /><line x1="304" y1="36.4" x2="324" y2="36.4" marker-end="url(#railroad-arrow)" /></g><text x="32" y="1147.1999999999998" font-family="sans-serif" font-size="14" fill="#0f172a">Pair</text><g transform="translate(44, 1159.1999999999998)"><circle cx="4" cy="14.4" r="4" fill="#0f172a" /><line x1="8" y1="14.4" x2="16" y2="14.4" />
        <rect x="16" y="0" width="49.2" height="28.8" rx="6" fill="#d7e5ed" stroke="#0f172a" stroke-dasharray="4 2" />
        <text x="40.6" y="14.4" text-anchor="middle" dominant-baseline="middle"
          font-family="sans-serif" font-size="14" font-style="italic" font-weight="normal" fill="#0f172a">
          Key
        </text>
      
<line x1="65.2" y1="14.4" x2="85.2" y2="14.4" />

        <rect x="85.2" y="0" width="32.4" height="28.8" rx="6" fill="#d7e5ed" stroke="#0f172a" />
        <text x="101.4" y="14.4" text-anchor="middle" dominant-baseline="middle"
          font-family="sans-serif" font-size="14" font-style="normal" font-weight="600" fill="#0f172a">
          =
        </text>
      
<line x1="117.6" y1="14.4" x2="137.6" y2="14.4" />

        <rect x="137.6" y="0" width="66" height="28.8" rx="6" fill="#d7e5ed" stroke="#0f172a" stroke-dasharray="4 2" />
        <text x="170.6" y="14.4" text-anchor="middle" dominant-baseline="middle"
          font-family="sans-serif" font-size="14" font-style="italic" font-weight="normal" fill="#0f172a">
          Value
        </text>
      <line x1="203.6" y1="14.4" x2="223.6" y2="14.4" marker-end="url(#railroad-arrow)" /></g><text x="32" y="1217.9999999999998" font-family="sans-serif" font-size="14" fill="#0f172a">Key</text><g transform="translate(44, 1229.9999999999998)"><circle cx="4" cy="106.6" r="4" fill="#0f172a" /><line x1="8" y1="106.6" x2="16" y2="106.6" />
        <rect x="16" y="92.19999999999999" width="74.4" height="28.8" rx="6" fill="#d7e5ed" stroke="#0f172a" stroke-dasharray="4 2" />
        <text x="53.2" y="106.6" text-anchor="middle" dominant-baseline="middle"
          font-family="sans-serif" font-size="14" font-style="italic" font-weight="normal" fill="#0f172a">
          letter
        </text>
      
<line x1="90.4" y1="106.6" x2="110.4" y2="106.6" />

        <rect x="158.4" y="22" width="74.4" height="28.8" rx="6" fill="#d7e5ed" stroke="#0f172a" stroke-dasharray="4 2" />
        <text x="195.60000000000002" y="36.4" text-anchor="middle" dominant-baseline="middle"
          font-family="sans-serif" font-size="14" font-style="italic" font-weight="normal" fill="#0f172a">
          letter
        </text>
      
<path d="M 134.4 106.6 L 140.4 106.6 A 6 6 0 0 1 146.4 100.6 L 146.4 42.4 A 6 6 0 0 0 152.4 36.4 L 158.4 36.4" fill="none" />
<path d="M 232.8 36.4 L 238.8 36.4 A 6 6 0 0 0 244.8 42.4 L 244.8 100.6 A 6 6 0 0 1 250.8 106.6 L 256.8 106.6" fill="none" />

        <rect x="158.4" y="68.8" width="66" height="28.8" rx="6" fill="#d7e5ed" stroke="#0f172a" stroke-dasharray="4 2" />
        <text x="191.4" y="83.2" text-anchor="middle" dominant-baseline="middle"
          font-family="sans-serif" font-size="14" font-style="italic" font-weight="normal" fill="#0f172a">
          digit
        </text>
      
<path d="M 134.4 106.6 L 140.4 106.6 A 6 6 0 0 1 146.4 100.6 L 146.4 89.2 A 6 6 0 0 0 152.4 83.2 L 158.4 83.2" fill="none" />
<path d="M 224.4 83.2 L 238.8 83.2 A 6 6 0 0 0 244.8 89.2 L 244.8 100.6 A 6 6 0 0 1 250.8 106.6 L 256.8 106.6" fill="none" />

        <rect x="158.4" y="115.6" width="32.4" height="28.8" rx="6" fill="#d7e5ed" stroke="#0f172a" />
        <text x="174.6" y="130" text-anchor="middle" dominant-baseline="middle"
          font-family="sans-serif" font-size="14" font-style="normal" font-weight="600" fill="#0f172a">
          _
        </text>
      
<path d="M 134.4 106.6 L 140.4 106.6 A 6 6 0 0 0 146.4 112.6 L 146.4 124 A 6 6 0 0 1 152.4 130 L 158.4 130" fill="none" />
<path d="M 190.8 130 L 238.8 130 A 6 6 0 0 1 244.8 124 L 244.8 112.6 A 6 6 0 0 0 250.8 106.6 L 256.8 106.6" fill="none" />

        <rect x="158.4" y="162.39999999999998" width="32.4" height="28.8" rx="6" fill="#d7e5ed" stroke="#0f172a" />
        <text x="174.6" y="176.79999999999998" text-anchor="middle" dominant-baseline="middle"
          font-family="sans-serif" font-size="14" font-style="normal" font-weight="600" fill="#0f172a">
          -
        </text>
      
<path d="M 134.4 106.6 L 140.4 106.6 A 6 6 0 0 0 146.4 112.6 L 146.4 170.79999999999998 A 6 6 0 0 1 152.4 176.79999999999998 L 158.4 176.79999999999998" fill="none" />
<path d="M 190.8 176.79999999999998 L 238.8 176.79999999999998 A 6 6 0 0 1 244.8 170.79999999999998 L 244.8 112.6 A 6 6 0 0 0 250.8 106.6 L 256.8 106.6" fill="none" />
<line x1="110.4" y1="106.6" x2="134.4" y2="106.6" />
<line x1="256.8" y1="106.6" x2="280.8" y2="106.6" />
<path d="M 256.8 106.6 L 262.8 106.6 A 6 6 0 0 0 268.8 112.6 L 268.8 196.2 A 6 6 0 0 0 262.8 202.2 L 128.4 202.2 A 6 6 0 0 0 122.4 196.2 L 122.4 112.6 A 6 6 0 0 0 128.4 106.6 L 134.4 106.6" fill="none" />
<path d="M 110.4 106.6 L 110.4 17 A 6 6 0 0 0 116.4 11 L 274.8 11 A 6 6 0 0 0 280.8 17 L 280.8 106.6" fill="none" /><line x1="280.8" y1="106.6" x2="300.8" y2="106.6" marker-end="url(#railroad-arrow)" /></g><text x="32" y="1473.1999999999998" font-family="sans-serif" font-size="14" fill="#0f172a">Value</text><g transform="translate(44, 1485.1999999999998)"><circle cx="4" cy="106.6" r="4" fill="#0f172a" /><line x1="8" y1="106.6" x2="16" y2="106.6" />
        <rect x="16" y="92.19999999999999" width="74.4" height="28.8" rx="6" fill="#d7e5ed" stroke="#0f172a" stroke-dasharray="4 2" />
        <text x="53.2" y="106.6" text-anchor="middle" dominant-baseline="middle"
          font-family="sans-serif" font-size="14" font-style="italic" font-weight="normal" fill="#0f172a">
          letter
        </text>
      
<line x1="90.4" y1="106.6" x2="110.4" y2="106.6" />

        <rect x="158.4" y="22" width="74.4" height="28.8" rx="6" fill="#d7e5ed" stroke="#0f172a" stroke-dasharray="4 2" />
        <text x="195.60000000000002" y="36.4" text-anchor="middle" dominant-baseline="middle"
          font-family="sans-serif" font-size="14" font-style="italic" font-weight="normal" fill="#0f172a">
          letter
        </text>
      
<path d="M 134.4 106.6 L 140.4 106.6 A 6 6 0 0 1 146.4 100.6 L 146.4 42.4 A 6 6 0 0 0 152.4 36.4 L 158.4 36.4" fill="none" />
<path d="M 232.8 36.4 L 238.8 36.4 A 6 6 0 0 0 244.8 42.4 L 244.8 100.6 A 6 6 0 0 1 250.8 106.6 L 256.8 106.6" fill="none" />

        <rect x="158.4" y="68.8" width="66" height="28.8" rx="6" fill="#d7e5ed" stroke="#0f172a" stroke-dasharray="4 2" />
        <text x="191.4" y="83.2" text-anchor="middle" dominant-baseline="middle"
          font-family="sans-serif" font-size="14" font-style="italic" font-weight="normal" fill="#0f172a">
          digit
        </text>
      
<path d="M 134.4 106.6 L 140.4 106.6 A 6 6 0 0 1 146.4 100.6 L 146.4 89.2 A 6 6 0 0 0 152.4 83.2 L 158.4 83.2" fill="none" />
<path d="M 224.4 83.2 L 238.8 83.2 A 6 6 0 0 0 244.8 89.2 L 244.8 100.6 A 6 6 0 0 1 250.8 106.6 L 256.8 106.6" fill="none" />

        <rect x="158.4" y="115.6" width="32.4" height="28.8" rx="6" fill="#d7e5ed" stroke="#0f172a" />
        <text x="174.6" y="130" text-anchor="middle" dominant-baseline="middle"
          font-family="sans-serif" font-size="14" font-style="normal" font-weight="600" fill="#0f172a">
          _
        </text>
      
<path d="M 134.4 106.6 L 140.4 106.6 A 6 6 0 0 0 146.4 112.6 L 146.4 124 A 6 6 0 0 1 152.4 130 L 158.4 130" fill="none" />
<path d="M 190.8 130 L 238.8 130 A 6 6 0 0 1 244.8 124 L 244.8 112.6 A 6 6 0 0 0 250.8 106.6 L 256.8 106.6" fill="none" />

        <rect x="158.4" y="162.39999999999998" width="32.4" height="28.8" rx="6" fill="#d7e5ed" stroke="#0f172a" />
        <text x="174.6" y="176.79999999999998" text-anchor="middle" dominant-baseline="middle"
          font-family="sans-serif" font-size="14" font-style="normal" font-weight="600" fill="#0f172a">
          -
        </text>
      
<path d="M 134.4 106.6 L 140.4 106.6 A 6 6 0 0 0 146.4 112.6 L 146.4 170.79999999999998 A 6 6 0 0 1 152.4 176.79999999999998 L 158.4 176.79999999999998" fill="none" />
<path d="M 190.8 176.79999999999998 L 238.8 176.79999999999998 A 6 6 0 0 1 244.8 170.79999999999998 L 244.8 112.6 A 6 6 0 0 0 250.8 106.6 L 256.8 106.6" fill="none" />
<line x1="110.4" y1="106.6" x2="134.4" y2="106.6" />
<line x1="256.8" y1="106.6" x2="280.8" y2="106.6" />
<path d="M 256.8 106.6 L 262.8 106.6 A 6 6 0 0 0 268.8 112.6 L 268.8 196.2 A 6 6 0 0 0 262.8 202.2 L 128.4 202.2 A 6 6 0 0 0 122.4 196.2 L 122.4 112.6 A 6 6 0 0 0 128.4 106.6 L 134.4 106.6" fill="none" />
<path d="M 110.4 106.6 L 110.4 17 A 6 6 0 0 0 116.4 11 L 274.8 11 A 6 6 0 0 0 280.8 17 L 280.8 106.6" fill="none" /><line x1="280.8" y1="106.6" x2="300.8" y2="106.6" marker-end="url(#railroad-arrow)" /></g><text x="32" y="1728.3999999999999" font-family="sans-serif" font-size="14" fill="#0f172a">digit</text><g transform="translate(44, 1740.3999999999999)"><circle cx="4" cy="225.00000000000003" r="4" fill="#0f172a" /><line x1="8" y1="225.00000000000003" x2="16" y2="225.00000000000003" />
        <rect x="40" y="0" width="32.4" height="28.8" rx="6" fill="#cbd8e2" stroke="#0f172a" />
        <text x="56.2" y="14.4" text-anchor="middle" dominant-baseline="middle"
          font-family="sans-serif" font-size="14" font-style="normal" font-weight="600" fill="#0f172a">
          0
        </text>
      
<path d="M 16 225.00000000000003 L 22 225.00000000000003 A 6 6 0 0 1 28 219.00000000000003 L 28 20.4 A 6 6 0 0 0 34 14.4 L 40 14.4" fill="none" />
<path d="M 72.4 14.4 L 86 14.4 A 6 6 0 0 0 92 20.4 L 92 219.00000000000003 A 6 6 0 0 1 98 225.00000000000003 L 104 225.00000000000003" fill="none" />

        <rect x="40" y="46.8" width="32.4" height="28.8" rx="6" fill="#cbd8e2" stroke="#0f172a" />
        <text x="56.2" y="61.199999999999996" text-anchor="middle" dominant-baseline="middle"
          font-family="sans-serif" font-size="14" font-style="normal" font-weight="600" fill="#0f172a">
          1
        </text>
      
<path d="M 16 225.00000000000003 L 22 225.00000000000003 A 6 6 0 0 1 28 219.00000000000003 L 28 67.19999999999999 A 6 6 0 0 0 34 61.199999999999996 L 40 61.199999999999996" fill="none" />
<path d="M 72.4 61.199999999999996 L 86 61.199999999999996 A 6 6 0 0 0 92 67.19999999999999 L 92 219.00000000000003 A 6 6 0 0 1 98 225.00000000000003 L 104 225.00000000000003" fill="none" />

        <rect x="40" y="93.6" width="32.4" height="28.8" rx="6" fill="#cbd8e2" stroke="#0f172a" />
        <text x="56.2" y="108" text-anchor="middle" dominant-baseline="middle"
          font-family="sans-serif" font-size="14" font-style="normal" font-weight="600" fill="#0f172a">
          2
        </text>
      
<path d="M 16 225.00000000000003 L 22 225.00000000000003 A 6 6 0 0 1 28 219.00000000000003 L 28 114 A 6 6 0 0 0 34 108 L 40 108" fill="none" />
<path d="M 72.4 108 L 86 108 A 6 6 0 0 0 92 114 L 92 219.00000000000003 A 6 6 0 0 1 98 225.00000000000003 L 104 225.00000000000003" fill="none" />

        <rect x="40" y="140.39999999999998" width="32.4" height="28.8" rx="6" fill="#cbd8e2" stroke="#0f172a" />
        <text x="56.2" y="154.79999999999998" text-anchor="middle" dominant-baseline="middle"
          font-family="sans-serif" font-size="14" font-style="normal" font-weight="600" fill="#0f172a">
          3
        </text>
      
<path d="M 16 225.00000000000003 L 22 225.00000000000003 A 6 6 0 0 1 28 219.00000000000003 L 28 160.79999999999998 A 6 6 0 0 0 34 154.79999999999998 L 40 154.79999999999998" fill="none" />
<path d="M 72.4 154.79999999999998 L 86 154.79999999999998 A 6 6 0 0 0 92 160.79999999999998 L 92 219.00000000000003 A 6 6 0 0 1 98 225.00000000000003 L 104 225.00000000000003" fill="none" />

        <rect x="40" y="187.2" width="32.4" height="28.8" rx="6" fill="#cbd8e2" stroke="#0f172a" />
        <text x="56.2" y="201.6" text-anchor="middle" dominant-baseline="middle"
          font-family="sans-serif" font-size="14" font-style="normal" font-weight="600" fill="#0f172a">
          4
        </text>
      
<path d="M 16 225.00000000000003 L 22 225.00000000000003 A 6 6 0 0 1 28 219.00000000000003 L 28 207.6 A 6 6 0 0 0 34 201.6 L 40 201.6" fill="none" />
<path d="M 72.4 201.6 L 86 201.6 A 6 6 0 0 0 92 207.6 L 92 219.00000000000003 A 6 6 0 0 1 98 225.00000000000003 L 104 225.00000000000003" fill="none" />

        <rect x="40" y="234" width="32.4" height="28.8" rx="6" fill="#cbd8e2" stroke="#0f172a" />
        <text x="56.2" y="248.4" text-anchor="middle" dominant-baseline="middle"
          font-family="sans-serif" font-size="14" font-style="normal" font-weight="600" fill="#0f172a">
          5
        </text>
      
<path d="M 16 225.00000000000003 L 22 225.00000000000003 A 6 6 0 0 0 28 231.00000000000003 L 28 242.4 A 6 6 0 0 1 34 248.4 L 40 248.4" fill="none" />
<path d="M 72.4 248.4 L 86 248.4 A 6 6 0 0 1 92 242.4 L 92 231.00000000000003 A 6 6 0 0 0 98 225.00000000000003 L 104 225.00000000000003" fill="none" />

        <rect x="40" y="280.8" width="32.4" height="28.8" rx="6" fill="#cbd8e2" stroke="#0f172a" />
        <text x="56.2" y="295.2" text-anchor="middle" dominant-baseline="middle"
          font-family="sans-serif" font-size="14" font-style="normal" font-weight="600" fill="#0f172a">
          6
        </text>
      
<path d="M 16 225.00000000000003 L 22 225.00000000000003 A 6 6 0 0 0 28 231.00000000000003 L 28 289.2 A 6 6 0 0 1 34 295.2 L 40 295.2" fill="none" />
<path d="M 72.4 295.2 L 86 295.2 A 6 6 0 0 1 92 289.2 L 92 231.00000000000003 A 6 6 0 0 0 98 225.00000000000003 L 104 225.00000000000003" fill="none" />

        <rect x="40" y="327.6" width="32.4" height="28.8" rx="6" fill="#cbd8e2" stroke="#0f172a" />
        <text x="56.2" y="342" text-anchor="middle" dominant-baseline="middle"
          font-family="sans-serif" font-size="14" font-style="normal" font-weight="600" fill="#0f172a">
          7
        </text>
      
<path d="M 16 225.00000000000003 L 22 225.00000000000003 A 6 6 0 0 0 28 231.00000000000003 L 28 336 A 6 6 0 0 1 34 342 L 40 342" fill="none" />
<path d="M 72.4 342 L 86 342 A 6 6 0 0 1 92 336 L 92 231.00000000000003 A 6 6 0 0 0 98 225.00000000000003 L 104 225.00000000000003" fill="none" />

        <rect x="40" y="374.40000000000003" width="32.4" height="28.8" rx="6" fill="#cbd8e2" stroke="#0f172a" />
        <text x="56.2" y="388.8" text-anchor="middle" dominant-baseline="middle"
          font-family="sans-serif" font-size="14" font-style="normal" font-weight="600" fill="#0f172a">
          8
        </text>
      
<path d="M 16 225.00000000000003 L 22 225.00000000000003 A 6 6 0 0 0 28 231.00000000000003 L 28 382.8 A 6 6 0 0 1 34 388.8 L 40 388.8" fill="none" />
<path d="M 72.4 388.8 L 86 388.8 A 6 6 0 0 1 92 382.8 L 92 231.00000000000003 A 6 6 0 0 0 98 225.00000000000003 L 104 225.00000000000003" fill="none" />

        <rect x="40" y="421.20000000000005" width="32.4" height="28.8" rx="6" fill="#cbd8e2" stroke="#0f172a" />
        <text x="56.2" y="435.6" text-anchor="middle" dominant-baseline="middle"
          font-family="sans-serif" font-size="14" font-style="normal" font-weight="600" fill="#0f172a">
          9
        </text>
      
<path d="M 16 225.00000000000003 L 22 225.00000000000003 A 6 6 0 0 0 28 231.00000000000003 L 28 429.6 A 6 6 0 0 1 34 435.6 L 40 435.6" fill="none" />
<path d="M 72.4 435.6 L 86 435.6 A 6 6 0 0 1 92 429.6 L 92 231.00000000000003 A 6 6 0 0 0 98 225.00000000000003 L 104 225.00000000000003" fill="none" /><line x1="104" y1="225.00000000000003" x2="124" y2="225.00000000000003" marker-end="url(#railroad-arrow)" /></g><text x="32" y="2220.4" font-family="sans-serif" font-size="14" fill="#0f172a">letter</text><g transform="translate(44, 2232.4)"><circle cx="4" cy="599.3999999999999" r="4" fill="#0f172a" /><line x1="8" y1="599.3999999999999" x2="16" y2="599.3999999999999" />
        <rect x="40" y="0" width="32.4" height="28.8" rx="6" fill="#cbd8e2" stroke="#0f172a" />
        <text x="56.2" y="14.4" text-anchor="middle" dominant-baseline="middle"
          font-family="sans-serif" font-size="14" font-style="normal" font-weight="600" fill="#0f172a">
          a
        </text>
      
<path d="M 16 599.3999999999999 L 22 599.3999999999999 A 6 6 0 0 1 28 593.3999999999999 L 28 20.4 A 6 6 0 0 0 34 14.4 L 40 14.4" fill="none" />
<path d="M 72.4 14.4 L 86 14.4 A 6 6 0 0 0 92 20.4 L 92 593.3999999999999 A 6 6 0 0 1 98 599.3999999999999 L 104 599.3999999999999" fill="none" />

        <rect x="40" y="46.8" width="32.4" height="28.8" rx="6" fill="#cbd8e2" stroke="#0f172a" />
        <text x="56.2" y="61.199999999999996" text-anchor="middle" dominant-baseline="middle"
          font-family="sans-serif" font-size="14" font-style="normal" font-weight="600" fill="#0f172a">
          b
        </text>
      
<path d="M 16 599.3999999999999 L 22 599.3999999999999 A 6 6 0 0 1 28 593.3999999999999 L 28 67.19999999999999 A 6 6 0 0 0 34 61.199999999999996 L 40 61.199999999999996" fill="none" />
<path d="M 72.4 61.199999999999996 L 86 61.199999999999996 A 6 6 0 0 0 92 67.19999999999999 L 92 593.3999999999999 A 6 6 0 0 1 98 599.3999999999999 L 104 599.3999999999999" fill="none" />

        <rect x="40" y="93.6" width="32.4" height="28.8" rx="6" fill="#cbd8e2" stroke="#0f172a" />
        <text x="56.2" y="108" text-anchor="middle" dominant-baseline="middle"
          font-family="sans-serif" font-size="14" font-style="normal" font-weight="600" fill="#0f172a">
          c
        </text>
      
<path d="M 16 599.3999999999999 L 22 599.3999999999999 A 6 6 0 0 1 28 593.3999999999999 L 28 114 A 6 6 0 0 0 34 108 L 40 108" fill="none" />
<path d="M 72.4 108 L 86 108 A 6 6 0 0 0 92 114 L 92 593.3999999999999 A 6 6 0 0 1 98 599.3999999999999 L 104 599.3999999999999" fill="none" />

        <rect x="40" y="140.39999999999998" width="32.4" height="28.8" rx="6" fill="#cbd8e2" stroke="#0f172a" />
        <text x="56.2" y="154.79999999999998" text-anchor="middle" dominant-baseline="middle"
          font-family="sans-serif" font-size="14" font-style="normal" font-weight="600" fill="#0f172a">
          d
        </text>
      
<path d="M 16 599.3999999999999 L 22 599.3999999999999 A 6 6 0 0 1 28 593.3999999999999 L 28 160.79999999999998 A 6 6 0 0 0 34 154.79999999999998 L 40 154.79999999999998" fill="none" />
<path d="M 72.4 154.79999999999998 L 86 154.79999999999998 A 6 6 0 0 0 92 160.79999999999998 L 92 593.3999999999999 A 6 6 0 0 1 98 599.3999999999999 L 104 599.3999999999999" fill="none" />

        <rect x="40" y="187.2" width="32.4" height="28.8" rx="6" fill="#cbd8e2" stroke="#0f172a" />
        <text x="56.2" y="201.6" text-anchor="middle" dominant-baseline="middle"
          font-family="sans-serif" font-size="14" font-style="normal" font-weight="600" fill="#0f172a">
          e
        </text>
      
<path d="M 16 599.3999999999999 L 22 599.3999999999999 A 6 6 0 0 1 28 593.3999999999999 L 28 207.6 A 6 6 0 0 0 34 201.6 L 40 201.6" fill="none" />
<path d="M 72.4 201.6 L 86 201.6 A 6 6 0 0 0 92 207.6 L 92 593.3999999999999 A 6 6 0 0 1 98 599.3999999999999 L 104 599.3999999999999" fill="none" />

        <rect x="40" y="234" width="32.4" height="28.8" rx="6" fill="#cbd8e2" stroke="#0f172a" />
        <text x="56.2" y="248.4" text-anchor="middle" dominant-baseline="middle"
          font-family="sans-serif" font-size="14" font-style="normal" font-weight="600" fill="#0f172a">
          f
        </text>
      
<path d="M 16 599.3999999999999 L 22 599.3999999999999 A 6 6 0 0 1 28 593.3999999999999 L 28 254.4 A 6 6 0 0 0 34 248.4 L 40 248.4" fill="none" />
<path d="M 72.4 248.4 L 86 248.4 A 6 6 0 0 0 92 254.4 L 92 593.3999999999999 A 6 6 0 0 1 98 599.3999999999999 L 104 599.3999999999999" fill="none" />

        <rect x="40" y="280.8" width="32.4" height="28.8" rx="6" fill="#cbd8e2" stroke="#0f172a" />
        <text x="56.2" y="295.2" text-anchor="middle" dominant-baseline="middle"
          font-family="sans-serif" font-size="14" font-style="normal" font-weight="600" fill="#0f172a">
          g
        </text>
      
<path d="M 16 599.3999999999999 L 22 599.3999999999999 A 6 6 0 0 1 28 593.3999999999999 L 28 301.2 A 6 6 0 0 0 34 295.2 L 40 295.2" fill="none" />
<path d="M 72.4 295.2 L 86 295.2 A 6 6 0 0 0 92 301.2 L 92 593.3999999999999 A 6 6 0 0 1 98 599.3999999999999 L 104 599.3999999999999" fill="none" />

        <rect x="40" y="327.6" width="32.4" height="28.8" rx="6" fill="#cbd8e2" stroke="#0f172a" />
        <text x="56.2" y="342" text-anchor="middle" dominant-baseline="middle"
          font-family="sans-serif" font-size="14" font-style="normal" font-weight="600" fill="#0f172a">
          h
        </text>
      
<path d="M 16 599.3999999999999 L 22 599.3999999999999 A 6 6 0 0 1 28 593.3999999999999 L 28 348 A 6 6 0 0 0 34 342 L 40 342" fill="none" />
<path d="M 72.4 342 L 86 342 A 6 6 0 0 0 92 348 L 92 593.3999999999999 A 6 6 0 0 1 98 599.3999999999999 L 104 599.3999999999999" fill="none" />

        <rect x="40" y="374.40000000000003" width="32.4" height="28.8" rx="6" fill="#cbd8e2" stroke="#0f172a" />
        <text x="56.2" y="388.8" text-anchor="middle" dominant-baseline="middle"
          font-family="sans-serif" font-size="14" font-style="normal" font-weight="600" fill="#0f172a">
          i
        </text>
      
<path d="M 16 599.3999999999999 L 22 599.3999999999999 A 6 6 0 0 1 28 593.3999999999999 L 28 394.8 A 6 6 0 0 0 34 388.8 L 40 388.8" fill="none" />
<path d="M 72.4 388.8 L 86 388.8 A 6 6 0 0 0 92 394.8 L 92 593.3999999999999 A 6 6 0 0 1 98 599.3999999999999 L 104 599.3999999999999" fill="none" />

        <rect x="40" y="421.20000000000005" width="32.4" height="28.8" rx="6" fill="#cbd8e2" stroke="#0f172a" />
        <text x="56.2" y="435.6" text-anchor="middle" dominant-baseline="middle"
          font-family="sans-serif" font-size="14" font-style="normal" font-weight="600" fill="#0f172a">
          j
        </text>
      
<path d="M 16 599.3999999999999 L 22 599.3999999999999 A 6 6 0 0 1 28 593.3999999999999 L 28 441.6 A 6 6 0 0 0 34 435.6 L 40 435.6" fill="none" />
<path d="M 72.4 435.6 L 86 435.6 A 6 6 0 0 0 92 441.6 L 92 593.3999999999999 A 6 6 0 0 1 98 599.3999999999999 L 104 599.3999999999999" fill="none" />

        <rect x="40" y="468.00000000000006" width="32.4" height="28.8" rx="6" fill="#cbd8e2" stroke="#0f172a" />
        <text x="56.2" y="482.40000000000003" text-anchor="middle" dominant-baseline="middle"
          font-family="sans-serif" font-size="14" font-style="normal" font-weight="600" fill="#0f172a">
          k
        </text>
      
<path d="M 16 599.3999999999999 L 22 599.3999999999999 A 6 6 0 0 1 28 593.3999999999999 L 28 488.40000000000003 A 6 6 0 0 0 34 482.40000000000003 L 40 482.40000000000003" fill="none" />
<path d="M 72.4 482.40000000000003 L 86 482.40000000000003 A 6 6 0 0 0 92 488.40000000000003 L 92 593.3999999999999 A 6 6 0 0 1 98 599.3999999999999 L 104 599.3999999999999" fill="none" />

        <rect x="40" y="514.8000000000001" width="32.4" height="28.8" rx="6" fill="#cbd8e2" stroke="#0f172a" />
        <text x="56.2" y="529.2" text-anchor="middle" dominant-baseline="middle"
          font-family="sans-serif" font-size="14" font-style="normal" font-weight="600" fill="#0f172a">
          l
        </text>
      
<path d="M 16 599.3999999999999 L 22 599.3999999999999 A 6 6 0 0 1 28 593.3999999999999 L 28 535.2 A 6 6 0 0 0 34 529.2 L 40 529.2" fill="none" />
<path d="M 72.4 529.2 L 86 529.2 A 6 6 0 0 0 92 535.2 L 92 593.3999999999999 A 6 6 0 0 1 98 599.3999999999999 L 104 599.3999999999999" fill="none" />

        <rect x="40" y="561.6" width="32.4" height="28.8" rx="6" fill="#cbd8e2" stroke="#0f172a" />
        <text x="56.2" y="576" text-anchor="middle" dominant-baseline="middle"
          font-family="sans-serif" font-size="14" font-style="normal" font-weight="600" fill="#0f172a">
          m
        </text>
      
<path d="M 16 599.3999999999999 L 22 599.3999999999999 A 6 6 0 0 1 28 593.3999999999999 L 28 582 A 6 6 0 0 0 34 576 L 40 576" fill="none" />
<path d="M 72.4 576 L 86 576 A 6 6 0 0 0 92 582 L 92 593.3999999999999 A 6 6 0 0 1 98 599.3999999999999 L 104 599.3999999999999" fill="none" />

        <rect x="40" y="608.4" width="32.4" height="28.8" rx="6" fill="#cbd8e2" stroke="#0f172a" />
        <text x="56.2" y="622.8" text-anchor="middle" dominant-baseline="middle"
          font-family="sans-serif" font-size="14" font-style="normal" font-weight="600" fill="#0f172a">
          n
        </text>
      
<path d="M 16 599.3999999999999 L 22 599.3999999999999 A 6 6 0 0 0 28 605.3999999999999 L 28 616.8 A 6 6 0 0 1 34 622.8 L 40 622.8" fill="none" />
<path d="M 72.4 622.8 L 86 622.8 A 6 6 0 0 1 92 616.8 L 92 605.3999999999999 A 6 6 0 0 0 98 599.3999999999999 L 104 599.3999999999999" fill="none" />

        <rect x="40" y="655.1999999999999" width="32.4" height="28.8" rx="6" fill="#cbd8e2" stroke="#0f172a" />
        <text x="56.2" y="669.5999999999999" text-anchor="middle" dominant-baseline="middle"
          font-family="sans-serif" font-size="14" font-style="normal" font-weight="600" fill="#0f172a">
          o
        </text>
      
<path d="M 16 599.3999999999999 L 22 599.3999999999999 A 6 6 0 0 0 28 605.3999999999999 L 28 663.5999999999999 A 6 6 0 0 1 34 669.5999999999999 L 40 669.5999999999999" fill="none" />
<path d="M 72.4 669.5999999999999 L 86 669.5999999999999 A 6 6 0 0 1 92 663.5999999999999 L 92 605.3999999999999 A 6 6 0 0 0 98 599.3999999999999 L 104 599.3999999999999" fill="none" />

        <rect x="40" y="701.9999999999999" width="32.4" height="28.8" rx="6" fill="#cbd8e2" stroke="#0f172a" />
        <text x="56.2" y="716.3999999999999" text-anchor="middle" dominant-baseline="middle"
          font-family="sans-serif" font-size="14" font-style="normal" font-weight="600" fill="#0f172a">
          p
        </text>
      
<path d="M 16 599.3999999999999 L 22 599.3999999999999 A 6 6 0 0 0 28 605.3999999999999 L 28 710.3999999999999 A 6 6 0 0 1 34 716.3999999999999 L 40 716.3999999999999" fill="none" />
<path d="M 72.4 716.3999999999999 L 86 716.3999999999999 A 6 6 0 0 1 92 710.3999999999999 L 92 605.3999999999999 A 6 6 0 0 0 98 599.3999999999999 L 104 599.3999999999999" fill="none" />

        <rect x="40" y="748.7999999999998" width="32.4" height="28.8" rx="6" fill="#cbd8e2" stroke="#0f172a" />
        <text x="56.2" y="763.1999999999998" text-anchor="middle" dominant-baseline="middle"
          font-family="sans-serif" font-size="14" font-style="normal" font-weight="600" fill="#0f172a">
          q
        </text>
      
<path d="M 16 599.3999999999999 L 22 599.3999999999999 A 6 6 0 0 0 28 605.3999999999999 L 28 757.1999999999998 A 6 6 0 0 1 34 763.1999999999998 L 40 763.1999999999998" fill="none" />
<path d="M 72.4 763.1999999999998 L 86 763.1999999999998 A 6 6 0 0 1 92 757.1999999999998 L 92 605.3999999999999 A 6 6 0 0 0 98 599.3999999999999 L 104 599.3999999999999" fill="none" />

        <rect x="40" y="795.5999999999998" width="32.4" height="28.8" rx="6" fill="#cbd8e2" stroke="#0f172a" />
        <text x="56.2" y="809.9999999999998" text-anchor="middle" dominant-baseline="middle"
          font-family="sans-serif" font-size="14" font-style="normal" font-weight="600" fill="#0f172a">
          r
        </text>
      
<path d="M 16 599.3999999999999 L 22 599.3999999999999 A 6 6 0 0 0 28 605.3999999999999 L 28 803.9999999999998 A 6 6 0 0 1 34 809.9999999999998 L 40 809.9999999999998" fill="none" />
<path d="M 72.4 809.9999999999998 L 86 809.9999999999998 A 6 6 0 0 1 92 803.9999999999998 L 92 605.3999999999999 A 6 6 0 0 0 98 599.3999999999999 L 104 599.3999999999999" fill="none" />

        <rect x="40" y="842.3999999999997" width="32.4" height="28.8" rx="6" fill="#cbd8e2" stroke="#0f172a" />
        <text x="56.2" y="856.7999999999997" text-anchor="middle" dominant-baseline="middle"
          font-family="sans-serif" font-size="14" font-style="normal" font-weight="600" fill="#0f172a">
          s
        </text>
      
<path d="M 16 599.3999999999999 L 22 599.3999999999999 A 6 6 0 0 0 28 605.3999999999999 L 28 850.7999999999997 A 6 6 0 0 1 34 856.7999999999997 L 40 856.7999999999997" fill="none" />
<path d="M 72.4 856.7999999999997 L 86 856.7999999999997 A 6 6 0 0 1 92 850.7999999999997 L 92 605.3999999999999 A 6 6 0 0 0 98 599.3999999999999 L 104 599.3999999999999" fill="none" />

        <rect x="40" y="889.1999999999997" width="32.4" height="28.8" rx="6" fill="#cbd8e2" stroke="#0f172a" />
        <text x="56.2" y="903.5999999999997" text-anchor="middle" dominant-baseline="middle"
          font-family="sans-serif" font-size="14" font-style="normal" font-weight="600" fill="#0f172a">
          t
        </text>
      
<path d="M 16 599.3999999999999 L 22 599.3999999999999 A 6 6 0 0 0 28 605.3999999999999 L 28 897.5999999999997 A 6 6 0 0 1 34 903.5999999999997 L 40 903.5999999999997" fill="none" />
<path d="M 72.4 903.5999999999997 L 86 903.5999999999997 A 6 6 0 0 1 92 897.5999999999997 L 92 605.3999999999999 A 6 6 0 0 0 98 599.3999999999999 L 104 599.3999999999999" fill="none" />

        <rect x="40" y="935.9999999999997" width="32.4" height="28.8" rx="6" fill="#cbd8e2" stroke="#0f172a" />
        <text x="56.2" y="950.3999999999996" text-anchor="middle" dominant-baseline="middle"
          font-family="sans-serif" font-size="14" font-style="normal" font-weight="600" fill="#0f172a">
          u
        </text>
      
<path d="M 16 599.3999999999999 L 22 599.3999999999999 A 6 6 0 0 0 28 605.3999999999999 L 28 944.3999999999996 A 6 6 0 0 1 34 950.3999999999996 L 40 950.3999999999996" fill="none" />
<path d="M 72.4 950.3999999999996 L 86 950.3999999999996 A 6 6 0 0 1 92 944.3999999999996 L 92 605.3999999999999 A 6 6 0 0 0 98 599.3999999999999 L 104 599.3999999999999" fill="none" />

        <rect x="40" y="982.7999999999996" width="32.4" height="28.8" rx="6" fill="#cbd8e2" stroke="#0f172a" />
        <text x="56.2" y="997.1999999999996" text-anchor="middle" dominant-baseline="middle"
          font-family="sans-serif" font-size="14" font-style="normal" font-weight="600" fill="#0f172a">
          v
        </text>
      
<path d="M 16 599.3999999999999 L 22 599.3999999999999 A 6 6 0 0 0 28 605.3999999999999 L 28 991.1999999999996 A 6 6 0 0 1 34 997.1999999999996 L 40 997.1999999999996" fill="none" />
<path d="M 72.4 997.1999999999996 L 86 997.1999999999996 A 6 6 0 0 1 92 991.1999999999996 L 92 605.3999999999999 A 6 6 0 0 0 98 599.3999999999999 L 104 599.3999999999999" fill="none" />

        <rect x="40" y="1029.5999999999997" width="32.4" height="28.8" rx="6" fill="#cbd8e2" stroke="#0f172a" />
        <text x="56.2" y="1043.9999999999998" text-anchor="middle" dominant-baseline="middle"
          font-family="sans-serif" font-size="14" font-style="normal" font-weight="600" fill="#0f172a">
          w
        </text>
      
<path d="M 16 599.3999999999999 L 22 599.3999999999999 A 6 6 0 0 0 28 605.3999999999999 L 28 1037.9999999999998 A 6 6 0 0 1 34 1043.9999999999998 L 40 1043.9999999999998" fill="none" />
<path d="M 72.4 1043.9999999999998 L 86 1043.9999999999998 A 6 6 0 0 1 92 1037.9999999999998 L 92 605.3999999999999 A 6 6 0 0 0 98 599.3999999999999 L 104 599.3999999999999" fill="none" />

        <rect x="40" y="1076.3999999999996" width="32.4" height="28.8" rx="6" fill="#cbd8e2" stroke="#0f172a" />
        <text x="56.2" y="1090.7999999999997" text-anchor="middle" dominant-baseline="middle"
          font-family="sans-serif" font-size="14" font-style="normal" font-weight="600" fill="#0f172a">
          x
        </text>
      
<path d="M 16 599.3999999999999 L 22 599.3999999999999 A 6 6 0 0 0 28 605.3999999999999 L 28 1084.7999999999997 A 6 6 0 0 1 34 1090.7999999999997 L 40 1090.7999999999997" fill="none" />
<path d="M 72.4 1090.7999999999997 L 86 1090.7999999999997 A 6 6 0 0 1 92 1084.7999999999997 L 92 605.3999999999999 A 6 6 0 0 0 98 599.3999999999999 L 104 599.3999999999999" fill="none" />

        <rect x="40" y="1123.1999999999996" width="32.4" height="28.8" rx="6" fill="#cbd8e2" stroke="#0f172a" />
        <text x="56.2" y="1137.5999999999997" text-anchor="middle" dominant-baseline="middle"
          font-family="sans-serif" font-size="14" font-style="normal" font-weight="600" fill="#0f172a">
          y
        </text>
      
<path d="M 16 599.3999999999999 L 22 599.3999999999999 A 6 6 0 0 0 28 605.3999999999999 L 28 1131.5999999999997 A 6 6 0 0 1 34 1137.5999999999997 L 40 1137.5999999999997" fill="none" />
<path d="M 72.4 1137.5999999999997 L 86 1137.5999999999997 A 6 6 0 0 1 92 1131.5999999999997 L 92 605.3999999999999 A 6 6 0 0 0 98 599.3999999999999 L 104 599.3999999999999" fill="none" />

        <rect x="40" y="1169.9999999999995" width="32.4" height="28.8" rx="6" fill="#cbd8e2" stroke="#0f172a" />
        <text x="56.2" y="1184.3999999999996" text-anchor="middle" dominant-baseline="middle"
          font-family="sans-serif" font-size="14" font-style="normal" font-weight="600" fill="#0f172a">
          z
        </text>
      
<path d="M 16 599.3999999999999 L 22 599.3999999999999 A 6 6 0 0 0 28 605.3999999999999 L 28 1178.3999999999996 A 6 6 0 0 1 34 1184.3999999999996 L 40 1184.3999999999996" fill="none" />
<path d="M 72.4 1184.3999999999996 L 86 1184.3999999999996 A 6 6 0 0 1 92 1178.3999999999996 L 92 605.3999999999999 A 6 6 0 0 0 98 599.3999999999999 L 104 599.3999999999999" fill="none" /><line x1="104" y1="599.3999999999999" x2="124" y2="599.3999999999999" marker-end="url(#railroad-arrow)" /></g></g></svg>