<svg xmlns="http://www.w3.org/2000/svg" 
    width="1170" 
    height="140" 
    viewBox="60 60 1170 140"
    role="img" 
    aria-labelledby="schematic-title">
  <title id="schematic-title">Common Emitter Amplifier</title>

  <defs>
    <style type="text/css"><![CDATA[
      .schematic-wire { stroke: #000000; stroke-width: 2; fill: none; }
      .schematic-component { color: #000000; }
      .schematic-label { font-family: sans-serif; font-size: 12px; fill: #000000; }
      .schematic-value { font-family: sans-serif; font-size: 10px; fill: #000000; }
      .schematic-net-label { font-family: sans-serif; font-size: 10px; fill: #0066cc; }
    ]]></style>
  </defs>
<g class="schematic-wires">
  <path d="M 100,120 L 520,110" class="schematic-wire"/>
  <text x="525" y="105" class="schematic-net-label">VCC</text>
  <path d="M 520,110 L 990,110" class="schematic-wire"/>
  <text x="995" y="105" class="schematic-net-label">VCC</text>
  <path d="M 240,120 L 380,115" class="schematic-wire"/>
  <text x="385" y="110" class="schematic-net-label">VIN</text>
  <path d="M 420,115 L 580,110" class="schematic-wire"/>
  <text x="585" y="105" class="schematic-net-label">VBIAS</text>
  <path d="M 580,110 L 680,110" class="schematic-wire"/>
  <text x="685" y="105" class="schematic-net-label">VBIAS</text>
  <path d="M 680,110 L 840,130" class="schematic-wire"/>
  <text x="845" y="125" class="schematic-net-label">VBIAS</text>
  <path d="M 865,100 L 1050,110" class="schematic-wire"/>
  <text x="1055" y="105" class="schematic-net-label">VOUT</text>
  <path d="M 1050,110 L 1150,115" class="schematic-wire"/>
  <text x="1155" y="110" class="schematic-net-label">VOUT</text>
</g>
<g class="schematic-components">
  <g class="schematic-component" data-ref="V1">

      <circle cx="120" cy="120" r="15" 
        stroke="currentColor" 
        stroke-width="2" 
        fill="white"/>
      <line x1="100" y1="120" x2="105" y2="120" 
        stroke="currentColor" stroke-width="2"/>
      <line x1="135" y1="120" x2="140" y2="120" 
        stroke="currentColor" stroke-width="2"/>
      <text x="114" y="124" 
        font-family="sans-serif" 
        font-size="12" 
        fill="currentColor">+</text>
      <line x1="115" y1="120" x2="109" y2="120" 
        stroke="currentColor" stroke-width="1.5"/>
        <text x="120" y="92" 
        class="schematic-label" 
        text-anchor="middle">V1</text>
    <text x="120" y="155" 
          class="schematic-value" 
          text-anchor="middle">12</text>
  </g>
  <g class="schematic-component" data-ref="V2">

      <circle cx="260" cy="120" r="15" 
        stroke="currentColor" 
        stroke-width="2" 
        fill="white"/>
      <line x1="240" y1="120" x2="245" y2="120" 
        stroke="currentColor" stroke-width="2"/>
      <line x1="275" y1="120" x2="280" y2="120" 
        stroke="currentColor" stroke-width="2"/>
      <text x="254" y="124" 
        font-family="sans-serif" 
        font-size="12" 
        fill="currentColor">+</text>
      <line x1="255" y1="120" x2="249" y2="120" 
        stroke="currentColor" stroke-width="1.5"/>
        <text x="260" y="92" 
        class="schematic-label" 
        text-anchor="middle">V2</text>
    <text x="260" y="155" 
          class="schematic-value" 
          text-anchor="middle">SIN(0 0.01 1k)</text>
  </g>
  <g class="schematic-component" data-ref="C1">

      <line x1="380" y1="115" x2="397" y2="115" 
        stroke="currentColor" stroke-width="2"/>
      <line x1="397" y1="105" x2="397" y2="125" 
        stroke="currentColor" stroke-width="2"/>
      <line x1="403" y1="105" x2="403" y2="125" 
        stroke="currentColor" stroke-width="2"/>
      <line x1="403" y1="115" x2="420" y2="115" 
        stroke="currentColor" stroke-width="2"/>
        <text x="400" y="92" 
        class="schematic-label" 
        text-anchor="middle">C1</text>
    <text x="400" y="145" 
          class="schematic-value" 
          text-anchor="middle">10u</text>
  </g>
  <g class="schematic-component" data-ref="R1">

      <path d="M 520,110 l 5,0 l 2.5,-5 l 5,10 l 5,-10 l 5,10 l 5,-10 l 5,10 l 2.5,-5 l 5,0" 
        stroke="currentColor" 
        stroke-width="2" 
        fill="none" 
        stroke-linecap="round" 
        stroke-linejoin="round"/>
        <text x="550" y="92" 
        class="schematic-label" 
        text-anchor="middle">R1</text>
    <text x="550" y="135" 
          class="schematic-value" 
          text-anchor="middle">100k</text>
  </g>
  <g class="schematic-component" data-ref="R2">

      <path d="M 680,110 l 5,0 l 2.5,-5 l 5,10 l 5,-10 l 5,10 l 5,-10 l 5,10 l 2.5,-5 l 5,0" 
        stroke="currentColor" 
        stroke-width="2" 
        fill="none" 
        stroke-linecap="round" 
        stroke-linejoin="round"/>
        <text x="710" y="92" 
        class="schematic-label" 
        text-anchor="middle">R2</text>
    <text x="710" y="135" 
          class="schematic-value" 
          text-anchor="middle">22k</text>
  </g>
  <g class="schematic-component" data-ref="Q1">

      <!-- Base connection -->
      <line x1="840" y1="130" x2="855" y2="130" 
        stroke="currentColor" stroke-width="2"/>
      <!-- Vertical base line -->
      <line x1="855" y1="115" x2="855" y2="145" 
        stroke="currentColor" stroke-width="3"/>
      <!-- Collector -->
      <line x1="855" y1="120" x2="865" y2="100" 
        stroke="currentColor" stroke-width="2"/>
      <line x1="865" y1="100" x2="865" y2="100" 
        stroke="currentColor" stroke-width="2"/>
      <!-- Emitter with arrow -->
      <line x1="855" y1="140" x2="865" y2="160" 
        stroke="currentColor" stroke-width="2"/>
      <path d="M 862,155 l 3,5 l -6,0 z" 
        fill="currentColor"/>
        <text x="865" y="92" 
        class="schematic-label" 
        text-anchor="middle">Q1</text>
    <text x="865" y="175" 
          class="schematic-value" 
          text-anchor="middle">2N2222</text>
  </g>
  <g class="schematic-component" data-ref="R3">

      <path d="M 990,110 l 5,0 l 2.5,-5 l 5,10 l 5,-10 l 5,10 l 5,-10 l 5,10 l 2.5,-5 l 5,0" 
        stroke="currentColor" 
        stroke-width="2" 
        fill="none" 
        stroke-linecap="round" 
        stroke-linejoin="round"/>
        <text x="1020" y="92" 
        class="schematic-label" 
        text-anchor="middle">R3</text>
    <text x="1020" y="135" 
          class="schematic-value" 
          text-anchor="middle">4.7k</text>
  </g>
  <g class="schematic-component" data-ref="C2">

      <line x1="1150" y1="115" x2="1167" y2="115" 
        stroke="currentColor" stroke-width="2"/>
      <line x1="1167" y1="105" x2="1167" y2="125" 
        stroke="currentColor" stroke-width="2"/>
      <line x1="1173" y1="105" x2="1173" y2="125" 
        stroke="currentColor" stroke-width="2"/>
      <line x1="1173" y1="115" x2="1190" y2="115" 
        stroke="currentColor" stroke-width="2"/>
        <text x="1170" y="92" 
        class="schematic-label" 
        text-anchor="middle">C2</text>
    <text x="1170" y="145" 
          class="schematic-value" 
          text-anchor="middle">10u</text>
  </g>
</g>
<g class="schematic-grounds">

      <line x1="140" y1="125.5" x2="140" y2="137.5" 
        stroke="currentColor" stroke-width="2"/>
      <line x1="130" y1="137.5" x2="150" y2="137.5" 
        stroke="currentColor" stroke-width="2"/>
      <line x1="134" y1="141.5" x2="146" y2="141.5" 
        stroke="currentColor" stroke-width="2"/>
      <line x1="137" y1="145.5" x2="143" y2="145.5" 
        stroke="currentColor" stroke-width="2"/>
    
      <line x1="280" y1="125.5" x2="280" y2="137.5" 
        stroke="currentColor" stroke-width="2"/>
      <line x1="270" y1="137.5" x2="290" y2="137.5" 
        stroke="currentColor" stroke-width="2"/>
      <line x1="274" y1="141.5" x2="286" y2="141.5" 
        stroke="currentColor" stroke-width="2"/>
      <line x1="277" y1="145.5" x2="283" y2="145.5" 
        stroke="currentColor" stroke-width="2"/>
    
      <line x1="740" y1="115.5" x2="740" y2="127.5" 
        stroke="currentColor" stroke-width="2"/>
      <line x1="730" y1="127.5" x2="750" y2="127.5" 
        stroke="currentColor" stroke-width="2"/>
      <line x1="734" y1="131.5" x2="746" y2="131.5" 
        stroke="currentColor" stroke-width="2"/>
      <line x1="737" y1="135.5" x2="743" y2="135.5" 
        stroke="currentColor" stroke-width="2"/>
    
      <line x1="865" y1="165.5" x2="865" y2="177.5" 
        stroke="currentColor" stroke-width="2"/>
      <line x1="855" y1="177.5" x2="875" y2="177.5" 
        stroke="currentColor" stroke-width="2"/>
      <line x1="859" y1="181.5" x2="871" y2="181.5" 
        stroke="currentColor" stroke-width="2"/>
      <line x1="862" y1="185.5" x2="868" y2="185.5" 
        stroke="currentColor" stroke-width="2"/>
    
      <line x1="1190" y1="120.5" x2="1190" y2="132.5" 
        stroke="currentColor" stroke-width="2"/>
      <line x1="1180" y1="132.5" x2="1200" y2="132.5" 
        stroke="currentColor" stroke-width="2"/>
      <line x1="1184" y1="136.5" x2="1196" y2="136.5" 
        stroke="currentColor" stroke-width="2"/>
      <line x1="1187" y1="140.5" x2="1193" y2="140.5" 
        stroke="currentColor" stroke-width="2"/>
    </g>
</svg>