<svg xmlns="http://www.w3.org/2000/svg" 
    width="1020" 
    height="120" 
    viewBox="60 60 1020 120"
    role="img" 
    aria-labelledby="schematic-title">
  <title id="schematic-title">5V Voltage Regulator</title>

  <defs>
    <style type="text/css"><![CDATA[
      .schematic-wire { stroke: #000000; stroke-width: 2; fill: none; }
      .schematic-component { color: #000000; }
      .schematic-label { font-family: sans-serif; font-size: 12px; fill: #000000; }
      .schematic-value { font-family: sans-serif; font-size: 10px; fill: #000000; }
      .schematic-net-label { font-family: sans-serif; font-size: 10px; fill: #0066cc; }
    ]]></style>
  </defs>
<g class="schematic-wires">
  <path d="M 100,120 L 240,115" class="schematic-wire"/>
  <text x="245" y="110" class="schematic-net-label">VIN</text>
  <path d="M 240,115 L 380,110" class="schematic-wire"/>
  <text x="385" y="105" class="schematic-net-label">VIN</text>
  <path d="M 440,110 L 540,120" class="schematic-wire"/>
  <text x="545" y="115" class="schematic-net-label">VREG</text>
  <path d="M 540,120 L 980,110" class="schematic-wire"/>
  <text x="985" y="105" class="schematic-net-label">VREG</text>
  <path d="M 680,115 L 820,110" class="schematic-wire"/>
  <text x="825" y="105" class="schematic-net-label">VOUT</text>
  <path d="M 820,110 L 1040,110" class="schematic-wire"/>
  <text x="1045" y="105" class="schematic-net-label">VOUT</text>
</g>
<g class="schematic-components">
  <g class="schematic-component" data-ref="V1">

      <circle cx="120" cy="120" r="15" 
        stroke="currentColor" 
        stroke-width="2" 
        fill="white"/>
      <line x1="100" y1="120" x2="105" y2="120" 
        stroke="currentColor" stroke-width="2"/>
      <line x1="135" y1="120" x2="140" y2="120" 
        stroke="currentColor" stroke-width="2"/>
      <text x="114" y="124" 
        font-family="sans-serif" 
        font-size="12" 
        fill="currentColor">+</text>
      <line x1="115" y1="120" x2="109" y2="120" 
        stroke="currentColor" stroke-width="1.5"/>
        <text x="120" y="92" 
        class="schematic-label" 
        text-anchor="middle">V1</text>
    <text x="120" y="155" 
          class="schematic-value" 
          text-anchor="middle">12</text>
  </g>
  <g class="schematic-component" data-ref="C1">

      <line x1="240" y1="115" x2="257" y2="115" 
        stroke="currentColor" stroke-width="2"/>
      <line x1="257" y1="105" x2="257" y2="125" 
        stroke="currentColor" stroke-width="2"/>
      <line x1="263" y1="105" x2="263" y2="125" 
        stroke="currentColor" stroke-width="2"/>
      <line x1="263" y1="115" x2="280" y2="115" 
        stroke="currentColor" stroke-width="2"/>
        <text x="260" y="92" 
        class="schematic-label" 
        text-anchor="middle">C1</text>
    <text x="260" y="145" 
          class="schematic-value" 
          text-anchor="middle">10u</text>
  </g>
  <g class="schematic-component" data-ref="R1">

      <path d="M 380,110 l 5,0 l 2.5,-5 l 5,10 l 5,-10 l 5,10 l 5,-10 l 5,10 l 2.5,-5 l 5,0" 
        stroke="currentColor" 
        stroke-width="2" 
        fill="none" 
        stroke-linecap="round" 
        stroke-linejoin="round"/>
        <text x="410" y="92" 
        class="schematic-label" 
        text-anchor="middle">R1</text>
    <text x="410" y="135" 
          class="schematic-value" 
          text-anchor="middle">100</text>
  </g>
  <g class="schematic-component" data-ref="VREG">

      <circle cx="560" cy="120" r="15" 
        stroke="currentColor" 
        stroke-width="2" 
        fill="white"/>
      <line x1="540" y1="120" x2="545" y2="120" 
        stroke="currentColor" stroke-width="2"/>
      <line x1="575" y1="120" x2="580" y2="120" 
        stroke="currentColor" stroke-width="2"/>
      <text x="554" y="124" 
        font-family="sans-serif" 
        font-size="12" 
        fill="currentColor">+</text>
      <line x1="555" y1="120" x2="549" y2="120" 
        stroke="currentColor" stroke-width="1.5"/>
        <text x="560" y="92" 
        class="schematic-label" 
        text-anchor="middle">VREG</text>
    <text x="560" y="155" 
          class="schematic-value" 
          text-anchor="middle">5</text>
  </g>
  <g class="schematic-component" data-ref="C2">

      <line x1="680" y1="115" x2="697" y2="115" 
        stroke="currentColor" stroke-width="2"/>
      <line x1="697" y1="105" x2="697" y2="125" 
        stroke="currentColor" stroke-width="2"/>
      <line x1="703" y1="105" x2="703" y2="125" 
        stroke="currentColor" stroke-width="2"/>
      <line x1="703" y1="115" x2="720" y2="115" 
        stroke="currentColor" stroke-width="2"/>
        <text x="700" y="92" 
        class="schematic-label" 
        text-anchor="middle">C2</text>
    <text x="700" y="145" 
          class="schematic-value" 
          text-anchor="middle">10u</text>
  </g>
  <g class="schematic-component" data-ref="R2">

      <path d="M 820,110 l 5,0 l 2.5,-5 l 5,10 l 5,-10 l 5,10 l 5,-10 l 5,10 l 2.5,-5 l 5,0" 
        stroke="currentColor" 
        stroke-width="2" 
        fill="none" 
        stroke-linecap="round" 
        stroke-linejoin="round"/>
        <text x="850" y="92" 
        class="schematic-label" 
        text-anchor="middle">R2</text>
    <text x="850" y="135" 
          class="schematic-value" 
          text-anchor="middle">1k</text>
  </g>
  <g class="schematic-component" data-ref="R3">

      <path d="M 980,110 l 5,0 l 2.5,-5 l 5,10 l 5,-10 l 5,10 l 5,-10 l 5,10 l 2.5,-5 l 5,0" 
        stroke="currentColor" 
        stroke-width="2" 
        fill="none" 
        stroke-linecap="round" 
        stroke-linejoin="round"/>
        <text x="1010" y="92" 
        class="schematic-label" 
        text-anchor="middle">R3</text>
    <text x="1010" y="135" 
          class="schematic-value" 
          text-anchor="middle">1</text>
  </g>
</g>
<g class="schematic-grounds">

      <line x1="140" y1="125.5" x2="140" y2="137.5" 
        stroke="currentColor" stroke-width="2"/>
      <line x1="130" y1="137.5" x2="150" y2="137.5" 
        stroke="currentColor" stroke-width="2"/>
      <line x1="134" y1="141.5" x2="146" y2="141.5" 
        stroke="currentColor" stroke-width="2"/>
      <line x1="137" y1="145.5" x2="143" y2="145.5" 
        stroke="currentColor" stroke-width="2"/>
    
      <line x1="280" y1="120.5" x2="280" y2="132.5" 
        stroke="currentColor" stroke-width="2"/>
      <line x1="270" y1="132.5" x2="290" y2="132.5" 
        stroke="currentColor" stroke-width="2"/>
      <line x1="274" y1="136.5" x2="286" y2="136.5" 
        stroke="currentColor" stroke-width="2"/>
      <line x1="277" y1="140.5" x2="283" y2="140.5" 
        stroke="currentColor" stroke-width="2"/>
    
      <line x1="580" y1="125.5" x2="580" y2="137.5" 
        stroke="currentColor" stroke-width="2"/>
      <line x1="570" y1="137.5" x2="590" y2="137.5" 
        stroke="currentColor" stroke-width="2"/>
      <line x1="574" y1="141.5" x2="586" y2="141.5" 
        stroke="currentColor" stroke-width="2"/>
      <line x1="577" y1="145.5" x2="583" y2="145.5" 
        stroke="currentColor" stroke-width="2"/>
    
      <line x1="720" y1="120.5" x2="720" y2="132.5" 
        stroke="currentColor" stroke-width="2"/>
      <line x1="710" y1="132.5" x2="730" y2="132.5" 
        stroke="currentColor" stroke-width="2"/>
      <line x1="714" y1="136.5" x2="726" y2="136.5" 
        stroke="currentColor" stroke-width="2"/>
      <line x1="717" y1="140.5" x2="723" y2="140.5" 
        stroke="currentColor" stroke-width="2"/>
    
      <line x1="880" y1="115.5" x2="880" y2="127.5" 
        stroke="currentColor" stroke-width="2"/>
      <line x1="870" y1="127.5" x2="890" y2="127.5" 
        stroke="currentColor" stroke-width="2"/>
      <line x1="874" y1="131.5" x2="886" y2="131.5" 
        stroke="currentColor" stroke-width="2"/>
      <line x1="877" y1="135.5" x2="883" y2="135.5" 
        stroke="currentColor" stroke-width="2"/>
    </g>
</svg>