<svg xmlns="http://www.w3.org/2000/svg" xmlns:xlink="http://www.w3.org/1999/xlink" 
    width="382" height="322" 
    viewBox="0 0 382 322"
    role="img" aria-labelledby="diagram-title" data-id="runiq-diagram">
<title id="diagram-title">Diagram</title><defs><style type="text/css"><![CDATA[.runiq-node-text { font-family: sans-serif; font-size: 14px; }.runiq-edge-text { font-family: sans-serif; font-size: 12px; }.runiq-container-label { font-family: sans-serif; font-size: 16px; font-weight: bold; fill: #666; }]]></style><pattern id="pedigree-half-fill" width="40" height="40" patternUnits="userSpaceOnUse"><rect x="0" y="0" width="20" height="40" fill="#000"/><rect x="20" y="0" width="20" height="40" fill="#fff"/></pattern></defs><g data-runiq-node="funnel" data-node-id="funnel" data-node-shape="invertedPyramid"><polygon points="20,20 330,20 299,70 51,70" fill="#C1121F" fill-opacity="0.85" stroke="#48677e" stroke-width="2" /><text x="175" y="45" text-anchor="middle" dominant-baseline="middle" font-family="Arial, sans-serif" font-size="14" font-weight="600" fill="white">Awareness</text><polygon points="51,70 299,70 268,120 82,120" fill="#FE5F55" fill-opacity="0.85" stroke="#48677e" stroke-width="2" /><text x="175" y="95" text-anchor="middle" dominant-baseline="middle" font-family="Arial, sans-serif" font-size="14" font-weight="600" fill="white">Interest</text><polygon points="82,120 268,120 237,170 113,170" fill="#FF9F1C" fill-opacity="0.85" stroke="#48677e" stroke-width="2" /><text x="175" y="145" text-anchor="middle" dominant-baseline="middle" font-family="Arial, sans-serif" font-size="14" font-weight="600" fill="white">Consideration</text><polygon points="113,170 237,170 206,220 144,220" fill="#FFBF69" fill-opacity="0.85" stroke="#48677e" stroke-width="2" /><text x="175" y="195" text-anchor="middle" dominant-baseline="middle" font-family="Arial, sans-serif" font-size="14" font-weight="600" fill="white">Intent</text><polygon points="144,220 206,220 190.5,270 159.5,270" fill="#FFD23F" fill-opacity="0.85" stroke="#48677e" stroke-width="2" /><text x="175" y="245" text-anchor="middle" dominant-baseline="middle" font-family="Arial, sans-serif" font-size="14" font-weight="600" fill="white">Purchase</text></g></svg>