<svg xmlns="http://www.w3.org/2000/svg" xmlns:xlink="http://www.w3.org/1999/xlink" 
    width="552" height="652" 
    viewBox="0 0 552 652"
    role="img" aria-labelledby="diagram-title" data-id="runiq-diagram">
<title id="diagram-title">Diagram</title><defs><style type="text/css"><![CDATA[.runiq-node-text { font-family: sans-serif; font-size: 14px; }.runiq-edge-text { font-family: sans-serif; font-size: 12px; }.runiq-container-label { font-family: sans-serif; font-size: 16px; font-weight: bold; fill: #666; }]]></style><pattern id="pedigree-half-fill" width="40" height="40" patternUnits="userSpaceOnUse"><rect x="0" y="0" width="20" height="40" fill="#000"/><rect x="20" y="0" width="20" height="40" fill="#fff"/></pattern></defs><g data-runiq-node="horizontalOrgChart" data-node-id="horizontalOrgChart" data-node-shape="horizontalOrgChart"><g class="horizontal-org-chart"><rect x="12" y="292" width="120" height="60" fill="#2E7D32" stroke="#666" stroke-width="2" rx="8" /><text x="72" y="322" 
      text-anchor="middle" 
      dominant-baseline="middle"
      font-family="sans-serif" 
      font-size="12"
      fill="#000">
      Head of Product
    </text><line x1="132" y1="322" x2="212" y2="122" stroke="#666" stroke-width="2" /><rect x="212" y="92" width="120" height="60" fill="#43A047" stroke="#666" stroke-width="2" rx="8" /><text x="272" y="122" 
      text-anchor="middle" 
      dominant-baseline="middle"
      font-family="sans-serif" 
      font-size="12"
      fill="#000">
      Platform Team
    </text><line x1="332" y1="122" x2="412" y2="42" stroke="#666" stroke-width="2" /><rect x="412" y="12" width="120" height="60" fill="#66BB6A" stroke="#666" stroke-width="2" rx="8" /><text x="472" y="42" 
      text-anchor="middle" 
      dominant-baseline="middle"
      font-family="sans-serif" 
      font-size="12"
      fill="#000">
      Backend Lead
    </text><line x1="332" y1="122" x2="412" y2="122" stroke="#666" stroke-width="2" /><rect x="412" y="92" width="120" height="60" fill="#66BB6A" stroke="#666" stroke-width="2" rx="8" /><text x="472" y="122" 
      text-anchor="middle" 
      dominant-baseline="middle"
      font-family="sans-serif" 
      font-size="12"
      fill="#000">
      DevOps Lead
    </text><line x1="332" y1="122" x2="412" y2="202" stroke="#666" stroke-width="2" /><rect x="412" y="172" width="120" height="60" fill="#66BB6A" stroke="#666" stroke-width="2" rx="8" /><text x="472" y="202" 
      text-anchor="middle" 
      dominant-baseline="middle"
      font-family="sans-serif" 
      font-size="12"
      fill="#000">
      API Developer
    </text><line x1="132" y1="322" x2="212" y2="362" stroke="#666" stroke-width="2" /><rect x="212" y="332" width="120" height="60" fill="#43A047" stroke="#666" stroke-width="2" rx="8" /><text x="272" y="362" 
      text-anchor="middle" 
      dominant-baseline="middle"
      font-family="sans-serif" 
      font-size="12"
      fill="#000">
      Features Team
    </text><line x1="332" y1="362" x2="412" y2="282" stroke="#666" stroke-width="2" /><rect x="412" y="252" width="120" height="60" fill="#66BB6A" stroke="#666" stroke-width="2" rx="8" /><text x="472" y="282" 
      text-anchor="middle" 
      dominant-baseline="middle"
      font-family="sans-serif" 
      font-size="12"
      fill="#000">
      Frontend Lead
    </text><line x1="332" y1="362" x2="412" y2="362" stroke="#666" stroke-width="2" /><rect x="412" y="332" width="120" height="60" fill="#66BB6A" stroke="#666" stroke-width="2" rx="8" /><text x="472" y="362" 
      text-anchor="middle" 
      dominant-baseline="middle"
      font-family="sans-serif" 
      font-size="12"
      fill="#000">
      Mobile Lead
    </text><line x1="332" y1="362" x2="412" y2="442" stroke="#666" stroke-width="2" /><rect x="412" y="412" width="120" height="60" fill="#66BB6A" stroke="#666" stroke-width="2" rx="8" /><text x="472" y="442" 
      text-anchor="middle" 
      dominant-baseline="middle"
      font-family="sans-serif" 
      font-size="12"
      fill="#000">
      UI Developer
    </text><line x1="132" y1="322" x2="212" y2="562" stroke="#666" stroke-width="2" /><rect x="212" y="532" width="120" height="60" fill="#43A047" stroke="#666" stroke-width="2" rx="8" /><text x="272" y="562" 
      text-anchor="middle" 
      dominant-baseline="middle"
      font-family="sans-serif" 
      font-size="12"
      fill="#000">
      Growth Team
    </text><line x1="332" y1="562" x2="412" y2="522" stroke="#666" stroke-width="2" /><rect x="412" y="492" width="120" height="60" fill="#66BB6A" stroke="#666" stroke-width="2" rx="8" /><text x="472" y="522" 
      text-anchor="middle" 
      dominant-baseline="middle"
      font-family="sans-serif" 
      font-size="12"
      fill="#000">
      Analytics Lead
    </text><line x1="332" y1="562" x2="412" y2="602" stroke="#666" stroke-width="2" /><rect x="412" y="572" width="120" height="60" fill="#66BB6A" stroke="#666" stroke-width="2" rx="8" /><text x="472" y="602" 
      text-anchor="middle" 
      dominant-baseline="middle"
      font-family="sans-serif" 
      font-size="12"
      fill="#000">
      A/B Testing
    </text></g></g></svg>