<svg xmlns="http://www.w3.org/2000/svg" xmlns:xlink="http://www.w3.org/1999/xlink" 
    width="712" height="792" 
    viewBox="0 0 712 792"
    role="img" aria-labelledby="diagram-title" data-id="runiq-diagram">
<title id="diagram-title">Diagram</title><defs><style type="text/css"><![CDATA[.runiq-node-text { font-family: sans-serif; font-size: 14px; }.runiq-edge-text { font-family: sans-serif; font-size: 12px; }.runiq-container-label { font-family: sans-serif; font-size: 16px; font-weight: bold; fill: #666; }]]></style><pattern id="pedigree-half-fill" width="40" height="40" patternUnits="userSpaceOnUse"><rect x="0" y="0" width="20" height="40" fill="#000"/><rect x="20" y="0" width="20" height="40" fill="#fff"/></pattern></defs><g data-runiq-node="orgChart" data-node-id="orgChart" data-node-shape="orgChart"><g class="org-chart"><rect x="292" y="12" width="120" height="60" fill="#2E7D32" stroke="#666" stroke-width="2" rx="8" /><text x="352" y="42" 
      text-anchor="middle" 
      dominant-baseline="middle"
      font-family="sans-serif" 
      font-size="12"
      fill="#000">
      CEO
    </text><line x1="352" y1="72" x2="282" y2="152" stroke="#666" stroke-width="2" /><rect x="222" y="152" width="120" height="60" fill="#43A047" stroke="#666" stroke-width="2" rx="8" /><text x="282" y="182" 
      text-anchor="middle" 
      dominant-baseline="middle"
      font-family="sans-serif" 
      font-size="12"
      fill="#000">
      CTO
    </text><line x1="282" y1="212" x2="282" y2="292" stroke="#666" stroke-width="2" /><rect x="222" y="292" width="120" height="60" fill="#66BB6A" stroke="#666" stroke-width="2" rx="8" /><text x="282" y="322" 
      text-anchor="middle" 
      dominant-baseline="middle"
      font-family="sans-serif" 
      font-size="12"
      fill="#000">
      VP Engineering
    </text><line x1="282" y1="352" x2="212" y2="432" stroke="#666" stroke-width="2" /><rect x="152" y="432" width="120" height="60" fill="#81C784" stroke="#666" stroke-width="2" rx="8" /><text x="212" y="462" 
      text-anchor="middle" 
      dominant-baseline="middle"
      font-family="sans-serif" 
      font-size="12"
      fill="#000">
      Engineering Manager
    </text><line x1="212" y1="492" x2="212" y2="572" stroke="#666" stroke-width="2" /><rect x="152" y="572" width="120" height="60" fill="#1B5E20" stroke="#666" stroke-width="2" rx="8" /><text x="212" y="602" 
      text-anchor="middle" 
      dominant-baseline="middle"
      font-family="sans-serif" 
      font-size="12"
      fill="#000">
      Team Lead
    </text><line x1="212" y1="632" x2="72" y2="712" stroke="#666" stroke-width="2" /><rect x="12" y="712" width="120" height="60" fill="#388E3C" stroke="#666" stroke-width="2" rx="8" /><text x="72" y="742" 
      text-anchor="middle" 
      dominant-baseline="middle"
      font-family="sans-serif" 
      font-size="12"
      fill="#000">
      Senior Engineer
    </text><line x1="212" y1="632" x2="212" y2="712" stroke="#666" stroke-width="2" /><rect x="152" y="712" width="120" height="60" fill="#388E3C" stroke="#666" stroke-width="2" rx="8" /><text x="212" y="742" 
      text-anchor="middle" 
      dominant-baseline="middle"
      font-family="sans-serif" 
      font-size="12"
      fill="#000">
      Engineer
    </text><line x1="212" y1="632" x2="352" y2="712" stroke="#666" stroke-width="2" /><rect x="292" y="712" width="120" height="60" fill="#388E3C" stroke="#666" stroke-width="2" rx="8" /><text x="352" y="742" 
      text-anchor="middle" 
      dominant-baseline="middle"
      font-family="sans-serif" 
      font-size="12"
      fill="#000">
      Junior Engineer
    </text><line x1="282" y1="352" x2="492" y2="432" stroke="#666" stroke-width="2" /><rect x="432" y="432" width="120" height="60" fill="#81C784" stroke="#666" stroke-width="2" rx="8" /><text x="492" y="462" 
      text-anchor="middle" 
      dominant-baseline="middle"
      font-family="sans-serif" 
      font-size="12"
      fill="#000">
      QA Manager
    </text><line x1="492" y1="492" x2="492" y2="572" stroke="#666" stroke-width="2" /><rect x="432" y="572" width="120" height="60" fill="#1B5E20" stroke="#666" stroke-width="2" rx="8" /><text x="492" y="602" 
      text-anchor="middle" 
      dominant-baseline="middle"
      font-family="sans-serif" 
      font-size="12"
      fill="#000">
      QA Lead
    </text><line x1="352" y1="72" x2="632" y2="152" stroke="#666" stroke-width="2" /><rect x="572" y="152" width="120" height="60" fill="#43A047" stroke="#666" stroke-width="2" rx="8" /><text x="632" y="182" 
      text-anchor="middle" 
      dominant-baseline="middle"
      font-family="sans-serif" 
      font-size="12"
      fill="#000">
      CFO
    </text><line x1="632" y1="212" x2="632" y2="292" stroke="#666" stroke-width="2" /><rect x="572" y="292" width="120" height="60" fill="#66BB6A" stroke="#666" stroke-width="2" rx="8" /><text x="632" y="322" 
      text-anchor="middle" 
      dominant-baseline="middle"
      font-family="sans-serif" 
      font-size="12"
      fill="#000">
      Finance Manager
    </text><line x1="632" y1="352" x2="632" y2="432" stroke="#666" stroke-width="2" /><rect x="572" y="432" width="120" height="60" fill="#81C784" stroke="#666" stroke-width="2" rx="8" /><text x="632" y="462" 
      text-anchor="middle" 
      dominant-baseline="middle"
      font-family="sans-serif" 
      font-size="12"
      fill="#000">
      Accountant
    </text></g></g></svg>