<svg xmlns="http://www.w3.org/2000/svg" xmlns:xlink="http://www.w3.org/1999/xlink" 
    width="336" height="256" 
    viewBox="0 0 336 256"
    role="img" aria-labelledby="diagram-title" data-id="runiq-diagram">
<title id="diagram-title">Diagram</title><defs><style type="text/css"><![CDATA[.runiq-node-text { font-family: sans-serif; font-size: 14px; }.runiq-edge-text { font-family: sans-serif; font-size: 12px; }.runiq-container-label { font-family: sans-serif; font-size: 16px; font-weight: bold; fill: #666; }]]></style><pattern id="pedigree-half-fill" width="40" height="40" patternUnits="userSpaceOnUse"><rect x="0" y="0" width="20" height="40" fill="#000"/><rect x="20" y="0" width="20" height="40" fill="#fff"/></pattern></defs><g data-runiq-node="puzzle-composite" data-node-id="puzzle-composite" data-node-shape="puzzle"><path d="M 24,24 L 164,24 L 164,62 L 176,62 L 176,86 L 164,86 L 164,124 L 106,124 L 106,136 L 82,136 L 82,124 L 24,124 Z" fill="#2E7D32" stroke="#333" stroke-width="2"/><text x="94" y="74" text-anchor="middle" dominant-baseline="middle" fill="#fff" font-size="13" font-weight="500">Frontend UI</text><path d="M 164,24 L 304,24 L 304,124 L 246,124 L 246,136 L 222,136 L 222,124 L 164,124 L 164,86 L 152,86 L 152,62 L 164,62 L 164,24" fill="#43A047" stroke="#333" stroke-width="2"/><text x="234" y="74" text-anchor="middle" dominant-baseline="middle" fill="#fff" font-size="13" font-weight="500">Backend API</text><path d="M 24,124 L 82,124 L 82,112 L 106,112 L 106,124 L 164,124 L 164,162 L 176,162 L 176,186 L 164,186 L 164,224 L 24,224 Z" fill="#66BB6A" stroke="#333" stroke-width="2"/><text x="94" y="174" text-anchor="middle" dominant-baseline="middle" fill="#fff" font-size="13" font-weight="500">Database</text><path d="M 164,124 L 222,124 L 222,112 L 246,112 L 246,124 L 304,124 L 304,224 L 164,224 L 164,186 L 152,186 L 152,162 L 164,162 L 164,124" fill="#81C784" stroke="#333" stroke-width="2"/><text x="234" y="174" text-anchor="middle" dominant-baseline="middle" fill="#fff" font-size="13" font-weight="500">Authentication</text></g></svg>