<svg xmlns="http://www.w3.org/2000/svg" xmlns:xlink="http://www.w3.org/1999/xlink" 
    width="532" height="532" 
    viewBox="0 0 532 532"
    role="img" aria-labelledby="diagram-title" data-id="runiq-diagram">
<title id="diagram-title">Diagram</title><defs><style type="text/css"><![CDATA[.runiq-node-text { font-family: sans-serif; font-size: 14px; }.runiq-edge-text { font-family: sans-serif; font-size: 12px; }.runiq-container-label { font-family: sans-serif; font-size: 16px; font-weight: bold; fill: #666; }]]></style><pattern id="pedigree-half-fill" width="40" height="40" patternUnits="userSpaceOnUse"><rect x="0" y="0" width="20" height="40" fill="#000"/><rect x="20" y="0" width="20" height="40" fill="#fff"/></pattern></defs><g data-runiq-node="spiralCycle" data-node-id="spiralCycle" data-node-shape="spiralCycle">
      <path d="M 292 262 L 293.11583745272566 269.47025164338896 L 292.2942218224045 277.4356769911446 L 289.3746147616011 285.3801297398866 L 284.335839587114 292.742645786248 L 277.3073372946036 298.9551813004515 L 268.5702475316897 303.4829103049958 L 258.54779978797484 305.8643626842576 L 247.78521825875242 305.74859974957707 L 236.92006889363446 302.9267278889964 L 226.64466094067262 297.3553390593274 L 217.6627114535872 289.16992536522935 L 210.6429481200617 278.6869176962472 L 206.17262931094484 266.3937093607593 L 204.714076245482 252.9268010276666 L 206.56722804932278 239.03899405809463 L 211.84094634875328 225.55731435786666 L 220.43532490686826 213.334018201598 L 232.03662701718991 203.19356940356772 L 246.1257152577984 195.87884541295801 L 262 192 L 278.8080661976252 191.9893657313673 L 295.59529698072646 196.06551721006076 L 311.358051673094 204.20914661439767 L 325.10332556124587 216.15275032118703 L 335.9103626009029 231.38532541079277 L 342.9904439288013 249.17237386670112 L 345.7410560335827 268.5905640411391 L 343.7908604013832 288.57546151624547 L 337.03233446316017 307.97987369500345 L 325.6396103067893 325.6396103067893 L 310.0698679538673 340.4428951205765 L 291.047597471245 351.39931253174444 L 269.5320731898731 357.7040640383803 L 246.6694224260573 358.7934573783235 L 223.731656763491 354.3879532511287 L 202.04590426616775 344.51973342624467 L 182.91777957759672 329.542597026339 L 167.55330843603306 310.12299297239207 L 156.9840485970509 287.21209929643777 L 152 262.00000000000006 L 153.0945689154602 235.8541192481387 L 160.42525624252607 210.2450830296916 L 173.7929079903963 186.66402639369886 L 192.64134022948815 166.53599466375624 L 216.07798811618915 151.13445609864561 L 242.91499526509187 141.5020224473932 L 271.72892787025256 138.38225061709213 L 300.93614129124313 142.16687894681056 L 328.87981628364156 152.86205896267626 L 353.92388155425107 170.0761184457487 L 374.54850169474 193.03018945749454 L 389.44157318355064 220.5917227537572 L 397.58075738770543 251.3295629810132 L 398.30099100212897 283.58795617555216 L 391.34313455158014 315.57568053111254 L 376.8804132012426 345.4655058255311 L 355.52051895954673 371.4984590464042 L 328.282612961974 392.08695253150165 L 296.5499138506743 405.91074821885604 L 262.00000000000006 412 L 226.51630469390278 409.80022790044694 L 192.08546304010974 399.2150047250086 L 160.68610446049158 380.623330633605 L 134.17531488875818 354.8700698622106 L 114.17927479819417 323.2293491784145 L 101.99448882358769 287.34238333651734 L 98.50555726776702 249.13270830063345 L 104.12461829500458 210.70317893375855 L 118.7564523885124 174.22024112772075 L 141.79184719828694 141.7918471982869 L 172.1302468688565 115.34589173109632 L 208.23104297875904 96.5161661646433 L 248.1911991518988 86.54254926296952 L 289.84533477716144 86.19147537406553 L 330.88301782571614 95.70168414796836 L 368.97691591722975 114.75890702375929 L 401.91469767040553 142.50155910724604 L 427.72721349903645 177.5577670484443 L 444.80554503476327 218.11227159509005 L 452 261.9999999999999 L 448.6950247163537 306.82150986033463 L 434.8552656925435 350.0741569494718 L 411.0395692576061 389.29181747271593 L 378.38147995390955 422.1853648862397 L 338.53668647301816 446.77590650225727 L 293.5997619381273 461.5130448002177 L 245.99434447152007 465.3711360815581 L 198.34249915876097 457.9176423568017 L 153.32029853908253 439.3491541856511 L 113.50757595082527 410.49242404917527 L 81.24028515693288 372.7696957197819 L 58.473905512837035 328.1296367962386 L 46.66585591364432 278.947164677214 L 46.68394175025986 227.89728662123042 L 58.74650284751672 177.80964487968072 L 82.39822724876109 131.51167399107175 L 116.52363717403833 91.66906370559352 L 159.39814705886278 60.63252553342869 L 208.77445704085426 40.29965814932956 L 261.9999999999994 32 "
            fill="none" stroke="#D0D0D0" stroke-width="2" stroke-dasharray="5,5" />
    
        <rect x="247" y="237" 
              width="90" height="50"
              rx="6" ry="6"
              fill="#2D5016" stroke="#48677e" stroke-width="2" />
        
        <text x="292" y="262" 
      text-anchor="middle" 
      dominant-baseline="middle"
      font-family="sans-serif" 
      font-size="12"
      fill="#FFFFFF">
      Initial
    </text>
      
          <path d="M 292 262 L 293.11583745272566 269.47025164338896 L 292.2942218224045 277.4356769911446 L 289.3746147616011 285.3801297398866 L 284.335839587114 292.742645786248 L 277.3073372946036 298.9551813004515 L 268.5702475316897 303.4829103049958 L 258.54779978797484 305.8643626842576 L 247.78521825875242 305.74859974957707 L 236.92006889363446 302.9267278889964 L 226.64466094067262 297.3553390593274 L 217.6627114535872 289.16992536522935 L 210.6429481200617 278.6869176962472 L 206.17262931094484 266.3937093607593 L 204.714076245482 252.9268010276666 L 206.56722804932278 239.03899405809463 L 211.84094634875325 225.5573143578667 L 220.43532490686823 213.33401820159804 L 232.03662701718991 203.19356940356772 L 246.1257152577984 195.87884541295801 L 262 192"
                fill="none" stroke="#48677e" stroke-width="2" 
                opacity="0.5"
                marker-end="url(#spiral-arrow-0)" />
          
          <defs>
            <marker id="spiral-arrow-0" markerWidth="10" markerHeight="10" 
                    refX="8" refY="3" orient="auto" markerUnits="strokeWidth">
              <path d="M0,0 L0,6 L9,3 z" fill="#48677e" />
            </marker>
          </defs>
        
        <rect x="217" y="167" 
              width="90" height="50"
              rx="6" ry="6"
              fill="#4A7C2C" stroke="#48677e" stroke-width="2" />
        
        <text x="262" y="192" 
      text-anchor="middle" 
      dominant-baseline="middle"
      font-family="sans-serif" 
      font-size="12"
      fill="#FFFFFF">
      Managed
    </text>
      
          <path d="M 262 192 L 278.8080661976251 191.9893657313673 L 295.59529698072646 196.06551721006076 L 311.358051673094 204.20914661439767 L 325.1033255612459 216.15275032118709 L 335.9103626009029 231.38532541079277 L 342.99044392880126 249.17237386670104 L 345.74105603358277 268.590564041139 L 343.7908604013832 288.57546151624547 L 337.03233446316017 307.97987369500345 L 325.6396103067893 325.6396103067893 L 310.0698679538673 340.4428951205765 L 291.04759747124507 351.39931253174444 L 269.5320731898732 357.7040640383803 L 246.66942242605748 358.7934573783235 L 223.731656763491 354.3879532511287 L 202.04590426616775 344.51973342624467 L 182.91777957759683 329.54259702633914 L 167.55330843603298 310.1229929723919 L 156.98404859705096 287.21209929643794 L 152 262.00000000000006"
                fill="none" stroke="#48677e" stroke-width="2" 
                opacity="0.5"
                marker-end="url(#spiral-arrow-1)" />
          
          <defs>
            <marker id="spiral-arrow-1" markerWidth="10" markerHeight="10" 
                    refX="8" refY="3" orient="auto" markerUnits="strokeWidth">
              <path d="M0,0 L0,6 L9,3 z" fill="#48677e" />
            </marker>
          </defs>
        
        <rect x="107" y="237.00000000000006" 
              width="90" height="50"
              rx="6" ry="6"
              fill="#6FA84C" stroke="#48677e" stroke-width="2" />
        
        <text x="152" y="262.00000000000006" 
      text-anchor="middle" 
      dominant-baseline="middle"
      font-family="sans-serif" 
      font-size="12"
      fill="#FFFFFF">
      Defined
    </text>
      
          <path d="M 152 262.00000000000006 L 153.0945689154602 235.8541192481387 L 160.425256242526 210.24508302969178 L 173.79290799039643 186.6640263936987 L 192.64134022948815 166.53599466375624 L 216.07798811618915 151.13445609864561 L 242.9149952650919 141.5020224473932 L 271.7289278702528 138.38225061709213 L 300.9361412912433 142.16687894681064 L 328.8798162836414 152.86205896267614 L 353.92388155425107 170.0761184457487 L 374.54850169474014 193.03018945749474 L 389.44157318355053 220.59172275375698 L 397.5807573877054 251.32956298101297 L 398.30099100212897 283.58795617555194 L 391.34313455158014 315.57568053111254 L 376.8804132012426 345.4655058255311 L 355.52051895954656 371.4984590464044 L 328.282612961974 392.08695253150165 L 296.549913850674 405.91074821885616 L 262.00000000000006 412"
                fill="none" stroke="#48677e" stroke-width="2" 
                opacity="0.5"
                marker-end="url(#spiral-arrow-2)" />
          
          <defs>
            <marker id="spiral-arrow-2" markerWidth="10" markerHeight="10" 
                    refX="8" refY="3" orient="auto" markerUnits="strokeWidth">
              <path d="M0,0 L0,6 L9,3 z" fill="#48677e" />
            </marker>
          </defs>
        
        <rect x="217.00000000000006" y="387" 
              width="90" height="50"
              rx="6" ry="6"
              fill="#8FBC6F" stroke="#48677e" stroke-width="2" />
        
        <text x="262.00000000000006" y="412" 
      text-anchor="middle" 
      dominant-baseline="middle"
      font-family="sans-serif" 
      font-size="12"
      fill="#FFFFFF">
      Quantified
    </text>
      
          <path d="M 262.00000000000006 412 L 226.51630469390253 409.8002279004469 L 192.08546304010974 399.2150047250086 L 160.68610446049138 380.62333063360484 L 134.17531488875835 354.8700698622108 L 114.17927479819417 323.2293491784145 L 101.99448882358772 287.3423833365176 L 98.50555726776702 249.13270830063345 L 104.12461829500438 210.70317893375912 L 118.7564523885124 174.22024112772075 L 141.79184719828694 141.7918471982869 L 172.1302468688565 115.34589173109632 L 208.23104297875904 96.5161661646433 L 248.1911991518994 86.54254926296946 L 289.8453347771608 86.19147537406545 L 330.88301782571614 95.70168414796836 L 368.97691591723026 114.75890702375969 L 401.91469767040553 142.50155910724604 L 427.72721349903645 177.5577670484443 L 444.8055450347631 218.1122715950894 L 452 261.9999999999999"
                fill="none" stroke="#48677e" stroke-width="2" 
                opacity="0.5"
                marker-end="url(#spiral-arrow-3)" />
          
          <defs>
            <marker id="spiral-arrow-3" markerWidth="10" markerHeight="10" 
                    refX="8" refY="3" orient="auto" markerUnits="strokeWidth">
              <path d="M0,0 L0,6 L9,3 z" fill="#48677e" />
            </marker>
          </defs>
        
        <rect x="407" y="236.9999999999999" 
              width="90" height="50"
              rx="6" ry="6"
              fill="#B8D4A0" stroke="#48677e" stroke-width="2" />
        
        <text x="452" y="261.9999999999999" 
      text-anchor="middle" 
      dominant-baseline="middle"
      font-family="sans-serif" 
      font-size="12"
      fill="#FFFFFF">
      Optimizing
    </text>
      
      <circle cx="262" cy="262" r="5"
              fill="#48677e" />
    </g></svg>