<svg xmlns="http://www.w3.org/2000/svg" xmlns:xlink="http://www.w3.org/1999/xlink" 
    width="544" height="840.4" 
    viewBox="0 0 544 840.4"
    role="img" aria-labelledby="diagram-title" data-id="runiq-diagram">
<title id="diagram-title">Diagram</title><defs><style type="text/css"><![CDATA[.runiq-node-text { font-family: sans-serif; font-size: 14px; }.runiq-edge-text { font-family: sans-serif; font-size: 12px; }.runiq-container-label { font-family: sans-serif; font-size: 16px; font-weight: bold; fill: #666; }]]></style><pattern id="pedigree-half-fill" width="40" height="40" patternUnits="userSpaceOnUse"><rect x="0" y="0" width="20" height="40" fill="#000"/><rect x="20" y="0" width="20" height="40" fill="#fff"/></pattern></defs><g data-runiq-container="customer" data-container-id="customer"><rect x="0" y="0" width="524" height="339.6" 
    fill="#e3f2fd" stroke="#ddd" stroke-width="2" rx="8" /><text x="10" y="20" text-anchor="start" dominant-baseline="hanging" class="runiq-container-label">Customer</text></g><g data-runiq-container="sales-department" data-container-id="sales-department"><rect x="0" y="419.6" width="524" height="199.2" 
    fill="#fff3e0" stroke="#ddd" stroke-width="2" rx="8" /><text x="10" y="439.6" text-anchor="start" dominant-baseline="hanging" class="runiq-container-label">Sales Department</text></g><g data-runiq-container="warehouse" data-container-id="warehouse"><rect x="0" y="698.8" width="524" height="121.6" 
    fill="#e8f5e9" stroke="#ddd" stroke-width="2" rx="8" /><text x="10" y="718.8" text-anchor="start" dominant-baseline="hanging" class="runiq-container-label">Warehouse</text></g><g data-runiq-edge="c1-c2-0" data-edge-id="c1-c2-0" data-edge-from="c1" data-edge-to="c2"><defs>
      <marker id="arrow-standard-c1-c2" markerWidth="10" markerHeight="10" refX="9" refY="3" orient="auto" markerUnits="strokeWidth">
        <polygon points="0,0 0,6 9,3" fill="#48677e" />
      </marker></defs><path d="M 50 61 L 90 61 L 90 60.8 L 130 60.8" fill="none" stroke="transparent" stroke-width="20" pointer-events="stroke" class="edge-hit-area" /><path d="M 50 61 L 90 61 L 90 60.8 L 130 60.8" fill="none" stroke="#48677e" stroke-width="1" marker-end="url(#arrow-standard-c1-c2)" pointer-events="none" /></g><g data-runiq-edge="c4-c5-10" data-edge-id="c4-c5-10" data-edge-from="c4" data-edge-to="c5"><defs>
      <marker id="arrow-standard-c4-c5" markerWidth="10" markerHeight="10" refX="9" refY="3" orient="auto" markerUnits="strokeWidth">
        <polygon points="0,0 0,6 9,3" fill="#48677e" />
      </marker></defs><path d="M 132 138.4 L 172 138.4 L 172 142.6 L 212 142.6" fill="none" stroke="transparent" stroke-width="20" pointer-events="stroke" class="edge-hit-area" /><path d="M 132 138.4 L 172 138.4 L 172 142.6 L 212 142.6" fill="none" stroke="#48677e" stroke-width="1" marker-end="url(#arrow-standard-c4-c5)" pointer-events="none" /></g><g data-runiq-edge="c3-c5-11" data-edge-id="c3-c5-11" data-edge-from="c3" data-edge-to="c5"><defs>
      <marker id="arrow-standard-c3-c5" markerWidth="10" markerHeight="10" refX="9" refY="3" orient="auto" markerUnits="strokeWidth">
        <polygon points="0,0 0,6 9,3" fill="#48677e" />
      </marker></defs><path d="M 132 277.6 L 167 277.6 L 167 146.6 L 212 142.6" fill="none" stroke="transparent" stroke-width="20" pointer-events="stroke" class="edge-hit-area" /><path d="M 132 277.6 L 167 277.6 L 167 146.6 L 212 142.6" fill="none" stroke="#48677e" stroke-width="1" marker-end="url(#arrow-standard-c3-c5)" pointer-events="none" /><text x="167" y="146.6" text-anchor="middle" dominant-baseline="middle" class="runiq-edge-text">no</text></g><g data-runiq-edge="s1-s2-2" data-edge-id="s1-s2-2" data-edge-from="s1" data-edge-to="s2"><defs>
      <marker id="arrow-standard-s1-s2" markerWidth="10" markerHeight="10" refX="9" refY="3" orient="auto" markerUnits="strokeWidth">
        <polygon points="0,0 0,6 9,3" fill="#48677e" />
      </marker></defs><path d="M 132 558 L 172 558 L 172 558 L 212 558" fill="none" stroke="transparent" stroke-width="20" pointer-events="stroke" class="edge-hit-area" /><path d="M 132 558 L 172 558 L 172 558 L 212 558" fill="none" stroke="#48677e" stroke-width="1" marker-end="url(#arrow-standard-s1-s2)" pointer-events="none" /></g><g data-runiq-edge="s2-s3-3" data-edge-id="s2-s3-3" data-edge-from="s2" data-edge-to="s3"><defs>
      <marker id="arrow-standard-s2-s3" markerWidth="10" markerHeight="10" refX="9" refY="3" orient="auto" markerUnits="strokeWidth">
        <polygon points="0,0 0,6 9,3" fill="#48677e" />
      </marker></defs><path d="M 312 558 L 352 558 L 352 558 L 392 558" fill="none" stroke="transparent" stroke-width="20" pointer-events="stroke" class="edge-hit-area" /><path d="M 312 558 L 352 558 L 352 558 L 392 558" fill="none" stroke="#48677e" stroke-width="1" marker-end="url(#arrow-standard-s2-s3)" pointer-events="none" /></g><g data-runiq-edge="w1-w2-7" data-edge-id="w1-w2-7" data-edge-from="w1" data-edge-to="w2"><defs>
      <marker id="arrow-standard-w1-w2" markerWidth="10" markerHeight="10" refX="9" refY="3" orient="auto" markerUnits="strokeWidth">
        <polygon points="0,0 0,6 9,3" fill="#48677e" />
      </marker></defs><path d="M 132 759.5999999999999 L 172 759.5999999999999 L 172 759.5999999999999 L 212 759.5999999999999" fill="none" stroke="transparent" stroke-width="20" pointer-events="stroke" class="edge-hit-area" /><path d="M 132 759.5999999999999 L 172 759.5999999999999 L 172 759.5999999999999 L 212 759.5999999999999" fill="none" stroke="#48677e" stroke-width="1" marker-end="url(#arrow-standard-w1-w2)" pointer-events="none" /></g><g data-runiq-edge="w2-w3-8" data-edge-id="w2-w3-8" data-edge-from="w2" data-edge-to="w3"><defs>
      <marker id="arrow-standard-w2-w3" markerWidth="10" markerHeight="10" refX="9" refY="3" orient="auto" markerUnits="strokeWidth">
        <polygon points="0,0 0,6 9,3" fill="#48677e" />
      </marker></defs><path d="M 312 759.5999999999999 L 352 759.5999999999999 L 352 759.5999999999999 L 392 759.5999999999999" fill="none" stroke="transparent" stroke-width="20" pointer-events="stroke" class="edge-hit-area" /><path d="M 312 759.5999999999999 L 352 759.5999999999999 L 352 759.5999999999999 L 392 759.5999999999999" fill="none" stroke="#48677e" stroke-width="1" marker-end="url(#arrow-standard-w2-w3)" pointer-events="none" /></g><g data-runiq-edge="c2-s1" data-edge-id="c2-s1" data-edge-from="c2" data-edge-to="s1"><defs>
      <marker id="arrow-standard-c2-s1" markerWidth="10" markerHeight="10" refX="9" refY="3" orient="auto" markerUnits="strokeWidth">
        <polygon points="0,0 0,6 9,3" fill="#48677e" />
      </marker></defs><path d="M 180 32 L 180 60.8 L 131 558 L 82 529.2" fill="none" stroke="transparent" stroke-width="20" pointer-events="stroke" class="edge-hit-area" /><path d="M 180 32 L 180 60.8 L 131 558 L 82 529.2" fill="none" stroke="#48677e" stroke-width="1" marker-end="url(#arrow-standard-c2-s1)" pointer-events="none" /></g><g data-runiq-edge="s3-c3" data-edge-id="s3-c3" data-edge-from="s3" data-edge-to="c3"><defs>
      <marker id="arrow-standard-s3-c3" markerWidth="10" markerHeight="10" refX="9" refY="3" orient="auto" markerUnits="strokeWidth">
        <polygon points="0,0 0,6 9,3" fill="#48677e" />
      </marker></defs><path d="M 442 529.2 L 442 558 L 267 277.6 L 92 307.6" fill="none" stroke="transparent" stroke-width="20" pointer-events="stroke" class="edge-hit-area" /><path d="M 442 529.2 L 442 558 L 267 277.6 L 92 307.6" fill="none" stroke="#48677e" stroke-width="1" marker-end="url(#arrow-standard-s3-c3)" pointer-events="none" /></g><g data-runiq-edge="c3-s4" data-edge-id="c3-s4" data-edge-from="c3" data-edge-to="s4"><defs>
      <marker id="arrow-standard-c3-s4" markerWidth="10" markerHeight="10" refX="9" refY="3" orient="auto" markerUnits="strokeWidth">
        <polygon points="0,0 0,6 9,3" fill="#48677e" />
      </marker></defs><path d="M 92 307.6 L 92 277.6 L 87 480.40000000000003 L 82 451.6" fill="none" stroke="transparent" stroke-width="20" pointer-events="stroke" class="edge-hit-area" /><path d="M 92 307.6 L 92 277.6 L 87 480.40000000000003 L 82 451.6" fill="none" stroke="#48677e" stroke-width="1" marker-end="url(#arrow-standard-c3-s4)" pointer-events="none" /><text x="87" y="480.40000000000003" text-anchor="middle" dominant-baseline="middle" class="runiq-edge-text">yes</text></g><g data-runiq-edge="s4-w1" data-edge-id="s4-w1" data-edge-from="s4" data-edge-to="w1"><defs>
      <marker id="arrow-standard-s4-w1" markerWidth="10" markerHeight="10" refX="9" refY="3" orient="auto" markerUnits="strokeWidth">
        <polygon points="0,0 0,6 9,3" fill="#48677e" />
      </marker></defs><path d="M 82 451.6 L 82 480.40000000000003 L 82 759.5999999999999 L 82 730.8" fill="none" stroke="transparent" stroke-width="20" pointer-events="stroke" class="edge-hit-area" /><path d="M 82 451.6 L 82 480.40000000000003 L 82 759.5999999999999 L 82 730.8" fill="none" stroke="#48677e" stroke-width="1" marker-end="url(#arrow-standard-s4-w1)" pointer-events="none" /></g><g data-runiq-edge="w3-c4" data-edge-id="w3-c4" data-edge-from="w3" data-edge-to="c4"><defs>
      <marker id="arrow-standard-w3-c4" markerWidth="10" markerHeight="10" refX="9" refY="3" orient="auto" markerUnits="strokeWidth">
        <polygon points="0,0 0,6 9,3" fill="#48677e" />
      </marker></defs><path d="M 442 730.8 L 442 759.5999999999999 L 262 138.4 L 82 167.2" fill="none" stroke="transparent" stroke-width="20" pointer-events="stroke" class="edge-hit-area" /><path d="M 442 730.8 L 442 759.5999999999999 L 262 138.4 L 82 167.2" fill="none" stroke="#48677e" stroke-width="1" marker-end="url(#arrow-standard-w3-c4)" pointer-events="none" /></g><g data-runiq-node="c1" data-node-id="c1" data-node-shape="initialState"><g class="initial-state-shape"><circle cx="41" cy="61" r="9" fill="#000000" stroke="none" /></g></g><g data-runiq-node="c2" data-node-id="c2" data-node-shape="activity"><g class="activity-shape"><rect x="130" y="32" width="100" height="57.6" rx="10" ry="10" fill="#73a3bf" stroke="#48677e" stroke-width="1" /><text text-anchor="middle" font-family="sans-serif" font-size="14" fill="#48677e"><tspan x="180" y="52.4">Submit</tspan><tspan x="180" y="69.2">Order</tspan></text></g></g><g data-runiq-node="c3" data-node-id="c3" data-node-shape="diamond">
      <polygon points="92,247.6 132,277.6 92,307.6 52,277.6"
               fill="#96bacf" stroke="#48677e" stroke-width="1" />
      
      <text x="92" y="277.6" 
      text-anchor="middle" 
      dominant-baseline="middle"
      font-family="sans-serif" 
      font-size="14"
      fill="#FFFFFF">
      c3
    </text>
    </g><g data-runiq-node="c4" data-node-id="c4" data-node-shape="activity"><g class="activity-shape"><rect x="32" y="109.6" width="100" height="57.6" rx="10" ry="10" fill="#48677e" stroke="#48677e" stroke-width="1" /><text text-anchor="middle" font-family="sans-serif" font-size="14" fill="#48677e"><tspan x="82" y="130">Receive</tspan><tspan x="82" y="146.8">Goods</tspan></text></g></g><g data-runiq-node="c5" data-node-id="c5" data-node-shape="finalState"><g class="final-state-shape"><circle cx="223" cy="142.6" r="11" fill="none" stroke="#48677e" stroke-width="1.5" /><circle cx="223" cy="142.6" r="6.050000000000001" fill="#000000" stroke="none" /></g></g><g data-runiq-node="s1" data-node-id="s1" data-node-shape="activity"><g class="activity-shape"><rect x="32" y="529.2" width="100" height="57.6" rx="10" ry="10" fill="#5a819e" stroke="#48677e" stroke-width="1" /><text text-anchor="middle" font-family="sans-serif" font-size="14" fill="#48677e"><tspan x="82" y="549.6">Review</tspan><tspan x="82" y="566.4">Order</tspan></text></g></g><g data-runiq-node="s2" data-node-id="s2" data-node-shape="activity"><g class="activity-shape"><rect x="212" y="529.2" width="100" height="57.6" rx="10" ry="10" fill="#73a3bf" stroke="#48677e" stroke-width="1" /><text text-anchor="middle" font-family="sans-serif" font-size="14" fill="#48677e"><tspan x="262" y="549.6">Check</tspan><tspan x="262" y="566.4">Inventory</tspan></text></g></g><g data-runiq-node="s3" data-node-id="s3" data-node-shape="activity"><g class="activity-shape"><rect x="392" y="529.2" width="100" height="57.6" rx="10" ry="10" fill="#96bacf" stroke="#48677e" stroke-width="1" /><text text-anchor="middle" font-family="sans-serif" font-size="14" fill="#48677e"><tspan x="442" y="549.6">Approve</tspan><tspan x="442" y="566.4">Order</tspan></text></g></g><g data-runiq-node="s4" data-node-id="s4" data-node-shape="activity"><g class="activity-shape"><rect x="32" y="451.6" width="100" height="57.6" rx="10" ry="10" fill="#48677e" stroke="#48677e" stroke-width="1" /><text text-anchor="middle" font-family="sans-serif" font-size="14" fill="#48677e"><tspan x="82" y="472.00000000000006">Generate</tspan><tspan x="82" y="488.80000000000007">Invoice</tspan></text></g></g><g data-runiq-node="w1" data-node-id="w1" data-node-shape="activity"><g class="activity-shape"><rect x="32" y="730.8" width="100" height="57.6" rx="10" ry="10" fill="#364d5f" stroke="#48677e" stroke-width="1" /><text text-anchor="middle" font-family="sans-serif" font-size="14" fill="#48677e"><tspan x="82" y="751.1999999999999">Pick</tspan><tspan x="82" y="767.9999999999999">Items</tspan></text></g></g><g data-runiq-node="w2" data-node-id="w2" data-node-shape="activity"><g class="activity-shape"><rect x="212" y="730.8" width="100" height="57.6" rx="10" ry="10" fill="#5a819e" stroke="#48677e" stroke-width="1" /><text text-anchor="middle" font-family="sans-serif" font-size="14" fill="#48677e"><tspan x="262" y="751.1999999999999">Pack</tspan><tspan x="262" y="767.9999999999999">Order</tspan></text></g></g><g data-runiq-node="w3" data-node-id="w3" data-node-shape="activity"><g class="activity-shape"><rect x="392" y="730.8" width="100" height="57.6" rx="10" ry="10" fill="#73a3bf" stroke="#48677e" stroke-width="1" /><text text-anchor="middle" font-family="sans-serif" font-size="14" fill="#48677e"><tspan x="442" y="751.1999999999999">Ship</tspan><tspan x="442" y="767.9999999999999">Goods</tspan></text></g></g></svg>