<svg xmlns="http://www.w3.org/2000/svg" xmlns:xlink="http://www.w3.org/1999/xlink" 
    width="1048" height="2072" 
    viewBox="0 0 1048 2072"
    role="img" aria-labelledby="diagram-title" data-id="runiq-diagram">
<title id="diagram-title">Diagram</title><defs><style type="text/css"><![CDATA[.runiq-node-text { font-family: sans-serif; font-size: 14px; }.runiq-edge-text { font-family: sans-serif; font-size: 12px; }.runiq-container-label { font-family: sans-serif; font-size: 16px; font-weight: bold; fill: #666; }]]></style><pattern id="pedigree-half-fill" width="40" height="40" patternUnits="userSpaceOnUse"><rect x="0" y="0" width="20" height="40" fill="#000"/><rect x="20" y="0" width="20" height="40" fill="#fff"/></pattern></defs><g data-runiq-edge="start-submitDoc-0" data-edge-id="start-submitDoc-0" data-edge-from="start" data-edge-to="submitDoc"><defs>
      <marker id="arrow-standard-start-submitDoc" markerWidth="10" markerHeight="10" refX="9" refY="3" orient="auto" markerUnits="strokeWidth">
        <polygon points="0,0 0,6 9,3" fill="#48677e" />
      </marker></defs><path d="M 430 542 L 430 602 L 430 602 L 430 662" fill="none" stroke="transparent" stroke-width="20" pointer-events="stroke" class="edge-hit-area" /><path d="M 430 542 L 430 602 L 430 602 L 430 662" fill="none" stroke="#48677e" stroke-width="1" marker-end="url(#arrow-standard-start-submitDoc)" pointer-events="none" /></g><g data-runiq-edge="submitDoc-draft-1" data-edge-id="submitDoc-draft-1" data-edge-from="submitDoc" data-edge-to="draft"><defs>
      <marker id="arrow-standard-submitDoc-draft" markerWidth="10" markerHeight="10" refX="9" refY="3" orient="auto" markerUnits="strokeWidth">
        <polygon points="0,0 0,6 9,3" fill="#48677e" />
      </marker></defs><path d="M 430 712 L 430 772 L 429.8 772 L 429.8 832" fill="none" stroke="transparent" stroke-width="20" pointer-events="stroke" class="edge-hit-area" /><path d="M 430 712 L 430 772 L 429.8 772 L 429.8 832" fill="none" stroke="#48677e" stroke-width="1" marker-end="url(#arrow-standard-submitDoc-draft)" pointer-events="none" /></g><g data-runiq-edge="draft-documentDB-2" data-edge-id="draft-documentDB-2" data-edge-from="draft" data-edge-to="documentDB"><defs>
      <marker id="arrow-standard-draft-documentDB" markerWidth="10" markerHeight="10" refX="9" refY="3" orient="auto" markerUnits="strokeWidth">
        <polygon points="0,0 0,6 9,3" fill="#48677e" />
      </marker></defs><path d="M 429.8 872 L 429.8 932 L 341 932 L 341 1017 L 341 1187 L 341 1357 L 341 1527 L 341 1692 L 341.2 1832" fill="none" stroke="transparent" stroke-width="20" pointer-events="stroke" class="edge-hit-area" /><path d="M 429.8 872 L 429.8 932 L 341 932 L 341 1017 L 341 1187 L 341 1357 L 341 1527 L 341 1692 L 341.2 1832" fill="none" stroke="#48677e" stroke-width="1" marker-end="url(#arrow-standard-draft-documentDB)" pointer-events="none" /><text x="341" y="1187" text-anchor="middle" dominant-baseline="middle" class="runiq-edge-text">save draft</text></g><g data-runiq-edge="draft-autoValidate-3" data-edge-id="draft-autoValidate-3" data-edge-from="draft" data-edge-to="autoValidate"><defs>
      <marker id="arrow-standard-draft-autoValidate" markerWidth="10" markerHeight="10" refX="9" refY="3" orient="auto" markerUnits="strokeWidth">
        <polygon points="0,0 0,6 9,3" fill="#48677e" />
      </marker></defs><path d="M 429.8 872 L 429.8 932 L 672 932 L 671.6 992" fill="none" stroke="transparent" stroke-width="20" pointer-events="stroke" class="edge-hit-area" /><path d="M 429.8 872 L 429.8 932 L 672 932 L 671.6 992" fill="none" stroke="#48677e" stroke-width="1" marker-end="url(#arrow-standard-draft-autoValidate)" pointer-events="none" /></g><g data-runiq-edge="autoValidate-validationOK-4" data-edge-id="autoValidate-validationOK-4" data-edge-from="autoValidate" data-edge-to="validationOK"><defs>
      <marker id="arrow-standard-autoValidate-validationOK" markerWidth="10" markerHeight="10" refX="9" refY="3" orient="auto" markerUnits="strokeWidth">
        <polygon points="0,0 0,6 9,3" fill="#48677e" />
      </marker></defs><path d="M 671.6 1042 L 671.6 1105.3333333333335 L 672 1105.3333333333335 L 672 1168.6666666666667" fill="none" stroke="transparent" stroke-width="20" pointer-events="stroke" class="edge-hit-area" /><path d="M 671.6 1042 L 671.6 1105.3333333333335 L 672 1105.3333333333335 L 672 1168.6666666666667" fill="none" stroke="#48677e" stroke-width="1" marker-end="url(#arrow-standard-autoValidate-validationOK)" pointer-events="none" /></g><g data-runiq-edge="validationOK-notifyAuthor-5" data-edge-id="validationOK-notifyAuthor-5" data-edge-from="validationOK" data-edge-to="notifyAuthor"><defs>
      <marker id="arrow-standard-validationOK-notifyAuthor" markerWidth="10" markerHeight="10" refX="9" refY="3" orient="auto" markerUnits="strokeWidth">
        <polygon points="0,0 0,6 9,3" fill="#48677e" />
      </marker></defs><path d="M 672 1208.6666666666667 L 672 1247 L 466 1247 L 443.6 1332" fill="none" stroke="transparent" stroke-width="20" pointer-events="stroke" class="edge-hit-area" /><path d="M 672 1208.6666666666667 L 672 1247 L 466 1247 L 443.6 1332" fill="none" stroke="#48677e" stroke-width="1" marker-end="url(#arrow-standard-validationOK-notifyAuthor)" pointer-events="none" /><text x="466" y="1247" text-anchor="middle" dominant-baseline="middle" class="runiq-edge-text">[failed]</text></g><g data-runiq-edge="notifyAuthor-rejected-6" data-edge-id="notifyAuthor-rejected-6" data-edge-from="notifyAuthor" data-edge-to="rejected"><defs>
      <marker id="arrow-standard-notifyAuthor-rejected" markerWidth="10" markerHeight="10" refX="9" refY="3" orient="auto" markerUnits="strokeWidth">
        <polygon points="0,0 0,6 9,3" fill="#48677e" />
      </marker></defs><path d="M 443.6 1382 L 443.6 1417 L 618 1417 L 618 1502" fill="none" stroke="transparent" stroke-width="20" pointer-events="stroke" class="edge-hit-area" /><path d="M 443.6 1382 L 443.6 1417 L 618 1417 L 618 1502" fill="none" stroke="#48677e" stroke-width="1" marker-end="url(#arrow-standard-notifyAuthor-rejected)" pointer-events="none" /></g><g data-runiq-edge="validationOK-validated-7" data-edge-id="validationOK-validated-7" data-edge-from="validationOK" data-edge-to="validated"><defs>
      <marker id="arrow-standard-validationOK-validated" markerWidth="10" markerHeight="10" refX="9" refY="3" orient="auto" markerUnits="strokeWidth">
        <polygon points="0,0 0,6 9,3" fill="#48677e" />
      </marker></defs><path d="M 672 1208.6666666666667 L 672 1247 L 857 1247 L 856.6 1337" fill="none" stroke="transparent" stroke-width="20" pointer-events="stroke" class="edge-hit-area" /><path d="M 672 1208.6666666666667 L 672 1247 L 857 1247 L 856.6 1337" fill="none" stroke="#48677e" stroke-width="1" marker-end="url(#arrow-standard-validationOK-validated)" pointer-events="none" /><text x="857" y="1247" text-anchor="middle" dominant-baseline="middle" class="runiq-edge-text">[passed]</text></g><g data-runiq-edge="validated-assignReviewer-8" data-edge-id="validated-assignReviewer-8" data-edge-from="validated" data-edge-to="assignReviewer"><defs>
      <marker id="arrow-standard-validated-assignReviewer" markerWidth="10" markerHeight="10" refX="9" refY="3" orient="auto" markerUnits="strokeWidth">
        <polygon points="0,0 0,6 9,3" fill="#48677e" />
      </marker></defs><path d="M 856.6 1377 L 856.6 1417 L 809 1417 L 784 1502" fill="none" stroke="transparent" stroke-width="20" pointer-events="stroke" class="edge-hit-area" /><path d="M 856.6 1377 L 856.6 1417 L 809 1417 L 784 1502" fill="none" stroke="#48677e" stroke-width="1" marker-end="url(#arrow-standard-validated-assignReviewer)" pointer-events="none" /></g><g data-runiq-edge="userDB-assignReviewer-9" data-edge-id="userDB-assignReviewer-9" data-edge-from="userDB" data-edge-to="assignReviewer"><defs>
      <marker id="arrow-standard-userDB-assignReviewer" markerWidth="10" markerHeight="10" refX="9" refY="3" orient="auto" markerUnits="strokeWidth">
        <polygon points="0,0 0,6 9,3" fill="#48677e" />
      </marker></defs><path d="M 641 1382 L 641 1417 L 759 1417 L 784 1502" fill="none" stroke="transparent" stroke-width="20" pointer-events="stroke" class="edge-hit-area" /><path d="M 641 1382 L 641 1417 L 759 1417 L 784 1502" fill="none" stroke="#48677e" stroke-width="1" marker-end="url(#arrow-standard-userDB-assignReviewer)" pointer-events="none" /><text x="759" y="1417" text-anchor="middle" dominant-baseline="middle" class="runiq-edge-text">find reviewer</text></g><g data-runiq-edge="assignReviewer-reviewQueue-10" data-edge-id="assignReviewer-reviewQueue-10" data-edge-from="assignReviewer" data-edge-to="reviewQueue"><defs>
      <marker id="arrow-standard-assignReviewer-reviewQueue" markerWidth="10" markerHeight="10" refX="9" refY="3" orient="auto" markerUnits="strokeWidth">
        <polygon points="0,0 0,6 9,3" fill="#48677e" />
      </marker></defs><path d="M 784 1552 Q 784 1692 763.4 1832" fill="none" stroke="transparent" stroke-width="20" pointer-events="stroke" class="edge-hit-area" /><path d="M 784 1552 Q 784 1692 763.4 1832" fill="none" stroke="#48677e" stroke-width="1" marker-end="url(#arrow-standard-assignReviewer-reviewQueue)" pointer-events="none" /></g><g data-runiq-edge="reviewQueue-reviewDoc-11" data-edge-id="reviewQueue-reviewDoc-11" data-edge-from="reviewQueue" data-edge-to="reviewDoc"><defs>
      <marker id="arrow-standard-reviewQueue-reviewDoc" markerWidth="10" markerHeight="10" refX="9" refY="3" orient="auto" markerUnits="strokeWidth">
        <polygon points="0,0 0,6 9,3" fill="#48677e" />
      </marker></defs><path d="M 763.4 1882 L 763.4 1917 L 928 1917 L 953 2002" fill="none" stroke="transparent" stroke-width="20" pointer-events="stroke" class="edge-hit-area" /><path d="M 763.4 1882 L 763.4 1917 L 928 1917 L 953 2002" fill="none" stroke="#48677e" stroke-width="1" marker-end="url(#arrow-standard-reviewQueue-reviewDoc)" pointer-events="none" /></g><g data-runiq-edge="reviewDoc-reviewDecision-12" data-edge-id="reviewDoc-reviewDecision-12" data-edge-from="reviewDoc" data-edge-to="reviewDecision"><defs>
      <marker id="arrow-standard-reviewDoc-reviewDecision" markerWidth="10" markerHeight="10" refX="9" refY="3" orient="auto" markerUnits="strokeWidth">
        <polygon points="0,0 0,6 9,3" fill="#48677e" />
      </marker></defs><path d="M 953 2002 L 953 1857 L 978 1692 L 978 1527 L 978 1357 L 978 1187 L 978 1017 L 978 852 L 978 687 L 978 517 L 978 352 L 978 192 L 978 87 L 550 87 L 540 52" fill="none" stroke="transparent" stroke-width="20" pointer-events="stroke" class="edge-hit-area" /><path d="M 953 2002 L 953 1857 L 978 1692 L 978 1527 L 978 1357 L 978 1187 L 978 1017 L 978 852 L 978 687 L 978 517 L 978 352 L 978 192 L 978 87 L 550 87 L 540 52" fill="none" stroke="#48677e" stroke-width="1" marker-end="url(#arrow-standard-reviewDoc-reviewDecision)" pointer-events="none" /></g><g data-runiq-edge="reviewDecision-changes-13" data-edge-id="reviewDecision-changes-13" data-edge-from="reviewDecision" data-edge-to="changes"><defs>
      <marker id="arrow-standard-reviewDecision-changes" markerWidth="10" markerHeight="10" refX="9" refY="3" orient="auto" markerUnits="strokeWidth">
        <polygon points="0,0 0,6 9,3" fill="#48677e" />
      </marker></defs><path d="M 540 52 L 540 192 L 540 352 L 540 517 L 540 687 L 540 852 L 540 907 L 476 907 L 452 995.3333333333334" fill="none" stroke="transparent" stroke-width="20" pointer-events="stroke" class="edge-hit-area" /><path d="M 540 52 L 540 192 L 540 352 L 540 517 L 540 687 L 540 852 L 540 907 L 476 907 L 452 995.3333333333334" fill="none" stroke="#48677e" stroke-width="1" marker-end="url(#arrow-standard-reviewDecision-changes)" pointer-events="none" /><text x="540" y="687" text-anchor="middle" dominant-baseline="middle" class="runiq-edge-text">[changes needed]</text></g><g data-runiq-edge="changes-requestChanges-14" data-edge-id="changes-requestChanges-14" data-edge-from="changes" data-edge-to="requestChanges"><defs>
      <marker id="arrow-standard-changes-requestChanges" markerWidth="10" markerHeight="10" refX="9" refY="3" orient="auto" markerUnits="strokeWidth">
        <polygon points="0,0 0,6 9,3" fill="#48677e" />
      </marker></defs><path d="M 452 1035.3333333333335 L 452 1098.6666666666667 L 452 1098.6666666666667 L 452 1162" fill="none" stroke="transparent" stroke-width="20" pointer-events="stroke" class="edge-hit-area" /><path d="M 452 1035.3333333333335 L 452 1098.6666666666667 L 452 1098.6666666666667 L 452 1162" fill="none" stroke="#48677e" stroke-width="1" marker-end="url(#arrow-standard-changes-requestChanges)" pointer-events="none" /></g><g data-runiq-edge="requestChanges-notifyAuthor-15" data-edge-id="requestChanges-notifyAuthor-15" data-edge-from="requestChanges" data-edge-to="notifyAuthor"><defs>
      <marker id="arrow-standard-requestChanges-notifyAuthor" markerWidth="10" markerHeight="10" refX="9" refY="3" orient="auto" markerUnits="strokeWidth">
        <polygon points="0,0 0,6 9,3" fill="#48677e" />
      </marker></defs><path d="M 452 1212 L 452 1247 L 421 1247 L 443.6 1332" fill="none" stroke="transparent" stroke-width="20" pointer-events="stroke" class="edge-hit-area" /><path d="M 452 1212 L 452 1247 L 421 1247 L 443.6 1332" fill="none" stroke="#48677e" stroke-width="1" marker-end="url(#arrow-standard-requestChanges-notifyAuthor)" pointer-events="none" /></g><g data-runiq-edge="notifyAuthor-reviseDoc-16" data-edge-id="notifyAuthor-reviseDoc-16" data-edge-from="notifyAuthor" data-edge-to="reviseDoc"><defs>
      <marker id="arrow-standard-notifyAuthor-reviseDoc" markerWidth="10" markerHeight="10" refX="9" refY="3" orient="auto" markerUnits="strokeWidth">
        <polygon points="0,0 0,6 9,3" fill="#48677e" />
      </marker></defs><path d="M 443.6 1382 L 443.6 1417 L 452 1417 L 452 1502" fill="none" stroke="transparent" stroke-width="20" pointer-events="stroke" class="edge-hit-area" /><path d="M 443.6 1382 L 443.6 1417 L 452 1417 L 452 1502" fill="none" stroke="#48677e" stroke-width="1" marker-end="url(#arrow-standard-notifyAuthor-reviseDoc)" pointer-events="none" /></g><g data-runiq-edge="reviseDoc-revised-17" data-edge-id="reviseDoc-revised-17" data-edge-from="reviseDoc" data-edge-to="revised"><defs>
      <marker id="arrow-standard-reviseDoc-revised" markerWidth="10" markerHeight="10" refX="9" refY="3" orient="auto" markerUnits="strokeWidth">
        <polygon points="0,0 0,6 9,3" fill="#48677e" />
      </marker></defs><path d="M 452 1552 L 452 1587 L 454 1587 L 454.2 1672" fill="none" stroke="transparent" stroke-width="20" pointer-events="stroke" class="edge-hit-area" /><path d="M 452 1552 L 452 1587 L 454 1587 L 454.2 1672" fill="none" stroke="#48677e" stroke-width="1" marker-end="url(#arrow-standard-reviseDoc-revised)" pointer-events="none" /></g><g data-runiq-edge="revised-documentDB-18" data-edge-id="revised-documentDB-18" data-edge-from="revised" data-edge-to="documentDB"><defs>
      <marker id="arrow-standard-revised-documentDB" markerWidth="10" markerHeight="10" refX="9" refY="3" orient="auto" markerUnits="strokeWidth">
        <polygon points="0,0 0,6 9,3" fill="#48677e" />
      </marker></defs><path d="M 454.2 1712 L 454.2 1747 L 369 1747 L 341.2 1832" fill="none" stroke="transparent" stroke-width="20" pointer-events="stroke" class="edge-hit-area" /><path d="M 454.2 1712 L 454.2 1747 L 369 1747 L 341.2 1832" fill="none" stroke="#48677e" stroke-width="1" marker-end="url(#arrow-standard-revised-documentDB)" pointer-events="none" /><text x="369" y="1747" text-anchor="middle" dominant-baseline="middle" class="runiq-edge-text">update</text></g><g data-runiq-edge="revised-reviewQueue-19" data-edge-id="revised-reviewQueue-19" data-edge-from="revised" data-edge-to="reviewQueue"><defs>
      <marker id="arrow-standard-revised-reviewQueue" markerWidth="10" markerHeight="10" refX="9" refY="3" orient="auto" markerUnits="strokeWidth">
        <polygon points="0,0 0,6 9,3" fill="#48677e" />
      </marker></defs><path d="M 454.2 1712 L 454.2 1747 L 743 1747 L 763.4 1832" fill="none" stroke="transparent" stroke-width="20" pointer-events="stroke" class="edge-hit-area" /><path d="M 454.2 1712 L 454.2 1747 L 743 1747 L 763.4 1832" fill="none" stroke="#48677e" stroke-width="1" marker-end="url(#arrow-standard-revised-reviewQueue)" pointer-events="none" /></g><g data-runiq-edge="reviewDecision-reviewed-20" data-edge-id="reviewDecision-reviewed-20" data-edge-from="reviewDecision" data-edge-to="reviewed"><defs>
      <marker id="arrow-standard-reviewDecision-reviewed" markerWidth="10" markerHeight="10" refX="9" refY="3" orient="auto" markerUnits="strokeWidth">
        <polygon points="0,0 0,6 9,3" fill="#48677e" />
      </marker></defs><path d="M 540 52 L 540 87 L 160 87 L 160.4 172" fill="none" stroke="transparent" stroke-width="20" pointer-events="stroke" class="edge-hit-area" /><path d="M 540 52 L 540 87 L 160 87 L 160.4 172" fill="none" stroke="#48677e" stroke-width="1" marker-end="url(#arrow-standard-reviewDecision-reviewed)" pointer-events="none" /><text x="160" y="87" text-anchor="middle" dominant-baseline="middle" class="runiq-edge-text">[approved]</text></g><g data-runiq-edge="reviewed-needsManagerApproval-21" data-edge-id="reviewed-needsManagerApproval-21" data-edge-from="reviewed" data-edge-to="needsManagerApproval"><defs>
      <marker id="arrow-standard-reviewed-needsManagerApproval" markerWidth="10" markerHeight="10" refX="9" refY="3" orient="auto" markerUnits="strokeWidth">
        <polygon points="0,0 0,6 9,3" fill="#48677e" />
      </marker></defs><path d="M 160.4 212 L 160.4 272 L 188 272 L 188 332" fill="none" stroke="transparent" stroke-width="20" pointer-events="stroke" class="edge-hit-area" /><path d="M 160.4 212 L 160.4 272 L 188 272 L 188 332" fill="none" stroke="#48677e" stroke-width="1" marker-end="url(#arrow-standard-reviewed-needsManagerApproval)" pointer-events="none" /></g><g data-runiq-edge="needsManagerApproval-finalizeDoc-22" data-edge-id="needsManagerApproval-finalizeDoc-22" data-edge-from="needsManagerApproval" data-edge-to="finalizeDoc"><defs>
      <marker id="arrow-standard-needsManagerApproval-finalizeDoc" markerWidth="10" markerHeight="10" refX="9" refY="3" orient="auto" markerUnits="strokeWidth">
        <polygon points="0,0 0,6 9,3" fill="#48677e" />
      </marker></defs><path d="M 188 372 L 188 407 L 80 407 L 80 517 L 80 687 L 80 852 L 80 1017 L 80 1077 L 95 1077 L 95.4 1162" fill="none" stroke="transparent" stroke-width="20" pointer-events="stroke" class="edge-hit-area" /><path d="M 188 372 L 188 407 L 80 407 L 80 517 L 80 687 L 80 852 L 80 1017 L 80 1077 L 95 1077 L 95.4 1162" fill="none" stroke="#48677e" stroke-width="1" marker-end="url(#arrow-standard-needsManagerApproval-finalizeDoc)" pointer-events="none" /><text x="80" y="852" text-anchor="middle" dominant-baseline="middle" class="runiq-edge-text">[not needed]</text></g><g data-runiq-edge="reviewed-finalizeDoc-23" data-edge-id="reviewed-finalizeDoc-23" data-edge-from="reviewed" data-edge-to="finalizeDoc"><defs>
      <marker id="arrow-standard-reviewed-finalizeDoc" markerWidth="10" markerHeight="10" refX="9" refY="3" orient="auto" markerUnits="strokeWidth">
        <polygon points="0,0 0,6 9,3" fill="#48677e" />
      </marker></defs><path d="M 160.4 212 L 160.4 247 L 54 247 L 54 352 L 54 517 L 54 687 L 54 852 L 54 1017 L 95.4 1162" fill="none" stroke="transparent" stroke-width="20" pointer-events="stroke" class="edge-hit-area" /><path d="M 160.4 212 L 160.4 247 L 54 247 L 54 352 L 54 517 L 54 687 L 54 852 L 54 1017 L 95.4 1162" fill="none" stroke="#48677e" stroke-width="1" marker-end="url(#arrow-standard-reviewed-finalizeDoc)" pointer-events="none" /></g><g data-runiq-edge="needsManagerApproval-approvalQueue-24" data-edge-id="needsManagerApproval-approvalQueue-24" data-edge-from="needsManagerApproval" data-edge-to="approvalQueue"><defs>
      <marker id="arrow-standard-needsManagerApproval-approvalQueue" markerWidth="10" markerHeight="10" refX="9" refY="3" orient="auto" markerUnits="strokeWidth">
        <polygon points="0,0 0,6 9,3" fill="#48677e" />
      </marker></defs><path d="M 188 372 L 188 432 L 194.8 432 L 194.8 492" fill="none" stroke="transparent" stroke-width="20" pointer-events="stroke" class="edge-hit-area" /><path d="M 188 372 L 188 432 L 194.8 432 L 194.8 492" fill="none" stroke="#48677e" stroke-width="1" marker-end="url(#arrow-standard-needsManagerApproval-approvalQueue)" pointer-events="none" /><text x="194.8" y="432" text-anchor="middle" dominant-baseline="middle" class="runiq-edge-text">[required]</text></g><g data-runiq-edge="approvalQueue-managerApprove-25" data-edge-id="approvalQueue-managerApprove-25" data-edge-from="approvalQueue" data-edge-to="managerApprove"><defs>
      <marker id="arrow-standard-approvalQueue-managerApprove" markerWidth="10" markerHeight="10" refX="9" refY="3" orient="auto" markerUnits="strokeWidth">
        <polygon points="0,0 0,6 9,3" fill="#48677e" />
      </marker></defs><path d="M 194.8 542 L 194.8 602 L 195.2 602 L 195.2 662" fill="none" stroke="transparent" stroke-width="20" pointer-events="stroke" class="edge-hit-area" /><path d="M 194.8 542 L 194.8 602 L 195.2 602 L 195.2 662" fill="none" stroke="#48677e" stroke-width="1" marker-end="url(#arrow-standard-approvalQueue-managerApprove)" pointer-events="none" /></g><g data-runiq-edge="managerApprove-managerDecision-26" data-edge-id="managerApprove-managerDecision-26" data-edge-from="managerApprove" data-edge-to="managerDecision"><defs>
      <marker id="arrow-standard-managerApprove-managerDecision" markerWidth="10" markerHeight="10" refX="9" refY="3" orient="auto" markerUnits="strokeWidth">
        <polygon points="0,0 0,6 9,3" fill="#48677e" />
      </marker></defs><path d="M 195.2 712 L 195.2 772 L 195 772 L 195 832" fill="none" stroke="transparent" stroke-width="20" pointer-events="stroke" class="edge-hit-area" /><path d="M 195.2 712 L 195.2 772 L 195 772 L 195 832" fill="none" stroke="#48677e" stroke-width="1" marker-end="url(#arrow-standard-managerApprove-managerDecision)" pointer-events="none" /></g><g data-runiq-edge="managerDecision-changes-27" data-edge-id="managerDecision-changes-27" data-edge-from="managerDecision" data-edge-to="changes"><defs>
      <marker id="arrow-standard-managerDecision-changes" markerWidth="10" markerHeight="10" refX="9" refY="3" orient="auto" markerUnits="strokeWidth">
        <polygon points="0,0 0,6 9,3" fill="#48677e" />
      </marker></defs><path d="M 195 872 L 195 907 L 428 907 L 452 995.3333333333334" fill="none" stroke="transparent" stroke-width="20" pointer-events="stroke" class="edge-hit-area" /><path d="M 195 872 L 195 907 L 428 907 L 452 995.3333333333334" fill="none" stroke="#48677e" stroke-width="1" marker-end="url(#arrow-standard-managerDecision-changes)" pointer-events="none" /><text x="428" y="907" text-anchor="middle" dominant-baseline="middle" class="runiq-edge-text">[rejected]</text></g><g data-runiq-edge="managerDecision-approvedDoc-28" data-edge-id="managerDecision-approvedDoc-28" data-edge-from="managerDecision" data-edge-to="approvedDoc"><defs>
      <marker id="arrow-standard-managerDecision-approvedDoc" markerWidth="10" markerHeight="10" refX="9" refY="3" orient="auto" markerUnits="strokeWidth">
        <polygon points="0,0 0,6 9,3" fill="#48677e" />
      </marker></defs><path d="M 195 872 L 195 932 L 197 932 L 197.4 998.6666666666666" fill="none" stroke="transparent" stroke-width="20" pointer-events="stroke" class="edge-hit-area" /><path d="M 195 872 L 195 932 L 197 932 L 197.4 998.6666666666666" fill="none" stroke="#48677e" stroke-width="1" marker-end="url(#arrow-standard-managerDecision-approvedDoc)" pointer-events="none" /><text x="197" y="932" text-anchor="middle" dominant-baseline="middle" class="runiq-edge-text">[approved]</text></g><g data-runiq-edge="approvedDoc-finalizeDoc-29" data-edge-id="approvedDoc-finalizeDoc-29" data-edge-from="approvedDoc" data-edge-to="finalizeDoc"><defs>
      <marker id="arrow-standard-approvedDoc-finalizeDoc" markerWidth="10" markerHeight="10" refX="9" refY="3" orient="auto" markerUnits="strokeWidth">
        <polygon points="0,0 0,6 9,3" fill="#48677e" />
      </marker></defs><path d="M 197.4 1038.6666666666665 L 197.4 1077 L 137 1077 L 95.4 1162" fill="none" stroke="transparent" stroke-width="20" pointer-events="stroke" class="edge-hit-area" /><path d="M 197.4 1038.6666666666665 L 197.4 1077 L 137 1077 L 95.4 1162" fill="none" stroke="#48677e" stroke-width="1" marker-end="url(#arrow-standard-approvedDoc-finalizeDoc)" pointer-events="none" /></g><g data-runiq-edge="finalizeDoc-documentDB-30" data-edge-id="finalizeDoc-documentDB-30" data-edge-from="finalizeDoc" data-edge-to="documentDB"><defs>
      <marker id="arrow-standard-finalizeDoc-documentDB" markerWidth="10" markerHeight="10" refX="9" refY="3" orient="auto" markerUnits="strokeWidth">
        <polygon points="0,0 0,6 9,3" fill="#48677e" />
      </marker></defs><path d="M 95.4 1212 L 95.4 1357 L 68 1527 L 68 1692 L 68 1747 L 313 1747 L 341.2 1832" fill="none" stroke="transparent" stroke-width="20" pointer-events="stroke" class="edge-hit-area" /><path d="M 95.4 1212 L 95.4 1357 L 68 1527 L 68 1692 L 68 1747 L 313 1747 L 341.2 1832" fill="none" stroke="#48677e" stroke-width="1" marker-end="url(#arrow-standard-finalizeDoc-documentDB)" pointer-events="none" /><text x="68" y="1692" text-anchor="middle" dominant-baseline="middle" class="runiq-edge-text">save final</text></g><g data-runiq-edge="finalizeDoc-archiveDoc-31" data-edge-id="finalizeDoc-archiveDoc-31" data-edge-from="finalizeDoc" data-edge-to="archiveDoc"><defs>
      <marker id="arrow-standard-finalizeDoc-archiveDoc" markerWidth="10" markerHeight="10" refX="9" refY="3" orient="auto" markerUnits="strokeWidth">
        <polygon points="0,0 0,6 9,3" fill="#48677e" />
      </marker></defs><path d="M 95.4 1212 L 95.4 1247 L 172 1247 L 198.2 1332" fill="none" stroke="transparent" stroke-width="20" pointer-events="stroke" class="edge-hit-area" /><path d="M 95.4 1212 L 95.4 1247 L 172 1247 L 198.2 1332" fill="none" stroke="#48677e" stroke-width="1" marker-end="url(#arrow-standard-finalizeDoc-archiveDoc)" pointer-events="none" /></g><g data-runiq-edge="approvedDoc-archiveDoc-32" data-edge-id="approvedDoc-archiveDoc-32" data-edge-from="approvedDoc" data-edge-to="archiveDoc"><defs>
      <marker id="arrow-standard-approvedDoc-archiveDoc" markerWidth="10" markerHeight="10" refX="9" refY="3" orient="auto" markerUnits="strokeWidth">
        <polygon points="0,0 0,6 9,3" fill="#48677e" />
      </marker></defs><path d="M 197.4 1038.6666666666665 Q 197.4 1187 198.2 1332" fill="none" stroke="transparent" stroke-width="20" pointer-events="stroke" class="edge-hit-area" /><path d="M 197.4 1038.6666666666665 Q 197.4 1187 198.2 1332" fill="none" stroke="#48677e" stroke-width="1" marker-end="url(#arrow-standard-approvedDoc-archiveDoc)" pointer-events="none" /></g><g data-runiq-edge="archiveDoc-auditDB-33" data-edge-id="archiveDoc-auditDB-33" data-edge-from="archiveDoc" data-edge-to="auditDB"><defs>
      <marker id="arrow-standard-archiveDoc-auditDB" markerWidth="10" markerHeight="10" refX="9" refY="3" orient="auto" markerUnits="strokeWidth">
        <polygon points="0,0 0,6 9,3" fill="#48677e" />
      </marker></defs><path d="M 198.2 1382 L 198.2 1417 L 154 1417 L 154 1502" fill="none" stroke="transparent" stroke-width="20" pointer-events="stroke" class="edge-hit-area" /><path d="M 198.2 1382 L 198.2 1417 L 154 1417 L 154 1502" fill="none" stroke="#48677e" stroke-width="1" marker-end="url(#arrow-standard-archiveDoc-auditDB)" pointer-events="none" /><text x="154" y="1417" text-anchor="middle" dominant-baseline="middle" class="runiq-edge-text">log</text></g><g data-runiq-edge="archiveDoc-approved-34" data-edge-id="archiveDoc-approved-34" data-edge-from="archiveDoc" data-edge-to="approved"><defs>
      <marker id="arrow-standard-archiveDoc-approved" markerWidth="10" markerHeight="10" refX="9" refY="3" orient="auto" markerUnits="strokeWidth">
        <polygon points="0,0 0,6 9,3" fill="#48677e" />
      </marker></defs><path d="M 198.2 1382 L 198.2 1417 L 295 1417 L 295 1502" fill="none" stroke="transparent" stroke-width="20" pointer-events="stroke" class="edge-hit-area" /><path d="M 198.2 1382 L 198.2 1417 L 295 1417 L 295 1502" fill="none" stroke="#48677e" stroke-width="1" marker-end="url(#arrow-standard-archiveDoc-approved)" pointer-events="none" /></g><g data-runiq-node="start" data-node-id="start" data-node-shape="initialState"><g class="initial-state-shape"><circle cx="430" cy="533" r="9" fill="#000000" stroke="none" /></g></g><g data-runiq-node="approved" data-node-id="approved" data-node-shape="finalState"><g class="final-state-shape"><circle cx="295" cy="1513" r="11" fill="none" stroke="#48677e" stroke-width="1.5" /><circle cx="295" cy="1513" r="6.050000000000001" fill="#000000" stroke="none" /></g></g><g data-runiq-node="rejected" data-node-id="rejected" data-node-shape="finalState"><g class="final-state-shape"><circle cx="618" cy="1513" r="11" fill="none" stroke="#48677e" stroke-width="1.5" /><circle cx="618" cy="1513" r="6.050000000000001" fill="#000000" stroke="none" /></g></g><g data-runiq-node="submitDoc" data-node-id="submitDoc" data-node-shape="activity"><g class="activity-shape"><rect x="355" y="662" width="150" height="50" rx="10" ry="10" fill="#48677e" stroke="#48677e" stroke-width="1" /><text x="430" y="687" 
      text-anchor="middle" 
      dominant-baseline="middle"
      font-family="sans-serif" 
      font-size="14"
      fill="#48677e">
      Submit Document
    </text></g></g><g data-runiq-node="autoValidate" data-node-id="autoValidate" data-node-shape="activity"><g class="activity-shape"><rect x="605" y="992" width="133.2" height="50" rx="10" ry="10" fill="#364d5f" stroke="#48677e" stroke-width="1" /><text x="671.6" y="1017" 
      text-anchor="middle" 
      dominant-baseline="middle"
      font-family="sans-serif" 
      font-size="14"
      fill="#48677e">
      Auto Validate
    </text></g></g><g data-runiq-node="assignReviewer" data-node-id="assignReviewer" data-node-shape="activity"><g class="activity-shape"><rect x="709" y="1502" width="150" height="50" rx="10" ry="10" fill="#5a819e" stroke="#48677e" stroke-width="1" /><text x="784" y="1527" 
      text-anchor="middle" 
      dominant-baseline="middle"
      font-family="sans-serif" 
      font-size="14"
      fill="#48677e">
      Assign Reviewer
    </text></g></g><g data-runiq-node="reviewDoc" data-node-id="reviewDoc" data-node-shape="activity"><g class="activity-shape"><rect x="878" y="2002" width="150" height="50" rx="10" ry="10" fill="#73a3bf" stroke="#48677e" stroke-width="1" /><text x="953" y="2027" 
      text-anchor="middle" 
      dominant-baseline="middle"
      font-family="sans-serif" 
      font-size="14"
      fill="#48677e">
      Review Document
    </text></g></g><g data-runiq-node="requestChanges" data-node-id="requestChanges" data-node-shape="activity"><g class="activity-shape"><rect x="377" y="1162" width="150" height="50" rx="10" ry="10" fill="#96bacf" stroke="#48677e" stroke-width="1" /><text x="452" y="1187" 
      text-anchor="middle" 
      dominant-baseline="middle"
      font-family="sans-serif" 
      font-size="14"
      fill="#48677e">
      Request Changes
    </text></g></g><g data-runiq-node="reviseDoc" data-node-id="reviseDoc" data-node-shape="activity"><g class="activity-shape"><rect x="377" y="1502" width="150" height="50" rx="10" ry="10" fill="#48677e" stroke="#48677e" stroke-width="1" /><text x="452" y="1527" 
      text-anchor="middle" 
      dominant-baseline="middle"
      font-family="sans-serif" 
      font-size="14"
      fill="#48677e">
      Revise Document
    </text></g></g><g data-runiq-node="managerApprove" data-node-id="managerApprove" data-node-shape="activity"><g class="activity-shape"><rect x="116" y="662" width="158.4" height="50" rx="10" ry="10" fill="#364d5f" stroke="#48677e" stroke-width="1" /><text x="195.2" y="687" 
      text-anchor="middle" 
      dominant-baseline="middle"
      font-family="sans-serif" 
      font-size="14"
      fill="#48677e">
      Manager Approval
    </text></g></g><g data-runiq-node="finalizeDoc" data-node-id="finalizeDoc" data-node-shape="activity"><g class="activity-shape"><rect x="12" y="1162" width="166.8" height="50" rx="10" ry="10" fill="#5a819e" stroke="#48677e" stroke-width="1" /><text x="95.4" y="1187" 
      text-anchor="middle" 
      dominant-baseline="middle"
      font-family="sans-serif" 
      font-size="14"
      fill="#48677e">
      Finalize Document
    </text></g></g><g data-runiq-node="archiveDoc" data-node-id="archiveDoc" data-node-shape="activity"><g class="activity-shape"><rect x="119" y="1332" width="158.4" height="50" rx="10" ry="10" fill="#73a3bf" stroke="#48677e" stroke-width="1" /><text x="198.2" y="1357" 
      text-anchor="middle" 
      dominant-baseline="middle"
      font-family="sans-serif" 
      font-size="14"
      fill="#48677e">
      Archive Document
    </text></g></g><g data-runiq-node="notifyAuthor" data-node-id="notifyAuthor" data-node-shape="activity"><g class="activity-shape"><rect x="377" y="1332" width="133.2" height="50" rx="10" ry="10" fill="#96bacf" stroke="#48677e" stroke-width="1" /><text x="443.6" y="1357" 
      text-anchor="middle" 
      dominant-baseline="middle"
      font-family="sans-serif" 
      font-size="14"
      fill="#48677e">
      Notify Author
    </text></g></g><g data-runiq-node="draft" data-node-id="draft" data-node-shape="objectNode"><g class="object-node-shape"><rect x="361" y="832" width="137.60000000000002" height="40" fill="#48677e" stroke="#48677e" stroke-width="1" /><text x="429.8" y="852" 
      text-anchor="middle" 
      dominant-baseline="middle"
      font-family="sans-serif" 
      font-size="14"
      fill="#48677e">
      Draft Document
    </text></g></g><g data-runiq-node="validated" data-node-id="validated" data-node-shape="objectNode"><g class="object-node-shape"><rect x="771" y="1337" width="171.20000000000002" height="40" fill="#364d5f" stroke="#48677e" stroke-width="1" /><text x="856.6" y="1357" 
      text-anchor="middle" 
      dominant-baseline="middle"
      font-family="sans-serif" 
      font-size="14"
      fill="#48677e">
      Validated Document
    </text></g></g><g data-runiq-node="reviewed" data-node-id="reviewed" data-node-shape="objectNode"><g class="object-node-shape"><rect x="79" y="172" width="162.8" height="40" fill="#5a819e" stroke="#48677e" stroke-width="1" /><text x="160.4" y="192" 
      text-anchor="middle" 
      dominant-baseline="middle"
      font-family="sans-serif" 
      font-size="14"
      fill="#48677e">
      Reviewed Document
    </text></g></g><g data-runiq-node="revised" data-node-id="revised" data-node-shape="objectNode"><g class="object-node-shape"><rect x="377" y="1672" width="154.4" height="40" fill="#73a3bf" stroke="#48677e" stroke-width="1" /><text x="454.2" y="1692" 
      text-anchor="middle" 
      dominant-baseline="middle"
      font-family="sans-serif" 
      font-size="14"
      fill="#48677e">
      Revised Document
    </text></g></g><g data-runiq-node="approvedDoc" data-node-id="approvedDoc" data-node-shape="objectNode"><g class="object-node-shape"><rect x="116" y="998.6666666666666" width="162.8" height="40" fill="#96bacf" stroke="#48677e" stroke-width="1" /><text x="197.4" y="1018.6666666666666" 
      text-anchor="middle" 
      dominant-baseline="middle"
      font-family="sans-serif" 
      font-size="14"
      fill="#48677e">
      Approved Document
    </text></g></g><g data-runiq-node="changes" data-node-id="changes" data-node-shape="objectNode"><g class="object-node-shape"><rect x="379" y="995.3333333333334" width="146" height="40" fill="#48677e" stroke="#48677e" stroke-width="1" /><text x="452" y="1015.3333333333334" 
      text-anchor="middle" 
      dominant-baseline="middle"
      font-family="sans-serif" 
      font-size="14"
      fill="#48677e">
      Change Requests
    </text></g></g><g data-runiq-node="reviewQueue" data-node-id="reviewQueue" data-node-shape="centralBuffer"><g class="central-buffer-shape"><rect x="703" y="1832" width="120.80000000000001" height="50" fill="#364d5f" stroke="#48677e" stroke-width="1" /><text x="763.4" y="1846" 
      text-anchor="middle" 
      dominant-baseline="middle"
      font-family="sans-serif" 
      font-size="12"
      fill="#48677e">
      «centralBuffer»
    </text><text x="763.4" y="1864" 
      text-anchor="middle" 
      dominant-baseline="middle"
      font-family="sans-serif" 
      font-size="14"
      fill="#48677e">
      Review Queue
    </text></g></g><g data-runiq-node="approvalQueue" data-node-id="approvalQueue" data-node-shape="centralBuffer"><g class="central-buffer-shape"><rect x="126" y="492" width="137.60000000000002" height="50" fill="#5a819e" stroke="#48677e" stroke-width="1" /><text x="194.8" y="506" 
      text-anchor="middle" 
      dominant-baseline="middle"
      font-family="sans-serif" 
      font-size="12"
      fill="#48677e">
      «centralBuffer»
    </text><text x="194.8" y="524" 
      text-anchor="middle" 
      dominant-baseline="middle"
      font-family="sans-serif" 
      font-size="14"
      fill="#48677e">
      Approval Queue
    </text></g></g><g data-runiq-node="userDB" data-node-id="userDB" data-node-shape="dataStore"><g class="data-store-shape"><ellipse cx="641" cy="1335.75" rx="50" ry="3.75" fill="#73a3bf" stroke="#48677e" stroke-width="1" /><rect x="591" y="1335.75" width="100" height="42.5" fill="#73a3bf" stroke="none" /><line x1="591" y1="1335.75" x2="591" y2="1378.25" stroke="#48677e" stroke-width="1" /><line x1="691" y1="1335.75" x2="691" y2="1378.25" stroke="#48677e" stroke-width="1" /><path d="M 591 1378.25 Q 641 1385.75, 691 1378.25" fill="none" stroke="#48677e" stroke-width="1" /><text x="641" y="1357" 
      text-anchor="middle" 
      dominant-baseline="middle"
      font-family="sans-serif" 
      font-size="14"
      fill="#48677e">
      User DB
    </text></g></g><g data-runiq-node="documentDB" data-node-id="documentDB" data-node-shape="dataStore"><g class="data-store-shape"><ellipse cx="341.2" cy="1835.75" rx="56.2" ry="3.75" fill="#96bacf" stroke="#48677e" stroke-width="1" /><rect x="285" y="1835.75" width="112.4" height="42.5" fill="#96bacf" stroke="none" /><line x1="285" y1="1835.75" x2="285" y2="1878.25" stroke="#48677e" stroke-width="1" /><line x1="397.4" y1="1835.75" x2="397.4" y2="1878.25" stroke="#48677e" stroke-width="1" /><path d="M 285 1878.25 Q 341.2 1885.75, 397.4 1878.25" fill="none" stroke="#48677e" stroke-width="1" /><text x="341.2" y="1857" 
      text-anchor="middle" 
      dominant-baseline="middle"
      font-family="sans-serif" 
      font-size="14"
      fill="#48677e">
      Document DB
    </text></g></g><g data-runiq-node="auditDB" data-node-id="auditDB" data-node-shape="dataStore"><g class="data-store-shape"><ellipse cx="154" cy="1505.75" rx="50" ry="3.75" fill="#48677e" stroke="#48677e" stroke-width="1" /><rect x="104" y="1505.75" width="100" height="42.5" fill="#48677e" stroke="none" /><line x1="104" y1="1505.75" x2="104" y2="1548.25" stroke="#48677e" stroke-width="1" /><line x1="204" y1="1505.75" x2="204" y2="1548.25" stroke="#48677e" stroke-width="1" /><path d="M 104 1548.25 Q 154 1555.75, 204 1548.25" fill="none" stroke="#48677e" stroke-width="1" /><text x="154" y="1527" 
      text-anchor="middle" 
      dominant-baseline="middle"
      font-family="sans-serif" 
      font-size="14"
      fill="#48677e">
      Audit Log
    </text></g></g><g data-runiq-node="validationOK" data-node-id="validationOK" data-node-shape="choice"><g class="choice-shape"><path d="M 672 1168.6666666666667 L 692 1188.6666666666667 L 672 1208.6666666666667 L 652 1188.6666666666667 Z" fill="#364d5f" stroke="#48677e" stroke-width="1" /><text x="672" y="1193.6666666666667" 
      text-anchor="middle" 
      dominant-baseline="middle"
      font-family="sans-serif" 
      font-size="11.200000000000001"
      fill="#FFFFFF">
      validationOK
    </text></g></g><g data-runiq-node="reviewDecision" data-node-id="reviewDecision" data-node-shape="choice"><g class="choice-shape"><path d="M 540 12 L 560 32 L 540 52 L 520 32 Z" fill="#5a819e" stroke="#48677e" stroke-width="1" /><text x="540" y="37" 
      text-anchor="middle" 
      dominant-baseline="middle"
      font-family="sans-serif" 
      font-size="11.200000000000001"
      fill="#FFFFFF">
      reviewDecision
    </text></g></g><g data-runiq-node="needsManagerApproval" data-node-id="needsManagerApproval" data-node-shape="choice"><g class="choice-shape"><path d="M 188 332 L 208 352 L 188 372 L 168 352 Z" fill="#73a3bf" stroke="#48677e" stroke-width="1" /><text x="188" y="357" 
      text-anchor="middle" 
      dominant-baseline="middle"
      font-family="sans-serif" 
      font-size="11.200000000000001"
      fill="#FFFFFF">
      needsManagerApproval
    </text></g></g><g data-runiq-node="managerDecision" data-node-id="managerDecision" data-node-shape="choice"><g class="choice-shape"><path d="M 195 832 L 215 852 L 195 872 L 175 852 Z" fill="#96bacf" stroke="#48677e" stroke-width="1" /><text x="195" y="857" 
      text-anchor="middle" 
      dominant-baseline="middle"
      font-family="sans-serif" 
      font-size="11.200000000000001"
      fill="#FFFFFF">
      managerDecision
    </text></g></g></svg>