<svg xmlns="http://www.w3.org/2000/svg" xmlns:xlink="http://www.w3.org/1999/xlink" 
    width="592.8" height="1102" 
    viewBox="0 0 592.8 1102"
    role="img" aria-labelledby="diagram-title" data-id="runiq-diagram">
<title id="diagram-title">Diagram</title><defs><style type="text/css"><![CDATA[.runiq-node-text { font-family: sans-serif; font-size: 14px; }.runiq-edge-text { font-family: sans-serif; font-size: 12px; }.runiq-container-label { font-family: sans-serif; font-size: 16px; font-weight: bold; fill: #666; }]]></style><pattern id="pedigree-half-fill" width="40" height="40" patternUnits="userSpaceOnUse"><rect x="0" y="0" width="20" height="40" fill="#000"/><rect x="20" y="0" width="20" height="40" fill="#fff"/></pattern></defs><g data-runiq-edge="processRequest-emailService-0" data-edge-id="processRequest-emailService-0" data-edge-from="processRequest" data-edge-to="emailService"><defs>
      <marker id="arrow-standard-processRequest-emailService" markerWidth="10" markerHeight="10" refX="9" refY="3" orient="auto" markerUnits="strokeWidth">
        <polygon points="0,0 0,6 9,3" fill="#48677e" />
      </marker></defs><path d="M 135 62 L 135 122 L 98 122 L 98 182" fill="none" stroke="transparent" stroke-width="20" pointer-events="stroke" class="edge-hit-area" /><path d="M 135 62 L 135 122 L 98 122 L 98 182" fill="none" stroke="#48677e" stroke-width="1" marker-end="url(#arrow-standard-processRequest-emailService)" pointer-events="none" /></g><g data-runiq-edge="emailService-receiveEmail-1" data-edge-id="emailService-receiveEmail-1" data-edge-from="emailService" data-edge-to="receiveEmail"><defs>
      <marker id="arrow-standard-emailService-receiveEmail" markerWidth="10" markerHeight="10" refX="9" refY="3" orient="auto" markerUnits="strokeWidth">
        <polygon points="0,0 0,6 9,3" fill="#48677e" />
      </marker></defs><path d="M 98 232 L 98 292 L 97.80000000000001 292 L 97.80000000000001 352" fill="none" stroke="transparent" stroke-width="20" pointer-events="stroke" class="edge-hit-area" /><path d="M 98 232 L 98 292 L 97.80000000000001 292 L 97.80000000000001 352" fill="none" stroke="#48677e" stroke-width="1" marker-end="url(#arrow-standard-emailService-receiveEmail)" pointer-events="none" /></g><g data-runiq-edge="receiveEmail-waitResponse-2" data-edge-id="receiveEmail-waitResponse-2" data-edge-from="receiveEmail" data-edge-to="waitResponse"><defs>
      <marker id="arrow-standard-receiveEmail-waitResponse" markerWidth="10" markerHeight="10" refX="9" refY="3" orient="auto" markerUnits="strokeWidth">
        <polygon points="0,0 0,6 9,3" fill="#48677e" />
      </marker></defs><path d="M 97.80000000000001 402 L 97.80000000000001 462 L 98.4 462 L 98.4 522" fill="none" stroke="transparent" stroke-width="20" pointer-events="stroke" class="edge-hit-area" /><path d="M 97.80000000000001 402 L 97.80000000000001 462 L 98.4 462 L 98.4 522" fill="none" stroke="#48677e" stroke-width="1" marker-end="url(#arrow-standard-receiveEmail-waitResponse)" pointer-events="none" /></g><g data-runiq-edge="waitResponse-validateResponse-3" data-edge-id="waitResponse-validateResponse-3" data-edge-from="waitResponse" data-edge-to="validateResponse"><defs>
      <marker id="arrow-standard-waitResponse-validateResponse" markerWidth="10" markerHeight="10" refX="9" refY="3" orient="auto" markerUnits="strokeWidth">
        <polygon points="0,0 0,6 9,3" fill="#48677e" />
      </marker></defs><path d="M 98.4 572 L 98.4 632 L 98.4 632 L 98.4 692" fill="none" stroke="transparent" stroke-width="20" pointer-events="stroke" class="edge-hit-area" /><path d="M 98.4 572 L 98.4 632 L 98.4 632 L 98.4 692" fill="none" stroke="#48677e" stroke-width="1" marker-end="url(#arrow-standard-waitResponse-validateResponse)" pointer-events="none" /></g><g data-runiq-edge="processRequest-notificationService-4" data-edge-id="processRequest-notificationService-4" data-edge-from="processRequest" data-edge-to="notificationService"><defs>
      <marker id="arrow-standard-processRequest-notificationService" markerWidth="10" markerHeight="10" refX="9" refY="3" orient="auto" markerUnits="strokeWidth">
        <polygon points="0,0 0,6 9,3" fill="#48677e" />
      </marker></defs><path d="M 135 62 L 135 122 L 364 122 L 364.4 182" fill="none" stroke="transparent" stroke-width="20" pointer-events="stroke" class="edge-hit-area" /><path d="M 135 62 L 135 122 L 364 122 L 364.4 182" fill="none" stroke="#48677e" stroke-width="1" marker-end="url(#arrow-standard-processRequest-notificationService)" pointer-events="none" /></g><g data-runiq-edge="processRequest-smsService-5" data-edge-id="processRequest-smsService-5" data-edge-from="processRequest" data-edge-to="smsService"><defs>
      <marker id="arrow-standard-processRequest-smsService" markerWidth="10" markerHeight="10" refX="9" refY="3" orient="auto" markerUnits="strokeWidth">
        <polygon points="0,0 0,6 9,3" fill="#48677e" />
      </marker></defs><path d="M 135 62 L 135 97 L 507 97 L 507 207 L 507 352" fill="none" stroke="transparent" stroke-width="20" pointer-events="stroke" class="edge-hit-area" /><path d="M 135 62 L 135 97 L 507 97 L 507 207 L 507 352" fill="none" stroke="#48677e" stroke-width="1" marker-end="url(#arrow-standard-processRequest-smsService)" pointer-events="none" /></g><g data-runiq-edge="notificationService-receivePush-6" data-edge-id="notificationService-receivePush-6" data-edge-from="notificationService" data-edge-to="receivePush"><defs>
      <marker id="arrow-standard-notificationService-receivePush" markerWidth="10" markerHeight="10" refX="9" refY="3" orient="auto" markerUnits="strokeWidth">
        <polygon points="0,0 0,6 9,3" fill="#48677e" />
      </marker></defs><path d="M 364.4 232 L 364.4 267 L 368 267 L 368 377 L 368.2 522" fill="none" stroke="transparent" stroke-width="20" pointer-events="stroke" class="edge-hit-area" /><path d="M 364.4 232 L 364.4 267 L 368 267 L 368 377 L 368.2 522" fill="none" stroke="#48677e" stroke-width="1" marker-end="url(#arrow-standard-notificationService-receivePush)" pointer-events="none" /></g><g data-runiq-edge="smsService-receiveSMS-7" data-edge-id="smsService-receiveSMS-7" data-edge-from="smsService" data-edge-to="receiveSMS"><defs>
      <marker id="arrow-standard-smsService-receiveSMS" markerWidth="10" markerHeight="10" refX="9" refY="3" orient="auto" markerUnits="strokeWidth">
        <polygon points="0,0 0,6 9,3" fill="#48677e" />
      </marker></defs><path d="M 507 402 Q 507 547 507.4 692" fill="none" stroke="transparent" stroke-width="20" pointer-events="stroke" class="edge-hit-area" /><path d="M 507 402 Q 507 547 507.4 692" fill="none" stroke="#48677e" stroke-width="1" marker-end="url(#arrow-standard-smsService-receiveSMS)" pointer-events="none" /></g><g data-runiq-edge="validateResponse-waitConfirmation-8" data-edge-id="validateResponse-waitConfirmation-8" data-edge-from="validateResponse" data-edge-to="waitConfirmation"><defs>
      <marker id="arrow-standard-validateResponse-waitConfirmation" markerWidth="10" markerHeight="10" refX="9" refY="3" orient="auto" markerUnits="strokeWidth">
        <polygon points="0,0 0,6 9,3" fill="#48677e" />
      </marker></defs><path d="M 98.4 742 L 98.4 814.5 L 66.64 814.5 L 66.64 887" fill="none" stroke="transparent" stroke-width="20" pointer-events="stroke" class="edge-hit-area" /><path d="M 98.4 742 L 98.4 814.5 L 66.64 814.5 L 66.64 887" fill="none" stroke="#48677e" stroke-width="1" marker-end="url(#arrow-standard-validateResponse-waitConfirmation)" pointer-events="none" /></g><g data-runiq-edge="receivePush-waitConfirmation-9" data-edge-id="receivePush-waitConfirmation-9" data-edge-from="receivePush" data-edge-to="waitConfirmation"><defs>
      <marker id="arrow-standard-receivePush-waitConfirmation" markerWidth="10" markerHeight="10" refX="9" refY="3" orient="auto" markerUnits="strokeWidth">
        <polygon points="0,0 0,6 9,3" fill="#48677e" />
      </marker></defs><path d="M 368.2 572 L 368.2 717 L 368 777 L 149 777 L 149.2 862" fill="none" stroke="transparent" stroke-width="20" pointer-events="stroke" class="edge-hit-area" /><path d="M 368.2 572 L 368.2 717 L 368 777 L 149 777 L 149.2 862" fill="none" stroke="#48677e" stroke-width="1" marker-end="url(#arrow-standard-receivePush-waitConfirmation)" pointer-events="none" /></g><g data-runiq-edge="receiveSMS-waitConfirmation-10" data-edge-id="receiveSMS-waitConfirmation-10" data-edge-from="receiveSMS" data-edge-to="waitConfirmation"><defs>
      <marker id="arrow-standard-receiveSMS-waitConfirmation" markerWidth="10" markerHeight="10" refX="9" refY="3" orient="auto" markerUnits="strokeWidth">
        <polygon points="0,0 0,6 9,3" fill="#48677e" />
      </marker></defs><path d="M 507.4 742 L 507.4 802 L 201 802 L 149.2 862" fill="none" stroke="transparent" stroke-width="20" pointer-events="stroke" class="edge-hit-area" /><path d="M 507.4 742 L 507.4 802 L 201 802 L 149.2 862" fill="none" stroke="#48677e" stroke-width="1" marker-end="url(#arrow-standard-receiveSMS-waitConfirmation)" pointer-events="none" /></g><g data-runiq-edge="waitConfirmation-logEvent-11" data-edge-id="waitConfirmation-logEvent-11" data-edge-from="waitConfirmation" data-edge-to="logEvent"><defs>
      <marker id="arrow-standard-waitConfirmation-logEvent" markerWidth="10" markerHeight="10" refX="9" refY="3" orient="auto" markerUnits="strokeWidth">
        <polygon points="0,0 0,6 9,3" fill="#48677e" />
      </marker></defs><path d="M 149.2 912 L 149.2 972 L 149 972 L 149 1032" fill="none" stroke="transparent" stroke-width="20" pointer-events="stroke" class="edge-hit-area" /><path d="M 149.2 912 L 149.2 972 L 149 972 L 149 1032" fill="none" stroke="#48677e" stroke-width="1" marker-end="url(#arrow-standard-waitConfirmation-logEvent)" pointer-events="none" /></g><g data-runiq-node="emailService" data-node-id="emailService" data-node-shape="sendSignal"><g class="send-signal-shape"><path d="M 41 182 L 132.2 182 L 155 207 L 132.2 232 L 41 232 Z" fill="#5a819e" stroke="#48677e" stroke-width="1" /><text x="86.6" y="211.66666666666666" 
      text-anchor="middle" 
      dominant-baseline="middle"
      font-family="sans-serif" 
      font-size="14"
      fill="#48677e">
      Send Email
    </text></g></g><g data-runiq-node="notificationService" data-node-id="notificationService" data-node-shape="sendSignal"><g class="send-signal-shape"><path d="M 257 182 L 428.84000000000003 182 L 471.8 207 L 428.84000000000003 232 L 257 232 Z" fill="#73a3bf" stroke="#48677e" stroke-width="1" /><text x="342.92" y="211.66666666666666" 
      text-anchor="middle" 
      dominant-baseline="middle"
      font-family="sans-serif" 
      font-size="14"
      fill="#48677e">
      Send Push Notification
    </text></g></g><g data-runiq-node="smsService" data-node-id="smsService" data-node-shape="sendSignal"><g class="send-signal-shape"><path d="M 457 352 L 537 352 L 557 377 L 537 402 L 457 402 Z" fill="#96bacf" stroke="#48677e" stroke-width="1" /><text x="497" y="381.6666666666667" 
      text-anchor="middle" 
      dominant-baseline="middle"
      font-family="sans-serif" 
      font-size="14"
      fill="#48677e">
      Send SMS
    </text></g></g><g data-runiq-node="receiveEmail" data-node-id="receiveEmail" data-node-shape="receiveSignal"><g class="receive-signal-shape"><path d="M 53.52000000000001 352 L 171.60000000000002 352 L 171.60000000000002 402 L 53.52000000000001 402 L 24 377 Z" fill="#48677e" stroke="#48677e" stroke-width="1" /><text x="112.56000000000002" y="381.6666666666667" 
      text-anchor="middle" 
      dominant-baseline="middle"
      font-family="sans-serif" 
      font-size="14"
      fill="#48677e">
      Email Received
    </text></g></g><g data-runiq-node="receivePush" data-node-id="receivePush" data-node-shape="receiveSignal"><g class="receive-signal-shape"><path d="M 306.28 522 L 471.4 522 L 471.4 572 L 306.28 572 L 265 547 Z" fill="#364d5f" stroke="#48677e" stroke-width="1" /><text x="388.84000000000003" y="551.6666666666666" 
      text-anchor="middle" 
      dominant-baseline="middle"
      font-family="sans-serif" 
      font-size="14"
      fill="#48677e">
      Notification Received
    </text></g></g><g data-runiq-node="receiveSMS" data-node-id="receiveSMS" data-node-shape="receiveSignal"><g class="receive-signal-shape"><path d="M 468.16 692 L 572.8 692 L 572.8 742 L 468.16 742 L 442 717 Z" fill="#5a819e" stroke="#48677e" stroke-width="1" /><text x="520.48" y="721.6666666666666" 
      text-anchor="middle" 
      dominant-baseline="middle"
      font-family="sans-serif" 
      font-size="14"
      fill="#48677e">
      SMS Received
    </text></g></g><g data-runiq-node="waitResponse" data-node-id="waitResponse" data-node-shape="acceptEvent"><g class="accept-event-shape"><path d="M 46.56 522 L 184.8 522 L 184.8 572 L 46.56 572 L 12 547 Z" fill="#73a3bf" stroke="#48677e" stroke-width="1" /><text x="115.68" y="551.6666666666666" 
      text-anchor="middle" 
      dominant-baseline="middle"
      font-family="sans-serif" 
      font-size="14"
      fill="#48677e">
      Wait for Response
    </text></g></g><g data-runiq-node="waitConfirmation" data-node-id="waitConfirmation" data-node-shape="acceptEvent"><g class="accept-event-shape"><path d="M 87.28 862 L 252.4 862 L 252.4 912 L 87.28 912 L 46 887 Z" fill="#96bacf" stroke="#48677e" stroke-width="1" /><text x="169.84" y="891.6666666666666" 
      text-anchor="middle" 
      dominant-baseline="middle"
      font-family="sans-serif" 
      font-size="14"
      fill="#48677e">
      Wait for Confirmation
    </text></g></g><g data-runiq-node="processRequest" data-node-id="processRequest" data-node-shape="activity"><g class="activity-shape"><rect x="60" y="12" width="150" height="50" rx="10" ry="10" fill="#48677e" stroke="#48677e" stroke-width="1" /><text x="135" y="37" 
      text-anchor="middle" 
      dominant-baseline="middle"
      font-family="sans-serif" 
      font-size="14"
      fill="#48677e">
      Process Request
    </text></g></g><g data-runiq-node="validateResponse" data-node-id="validateResponse" data-node-shape="activity"><g class="activity-shape"><rect x="15" y="692" width="166.8" height="50" rx="10" ry="10" fill="#364d5f" stroke="#48677e" stroke-width="1" /><text x="98.4" y="717" 
      text-anchor="middle" 
      dominant-baseline="middle"
      font-family="sans-serif" 
      font-size="14"
      fill="#48677e">
      Validate Response
    </text></g></g><g data-runiq-node="logEvent" data-node-id="logEvent" data-node-shape="activity"><g class="activity-shape"><rect x="99" y="1032" width="100" height="50" rx="10" ry="10" fill="#5a819e" stroke="#48677e" stroke-width="1" /><text x="149" y="1057" 
      text-anchor="middle" 
      dominant-baseline="middle"
      font-family="sans-serif" 
      font-size="14"
      fill="#48677e">
      Log Event
    </text></g></g></svg>