<svg xmlns="http://www.w3.org/2000/svg" xmlns:xlink="http://www.w3.org/1999/xlink" 
    width="784.8" height="930" 
    viewBox="0 0 784.8 930"
    role="img" aria-labelledby="diagram-title" data-id="runiq-diagram">
<title id="diagram-title">Diagram</title><defs><style type="text/css"><![CDATA[.runiq-node-text { font-family: sans-serif; font-size: 14px; }.runiq-edge-text { font-family: sans-serif; font-size: 12px; }.runiq-container-label { font-family: sans-serif; font-size: 16px; font-weight: bold; fill: #666; }]]></style><pattern id="pedigree-half-fill" width="40" height="40" patternUnits="userSpaceOnUse"><rect x="0" y="0" width="20" height="40" fill="#000"/><rect x="20" y="0" width="20" height="40" fill="#fff"/></pattern></defs><g data-runiq-container="frontend-team" data-container-id="frontend-team"><rect x="0" y="0" width="216.4" height="910" 
    fill="#e3f2fd" stroke="#ddd" stroke-width="2" rx="8" /><text x="10" y="20" text-anchor="start" dominant-baseline="hanging" class="runiq-container-label">Frontend Team</text></g><g data-runiq-container="backend-team" data-container-id="backend-team"><rect x="296.4" y="0" width="216.4" height="910" 
    fill="#fff3e0" stroke="#ddd" stroke-width="2" rx="8" /><text x="306.4" y="20" text-anchor="start" dominant-baseline="hanging" class="runiq-container-label">Backend Team</text></g><g data-runiq-container="devops" data-container-id="devops"><rect x="592.8" y="0" width="172" height="910" 
    fill="#e8f5e9" stroke="#ddd" stroke-width="2" rx="8" /><text x="602.8" y="20" text-anchor="start" dominant-baseline="hanging" class="runiq-container-label">DevOps</text></g><g data-runiq-edge="fe1-fe2-0" data-edge-id="fe1-fe2-0" data-edge-from="fe1" data-edge-to="fe2"><defs>
      <marker id="arrow-standard-fe1-fe2" markerWidth="10" markerHeight="10" refX="9" refY="3" orient="auto" markerUnits="strokeWidth">
        <polygon points="0,0 0,6 9,3" fill="#48677e" />
      </marker></defs><path d="M 108 50 L 108 90 L 108 90 L 108 130" fill="none" stroke="transparent" stroke-width="20" pointer-events="stroke" class="edge-hit-area" /><path d="M 108 50 L 108 90 L 108 90 L 108 130" fill="none" stroke="#48677e" stroke-width="1" marker-end="url(#arrow-standard-fe1-fe2)" pointer-events="none" /></g><g data-runiq-edge="fe2-fe3-1" data-edge-id="fe2-fe3-1" data-edge-from="fe2" data-edge-to="fe3"><defs>
      <marker id="arrow-standard-fe2-fe3" markerWidth="10" markerHeight="10" refX="9" refY="3" orient="auto" markerUnits="strokeWidth">
        <polygon points="0,0 0,6 9,3" fill="#48677e" />
      </marker></defs><path d="M 108 187.6 L 108 227.60000000000002 L 108 227.60000000000002 L 108 267.6" fill="none" stroke="transparent" stroke-width="20" pointer-events="stroke" class="edge-hit-area" /><path d="M 108 187.6 L 108 227.60000000000002 L 108 227.60000000000002 L 108 267.6" fill="none" stroke="#48677e" stroke-width="1" marker-end="url(#arrow-standard-fe2-fe3)" pointer-events="none" /></g><g data-runiq-edge="fe3-fe4-2" data-edge-id="fe3-fe4-2" data-edge-from="fe3" data-edge-to="fe4"><defs>
      <marker id="arrow-standard-fe3-fe4" markerWidth="10" markerHeight="10" refX="9" refY="3" orient="auto" markerUnits="strokeWidth">
        <polygon points="0,0 0,6 9,3" fill="#48677e" />
      </marker></defs><path d="M 108 325.20000000000005 L 108 365.20000000000005 L 126 365.20000000000005 L 126 405.2" fill="none" stroke="transparent" stroke-width="20" pointer-events="stroke" class="edge-hit-area" /><path d="M 108 325.20000000000005 L 108 365.20000000000005 L 126 365.20000000000005 L 126 405.2" fill="none" stroke="#48677e" stroke-width="1" marker-end="url(#arrow-standard-fe3-fe4)" pointer-events="none" /></g><g data-runiq-edge="fe4-fe5-3" data-edge-id="fe4-fe5-3" data-edge-from="fe4" data-edge-to="fe5"><defs>
      <marker id="arrow-standard-fe4-fe5" markerWidth="10" markerHeight="10" refX="9" refY="3" orient="auto" markerUnits="strokeWidth">
        <polygon points="0,0 0,6 9,3" fill="#48677e" />
      </marker></defs><path d="M 126 462.8 L 126 502.79999999999995 L 126.2 502.79999999999995 L 126.2 542.8" fill="none" stroke="transparent" stroke-width="20" pointer-events="stroke" class="edge-hit-area" /><path d="M 126 462.8 L 126 502.79999999999995 L 126.2 502.79999999999995 L 126.2 542.8" fill="none" stroke="#48677e" stroke-width="1" marker-end="url(#arrow-standard-fe4-fe5)" pointer-events="none" /></g><g data-runiq-edge="fe5-fe6-4" data-edge-id="fe5-fe6-4" data-edge-from="fe5" data-edge-to="fe6"><defs>
      <marker id="arrow-standard-fe5-fe6" markerWidth="10" markerHeight="10" refX="9" refY="3" orient="auto" markerUnits="strokeWidth">
        <polygon points="0,0 0,6 9,3" fill="#48677e" />
      </marker></defs><path d="M 126.2 600.4 L 126.2 640.4 L 126 640.4 L 126 680.4" fill="none" stroke="transparent" stroke-width="20" pointer-events="stroke" class="edge-hit-area" /><path d="M 126.2 600.4 L 126.2 640.4 L 126 640.4 L 126 680.4" fill="none" stroke="#48677e" stroke-width="1" marker-end="url(#arrow-standard-fe5-fe6)" pointer-events="none" /></g><g data-runiq-edge="fe6-fe7-6" data-edge-id="fe6-fe7-6" data-edge-from="fe6" data-edge-to="fe7"><defs>
      <marker id="arrow-standard-fe6-fe7" markerWidth="10" markerHeight="10" refX="9" refY="3" orient="auto" markerUnits="strokeWidth">
        <polygon points="0,0 0,6 9,3" fill="#48677e" />
      </marker></defs><path d="M 126 740.4 L 126 780.4 L 109 780.4 L 109 820.4" fill="none" stroke="transparent" stroke-width="20" pointer-events="stroke" class="edge-hit-area" /><path d="M 126 740.4 L 126 780.4 L 109 780.4 L 109 820.4" fill="none" stroke="#48677e" stroke-width="1" marker-end="url(#arrow-standard-fe6-fe7)" pointer-events="none" /><text x="109" y="780.4" text-anchor="middle" dominant-baseline="middle" class="runiq-edge-text">fail</text></g><g data-runiq-edge="fe7-fe3-7" data-edge-id="fe7-fe3-7" data-edge-from="fe7" data-edge-to="fe3"><defs>
      <marker id="arrow-standard-fe7-fe3" markerWidth="10" markerHeight="10" refX="9" refY="3" orient="auto" markerUnits="strokeWidth">
        <polygon points="0,0 0,6 9,3" fill="#48677e" />
      </marker></defs><path d="M 109 820.4 L 109 775.4 L 32 775.4 L 32 710.4 L 32 571.6 L 32 434 L 32 360.2 L 90 360.2 L 108 325.20000000000005" fill="none" stroke="transparent" stroke-width="20" pointer-events="stroke" class="edge-hit-area" /><path d="M 109 820.4 L 109 775.4 L 32 775.4 L 32 710.4 L 32 571.6 L 32 434 L 32 360.2 L 90 360.2 L 108 325.20000000000005" fill="none" stroke="#48677e" stroke-width="1" marker-end="url(#arrow-standard-fe7-fe3)" pointer-events="none" /></g><g data-runiq-edge="be1-be2-8" data-edge-id="be1-be2-8" data-edge-from="be1" data-edge-to="be2"><defs>
      <marker id="arrow-standard-be1-be2" markerWidth="10" markerHeight="10" refX="9" refY="3" orient="auto" markerUnits="strokeWidth">
        <polygon points="0,0 0,6 9,3" fill="#48677e" />
      </marker></defs><path d="M 405.4 50 L 405.4 90 L 405.4 90 L 405.4 130" fill="none" stroke="transparent" stroke-width="20" pointer-events="stroke" class="edge-hit-area" /><path d="M 405.4 50 L 405.4 90 L 405.4 90 L 405.4 130" fill="none" stroke="#48677e" stroke-width="1" marker-end="url(#arrow-standard-be1-be2)" pointer-events="none" /></g><g data-runiq-edge="be2-be3-9" data-edge-id="be2-be3-9" data-edge-from="be2" data-edge-to="be3"><defs>
      <marker id="arrow-standard-be2-be3" markerWidth="10" markerHeight="10" refX="9" refY="3" orient="auto" markerUnits="strokeWidth">
        <polygon points="0,0 0,6 9,3" fill="#48677e" />
      </marker></defs><path d="M 405.4 187.6 L 405.4 227.60000000000002 L 405.4 227.60000000000002 L 405.4 267.6" fill="none" stroke="transparent" stroke-width="20" pointer-events="stroke" class="edge-hit-area" /><path d="M 405.4 187.6 L 405.4 227.60000000000002 L 405.4 227.60000000000002 L 405.4 267.6" fill="none" stroke="#48677e" stroke-width="1" marker-end="url(#arrow-standard-be2-be3)" pointer-events="none" /></g><g data-runiq-edge="be3-be4-10" data-edge-id="be3-be4-10" data-edge-from="be3" data-edge-to="be4"><defs>
      <marker id="arrow-standard-be3-be4" markerWidth="10" markerHeight="10" refX="9" refY="3" orient="auto" markerUnits="strokeWidth">
        <polygon points="0,0 0,6 9,3" fill="#48677e" />
      </marker></defs><path d="M 405.4 325.20000000000005 L 405.4 365.20000000000005 L 422.4 365.20000000000005 L 422.4 405.2" fill="none" stroke="transparent" stroke-width="20" pointer-events="stroke" class="edge-hit-area" /><path d="M 405.4 325.20000000000005 L 405.4 365.20000000000005 L 422.4 365.20000000000005 L 422.4 405.2" fill="none" stroke="#48677e" stroke-width="1" marker-end="url(#arrow-standard-be3-be4)" pointer-events="none" /></g><g data-runiq-edge="be4-be5-11" data-edge-id="be4-be5-11" data-edge-from="be4" data-edge-to="be5"><defs>
      <marker id="arrow-standard-be4-be5" markerWidth="10" markerHeight="10" refX="9" refY="3" orient="auto" markerUnits="strokeWidth">
        <polygon points="0,0 0,6 9,3" fill="#48677e" />
      </marker></defs><path d="M 422.4 462.8 L 422.4 502.79999999999995 L 422.59999999999997 502.79999999999995 L 422.59999999999997 542.8" fill="none" stroke="transparent" stroke-width="20" pointer-events="stroke" class="edge-hit-area" /><path d="M 422.4 462.8 L 422.4 502.79999999999995 L 422.59999999999997 502.79999999999995 L 422.59999999999997 542.8" fill="none" stroke="#48677e" stroke-width="1" marker-end="url(#arrow-standard-be4-be5)" pointer-events="none" /></g><g data-runiq-edge="be5-be6-12" data-edge-id="be5-be6-12" data-edge-from="be5" data-edge-to="be6"><defs>
      <marker id="arrow-standard-be5-be6" markerWidth="10" markerHeight="10" refX="9" refY="3" orient="auto" markerUnits="strokeWidth">
        <polygon points="0,0 0,6 9,3" fill="#48677e" />
      </marker></defs><path d="M 422.59999999999997 600.4 L 422.59999999999997 640.4 L 422.4 640.4 L 422.4 680.4" fill="none" stroke="transparent" stroke-width="20" pointer-events="stroke" class="edge-hit-area" /><path d="M 422.59999999999997 600.4 L 422.59999999999997 640.4 L 422.4 640.4 L 422.4 680.4" fill="none" stroke="#48677e" stroke-width="1" marker-end="url(#arrow-standard-be5-be6)" pointer-events="none" /></g><g data-runiq-edge="be6-be7-14" data-edge-id="be6-be7-14" data-edge-from="be6" data-edge-to="be7"><defs>
      <marker id="arrow-standard-be6-be7" markerWidth="10" markerHeight="10" refX="9" refY="3" orient="auto" markerUnits="strokeWidth">
        <polygon points="0,0 0,6 9,3" fill="#48677e" />
      </marker></defs><path d="M 422.4 740.4 L 422.4 780.4 L 405.4 780.4 L 405.4 820.4" fill="none" stroke="transparent" stroke-width="20" pointer-events="stroke" class="edge-hit-area" /><path d="M 422.4 740.4 L 422.4 780.4 L 405.4 780.4 L 405.4 820.4" fill="none" stroke="#48677e" stroke-width="1" marker-end="url(#arrow-standard-be6-be7)" pointer-events="none" /><text x="405.4" y="780.4" text-anchor="middle" dominant-baseline="middle" class="runiq-edge-text">fail</text></g><g data-runiq-edge="be7-be3-15" data-edge-id="be7-be3-15" data-edge-from="be7" data-edge-to="be3"><defs>
      <marker id="arrow-standard-be7-be3" markerWidth="10" markerHeight="10" refX="9" refY="3" orient="auto" markerUnits="strokeWidth">
        <polygon points="0,0 0,6 9,3" fill="#48677e" />
      </marker></defs><path d="M 405.4 820.4 L 405.4 775.4 L 328.4 775.4 L 328.4 710.4 L 328.4 571.6 L 328.4 434 L 328.4 360.2 L 388.4 360.2 L 405.4 325.20000000000005" fill="none" stroke="transparent" stroke-width="20" pointer-events="stroke" class="edge-hit-area" /><path d="M 405.4 820.4 L 405.4 775.4 L 328.4 775.4 L 328.4 710.4 L 328.4 571.6 L 328.4 434 L 328.4 360.2 L 388.4 360.2 L 405.4 325.20000000000005" fill="none" stroke="#48677e" stroke-width="1" marker-end="url(#arrow-standard-be7-be3)" pointer-events="none" /></g><g data-runiq-edge="ops1-ops2-16" data-edge-id="ops1-ops2-16" data-edge-from="ops1" data-edge-to="ops2"><defs>
      <marker id="arrow-standard-ops1-ops2" markerWidth="10" markerHeight="10" refX="9" refY="3" orient="auto" markerUnits="strokeWidth">
        <polygon points="0,0 0,6 9,3" fill="#48677e" />
      </marker></defs><path d="M 678.8 89.6 L 678.8 129.6 L 678.8 129.6 L 678.8 169.6" fill="none" stroke="transparent" stroke-width="20" pointer-events="stroke" class="edge-hit-area" /><path d="M 678.8 89.6 L 678.8 129.6 L 678.8 129.6 L 678.8 169.6" fill="none" stroke="#48677e" stroke-width="1" marker-end="url(#arrow-standard-ops1-ops2)" pointer-events="none" /></g><g data-runiq-edge="ops2-ops3-17" data-edge-id="ops2-ops3-17" data-edge-from="ops2" data-edge-to="ops3"><defs>
      <marker id="arrow-standard-ops2-ops3" markerWidth="10" markerHeight="10" refX="9" refY="3" orient="auto" markerUnits="strokeWidth">
        <polygon points="0,0 0,6 9,3" fill="#48677e" />
      </marker></defs><path d="M 678.8 227.2 L 678.8 267.2 L 678.8 267.2 L 678.8 307.2" fill="none" stroke="transparent" stroke-width="20" pointer-events="stroke" class="edge-hit-area" /><path d="M 678.8 227.2 L 678.8 267.2 L 678.8 267.2 L 678.8 307.2" fill="none" stroke="#48677e" stroke-width="1" marker-end="url(#arrow-standard-ops2-ops3)" pointer-events="none" /></g><g data-runiq-edge="ops3-ops4-18" data-edge-id="ops3-ops4-18" data-edge-from="ops3" data-edge-to="ops4"><defs>
      <marker id="arrow-standard-ops3-ops4" markerWidth="10" markerHeight="10" refX="9" refY="3" orient="auto" markerUnits="strokeWidth">
        <polygon points="0,0 0,6 9,3" fill="#48677e" />
      </marker></defs><path d="M 678.8 364.8 L 678.8 404.8 L 678.8 404.8 L 678.8 444.8" fill="none" stroke="transparent" stroke-width="20" pointer-events="stroke" class="edge-hit-area" /><path d="M 678.8 364.8 L 678.8 404.8 L 678.8 404.8 L 678.8 444.8" fill="none" stroke="#48677e" stroke-width="1" marker-end="url(#arrow-standard-ops3-ops4)" pointer-events="none" /></g><g data-runiq-edge="ops4-ops5-19" data-edge-id="ops4-ops5-19" data-edge-from="ops4" data-edge-to="ops5"><defs>
      <marker id="arrow-standard-ops4-ops5" markerWidth="10" markerHeight="10" refX="9" refY="3" orient="auto" markerUnits="strokeWidth">
        <polygon points="0,0 0,6 9,3" fill="#48677e" />
      </marker></defs><path d="M 678.8 504.8 L 678.8 544.8 L 678.8 544.8 L 678.8 584.8" fill="none" stroke="transparent" stroke-width="20" pointer-events="stroke" class="edge-hit-area" /><path d="M 678.8 504.8 L 678.8 544.8 L 678.8 544.8 L 678.8 584.8" fill="none" stroke="#48677e" stroke-width="1" marker-end="url(#arrow-standard-ops4-ops5)" pointer-events="none" /><text x="678.8" y="544.8" text-anchor="middle" dominant-baseline="middle" class="runiq-edge-text">pass</text></g><g data-runiq-edge="ops5-ops6-21" data-edge-id="ops5-ops6-21" data-edge-from="ops5" data-edge-to="ops6"><defs>
      <marker id="arrow-standard-ops5-ops6" markerWidth="10" markerHeight="10" refX="9" refY="3" orient="auto" markerUnits="strokeWidth">
        <polygon points="0,0 0,6 9,3" fill="#48677e" />
      </marker></defs><path d="M 678.8 642.4 L 678.8 682.4 L 678.8 682.4 L 678.8 722.4" fill="none" stroke="transparent" stroke-width="20" pointer-events="stroke" class="edge-hit-area" /><path d="M 678.8 642.4 L 678.8 682.4 L 678.8 682.4 L 678.8 722.4" fill="none" stroke="#48677e" stroke-width="1" marker-end="url(#arrow-standard-ops5-ops6)" pointer-events="none" /></g><g data-runiq-edge="fe6-ops1" data-edge-id="fe6-ops1" data-edge-from="fe6" data-edge-to="ops1"><defs>
      <marker id="arrow-standard-fe6-ops1" markerWidth="10" markerHeight="10" refX="9" refY="3" orient="auto" markerUnits="strokeWidth">
        <polygon points="0,0 0,6 9,3" fill="#48677e" />
      </marker></defs><path d="M 126 680.4 L 126 385.59999999999997 L 678.8 385.59999999999997 L 678.8 32" fill="none" stroke="transparent" stroke-width="20" pointer-events="stroke" class="edge-hit-area" /><path d="M 126 680.4 L 126 385.59999999999997 L 678.8 385.59999999999997 L 678.8 32" fill="none" stroke="#48677e" stroke-width="1" marker-end="url(#arrow-standard-fe6-ops1)" pointer-events="none" /><text x="678.8" y="385.59999999999997" text-anchor="middle" dominant-baseline="middle" class="runiq-edge-text">pass</text></g><g data-runiq-edge="be6-ops1" data-edge-id="be6-ops1" data-edge-from="be6" data-edge-to="ops1"><defs>
      <marker id="arrow-standard-be6-ops1" markerWidth="10" markerHeight="10" refX="9" refY="3" orient="auto" markerUnits="strokeWidth">
        <polygon points="0,0 0,6 9,3" fill="#48677e" />
      </marker></defs><path d="M 422.4 680.4 L 422.4 385.59999999999997 L 678.8 385.59999999999997 L 678.8 32" fill="none" stroke="transparent" stroke-width="20" pointer-events="stroke" class="edge-hit-area" /><path d="M 422.4 680.4 L 422.4 385.59999999999997 L 678.8 385.59999999999997 L 678.8 32" fill="none" stroke="#48677e" stroke-width="1" marker-end="url(#arrow-standard-be6-ops1)" pointer-events="none" /><text x="678.8" y="385.59999999999997" text-anchor="middle" dominant-baseline="middle" class="runiq-edge-text">pass</text></g><g data-runiq-edge="ops4-fe7" data-edge-id="ops4-fe7" data-edge-from="ops4" data-edge-to="fe7"><defs>
      <marker id="arrow-standard-ops4-fe7" markerWidth="10" markerHeight="10" refX="9" refY="3" orient="auto" markerUnits="strokeWidth">
        <polygon points="0,0 0,6 9,3" fill="#48677e" />
      </marker></defs><path d="M 678.8 444.8 L 678.8 662 L 109 662 L 109 820.4" fill="none" stroke="transparent" stroke-width="20" pointer-events="stroke" class="edge-hit-area" /><path d="M 678.8 444.8 L 678.8 662 L 109 662 L 109 820.4" fill="none" stroke="#48677e" stroke-width="1" marker-end="url(#arrow-standard-ops4-fe7)" pointer-events="none" /><text x="109" y="662" text-anchor="middle" dominant-baseline="middle" class="runiq-edge-text">fail</text></g><g data-runiq-node="fe1" data-node-id="fe1" data-node-shape="initialState"><g class="initial-state-shape"><circle cx="108" cy="41" r="9" fill="#000000" stroke="none" /></g></g><g data-runiq-node="fe2" data-node-id="fe2" data-node-shape="activity"><g class="activity-shape"><rect x="58" y="130" width="100" height="57.6" rx="10" ry="10" fill="#73a3bf" stroke="#48677e" stroke-width="1" /><text text-anchor="middle" font-family="sans-serif" font-size="14" fill="#48677e"><tspan x="108" y="150.4">Design</tspan><tspan x="108" y="167.20000000000002">UI/UX</tspan></text></g></g><g data-runiq-node="fe3" data-node-id="fe3" data-node-shape="activity"><g class="activity-shape"><rect x="54" y="267.6" width="108" height="57.6" rx="10" ry="10" fill="#96bacf" stroke="#48677e" stroke-width="1" /><text text-anchor="middle" font-family="sans-serif" font-size="14" fill="#48677e"><tspan x="108" y="288.00000000000006">Implement</tspan><tspan x="108" y="304.80000000000007">Components</tspan></text></g></g><g data-runiq-node="fe4" data-node-id="fe4" data-node-shape="activity"><g class="activity-shape"><rect x="76" y="405.2" width="100" height="57.6" rx="10" ry="10" fill="#48677e" stroke="#48677e" stroke-width="1" /><text text-anchor="middle" font-family="sans-serif" font-size="14" fill="#48677e"><tspan x="126" y="425.6">Unit</tspan><tspan x="126" y="442.40000000000003">Tests</tspan></text></g></g><g data-runiq-node="fe5" data-node-id="fe5" data-node-shape="activity"><g class="activity-shape"><rect x="68" y="542.8" width="116.4" height="57.6" rx="10" ry="10" fill="#364d5f" stroke="#48677e" stroke-width="1" /><text text-anchor="middle" font-family="sans-serif" font-size="14" fill="#48677e"><tspan x="126.2" y="563.1999999999999">Integration</tspan><tspan x="126.2" y="579.9999999999999">Test</tspan></text></g></g><g data-runiq-node="fe6" data-node-id="fe6" data-node-shape="diamond">
      <polygon points="126,680.4 166,710.4 126,740.4 86,710.4"
               fill="#5a819e" stroke="#48677e" stroke-width="1" />
      
      <text x="126" y="710.4" 
      text-anchor="middle" 
      dominant-baseline="middle"
      font-family="sans-serif" 
      font-size="14"
      fill="#FFFFFF">
      fe6
    </text>
    </g><g data-runiq-node="fe7" data-node-id="fe7" data-node-shape="activity"><g class="activity-shape"><rect x="59" y="820.4" width="100" height="57.6" rx="10" ry="10" fill="#73a3bf" stroke="#48677e" stroke-width="1" /><text text-anchor="middle" font-family="sans-serif" font-size="14" fill="#48677e"><tspan x="109" y="840.8">Fix</tspan><tspan x="109" y="857.5999999999999">Bugs</tspan></text></g></g><g data-runiq-node="be1" data-node-id="be1" data-node-shape="initialState"><g class="initial-state-shape"><circle cx="405.4" cy="41" r="9" fill="#000000" stroke="none" /></g></g><g data-runiq-node="be2" data-node-id="be2" data-node-shape="activity"><g class="activity-shape"><rect x="355.4" y="130" width="100" height="57.6" rx="10" ry="10" fill="#48677e" stroke="#48677e" stroke-width="1" /><text text-anchor="middle" font-family="sans-serif" font-size="14" fill="#48677e"><tspan x="405.4" y="150.4">API</tspan><tspan x="405.4" y="167.20000000000002">Design</tspan></text></g></g><g data-runiq-node="be3" data-node-id="be3" data-node-shape="activity"><g class="activity-shape"><rect x="355.4" y="267.6" width="100" height="57.6" rx="10" ry="10" fill="#364d5f" stroke="#48677e" stroke-width="1" /><text text-anchor="middle" font-family="sans-serif" font-size="14" fill="#48677e"><tspan x="405.4" y="288.00000000000006">Implement</tspan><tspan x="405.4" y="304.80000000000007">Endpoints</tspan></text></g></g><g data-runiq-node="be4" data-node-id="be4" data-node-shape="activity"><g class="activity-shape"><rect x="372.4" y="405.2" width="100" height="57.6" rx="10" ry="10" fill="#5a819e" stroke="#48677e" stroke-width="1" /><text text-anchor="middle" font-family="sans-serif" font-size="14" fill="#48677e"><tspan x="422.4" y="425.6">Unit</tspan><tspan x="422.4" y="442.40000000000003">Tests</tspan></text></g></g><g data-runiq-node="be5" data-node-id="be5" data-node-shape="activity"><g class="activity-shape"><rect x="364.4" y="542.8" width="116.4" height="57.6" rx="10" ry="10" fill="#73a3bf" stroke="#48677e" stroke-width="1" /><text text-anchor="middle" font-family="sans-serif" font-size="14" fill="#48677e"><tspan x="422.59999999999997" y="563.1999999999999">Integration</tspan><tspan x="422.59999999999997" y="579.9999999999999">Test</tspan></text></g></g><g data-runiq-node="be6" data-node-id="be6" data-node-shape="diamond">
      <polygon points="422.4,680.4 462.4,710.4 422.4,740.4 382.4,710.4"
               fill="#96bacf" stroke="#48677e" stroke-width="1" />
      
      <text x="422.4" y="710.4" 
      text-anchor="middle" 
      dominant-baseline="middle"
      font-family="sans-serif" 
      font-size="14"
      fill="#FFFFFF">
      be6
    </text>
    </g><g data-runiq-node="be7" data-node-id="be7" data-node-shape="activity"><g class="activity-shape"><rect x="355.4" y="820.4" width="100" height="57.6" rx="10" ry="10" fill="#48677e" stroke="#48677e" stroke-width="1" /><text text-anchor="middle" font-family="sans-serif" font-size="14" fill="#48677e"><tspan x="405.4" y="840.8">Fix</tspan><tspan x="405.4" y="857.5999999999999">Bugs</tspan></text></g></g><g data-runiq-node="ops1" data-node-id="ops1" data-node-shape="activity"><g class="activity-shape"><rect x="628.8" y="32" width="100" height="57.6" rx="10" ry="10" fill="#364d5f" stroke="#48677e" stroke-width="1" /><text text-anchor="middle" font-family="sans-serif" font-size="14" fill="#48677e"><tspan x="678.8" y="52.4">Merge</tspan><tspan x="678.8" y="69.2">Code</tspan></text></g></g><g data-runiq-node="ops2" data-node-id="ops2" data-node-shape="activity"><g class="activity-shape"><rect x="628.8" y="169.6" width="100" height="57.6" rx="10" ry="10" fill="#5a819e" stroke="#48677e" stroke-width="1" /><text text-anchor="middle" font-family="sans-serif" font-size="14" fill="#48677e"><tspan x="678.8" y="190">Deploy</tspan><tspan x="678.8" y="206.8">Staging</tspan></text></g></g><g data-runiq-node="ops3" data-node-id="ops3" data-node-shape="activity"><g class="activity-shape"><rect x="628.8" y="307.2" width="100" height="57.6" rx="10" ry="10" fill="#73a3bf" stroke="#48677e" stroke-width="1" /><text text-anchor="middle" font-family="sans-serif" font-size="14" fill="#48677e"><tspan x="678.8" y="327.6">Run E2E</tspan><tspan x="678.8" y="344.40000000000003">Tests</tspan></text></g></g><g data-runiq-node="ops4" data-node-id="ops4" data-node-shape="diamond">
      <polygon points="678.8,444.8 718.8,474.8 678.8,504.8 638.8,474.8"
               fill="#96bacf" stroke="#48677e" stroke-width="1" />
      
      <text x="678.8" y="474.8" 
      text-anchor="middle" 
      dominant-baseline="middle"
      font-family="sans-serif" 
      font-size="14"
      fill="#FFFFFF">
      ops4
    </text>
    </g><g data-runiq-node="ops5" data-node-id="ops5" data-node-shape="activity"><g class="activity-shape"><rect x="624.8" y="584.8" width="108" height="57.6" rx="10" ry="10" fill="#48677e" stroke="#48677e" stroke-width="1" /><text text-anchor="middle" font-family="sans-serif" font-size="14" fill="#48677e"><tspan x="678.8" y="605.1999999999999">Deploy</tspan><tspan x="678.8" y="621.9999999999999">Production</tspan></text></g></g><g data-runiq-node="ops6" data-node-id="ops6" data-node-shape="finalState"><g class="final-state-shape"><circle cx="678.8" cy="733.4" r="11" fill="none" stroke="#48677e" stroke-width="1.5" /><circle cx="678.8" cy="733.4" r="6.050000000000001" fill="#000000" stroke="none" /></g></g></svg>