<svg xmlns="http://www.w3.org/2000/svg" width="1200" height="1045" viewBox="0 0 1200 1045">
		<defs>
			<style>
				.pid-equipment { stroke: #000; stroke-width: 2; fill: none; }
				.pid-equipment-filled { stroke: #000; stroke-width: 2; fill: #fff; }
				.pid-line { stroke: #000; stroke-width: 2; fill: none; }
				.pid-line-signal { stroke: #000; stroke-width: 1.5; fill: none; stroke-dasharray: 5,5; }
				.pid-line-electrical { stroke: #000; stroke-width: 2; fill: none; stroke-dasharray: 2,2; }
				.pid-line-utility { stroke: #0066cc; stroke-width: 2; fill: none; }
				.pid-instrument { stroke: #000; stroke-width: 2; fill: #fff; }
				.pid-tag { font-family: Arial, sans-serif; font-size: 12px; fill: #000; text-anchor: middle; }
				.pid-property { font-family: Arial, sans-serif; font-size: 10px; fill: #666; text-anchor: middle; }
				.pid-loop { font-family: Arial, sans-serif; font-size: 10px; fill: #0066cc; text-anchor: middle; }
			</style>
		</defs>
		<rect width="1200" height="1045" fill="#fff"/>
		<g class="pid-lines-group"><line x1="100" y1="100" x2="400" y2="100" class="pid-line"/><text class="pid-property" x="250" y="95">6"</text><line x1="400" y1="100" x2="550" y2="100" class="pid-line"/><text class="pid-property" x="475" y="95">6"</text><line x1="550" y1="100" x2="700" y2="100" class="pid-line"/><text class="pid-property" x="625" y="95">4"</text><line x1="700" y1="100" x2="100" y2="100" class="pid-line"/><text class="pid-property" x="400" y="95">3"</text><line x1="550" y1="100" x2="850" y2="100" class="pid-line"/><text class="pid-property" x="700" y="95">3"</text><line x1="850" y1="100" x2="250" y2="250" class="pid-line"/><text class="pid-property" x="550" y="170">3"</text><line x1="100" y1="100" x2="250" y2="100" class="pid-line"/><text class="pid-property" x="175" y="95">6"</text><line x1="250" y1="100" x2="100" y2="100" class="pid-line"/><text class="pid-property" x="175" y="95">6"</text><line x1="100" y1="100" x2="100" y2="250" class="pid-line"/><text class="pid-property" x="100" y="170">4"</text><line x1="100" y1="250" x2="400" y2="250" class="pid-line"/><text class="pid-property" x="250" y="245">4"</text><line x1="100" y1="550" x2="700" y2="550" class="pid-line-signal"/><line x1="550" y1="550" x2="850" y2="550" class="pid-line-signal"/><line x1="100" y1="700" x2="250" y2="700" class="pid-line-signal"/><line x1="250" y1="700" x2="550" y2="250" class="pid-line-signal"/><line x1="400" y1="700" x2="550" y2="700" class="pid-line-signal"/><line x1="550" y1="700" x2="250" y2="250" class="pid-line-signal"/><line x1="700" y1="700" x2="850" y2="700" class="pid-line-signal"/><line x1="850" y1="700" x2="400" y2="250" class="pid-line-signal"/></g><g class="pid-equipment-group"><g transform="translate(100,100)">
      <!-- Column body -->
      <rect x="0" y="0" width="70" height="140" 
        stroke="currentColor" 
        stroke-width="3" 
        fill="none"/>
      <!-- Trays (horizontal lines) -->
      <line x1="5" y1="25" x2="65" y2="25" 
        stroke="currentColor" stroke-width="1"/>
      <line x1="5" y1="45" x2="65" y2="45" 
        stroke="currentColor" stroke-width="1"/>
      <line x1="5" y1="65" x2="65" y2="65" 
        stroke="currentColor" stroke-width="1"/>
      <line x1="5" y1="85" x2="65" y2="85" 
        stroke="currentColor" stroke-width="1"/>
      <line x1="5" y1="105" x2="65" y2="105" 
        stroke="currentColor" stroke-width="1"/>
      <text x="35" y="75" text-anchor="middle" font-size="11" fill="currentColor">C-101</text>
    <text class="pid-tag" x="0" y="-35">C-101</text><text class="pid-property" x="0" y="45">SS316</text></g><g transform="translate(250,100)">
      <!-- Reboiler body (rounded rectangle) -->
      <rect x="0" y="0" width="70" height="70" rx="8" ry="8"
        stroke="currentColor" 
        stroke-width="3" 
        fill="none"/>
      <!-- Heating coils (U-shaped tube) -->
      <path d="M 15,25 L 15,50 Q 15,55 20,55 L 50,55 Q 55,55 55,50 L 55,25" 
        stroke="currentColor" 
        stroke-width="2" 
        fill="none"/>
      <!-- Liquid level indicator -->
      <line x1="5" y1="45" x2="65" y2="45" 
        stroke="currentColor" stroke-width="1.5" stroke-dasharray="5,3"/>
      <text x="35" y="-5" text-anchor="middle" font-size="10" fill="currentColor">E-101</text>
    <text class="pid-tag" x="0" y="-35">E-101</text><text class="pid-property" x="0" y="45">SS316</text></g><g transform="translate(400,100)">
      <!-- Outer shell -->
      <rect x="0" y="0" width="80" height="60" 
        stroke="currentColor" 
        stroke-width="3" 
        fill="none"/>
      <!-- Inner tubes (horizontal lines) -->
      <line x1="10" y1="15" x2="70" y2="15" 
        stroke="currentColor" stroke-width="1.5"/>
      <line x1="10" y1="25" x2="70" y2="25" 
        stroke="currentColor" stroke-width="1.5"/>
      <line x1="10" y1="35" x2="70" y2="35" 
        stroke="currentColor" stroke-width="1.5"/>
      <line x1="10" y1="45" x2="70" y2="45" 
        stroke="currentColor" stroke-width="1.5"/>
      <!-- Liquid collection at bottom -->
      <path d="M 5,55 Q 40,58 75,55" 
        stroke="currentColor" stroke-width="2" fill="none"/>
      <text x="40" y="35" text-anchor="middle" font-size="10" fill="currentColor">E-102</text>
    <text class="pid-tag" x="0" y="-35">E-102</text><text class="pid-property" x="0" y="45">SS316</text></g><g transform="translate(550,100)">
      <!-- Drum body (horizontal cylinder) -->
      <rect x="0" y="0" width="70" height="60" rx="10" ry="10"
        stroke="currentColor" 
        stroke-width="3" 
        fill="none"/>
      <!-- Liquid level -->
      <line x1="5" y1="35" x2="65" y2="35" 
        stroke="currentColor" stroke-width="1.5" stroke-dasharray="5,3"/>
      <text x="35" y="25" text-anchor="middle" font-size="10" fill="currentColor">D-101</text>
    <text class="pid-tag" x="0" y="-35">D-101</text><text class="pid-property" x="0" y="45">2000L, SS316</text></g><g transform="translate(700,100)">
      <!-- Pump body (circle) -->
      <circle cx="25" cy="25" r="20" 
        stroke="currentColor" 
        stroke-width="3" 
        fill="none"/>
      <!-- Impeller indicator -->
      <circle cx="25" cy="25" r="3" fill="currentColor"/>
      <!-- Inlet line -->
      <line x1="0" y1="25" x2="5" y2="25" 
        stroke="currentColor" stroke-width="2"/>
      <!-- Outlet line -->
      <line x1="45" y1="25" x2="50" y2="25" 
        stroke="currentColor" stroke-width="2"/>
      <text x="25" y="60" text-anchor="middle" font-size="10" fill="currentColor">P-101</text>
    <text class="pid-tag" x="0" y="-35">P-101</text><text class="pid-property" x="0" y="45">30m³/h, SS316</text></g><g transform="translate(850,100)">
      <!-- Pump body (circle) -->
      <circle cx="25" cy="25" r="20" 
        stroke="currentColor" 
        stroke-width="3" 
        fill="none"/>
      <!-- Impeller indicator -->
      <circle cx="25" cy="25" r="3" fill="currentColor"/>
      <!-- Inlet line -->
      <line x1="0" y1="25" x2="5" y2="25" 
        stroke="currentColor" stroke-width="2"/>
      <!-- Outlet line -->
      <line x1="45" y1="25" x2="50" y2="25" 
        stroke="currentColor" stroke-width="2"/>
      <text x="25" y="60" text-anchor="middle" font-size="10" fill="currentColor">P-102</text>
    <text class="pid-tag" x="0" y="-35">P-102</text><text class="pid-property" x="0" y="45">20m³/h, SS316</text></g><g transform="translate(100,250)">
      <!-- Pump body (circle) -->
      <circle cx="25" cy="25" r="20" 
        stroke="currentColor" 
        stroke-width="3" 
        fill="none"/>
      <!-- Impeller indicator -->
      <circle cx="25" cy="25" r="3" fill="currentColor"/>
      <!-- Inlet line -->
      <line x1="0" y1="25" x2="5" y2="25" 
        stroke="currentColor" stroke-width="2"/>
      <!-- Outlet line -->
      <line x1="45" y1="25" x2="50" y2="25" 
        stroke="currentColor" stroke-width="2"/>
      <text x="25" y="60" text-anchor="middle" font-size="10" fill="currentColor">P-103</text>
    <text class="pid-tag" x="0" y="-35">P-103</text><text class="pid-property" x="0" y="45">40m³/h, SS316</text></g><g transform="translate(250,250)">
      <!-- Inlet line -->
      <line x1="0" y1="35" x2="5" y2="35" 
        stroke="currentColor" stroke-width="2"/>
      <!-- Valve body -->
      <circle cx="15" cy="35" r="10" 
        stroke="currentColor" 
        stroke-width="2" 
        fill="white"/>
      <!-- Actuator (diamond on top) -->
      <path d="M 15,10 L 23,20 L 15,30 L 7,20 Z" 
        stroke="currentColor" 
        stroke-width="2" 
        fill="white"/>
      <!-- Stem connecting actuator to valve -->
      <line x1="15" y1="30" x2="15" y2="25" 
        stroke="currentColor" stroke-width="2"/>
      <!-- Outlet line -->
      <line x1="25" y1="35" x2="30" y2="35" 
        stroke="currentColor" stroke-width="2"/>
      <text x="15" y="57" text-anchor="middle" font-size="9" fill="currentColor">LCV-401</text>
    <text class="pid-tag" x="0" y="-35">LCV-401</text></g><g transform="translate(400,250)">
      <!-- Inlet line -->
      <line x1="0" y1="35" x2="5" y2="35" 
        stroke="currentColor" stroke-width="2"/>
      <!-- Valve body -->
      <circle cx="15" cy="35" r="10" 
        stroke="currentColor" 
        stroke-width="2" 
        fill="white"/>
      <!-- Actuator (diamond on top) -->
      <path d="M 15,10 L 23,20 L 15,30 L 7,20 Z" 
        stroke="currentColor" 
        stroke-width="2" 
        fill="white"/>
      <!-- Stem connecting actuator to valve -->
      <line x1="15" y1="30" x2="15" y2="25" 
        stroke="currentColor" stroke-width="2"/>
      <!-- Outlet line -->
      <line x1="25" y1="35" x2="30" y2="35" 
        stroke="currentColor" stroke-width="2"/>
      <text x="15" y="57" text-anchor="middle" font-size="9" fill="currentColor">LCV-402</text>
    <text class="pid-tag" x="0" y="-35">LCV-402</text></g><g transform="translate(550,250)">
      <!-- Inlet line -->
      <line x1="0" y1="35" x2="5" y2="35" 
        stroke="currentColor" stroke-width="2"/>
      <!-- Valve body -->
      <circle cx="15" cy="35" r="10" 
        stroke="currentColor" 
        stroke-width="2" 
        fill="white"/>
      <!-- Actuator (diamond on top) -->
      <path d="M 15,10 L 23,20 L 15,30 L 7,20 Z" 
        stroke="currentColor" 
        stroke-width="2" 
        fill="white"/>
      <!-- Stem connecting actuator to valve -->
      <line x1="15" y1="30" x2="15" y2="25" 
        stroke="currentColor" stroke-width="2"/>
      <!-- Outlet line -->
      <line x1="25" y1="35" x2="30" y2="35" 
        stroke="currentColor" stroke-width="2"/>
      <text x="15" y="57" text-anchor="middle" font-size="9" fill="currentColor">PCV-301</text>
    <text class="pid-tag" x="0" y="-35">PCV-301</text></g></g><g class="pid-instruments-group"><g transform="translate(100,550)"><circle cx="0" cy="0" r="25" class="pid-instrument"/><text class="pid-tag" x="0" y="4">TT-201</text><line x1="-5" y1="30" x2="5" y2="30" stroke="#000" stroke-width="2"/></g><g transform="translate(250,550)"><circle cx="0" cy="0" r="25" class="pid-instrument"/><text class="pid-tag" x="0" y="4">TT-202</text><line x1="-5" y1="30" x2="5" y2="30" stroke="#000" stroke-width="2"/></g><g transform="translate(400,550)"><circle cx="0" cy="0" r="25" class="pid-instrument"/><text class="pid-tag" x="0" y="4">TT-203</text><line x1="-5" y1="30" x2="5" y2="30" stroke="#000" stroke-width="2"/></g><g transform="translate(550,550)"><circle cx="0" cy="0" r="25" class="pid-instrument"/><text class="pid-tag" x="0" y="4">TT-204</text><line x1="-5" y1="30" x2="5" y2="30" stroke="#000" stroke-width="2"/></g><g transform="translate(700,550)"><circle cx="0" cy="0" r="25" class="pid-instrument"/><text class="pid-tag" x="0" y="4">TIC-201</text><circle cx="0" cy="0" r="28" class="pid-instrument" stroke-dasharray="3,3" fill="none"/></g><g transform="translate(850,550)"><circle cx="0" cy="0" r="25" class="pid-instrument"/><text class="pid-tag" x="0" y="4">TIC-204</text><circle cx="0" cy="0" r="28" class="pid-instrument" stroke-dasharray="3,3" fill="none"/></g><g transform="translate(100,700)"><circle cx="0" cy="0" r="25" class="pid-instrument"/><text class="pid-tag" x="0" y="4">PT-301</text><line x1="-5" y1="30" x2="5" y2="30" stroke="#000" stroke-width="2"/></g><g transform="translate(250,700)"><circle cx="0" cy="0" r="25" class="pid-instrument"/><text class="pid-tag" x="0" y="4">PIC-301</text><circle cx="0" cy="0" r="28" class="pid-instrument" stroke-dasharray="3,3" fill="none"/></g><g transform="translate(400,700)"><circle cx="0" cy="0" r="25" class="pid-instrument"/><text class="pid-tag" x="0" y="4">LT-401</text><line x1="-5" y1="30" x2="5" y2="30" stroke="#000" stroke-width="2"/></g><g transform="translate(550,700)"><circle cx="0" cy="0" r="25" class="pid-instrument"/><text class="pid-tag" x="0" y="4">LIC-401</text><circle cx="0" cy="0" r="28" class="pid-instrument" stroke-dasharray="3,3" fill="none"/></g><g transform="translate(700,700)"><circle cx="0" cy="0" r="25" class="pid-instrument"/><text class="pid-tag" x="0" y="4">LT-402</text><line x1="-5" y1="30" x2="5" y2="30" stroke="#000" stroke-width="2"/></g><g transform="translate(850,700)"><circle cx="0" cy="0" r="25" class="pid-instrument"/><text class="pid-tag" x="0" y="4">LIC-402</text><circle cx="0" cy="0" r="28" class="pid-instrument" stroke-dasharray="3,3" fill="none"/></g><g transform="translate(100,850)"><circle cx="0" cy="0" r="25" class="pid-instrument"/><text class="pid-tag" x="0" y="4">FT-101</text><line x1="-5" y1="30" x2="5" y2="30" stroke="#000" stroke-width="2"/></g><g transform="translate(250,850)"><circle cx="0" cy="0" r="25" class="pid-instrument"/><text class="pid-tag" x="0" y="4">FT-102</text><line x1="-5" y1="30" x2="5" y2="30" stroke="#000" stroke-width="2"/></g><g transform="translate(400,850)"><circle cx="0" cy="0" r="25" class="pid-instrument"/><text class="pid-tag" x="0" y="4">FT-103</text><line x1="-5" y1="30" x2="5" y2="30" stroke="#000" stroke-width="2"/></g></g><g class="pid-loops-group"><text class="pid-loop" x="700" y="590">Loop 201</text><text class="pid-property" x="700" y="602">temperature: 180 degC</text><text class="pid-loop" x="850" y="590">Loop 204</text><text class="pid-property" x="850" y="602">temperature: 220 degC</text><text class="pid-loop" x="250" y="740">Loop 301</text><text class="pid-property" x="250" y="752">pressure: 2.5 bar</text><text class="pid-loop" x="550" y="740">Loop 401</text><text class="pid-property" x="550" y="752">level: 50 %</text><text class="pid-loop" x="850" y="740">Loop 402</text><text class="pid-property" x="850" y="752">level: 50 %</text></g>
	</svg>