<svg xmlns="http://www.w3.org/2000/svg" xmlns:xlink="http://www.w3.org/1999/xlink" 
    width="1882" height="128" 
    viewBox="0 0 1882 128"
    role="img" aria-labelledby="diagram-title" data-id="runiq-diagram">
<title id="diagram-title">Four-Bar Linkage</title><defs><style type="text/css"><![CDATA[.runiq-node-text { font-family: sans-serif; font-size: 14px; }.runiq-edge-text { font-family: sans-serif; font-size: 12px; }.runiq-container-label { font-family: sans-serif; font-size: 16px; font-weight: bold; fill: #666; }]]></style><pattern id="pedigree-half-fill" width="40" height="40" patternUnits="userSpaceOnUse"><rect x="0" y="0" width="20" height="40" fill="#000"/><rect x="20" y="0" width="20" height="40" fill="#fff"/></pattern></defs><g data-runiq-node="Ground" data-node-id="Ground" data-node-shape="groundLink">
      <rect x="722" y="48" width="140" height="60"
        fill="#5a819e" stroke="#48677e" stroke-width="1" />
      <line x1="745.3333333333334" y1="90" x2="736" y2="102" stroke="#48677e" stroke-width="1" />
<line x1="768.6666666666666" y1="90" x2="759.3333333333333" y2="102" stroke="#48677e" stroke-width="1" />
<line x1="792" y1="90" x2="782.6666666666666" y2="102" stroke="#48677e" stroke-width="1" />
<line x1="815.3333333333334" y1="90" x2="806" y2="102" stroke="#48677e" stroke-width="1" />
<line x1="838.6666666666666" y1="90" x2="829.3333333333333" y2="102" stroke="#48677e" stroke-width="1" />
      <text x="792" y="78" 
      text-anchor="middle" 
      dominant-baseline="middle"
      font-family="sans-serif" 
      font-size="14"
      fill="#ffffff">
      Ground
    </text>
    </g><g data-runiq-node="J1" data-node-id="J1" data-node-shape="revoluteJoint">
      <circle cx="1042" cy="78" r="30"
        fill="#73a3bf" stroke="#48677e" stroke-width="1" />
      <circle cx="1042" cy="78" r="3.5999999999999996"
        fill="#48677e" />
      <text x="1042" y="78" 
      text-anchor="middle" 
      dominant-baseline="middle"
      font-family="sans-serif" 
      font-size="14"
      fill="#ffffff">
      J1
    </text>
    </g><g data-runiq-node="L1" data-node-id="L1" data-node-shape="binaryLink">
      <rect x="1222" y="53" width="140" height="50"
        rx="12.5" ry="12.5"
        fill="#96bacf" stroke="#48677e" stroke-width="1" />
      <circle cx="1242" cy="78" r="15"
        fill="#fff" stroke="#48677e" stroke-width="1" />
      <circle cx="1342" cy="78" r="15"
        fill="#fff" stroke="#48677e" stroke-width="1" />
      <text x="1292" y="78" 
      text-anchor="middle" 
      dominant-baseline="middle"
      font-family="sans-serif" 
      font-size="14"
      fill="#0f172a">
      Crank
    </text>
    </g><g data-runiq-node="J2" data-node-id="J2" data-node-shape="revoluteJoint">
      <circle cx="1542" cy="78" r="30"
        fill="#73a3bf" stroke="#48677e" stroke-width="1" />
      <circle cx="1542" cy="78" r="3.5999999999999996"
        fill="#48677e" />
      <text x="1542" y="78" 
      text-anchor="middle" 
      dominant-baseline="middle"
      font-family="sans-serif" 
      font-size="14"
      fill="#ffffff">
      J2
    </text>
    </g><g data-runiq-node="L2" data-node-id="L2" data-node-shape="binaryLink">
      <rect x="1722" y="45" width="140" height="50"
        rx="12.5" ry="12.5"
        fill="#96bacf" stroke="#48677e" stroke-width="1" />
      <circle cx="1742" cy="70" r="15"
        fill="#fff" stroke="#48677e" stroke-width="1" />
      <circle cx="1842" cy="70" r="15"
        fill="#fff" stroke="#48677e" stroke-width="1" />
      <text x="1792" y="70" 
      text-anchor="middle" 
      dominant-baseline="middle"
      font-family="sans-serif" 
      font-size="14"
      fill="#0f172a">
      Coupler
    </text>
    </g><g data-runiq-node="J3" data-node-id="J3" data-node-shape="revoluteJoint">
      <circle cx="42" cy="68" r="30"
        fill="#73a3bf" stroke="#48677e" stroke-width="1" />
      <circle cx="42" cy="68" r="3.5999999999999996"
        fill="#48677e" />
      <text x="42" y="68" 
      text-anchor="middle" 
      dominant-baseline="middle"
      font-family="sans-serif" 
      font-size="14"
      fill="#ffffff">
      J3
    </text>
    </g><g data-runiq-node="L3" data-node-id="L3" data-node-shape="binaryLink">
      <rect x="222" y="53" width="140" height="50"
        rx="12.5" ry="12.5"
        fill="#96bacf" stroke="#48677e" stroke-width="1" />
      <circle cx="242" cy="78" r="15"
        fill="#fff" stroke="#48677e" stroke-width="1" />
      <circle cx="342" cy="78" r="15"
        fill="#fff" stroke="#48677e" stroke-width="1" />
      <text x="292" y="78" 
      text-anchor="middle" 
      dominant-baseline="middle"
      font-family="sans-serif" 
      font-size="14"
      fill="#0f172a">
      Rocker
    </text>
    </g><g data-runiq-node="J4" data-node-id="J4" data-node-shape="revoluteJoint">
      <circle cx="542" cy="78" r="30"
        fill="#73a3bf" stroke="#48677e" stroke-width="1" />
      <circle cx="542" cy="78" r="3.5999999999999996"
        fill="#48677e" />
      <text x="542" y="78" 
      text-anchor="middle" 
      dominant-baseline="middle"
      font-family="sans-serif" 
      font-size="14"
      fill="#ffffff">
      J4
    </text>
    </g><g data-runiq-edge="Ground-J1-0" data-edge-id="Ground-J1-0" data-edge-from="Ground" data-edge-to="J1"><defs>
      <marker id="arrow-standard-Ground-J1" markerWidth="10" markerHeight="10" refX="9" refY="3" orient="auto" markerUnits="strokeWidth">
        <polygon points="0,0 0,6 9,3" fill="#48677e" />
      </marker></defs><path d="M 862 78 L 937 78 L 937 78 L 1012 78" fill="none" stroke="transparent" stroke-width="20" pointer-events="stroke" class="edge-hit-area" /><path d="M 862 78 L 937 78 L 937 78 L 1012 78" fill="none" stroke="#48677e" stroke-width="1" marker-end="url(#arrow-standard-Ground-J1)" pointer-events="none" /></g><g data-runiq-edge="J1-L1-1" data-edge-id="J1-L1-1" data-edge-from="J1" data-edge-to="L1"><defs>
      <marker id="arrow-standard-J1-L1" markerWidth="10" markerHeight="10" refX="9" refY="3" orient="auto" markerUnits="strokeWidth">
        <polygon points="0,0 0,6 9,3" fill="#48677e" />
      </marker></defs><path d="M 1072 78 L 1147 78 L 1147 78 L 1222 78" fill="none" stroke="transparent" stroke-width="20" pointer-events="stroke" class="edge-hit-area" /><path d="M 1072 78 L 1147 78 L 1147 78 L 1222 78" fill="none" stroke="#48677e" stroke-width="1" marker-end="url(#arrow-standard-J1-L1)" pointer-events="none" /></g><g data-runiq-edge="L1-J2-2" data-edge-id="L1-J2-2" data-edge-from="L1" data-edge-to="J2"><defs>
      <marker id="arrow-standard-L1-J2" markerWidth="10" markerHeight="10" refX="9" refY="3" orient="auto" markerUnits="strokeWidth">
        <polygon points="0,0 0,6 9,3" fill="#48677e" />
      </marker></defs><path d="M 1362 78 L 1437 78 L 1437 78 L 1512 78" fill="none" stroke="transparent" stroke-width="20" pointer-events="stroke" class="edge-hit-area" /><path d="M 1362 78 L 1437 78 L 1437 78 L 1512 78" fill="none" stroke="#48677e" stroke-width="1" marker-end="url(#arrow-standard-L1-J2)" pointer-events="none" /></g><g data-runiq-edge="J2-L2-3" data-edge-id="J2-L2-3" data-edge-from="J2" data-edge-to="L2"><defs>
      <marker id="arrow-standard-J2-L2" markerWidth="10" markerHeight="10" refX="9" refY="3" orient="auto" markerUnits="strokeWidth">
        <polygon points="0,0 0,6 9,3" fill="#48677e" />
      </marker></defs><path d="M 1572 78 L 1647 78 L 1647 70 L 1722 70" fill="none" stroke="transparent" stroke-width="20" pointer-events="stroke" class="edge-hit-area" /><path d="M 1572 78 L 1647 78 L 1647 70 L 1722 70" fill="none" stroke="#48677e" stroke-width="1" marker-end="url(#arrow-standard-J2-L2)" pointer-events="none" /></g><g data-runiq-edge="L2-J3-4" data-edge-id="L2-J3-4" data-edge-from="L2" data-edge-to="J3"><defs>
      <marker id="arrow-standard-L2-J3" markerWidth="10" markerHeight="10" refX="9" refY="3" orient="auto" markerUnits="strokeWidth">
        <polygon points="0,0 0,6 9,3" fill="#48677e" />
      </marker></defs><path d="M 1722 70 L 1607 70 L 1607 12 L 1542 12 L 1292 12 L 1042 12 L 792 12 L 542 12 L 292 12 L 107 12 L 107 58 L 72 68" fill="none" stroke="transparent" stroke-width="20" pointer-events="stroke" class="edge-hit-area" /><path d="M 1722 70 L 1607 70 L 1607 12 L 1542 12 L 1292 12 L 1042 12 L 792 12 L 542 12 L 292 12 L 107 12 L 107 58 L 72 68" fill="none" stroke="#48677e" stroke-width="1" marker-end="url(#arrow-standard-L2-J3)" pointer-events="none" /></g><g data-runiq-edge="J3-L3-5" data-edge-id="J3-L3-5" data-edge-from="J3" data-edge-to="L3"><defs>
      <marker id="arrow-standard-J3-L3" markerWidth="10" markerHeight="10" refX="9" refY="3" orient="auto" markerUnits="strokeWidth">
        <polygon points="0,0 0,6 9,3" fill="#48677e" />
      </marker></defs><path d="M 72 68 L 147 68 L 147 78 L 222 78" fill="none" stroke="transparent" stroke-width="20" pointer-events="stroke" class="edge-hit-area" /><path d="M 72 68 L 147 68 L 147 78 L 222 78" fill="none" stroke="#48677e" stroke-width="1" marker-end="url(#arrow-standard-J3-L3)" pointer-events="none" /></g><g data-runiq-edge="L3-J4-6" data-edge-id="L3-J4-6" data-edge-from="L3" data-edge-to="J4"><defs>
      <marker id="arrow-standard-L3-J4" markerWidth="10" markerHeight="10" refX="9" refY="3" orient="auto" markerUnits="strokeWidth">
        <polygon points="0,0 0,6 9,3" fill="#48677e" />
      </marker></defs><path d="M 362 78 L 437 78 L 437 78 L 512 78" fill="none" stroke="transparent" stroke-width="20" pointer-events="stroke" class="edge-hit-area" /><path d="M 362 78 L 437 78 L 437 78 L 512 78" fill="none" stroke="#48677e" stroke-width="1" marker-end="url(#arrow-standard-L3-J4)" pointer-events="none" /></g><g data-runiq-edge="J4-Ground-7" data-edge-id="J4-Ground-7" data-edge-from="J4" data-edge-to="Ground"><defs>
      <marker id="arrow-standard-J4-Ground" markerWidth="10" markerHeight="10" refX="9" refY="3" orient="auto" markerUnits="strokeWidth">
        <polygon points="0,0 0,6 9,3" fill="#48677e" />
      </marker></defs><path d="M 572 78 L 647 78 L 647 78 L 722 78" fill="none" stroke="transparent" stroke-width="20" pointer-events="stroke" class="edge-hit-area" /><path d="M 572 78 L 647 78 L 647 78 L 722 78" fill="none" stroke="#48677e" stroke-width="1" marker-end="url(#arrow-standard-J4-Ground)" pointer-events="none" /></g></svg>