<svg xmlns="http://www.w3.org/2000/svg" xmlns:xlink="http://www.w3.org/1999/xlink" 
    width="724" height="1080" 
    viewBox="0 0 724 1080"
    role="img" aria-labelledby="diagram-title"><title id="diagram-title">Door Lock State Machine</title><defs><style type="text/css"><![CDATA[.runiq-node-text { font-family: sans-serif; font-size: 14px; }.runiq-edge-text { font-family: sans-serif; font-size: 12px; }.runiq-container-label { font-family: sans-serif; font-size: 16px; font-weight: bold; fill: #666; }]]></style><pattern id="pedigree-half-fill" width="40" height="40" patternUnits="userSpaceOnUse"><rect x="0" y="0" width="20" height="40" fill="#000"/><rect x="20" y="0" width="20" height="40" fill="#fff"/></pattern></defs><g data-runiq-edge="start-locked"><defs>
      <marker id="arrow-standard-start-locked" markerWidth="10" markerHeight="10" refX="9" refY="3" orient="auto" markerUnits="strokeWidth">
        <polygon points="0,0 0,6 9,3" fill="#333" />
      </marker></defs><path d="M 695 560 L 695 595 L 503 595 L 453.2 710" fill="none" stroke="#333" stroke-width="1" marker-end="url(#arrow-standard-start-locked)" /></g><g data-runiq-edge="locked-unlocked"><defs>
      <marker id="arrow-standard-locked-unlocked" markerWidth="10" markerHeight="10" refX="9" refY="3" orient="auto" markerUnits="strokeWidth">
        <polygon points="0,0 0,6 9,3" fill="#333" />
      </marker></defs><path d="M 453.2 801 L 453.2 836 L 351 836 L 317.2 951" fill="none" stroke="#333" stroke-width="1" marker-end="url(#arrow-standard-locked-unlocked)" /></g><g data-runiq-edge="unlocked-locked"><defs>
      <marker id="arrow-standard-unlocked-locked" markerWidth="10" markerHeight="10" refX="9" refY="3" orient="auto" markerUnits="strokeWidth">
        <polygon points="0,0 0,6 9,3" fill="#333" />
      </marker></defs><path d="M 417.4 1005.5 L 384 1005.5 L 453 861 L 453.2 801" fill="none" stroke="#333" stroke-width="1" marker-end="url(#arrow-standard-unlocked-locked)" /></g><g data-runiq-edge="unlocked-doorOpen"><defs>
      <marker id="arrow-standard-unlocked-doorOpen" markerWidth="10" markerHeight="10" refX="9" refY="3" orient="auto" markerUnits="strokeWidth">
        <polygon points="0,0 0,6 9,3" fill="#333" />
      </marker></defs><path d="M 317.2 951 L 317.2 755.5 L 284 545 L 284 325.5 L 284 156 L 298 156 L 298 121" fill="none" stroke="#333" stroke-width="1" marker-end="url(#arrow-standard-unlocked-doorOpen)" /></g><g data-runiq-edge="doorOpen-unlocked"><defs>
      <marker id="arrow-standard-doorOpen-unlocked" markerWidth="10" markerHeight="10" refX="9" refY="3" orient="auto" markerUnits="strokeWidth">
        <polygon points="0,0 0,6 9,3" fill="#333" />
      </marker></defs><path d="M 298 121 L 298 325.5 L 250 545 L 250 755.5 L 217 1005.5" fill="none" stroke="#333" stroke-width="1" marker-end="url(#arrow-standard-doorOpen-unlocked)" /></g><g data-runiq-edge="doorOpen-alarm"><defs>
      <marker id="arrow-standard-doorOpen-alarm" markerWidth="10" markerHeight="10" refX="9" refY="3" orient="auto" markerUnits="strokeWidth">
        <polygon points="0,0 0,6 9,3" fill="#333" />
      </marker></defs><path d="M 298 121 L 298 156 L 416 156 L 416 271" fill="none" stroke="#333" stroke-width="1" marker-end="url(#arrow-standard-doorOpen-alarm)" /></g><g data-runiq-edge="alarm-j1"><defs>
      <marker id="arrow-standard-alarm-j1" markerWidth="10" markerHeight="10" refX="9" refY="3" orient="auto" markerUnits="strokeWidth">
        <polygon points="0,0 0,6 9,3" fill="#333" />
      </marker></defs><path d="M 416 380 L 416 415 L 328 415 L 328 539.3333333333334" fill="none" stroke="#333" stroke-width="1" marker-end="url(#arrow-standard-alarm-j1)" /></g><g data-runiq-edge="j1-locked"><defs>
      <marker id="arrow-standard-j1-locked" markerWidth="10" markerHeight="10" refX="9" refY="3" orient="auto" markerUnits="strokeWidth">
        <polygon points="0,0 0,6 9,3" fill="#333" />
      </marker></defs><path d="M 328 555.3333333333334 L 328 595 L 403 595 L 453.2 710" fill="none" stroke="#333" stroke-width="1" marker-end="url(#arrow-standard-j1-locked)" /></g><g data-runiq-edge="j1-unlocked"><defs>
      <marker id="arrow-standard-j1-unlocked" markerWidth="10" markerHeight="10" refX="9" refY="3" orient="auto" markerUnits="strokeWidth">
        <polygon points="0,0 0,6 9,3" fill="#333" />
      </marker></defs><path d="M 328 555.3333333333334 L 328 595 L 317 595 L 317 755.5 L 317.2 951" fill="none" stroke="#333" stroke-width="1" marker-end="url(#arrow-standard-j1-unlocked)" /></g><g data-runiq-edge="alarm-hist"><defs>
      <marker id="arrow-standard-alarm-hist" markerWidth="10" markerHeight="10" refX="9" refY="3" orient="auto" markerUnits="strokeWidth">
        <polygon points="0,0 0,6 9,3" fill="#333" />
      </marker></defs><path d="M 416 380 L 416 415 L 451 415 L 451 530" fill="none" stroke="#333" stroke-width="1" marker-end="url(#arrow-standard-alarm-hist)" /></g><g data-runiq-edge="hist-locked"><defs>
      <marker id="arrow-standard-hist-locked" markerWidth="10" markerHeight="10" refX="9" refY="3" orient="auto" markerUnits="strokeWidth">
        <polygon points="0,0 0,6 9,3" fill="#333" />
      </marker></defs><path d="M 451 560 L 451 595 L 453 595 L 453.2 710" fill="none" stroke="#333" stroke-width="1" marker-end="url(#arrow-standard-hist-locked)" /></g><g data-runiq-edge="alarm-term"><defs>
      <marker id="arrow-standard-alarm-term" markerWidth="10" markerHeight="10" refX="9" refY="3" orient="auto" markerUnits="strokeWidth">
        <polygon points="0,0 0,6 9,3" fill="#333" />
      </marker></defs><path d="M 416 380 L 416 415 L 576 415 L 576 530" fill="none" stroke="#333" stroke-width="1" marker-end="url(#arrow-standard-alarm-term)" /></g><g data-runiq-edge="locked-final"><defs>
      <marker id="arrow-standard-locked-final" markerWidth="10" markerHeight="10" refX="9" refY="3" orient="auto" markerUnits="strokeWidth">
        <polygon points="0,0 0,6 9,3" fill="#333" />
      </marker></defs><path d="M 453.2 801 L 453.2 836 L 529 836 L 529 951" fill="none" stroke="#333" stroke-width="1" marker-end="url(#arrow-standard-locked-final)" /></g><g data-runiq-node="start"><g class="initial-state-shape"><circle cx="695" cy="551" r="9" fill="#000000" stroke="none" /></g></g><g data-runiq-node="locked"><g class="state-shape"><rect x="353" y="710" width="200.4" height="91" rx="10" ry="10" fill="#ffffff" stroke="#000000" stroke-width="1" /><text x="453.2" y="734.6" text-anchor="middle" font-size="14" font-family="Arial" font-weight="bold" fill="#000000">Locked</text><line x1="365" y1="743.6" x2="541.4" y2="743.6" stroke="#000000" stroke-width="1" /><text x="365" y="764.6" font-size="12.6" font-family="Arial" fill="#000000">entry / lockBolt()</text><text x="365" y="782.6" font-size="12.6" font-family="Arial" fill="#000000">exit / logStateExit()</text></g></g><g data-runiq-node="unlocked"><g class="state-shape"><rect x="217" y="951" width="200.4" height="109" rx="10" ry="10" fill="#ffffff" stroke="#000000" stroke-width="1" /><text x="317.2" y="975.6" text-anchor="middle" font-size="14" font-family="Arial" font-weight="bold" fill="#000000">Unlocked</text><line x1="229" y1="984.6" x2="405.4" y2="984.6" stroke="#000000" stroke-width="1" /><text x="229" y="1005.6" font-size="12.6" font-family="Arial" fill="#000000">entry / unlockBolt()</text><text x="229" y="1023.6" font-size="12.6" font-family="Arial" fill="#000000">do / monitorTimeout()</text><text x="229" y="1041.6" font-size="12.6" font-family="Arial" fill="#000000">exit / logStateExit()</text></g></g><g data-runiq-node="doorOpen"><g class="state-shape"><rect x="202" y="12" width="192" height="109" rx="10" ry="10" fill="#ffffff" stroke="#000000" stroke-width="1" /><text x="298" y="36.6" text-anchor="middle" font-size="14" font-family="Arial" font-weight="bold" fill="#000000">Open</text><line x1="214" y1="45.6" x2="382" y2="45.6" stroke="#000000" stroke-width="1" /><text x="214" y="66.6" font-size="12.6" font-family="Arial" fill="#000000">entry / openDoor()</text><text x="214" y="84.6" font-size="12.6" font-family="Arial" fill="#000000">do / playOpenSound()</text><text x="214" y="102.6" font-size="12.6" font-family="Arial" fill="#000000">exit / closeDoor()</text></g></g><g data-runiq-node="alarm"><g class="state-shape"><rect x="320" y="271" width="192" height="109" rx="10" ry="10" fill="#ffffff" stroke="#000000" stroke-width="1" /><text x="416" y="295.6" text-anchor="middle" font-size="14" font-family="Arial" font-weight="bold" fill="#000000">Alarm</text><line x1="332" y1="304.6" x2="500" y2="304.6" stroke="#000000" stroke-width="1" /><text x="332" y="325.6" font-size="12.6" font-family="Arial" fill="#000000">entry / soundAlarm()</text><text x="332" y="343.6" font-size="12.6" font-family="Arial" fill="#000000">do / flashLights()</text><text x="332" y="361.6" font-size="12.6" font-family="Arial" fill="#000000">exit / stopAlarm()</text></g></g><g data-runiq-node="j1"><g class="junction-shape"><circle cx="328" cy="547.3333333333334" r="8" fill="#000000" /></g></g><g data-runiq-node="check"><g class="choice-shape"><path d="M 162 12 L 182 32 L 162 52 L 142 32 Z" fill="#ffffff" stroke="#000000" stroke-width="1" /><text x="162" y="37" text-anchor="middle" font-size="11.200000000000001" font-family="Arial" fill="#000000">Validate?</text></g></g><g data-runiq-node="hist"><g class="historyShallow-shape"><circle cx="451" cy="545" r="15" fill="#ffffff" stroke="#000000" stroke-width="1.5" /><text x="451" y="550" text-anchor="middle" font-size="18" font-family="Arial" font-weight="bold" fill="#000000">H</text></g></g><g data-runiq-node="deepHist"><g class="historyDeep-shape"><circle cx="107" cy="27" r="15" fill="#ffffff" stroke="#000000" stroke-width="1.5" /><text x="107" y="32" text-anchor="middle" font-size="15" font-family="Arial" font-weight="bold" fill="#000000">H*</text></g></g><g data-runiq-node="entry1"><g class="entryPoint-shape"><circle cx="22" cy="22" r="10" fill="#ffffff" stroke="#000000" stroke-width="1.5" /></g></g><g data-runiq-node="exit1"><g class="exitPoint-shape"><circle cx="62" cy="22" r="10" fill="#ffffff" stroke="#000000" stroke-width="1.5" /><line x1="56" y1="16" x2="68" y2="28" stroke="#000000" stroke-width="1.0499999999999998" /><line x1="68" y1="16" x2="56" y2="28" stroke="#000000" stroke-width="1.0499999999999998" /></g></g><g data-runiq-node="term"><g class="terminate-shape"><circle cx="576" cy="540" r="10" fill="#ffffff" stroke="#000000" stroke-width="1.5" /><line x1="569" y1="533" x2="583" y2="547" stroke="#000000" stroke-width="1.5" /><line x1="583" y1="533" x2="569" y2="547" stroke="#000000" stroke-width="1.5" /></g></g><g data-runiq-node="final"><g class="final-state-shape"><circle cx="529" cy="962" r="11" fill="none" stroke="#000000" stroke-width="1.5" /><circle cx="529" cy="962" r="6.050000000000001" fill="#000000" stroke="none" /></g></g></svg>