<svg xmlns="http://www.w3.org/2000/svg" xmlns:xlink="http://www.w3.org/1999/xlink" 
    width="797.8" height="2702" 
    viewBox="0 0 797.8 2702"
    role="img" aria-labelledby="diagram-title"><title id="diagram-title">Order Processing with Gateway Types</title><defs><style type="text/css"><![CDATA[.runiq-node-text { font-family: sans-serif; font-size: 14px; }.runiq-edge-text { font-family: sans-serif; font-size: 12px; }.runiq-container-label { font-family: sans-serif; font-size: 16px; font-weight: bold; fill: #666; }]]></style><pattern id="pedigree-half-fill" width="40" height="40" patternUnits="userSpaceOnUse"><rect x="0" y="0" width="20" height="40" fill="#000"/><rect x="20" y="0" width="20" height="40" fill="#fff"/></pattern></defs><g data-runiq-edge="start-checkPayment"><defs>
      <marker id="arrow-standard-start-checkPayment" markerWidth="10" markerHeight="10" refX="9" refY="3" orient="auto" markerUnits="strokeWidth">
        <polygon points="0,0 0,6 9,3" fill="#333" />
      </marker></defs><path d="M 707 52 L 707 127 L 707 127 L 707 202" fill="none" stroke="#333" stroke-width="1" marker-end="url(#arrow-standard-start-checkPayment)" /></g><g data-runiq-edge="checkPayment-processPayment"><defs>
      <marker id="arrow-standard-checkPayment-processPayment" markerWidth="10" markerHeight="10" refX="9" refY="3" orient="auto" markerUnits="strokeWidth">
        <polygon points="0,0 0,6 9,3" fill="#333" />
      </marker></defs><path d="M 707 252 L 707 287 L 346 287 L 346 402" fill="none" stroke="#333" stroke-width="1" marker-end="url(#arrow-standard-checkPayment-processPayment)" /></g><g data-runiq-edge="checkPayment-rejectOrder"><defs>
      <marker id="arrow-standard-checkPayment-rejectOrder" markerWidth="10" markerHeight="10" refX="9" refY="3" orient="auto" markerUnits="strokeWidth">
        <polygon points="0,0 0,6 9,3" fill="#333" />
      </marker></defs><path d="M 707 252 L 707 432 L 715.4 612" fill="none" stroke="#333" stroke-width="1" marker-end="url(#arrow-standard-checkPayment-rejectOrder)" /></g><g data-runiq-edge="rejectOrder-cancelled"><defs>
      <marker id="arrow-standard-rejectOrder-cancelled" markerWidth="10" markerHeight="10" refX="9" refY="3" orient="auto" markerUnits="strokeWidth">
        <polygon points="0,0 0,6 9,3" fill="#333" />
      </marker></defs><path d="M 715.4 672 L 715.4 852 L 715 1057 L 715 1257 L 715 1462 L 715 1667 L 715 1867 L 715 2062 L 715 2117 L 670 2117 L 660 2232" fill="none" stroke="#333" stroke-width="1" marker-end="url(#arrow-standard-rejectOrder-cancelled)" /></g><g data-runiq-edge="processPayment-splitWork"><defs>
      <marker id="arrow-standard-processPayment-splitWork" markerWidth="10" markerHeight="10" refX="9" refY="3" orient="auto" markerUnits="strokeWidth">
        <polygon points="0,0 0,6 9,3" fill="#333" />
      </marker></defs><path d="M 346 462 L 346 540.75 L 346 540.75 L 346 619.5" fill="none" stroke="#333" stroke-width="1" marker-end="url(#arrow-standard-processPayment-splitWork)" /></g><g data-runiq-edge="splitWork-updateInventory"><defs>
      <marker id="arrow-standard-splitWork-updateInventory" markerWidth="10" markerHeight="10" refX="9" refY="3" orient="auto" markerUnits="strokeWidth">
        <polygon points="0,0 0,6 9,3" fill="#333" />
      </marker></defs><path d="M 346 669.5 L 346 707 L 91 707 L 91.2 822" fill="none" stroke="#333" stroke-width="1" marker-end="url(#arrow-standard-splitWork-updateInventory)" /></g><g data-runiq-edge="splitWork-notifyCustomer"><defs>
      <marker id="arrow-standard-splitWork-notifyCustomer" markerWidth="10" markerHeight="10" refX="9" refY="3" orient="auto" markerUnits="strokeWidth">
        <polygon points="0,0 0,6 9,3" fill="#333" />
      </marker></defs><path d="M 346 669.5 L 346 745.75 L 346 745.75 L 346 822" fill="none" stroke="#333" stroke-width="1" marker-end="url(#arrow-standard-splitWork-notifyCustomer)" /></g><g data-runiq-edge="splitWork-prepareShipment"><defs>
      <marker id="arrow-standard-splitWork-prepareShipment" markerWidth="10" markerHeight="10" refX="9" refY="3" orient="auto" markerUnits="strokeWidth">
        <polygon points="0,0 0,6 9,3" fill="#333" />
      </marker></defs><path d="M 346 669.5 L 346 707 L 600 707 L 600.2 822" fill="none" stroke="#333" stroke-width="1" marker-end="url(#arrow-standard-splitWork-prepareShipment)" /></g><g data-runiq-edge="updateInventory-joinWork"><defs>
      <marker id="arrow-standard-updateInventory-joinWork" markerWidth="10" markerHeight="10" refX="9" refY="3" orient="auto" markerUnits="strokeWidth">
        <polygon points="0,0 0,6 9,3" fill="#333" />
      </marker></defs><path d="M 91.2 882 L 91.2 917 L 334 917 L 346 1032" fill="none" stroke="#333" stroke-width="1" marker-end="url(#arrow-standard-updateInventory-joinWork)" /></g><g data-runiq-edge="notifyCustomer-joinWork"><defs>
      <marker id="arrow-standard-notifyCustomer-joinWork" markerWidth="10" markerHeight="10" refX="9" refY="3" orient="auto" markerUnits="strokeWidth">
        <polygon points="0,0 0,6 9,3" fill="#333" />
      </marker></defs><path d="M 346 882 L 346 957 L 346 957 L 346 1032" fill="none" stroke="#333" stroke-width="1" marker-end="url(#arrow-standard-notifyCustomer-joinWork)" /></g><g data-runiq-edge="prepareShipment-joinWork"><defs>
      <marker id="arrow-standard-prepareShipment-joinWork" markerWidth="10" markerHeight="10" refX="9" refY="3" orient="auto" markerUnits="strokeWidth">
        <polygon points="0,0 0,6 9,3" fill="#333" />
      </marker></defs><path d="M 600.2 882 L 600.2 917 L 359 917 L 346 1032" fill="none" stroke="#333" stroke-width="1" marker-end="url(#arrow-standard-prepareShipment-joinWork)" /></g><g data-runiq-edge="joinWork-selectShipping"><defs>
      <marker id="arrow-standard-joinWork-selectShipping" markerWidth="10" markerHeight="10" refX="9" refY="3" orient="auto" markerUnits="strokeWidth">
        <polygon points="0,0 0,6 9,3" fill="#333" />
      </marker></defs><path d="M 346 1082 L 346 1157 L 346 1157 L 346 1232" fill="none" stroke="#333" stroke-width="1" marker-end="url(#arrow-standard-joinWork-selectShipping)" /></g><g data-runiq-edge="selectShipping-expressShipping"><defs>
      <marker id="arrow-standard-selectShipping-expressShipping" markerWidth="10" markerHeight="10" refX="9" refY="3" orient="auto" markerUnits="strokeWidth">
        <polygon points="0,0 0,6 9,3" fill="#333" />
      </marker></defs><path d="M 346 1282 L 346 1317 L 146 1317 L 146 1432" fill="none" stroke="#333" stroke-width="1" marker-end="url(#arrow-standard-selectShipping-expressShipping)" /></g><g data-runiq-edge="selectShipping-standardShipping"><defs>
      <marker id="arrow-standard-selectShipping-standardShipping" markerWidth="10" markerHeight="10" refX="9" refY="3" orient="auto" markerUnits="strokeWidth">
        <polygon points="0,0 0,6 9,3" fill="#333" />
      </marker></defs><path d="M 346 1282 L 346 1357 L 346 1357 L 346 1432" fill="none" stroke="#333" stroke-width="1" marker-end="url(#arrow-standard-selectShipping-standardShipping)" /></g><g data-runiq-edge="selectShipping-insurance"><defs>
      <marker id="arrow-standard-selectShipping-insurance" markerWidth="10" markerHeight="10" refX="9" refY="3" orient="auto" markerUnits="strokeWidth">
        <polygon points="0,0 0,6 9,3" fill="#333" />
      </marker></defs><path d="M 346 1282 L 346 1317 L 563 1317 L 562.6 1432" fill="none" stroke="#333" stroke-width="1" marker-end="url(#arrow-standard-selectShipping-insurance)" /></g><g data-runiq-edge="expressShipping-mergeShipping"><defs>
      <marker id="arrow-standard-expressShipping-mergeShipping" markerWidth="10" markerHeight="10" refX="9" refY="3" orient="auto" markerUnits="strokeWidth">
        <polygon points="0,0 0,6 9,3" fill="#333" />
      </marker></defs><path d="M 146 1492 L 146 1552 L 508 1552 L 520 1642" fill="none" stroke="#333" stroke-width="1" marker-end="url(#arrow-standard-expressShipping-mergeShipping)" /></g><g data-runiq-edge="standardShipping-mergeShipping"><defs>
      <marker id="arrow-standard-standardShipping-mergeShipping" markerWidth="10" markerHeight="10" refX="9" refY="3" orient="auto" markerUnits="strokeWidth">
        <polygon points="0,0 0,6 9,3" fill="#333" />
      </marker></defs><path d="M 346 1492 L 346 1527 L 520 1527 L 520 1642" fill="none" stroke="#333" stroke-width="1" marker-end="url(#arrow-standard-standardShipping-mergeShipping)" /></g><g data-runiq-edge="insurance-mergeShipping"><defs>
      <marker id="arrow-standard-insurance-mergeShipping" markerWidth="10" markerHeight="10" refX="9" refY="3" orient="auto" markerUnits="strokeWidth">
        <polygon points="0,0 0,6 9,3" fill="#333" />
      </marker></defs><path d="M 562.6 1492 L 562.6 1527 L 533 1527 L 520 1642" fill="none" stroke="#333" stroke-width="1" marker-end="url(#arrow-standard-insurance-mergeShipping)" /></g><g data-runiq-edge="mergeShipping-waitForEvent"><defs>
      <marker id="arrow-standard-mergeShipping-waitForEvent" markerWidth="10" markerHeight="10" refX="9" refY="3" orient="auto" markerUnits="strokeWidth">
        <polygon points="0,0 0,6 9,3" fill="#333" />
      </marker></defs><path d="M 520 1692 L 520 1767 L 520 1767 L 520 1842" fill="none" stroke="#333" stroke-width="1" marker-end="url(#arrow-standard-mergeShipping-waitForEvent)" /></g><g data-runiq-edge="waitForEvent-paymentConfirmed"><defs>
      <marker id="arrow-standard-waitForEvent-paymentConfirmed" markerWidth="10" markerHeight="10" refX="9" refY="3" orient="auto" markerUnits="strokeWidth">
        <polygon points="0,0 0,6 9,3" fill="#333" />
      </marker></defs><path d="M 520 1892 L 520 1927 L 380 1927 L 380 2042" fill="none" stroke="#333" stroke-width="1" marker-end="url(#arrow-standard-waitForEvent-paymentConfirmed)" /></g><g data-runiq-edge="waitForEvent-paymentTimeout"><defs>
      <marker id="arrow-standard-waitForEvent-paymentTimeout" markerWidth="10" markerHeight="10" refX="9" refY="3" orient="auto" markerUnits="strokeWidth">
        <polygon points="0,0 0,6 9,3" fill="#333" />
      </marker></defs><path d="M 520 1892 L 520 1967 L 520 1967 L 520 2042" fill="none" stroke="#333" stroke-width="1" marker-end="url(#arrow-standard-waitForEvent-paymentTimeout)" /></g><g data-runiq-edge="waitForEvent-customerCancelled"><defs>
      <marker id="arrow-standard-waitForEvent-customerCancelled" markerWidth="10" markerHeight="10" refX="9" refY="3" orient="auto" markerUnits="strokeWidth">
        <polygon points="0,0 0,6 9,3" fill="#333" />
      </marker></defs><path d="M 520 1892 L 520 1927 L 660 1927 L 660 2042" fill="none" stroke="#333" stroke-width="1" marker-end="url(#arrow-standard-waitForEvent-customerCancelled)" /></g><g data-runiq-edge="paymentTimeout-cancelled"><defs>
      <marker id="arrow-standard-paymentTimeout-cancelled" markerWidth="10" markerHeight="10" refX="9" refY="3" orient="auto" markerUnits="strokeWidth">
        <polygon points="0,0 0,6 9,3" fill="#333" />
      </marker></defs><path d="M 520 2082 L 520 2117 L 650 2117 L 660 2232" fill="none" stroke="#333" stroke-width="1" marker-end="url(#arrow-standard-paymentTimeout-cancelled)" /></g><g data-runiq-edge="customerCancelled-cancelled"><defs>
      <marker id="arrow-standard-customerCancelled-cancelled" markerWidth="10" markerHeight="10" refX="9" refY="3" orient="auto" markerUnits="strokeWidth">
        <polygon points="0,0 0,6 9,3" fill="#333" />
      </marker></defs><path d="M 660 2082 L 660 2157 L 660 2157 L 660 2232" fill="none" stroke="#333" stroke-width="1" marker-end="url(#arrow-standard-customerCancelled-cancelled)" /></g><g data-runiq-edge="paymentConfirmed-complexLogic"><defs>
      <marker id="arrow-standard-paymentConfirmed-complexLogic" markerWidth="10" markerHeight="10" refX="9" refY="3" orient="auto" markerUnits="strokeWidth">
        <polygon points="0,0 0,6 9,3" fill="#333" />
      </marker></defs><path d="M 380 2082 L 380 2157 L 380 2157 L 380 2232" fill="none" stroke="#333" stroke-width="1" marker-end="url(#arrow-standard-paymentConfirmed-complexLogic)" /></g><g data-runiq-edge="complexLogic-specialHandling"><defs>
      <marker id="arrow-standard-complexLogic-specialHandling" markerWidth="10" markerHeight="10" refX="9" refY="3" orient="auto" markerUnits="strokeWidth">
        <polygon points="0,0 0,6 9,3" fill="#333" />
      </marker></defs><path d="M 380 2282 L 380 2357 L 372.2 2357 L 372.2 2432" fill="none" stroke="#333" stroke-width="1" marker-end="url(#arrow-standard-complexLogic-specialHandling)" /></g><g data-runiq-edge="complexLogic-normalProcess"><defs>
      <marker id="arrow-standard-complexLogic-normalProcess" markerWidth="10" markerHeight="10" refX="9" refY="3" orient="auto" markerUnits="strokeWidth">
        <polygon points="0,0 0,6 9,3" fill="#333" />
      </marker></defs><path d="M 380 2282 L 380 2317 L 623 2317 L 622.8 2432" fill="none" stroke="#333" stroke-width="1" marker-end="url(#arrow-standard-complexLogic-normalProcess)" /></g><g data-runiq-edge="specialHandling-complete"><defs>
      <marker id="arrow-standard-specialHandling-complete" markerWidth="10" markerHeight="10" refX="9" refY="3" orient="auto" markerUnits="strokeWidth">
        <polygon points="0,0 0,6 9,3" fill="#333" />
      </marker></defs><path d="M 372.2 2492 L 372.2 2567 L 379 2567 L 379 2642" fill="none" stroke="#333" stroke-width="1" marker-end="url(#arrow-standard-specialHandling-complete)" /></g><g data-runiq-edge="normalProcess-complete"><defs>
      <marker id="arrow-standard-normalProcess-complete" markerWidth="10" markerHeight="10" refX="9" refY="3" orient="auto" markerUnits="strokeWidth">
        <polygon points="0,0 0,6 9,3" fill="#333" />
      </marker></defs><path d="M 622.8 2492 L 622.8 2527 L 386 2527 L 379 2642" fill="none" stroke="#333" stroke-width="1" marker-end="url(#arrow-standard-normalProcess-complete)" /></g><g data-runiq-node="start"><circle cx="707" cy="32" r="19" fill="#ffffff" stroke="#000000" stroke-width="1"/><text x="707" y="68" text-anchor="middle" font-family="Arial" font-size="11.9" fill="#000000">Order Received</text></g><g data-runiq-node="checkPayment"><path d="M 707,202 L 732,227 L 707,252 L 682,227 Z" fill="#ffffff" stroke="#000000" stroke-width="2"/><path d="M 694.5,214.5 L 719.5,239.5 M 719.5,214.5 L 694.5,239.5" stroke="#000000" stroke-width="2" stroke-linecap="round"/></g><g data-runiq-node="processPayment"><rect x="271" y="402" width="150" height="60" fill="#ffffff" stroke="#000000" stroke-width="2" rx="8" ry="8"/><text x="346" y="436.6666666666667" text-anchor="middle" font-family="Arial" font-size="14" fill="#000000">Process Payment</text></g><g data-runiq-node="rejectOrder"><rect x="653" y="612" width="124.80000000000001" height="60" fill="#ffffff" stroke="#000000" stroke-width="2" rx="8" ry="8"/><text x="715.4" y="646.6666666666666" text-anchor="middle" font-family="Arial" font-size="14" fill="#000000">Reject Order</text></g><g data-runiq-node="splitWork"><path d="M 346,619.5 L 371,644.5 L 346,669.5 L 321,644.5 Z" fill="#ffffff" stroke="#000000" stroke-width="2"/><path d="M 346,632 L 346,657 M 333.5,644.5 L 358.5,644.5" stroke="#000000" stroke-width="2.5" stroke-linecap="round"/></g><g data-runiq-node="updateInventory"><rect x="12" y="822" width="158.4" height="60" fill="#ffffff" stroke="#000000" stroke-width="2" rx="8" ry="8"/><text x="91.2" y="856.6666666666666" text-anchor="middle" font-family="Arial" font-size="14" fill="#000000">Update Inventory</text></g><g data-runiq-node="notifyCustomer"><rect x="271" y="822" width="150" height="60" fill="#ffffff" stroke="#000000" stroke-width="2" rx="8" ry="8"/><text x="346" y="856.6666666666666" text-anchor="middle" font-family="Arial" font-size="14" fill="#000000">Notify Customer</text></g><g data-runiq-node="prepareShipment"><rect x="521" y="822" width="158.4" height="60" fill="#ffffff" stroke="#000000" stroke-width="2" rx="8" ry="8"/><text x="600.2" y="856.6666666666666" text-anchor="middle" font-family="Arial" font-size="14" fill="#000000">Prepare Shipment</text></g><g data-runiq-node="joinWork"><path d="M 346,1032 L 371,1057 L 346,1082 L 321,1057 Z" fill="#ffffff" stroke="#000000" stroke-width="2"/><path d="M 346,1044.5 L 346,1069.5 M 333.5,1057 L 358.5,1057" stroke="#000000" stroke-width="2.5" stroke-linecap="round"/></g><g data-runiq-node="selectShipping"><path d="M 346,1232 L 371,1257 L 346,1282 L 321,1257 Z" fill="#ffffff" stroke="#000000" stroke-width="2"/><circle cx="346" cy="1257" r="10" fill="none" stroke="#000000" stroke-width="2.5"/></g><g data-runiq-node="expressShipping"><rect x="96" y="1432" width="100" height="60" fill="#ffffff" stroke="#000000" stroke-width="2" rx="8" ry="8"/><text x="146" y="1466.6666666666667" text-anchor="middle" font-family="Arial" font-size="14" fill="#000000">Express</text></g><g data-runiq-node="standardShipping"><rect x="296" y="1432" width="100" height="60" fill="#ffffff" stroke="#000000" stroke-width="2" rx="8" ry="8"/><text x="346" y="1466.6666666666667" text-anchor="middle" font-family="Arial" font-size="14" fill="#000000">Standard</text></g><g data-runiq-node="insurance"><rect x="496" y="1432" width="133.2" height="60" fill="#ffffff" stroke="#000000" stroke-width="2" rx="8" ry="8"/><text x="562.6" y="1466.6666666666667" text-anchor="middle" font-family="Arial" font-size="14" fill="#000000">Add Insurance</text></g><g data-runiq-node="mergeShipping"><path d="M 520,1642 L 545,1667 L 520,1692 L 495,1667 Z" fill="#ffffff" stroke="#000000" stroke-width="2"/><circle cx="520" cy="1667" r="10" fill="none" stroke="#000000" stroke-width="2.5"/></g><g data-runiq-node="waitForEvent"><path d="M 520,1842 L 545,1867 L 520,1892 L 495,1867 Z" fill="#ffffff" stroke="#000000" stroke-width="2"/></g><g data-runiq-node="paymentConfirmed"><circle cx="380" cy="2062" r="19" fill="#ffffff" stroke="#000000" stroke-width="1"/><text x="380" y="2098" text-anchor="middle" font-family="Arial" font-size="11.9" fill="#000000">Payment OK</text></g><g data-runiq-node="paymentTimeout"><circle cx="520" cy="2062" r="19" fill="#ffffff" stroke="#000000" stroke-width="1"/><text x="520" y="2098" text-anchor="middle" font-family="Arial" font-size="11.9" fill="#000000">Timeout</text></g><g data-runiq-node="customerCancelled"><circle cx="660" cy="2062" r="19" fill="#ffffff" stroke="#000000" stroke-width="1"/><text x="660" y="2098" text-anchor="middle" font-family="Arial" font-size="11.9" fill="#000000">Cancelled</text></g><g data-runiq-node="complexLogic"><path d="M 380,2232 L 405,2257 L 380,2282 L 355,2257 Z" fill="#ffffff" stroke="#000000" stroke-width="2"/></g><g data-runiq-node="specialHandling"><rect x="293" y="2432" width="158.4" height="60" fill="#ffffff" stroke="#000000" stroke-width="2" rx="8" ry="8"/><text x="372.2" y="2466.6666666666665" text-anchor="middle" font-family="Arial" font-size="14" fill="#000000">Special Handling</text></g><g data-runiq-node="normalProcess"><rect x="552" y="2432" width="141.60000000000002" height="60" fill="#ffffff" stroke="#000000" stroke-width="2" rx="8" ry="8"/><text x="622.8" y="2466.6666666666665" text-anchor="middle" font-family="Arial" font-size="14" fill="#000000">Normal Process</text></g><g data-runiq-node="complete"><circle cx="379" cy="2662" r="19" fill="#ffffff" stroke="#000000" stroke-width="1"/><text x="379" y="2698" text-anchor="middle" font-family="Arial" font-size="11.9" fill="#000000">Order Complete</text></g><g data-runiq-node="cancelled"><circle cx="660" cy="2252" r="19" fill="#ffffff" stroke="#000000" stroke-width="1"/><text x="660" y="2288" text-anchor="middle" font-family="Arial" font-size="11.9" fill="#000000">Order Cancelled</text></g></svg>