<svg xmlns="http://www.w3.org/2000/svg" xmlns:xlink="http://www.w3.org/1999/xlink" 
    width="442" height="312" 
    viewBox="0 0 442 312"
    role="img" aria-labelledby="diagram-title"><title id="diagram-title">Budget Breakdown</title><defs><style type="text/css"><![CDATA[.runiq-node-text { font-family: sans-serif; font-size: 14px; }.runiq-edge-text { font-family: sans-serif; font-size: 12px; }.runiq-container-label { font-family: sans-serif; font-size: 16px; font-weight: bold; fill: #666; }]]></style><pattern id="pedigree-half-fill" width="40" height="40" patternUnits="userSpaceOnUse"><rect x="0" y="0" width="20" height="40" fill="#000"/><rect x="20" y="0" width="20" height="40" fill="#fff"/></pattern></defs><g data-runiq-node="budget"><text x="137" y="27" text-anchor="middle" font-size="16" font-weight="bold" fill="#333">Monthly Budget Breakdown</text><path d="M 137,167 L 137,52 A 115,115 0 0,1 246.37149937394264,202.53695435311894 Z" fill="#FF6B6B" stroke="#333" stroke-width="2" />
    <path d="M 137,167 L 246.37149937394264,202.53695435311894 A 115,115 0 0,1 101.46304564688106,276.3714993739427 Z" fill="#4ECDC4" stroke="#333" stroke-width="2" />
    <path d="M 137,167 L 101.46304564688106,276.3714993739427 A 115,115 0 0,1 22,167 Z" fill="#45B7D1" stroke="#333" stroke-width="2" />
    <path d="M 137,167 L 22,167 A 115,115 0 0,1 69.40469598636558,73.96304564688106 Z" fill="#FFA07A" stroke="#333" stroke-width="2" />
    <path d="M 137,167 L 69.40469598636558,73.96304564688106 A 115,115 0 0,1 136.99999999999997,52 Z" fill="#98D8C8" stroke="#333" stroke-width="2" />
    <text x="202.12586804718327" y="123.68328719045591" text-anchor="middle" font-size="12" font-weight="bold" fill="#333">30</text>
    <text x="173.54623522903353" y="242.7260251971636" text-anchor="middle" font-size="12" font-weight="bold" fill="#333">25</text>
    <text x="71.87413195281674" y="218.3167128095441" text-anchor="middle" font-size="12" font-weight="bold" fill="#333">20</text>
    <text x="65.27397480283636" y="134.45376477096653" text-anchor="middle" font-size="12" font-weight="bold" fill="#333">15</text>
    <text x="112.12413195281673" y="94.43995043824015" text-anchor="middle" font-size="12" font-weight="bold" fill="#333">10</text>
    <g>
      <rect x="272" y="117" width="12" height="12" fill="#FF6B6B" stroke="#333" stroke-width="1" />
      <text x="290" y="127" font-size="11" fill="#333">Rent (30%)</text>
    </g>
    <g>
      <rect x="272" y="137" width="12" height="12" fill="#4ECDC4" stroke="#333" stroke-width="1" />
      <text x="290" y="147" font-size="11" fill="#333">Food (25%)</text>
    </g>
    <g>
      <rect x="272" y="157" width="12" height="12" fill="#45B7D1" stroke="#333" stroke-width="1" />
      <text x="290" y="167" font-size="11" fill="#333">Transport (20%)</text>
    </g>
    <g>
      <rect x="272" y="177" width="12" height="12" fill="#FFA07A" stroke="#333" stroke-width="1" />
      <text x="290" y="187" font-size="11" fill="#333">Entertainment (15%)</text>
    </g>
    <g>
      <rect x="272" y="197" width="12" height="12" fill="#98D8C8" stroke="#333" stroke-width="1" />
      <text x="290" y="207" font-size="11" fill="#333">Savings (10%)</text>
    </g></g></svg>