<svg xmlns="http://www.w3.org/2000/svg" xmlns:xlink="http://www.w3.org/1999/xlink" 
    width="1134.4" height="332" 
    viewBox="0 0 1134.4 332"
    role="img" aria-labelledby="diagram-title"><title id="diagram-title">Enhanced State Machine - Door Lock System</title><defs><style type="text/css"><![CDATA[.runiq-node-text { font-family: sans-serif; font-size: 14px; }.runiq-edge-text { font-family: sans-serif; font-size: 12px; }.runiq-container-label { font-family: sans-serif; font-size: 16px; font-weight: bold; fill: #666; }]]></style><pattern id="pedigree-half-fill" width="40" height="40" patternUnits="userSpaceOnUse"><rect x="0" y="0" width="20" height="40" fill="#000"/><rect x="20" y="0" width="20" height="40" fill="#fff"/></pattern></defs><g data-runiq-edge="start-idle"><defs>
      <marker id="arrow-standard-start-idle" markerWidth="10" markerHeight="10" refX="9" refY="3" orient="auto" markerUnits="strokeWidth">
        <polygon points="0,0 0,6 9,3" fill="#333" />
      </marker></defs><path d="M 213.4 30 L 364.4 30" fill="none" stroke="#333" stroke-width="1" marker-end="url(#arrow-standard-start-idle)" /></g><g data-runiq-edge="idle-locked"><defs>
      <marker id="arrow-standard-idle-locked" markerWidth="10" markerHeight="10" refX="9" refY="3" orient="auto" markerUnits="strokeWidth">
        <polygon points="0,0 0,6 9,3" fill="#333" />
      </marker></defs><path d="M 581.6 67 L 591.6 67 L 591.6 155 L 732.6 155" fill="none" stroke="#333" stroke-width="1" marker-end="url(#arrow-standard-idle-locked)" /></g><g data-runiq-edge="locked-unlocked"><defs>
      <marker id="arrow-standard-locked-unlocked" markerWidth="10" markerHeight="10" refX="9" refY="3" orient="auto" markerUnits="strokeWidth">
        <polygon points="0,0 0,6 9,3" fill="#333" />
      </marker></defs><path d="M 732.6 178 L 223.4 178 L 223.4 194 L 213.4 194" fill="none" stroke="#333" stroke-width="1" marker-end="url(#arrow-standard-locked-unlocked)" /></g><g data-runiq-edge="unlocked-locked"><defs>
      <marker id="arrow-standard-unlocked-locked" markerWidth="10" markerHeight="10" refX="9" refY="3" orient="auto" markerUnits="strokeWidth">
        <polygon points="0,0 0,6 9,3" fill="#333" />
      </marker></defs><path d="M 213.4 166 L 732.6 166" fill="none" stroke="#333" stroke-width="1" marker-end="url(#arrow-standard-unlocked-locked)" /></g><g data-runiq-edge="unlocked-alarm"><defs>
      <marker id="arrow-standard-unlocked-alarm" markerWidth="10" markerHeight="10" refX="9" refY="3" orient="auto" markerUnits="strokeWidth">
        <polygon points="0,0 0,6 9,3" fill="#333" />
      </marker></defs><path d="M 213.4 221 L 372.29999999999995 221" fill="none" stroke="#333" stroke-width="1" marker-end="url(#arrow-standard-unlocked-alarm)" /></g><g data-runiq-edge="alarm-locked"><defs>
      <marker id="arrow-standard-alarm-locked" markerWidth="10" markerHeight="10" refX="9" refY="3" orient="auto" markerUnits="strokeWidth">
        <polygon points="0,0 0,6 9,3" fill="#333" />
      </marker></defs><path d="M 572.6999999999999 258 L 591.6 258 L 591.6 190 L 732.6 190" fill="none" stroke="#333" stroke-width="1" marker-end="url(#arrow-standard-alarm-locked)" /></g><g data-runiq-edge="locked-end"><defs>
      <marker id="arrow-standard-locked-end" markerWidth="10" markerHeight="10" refX="9" refY="3" orient="auto" markerUnits="strokeWidth">
        <polygon points="0,0 0,6 9,3" fill="#333" />
      </marker></defs><path d="M 941.4000000000001 198 L 1092.4 198" fill="none" stroke="#333" stroke-width="1" marker-end="url(#arrow-standard-locked-end)" /></g><g data-runiq-node="start"><g class="initial-state-shape"><circle cx="204.4" cy="30" r="9" fill="#000000" stroke="none" /></g></g><g data-runiq-node="idle"><g class="state-shape"><rect x="364.4" y="12" width="217.20000000000002" height="109" rx="10" ry="10" fill="#ffffff" stroke="#000000" stroke-width="1" /><text x="473" y="36.6" text-anchor="middle" font-size="14" font-family="Arial" font-weight="bold" fill="#000000">Idle</text><line x1="376.4" y1="45.6" x2="569.6" y2="45.6" stroke="#000000" stroke-width="1" /><text x="376.4" y="66.6" font-size="12.6" font-family="Arial" fill="#000000">entry / turnOffLight()</text><text x="376.4" y="84.6" font-size="12.6" font-family="Arial" fill="#000000">do / monitorSensors()</text><text x="376.4" y="102.6" font-size="12.6" font-family="Arial" fill="#000000">exit / logStateChange()</text></g></g><g data-runiq-node="locked"><g class="state-shape"><rect x="732.6" y="143" width="208.8" height="109" rx="10" ry="10" fill="#ffffff" stroke="#000000" stroke-width="1" /><text x="837" y="167.6" text-anchor="middle" font-size="14" font-family="Arial" font-weight="bold" fill="#000000">Locked</text><line x1="744.6" y1="176.6" x2="929.4000000000001" y2="176.6" stroke="#000000" stroke-width="1" /><text x="744.6" y="197.6" font-size="12.6" font-family="Arial" fill="#000000">entry / engageLock()</text><text x="744.6" y="215.6" font-size="12.6" font-family="Arial" fill="#000000">do / flashLED()</text><text x="744.6" y="233.6" font-size="12.6" font-family="Arial" fill="#000000">exit / disengageLock()</text></g></g><g data-runiq-node="unlocked"><g class="state-shape"><rect x="13" y="139" width="200.4" height="109" rx="10" ry="10" fill="#ffffff" stroke="#000000" stroke-width="1" /><text x="113.2" y="163.6" text-anchor="middle" font-size="14" font-family="Arial" font-weight="bold" fill="#000000">Unlocked</text><line x1="25" y1="172.6" x2="201.4" y2="172.6" stroke="#000000" stroke-width="1" /><text x="25" y="193.6" font-size="12.6" font-family="Arial" fill="#000000">entry / releaseLock()</text><text x="25" y="211.6" font-size="12.6" font-family="Arial" fill="#000000">do / startTimer(10s)</text><text x="25" y="229.6" font-size="12.6" font-family="Arial" fill="#000000">exit / stopTimer()</text></g></g><g data-runiq-node="alarm"><g class="state-shape"><rect x="372.29999999999995" y="203" width="200.4" height="109" rx="10" ry="10" fill="#ffffff" stroke="#000000" stroke-width="1" /><text x="472.49999999999994" y="227.6" text-anchor="middle" font-size="14" font-family="Arial" font-weight="bold" fill="#000000">Alarm</text><line x1="384.29999999999995" y1="236.6" x2="560.6999999999999" y2="236.6" stroke="#000000" stroke-width="1" /><text x="384.29999999999995" y="257.6" font-size="12.6" font-family="Arial" fill="#000000">entry / soundAlarm()</text><text x="384.29999999999995" y="275.6" font-size="12.6" font-family="Arial" fill="#000000">do / sendAlert()</text><text x="384.29999999999995" y="293.6" font-size="12.6" font-family="Arial" fill="#000000">exit / silenceAlarm()</text></g></g><g data-runiq-node="end"><g class="final-state-shape"><circle cx="1103.4" cy="206" r="11" fill="none" stroke="#000000" stroke-width="1.5" /><circle cx="1103.4" cy="206" r="6.050000000000001" fill="#000000" stroke="none" /></g></g></svg>