<svg xmlns="http://www.w3.org/2000/svg" xmlns:xlink="http://www.w3.org/1999/xlink" 
    width="312.8" height="461.6" 
    viewBox="0 0 312.8 461.6"
    role="img" aria-labelledby="diagram-title"><title id="diagram-title">Auth Flow</title><defs><style type="text/css"><![CDATA[.runiq-node-text { font-family: sans-serif; font-size: 14px; }.runiq-edge-text { font-family: sans-serif; font-size: 12px; }]]></style></defs><g data-runiq-edge="User-Landing"><path d="M 140.7 90.8 L 140.7 115.8 L 140.7 140.79999999999998" fill="none" stroke="#333" stroke-width="1" />
    <defs>
      <marker id="arrow-User-Landing" markerWidth="10" markerHeight="10" refX="9" refY="3" orient="auto" markerUnits="strokeWidth">
        <polygon points="0,0 0,6 9,3" fill="#333" />
      </marker>
    </defs>
  <path d="M 140.7 90.8 L 140.7 115.8 L 140.7 140.79999999999998" fill="none" stroke="#333" stroke-width="1" marker-end="url(#arrow-User-Landing)" /><text x="140.7" y="110.8" text-anchor="middle" class="runiq-edge-text">visits</text></g><g data-runiq-edge="Landing-Check"><path d="M 140.7 181.6 L 140.7 206.6 L 140.7 231.60000000000002" fill="none" stroke="#333" stroke-width="1" />
    <defs>
      <marker id="arrow-Landing-Check" markerWidth="10" markerHeight="10" refX="9" refY="3" orient="auto" markerUnits="strokeWidth">
        <polygon points="0,0 0,6 9,3" fill="#333" />
      </marker>
    </defs>
  <path d="M 140.7 181.6 L 140.7 206.6 L 140.7 231.60000000000002" fill="none" stroke="#333" stroke-width="1" marker-end="url(#arrow-Landing-Check)" /></g><g data-runiq-edge="Check-Welcome"><path d="M 102.13636363636363 291.6 L 70 316.6 L 70 341.6" fill="none" stroke="#2a6fdb" stroke-width="2" />
    <defs>
      <marker id="arrow-Check-Welcome" markerWidth="10" markerHeight="10" refX="9" refY="3" orient="auto" markerUnits="strokeWidth">
        <polygon points="0,0 0,6 9,3" fill="#2a6fdb" />
      </marker>
    </defs>
  <path d="M 102.13636363636363 291.6 L 70 316.6 L 70 341.6" fill="none" stroke="#2a6fdb" stroke-width="2" marker-end="url(#arrow-Check-Welcome)" /></g><g data-runiq-edge="Check-Pricing"><path d="M 179.26363636363635 291.6 L 211.4 316.6 L 211.4 346.20000000000005" fill="none" stroke="#333" stroke-width="1" />
    <defs>
      <marker id="arrow-Check-Pricing" markerWidth="10" markerHeight="10" refX="9" refY="3" orient="auto" markerUnits="strokeWidth">
        <polygon points="0,0 0,6 9,3" fill="#333" />
      </marker>
    </defs>
  <path d="M 179.26363636363635 291.6 L 211.4 316.6 L 211.4 346.20000000000005" fill="none" stroke="#333" stroke-width="1" marker-end="url(#arrow-Check-Pricing)" /><text x="211.4" y="311.6" text-anchor="middle" class="runiq-edge-text">reads</text></g><g data-runiq-node="User">
      <!-- Actor head -->
      <circle cx="140.7" cy="35" r="15" 
              fill="#f0f0f0" stroke="#333" stroke-width="1" />
      
      <!-- Actor body -->
      <rect x="104.29999999999998" y="55" width="72.80000000000001" height="30.799999999999997"
            rx="5" fill="#f0f0f0" stroke="#333" stroke-width="1" />
      
      <!-- Label -->
      <text x="140.7" y="70.4" text-anchor="middle" dominant-baseline="middle"
            font-family="sans-serif" font-size="14">
        Visitor
      </text>
    </g><g data-runiq-node="Landing">
      <rect x="99.29999999999998" y="140.79999999999998" width="82.80000000000001" height="40.8"
            rx="8" ry="8" fill="#f0f0f0" stroke="#333" stroke-width="1" />
      
      <text x="140.7" y="161.2" 
            text-anchor="middle" dominant-baseline="middle"
            font-family="sans-serif" font-size="14">
        Landing
      </text>
    </g><g data-runiq-node="Check">
      <polygon points="140.7,231.60000000000002 180.7,261.6 140.7,291.6 100.69999999999999,261.6" 
               fill="#fff7e6" stroke="#aa7700" stroke-width="1" />
      
      <text x="140.7" y="261.6" text-anchor="middle" dominant-baseline="middle"
            font-family="sans-serif" font-size="14">
        Check
      </text>
    </g><g data-runiq-node="Welcome">
      <polygon points="35,341.6 105,341.6 120,371.6 105,401.6 35,401.6 20,371.6" 
               fill="#f0f0f0" stroke="#333" stroke-width="1" />
      
      <text x="70" y="371.6" text-anchor="middle" dominant-baseline="middle"
            font-family="sans-serif" font-size="14">
        Welcome
      </text>
    </g><a xlink:href="/pricing">
      <g data-runiq-node="Pricing">
      <path d="M 170 346.20000000000005 L 242.8 346.20000000000005 L 252.8 356.20000000000005 L 252.8 397.00000000000006 L 170 397.00000000000006 Z M 242.8 346.20000000000005 L 242.8 356.20000000000005 L 252.8 356.20000000000005" fill="#f0f0f0" stroke="#333" stroke-width="1" />
      
      <text x="211.4" y="371.6" 
            text-anchor="middle" dominant-baseline="middle"
            font-family="sans-serif" font-size="14">
        Pricing
      </text>
    </g>
    </a></svg>