<svg xmlns="http://www.w3.org/2000/svg" xmlns:xlink="http://www.w3.org/1999/xlink" 
    width="1210.4" height="1175.606797749979" 
    viewBox="0 0 1210.4 1175.606797749979"
    role="img" aria-labelledby="diagram-title"><title id="diagram-title">Cross-Functional Order Process</title><defs><style type="text/css"><![CDATA[.runiq-node-text { font-family: sans-serif; font-size: 14px; }.runiq-edge-text { font-family: sans-serif; font-size: 12px; }.runiq-container-label { font-family: sans-serif; font-size: 16px; font-weight: bold; fill: #666; }]]></style><pattern id="pedigree-half-fill" width="40" height="40" patternUnits="userSpaceOnUse"><rect x="0" y="0" width="20" height="40" fill="#000"/><rect x="20" y="0" width="20" height="40" fill="#fff"/></pattern></defs><g data-runiq-container="customer"><rect x="52" y="497" width="1138.4" height="150" fill="#f5f5f5" stroke="#ddd" stroke-width="2"/><line x1="82" y1="497" x2="82" y2="647" stroke="#ddd" stroke-width="2"/><text x="67" y="572" text-anchor="middle" font-family="Arial" font-size="14" fill="#000000" transform="rotate(-90 67 572)">Customer</text></g><g data-runiq-container="sales"><rect x="52" y="12" width="725.6" height="354" fill="#f5f5f5" stroke="#ddd" stroke-width="2"/><line x1="82" y1="12" x2="82" y2="366" stroke="#ddd" stroke-width="2"/><text x="67" y="189" text-anchor="middle" font-family="Arial" font-size="14" fill="#000000" transform="rotate(-90 67 189)">Sales Department</text></g><g data-runiq-container="warehouse"><rect x="52" y="1005.606797749979" width="708" height="150" fill="#f5f5f5" stroke="#ddd" stroke-width="2"/><line x1="82" y1="1005.606797749979" x2="82" y2="1155.606797749979" stroke="#ddd" stroke-width="2"/><text x="67" y="1080.606797749979" text-anchor="middle" font-family="Arial" font-size="14" fill="#000000" transform="rotate(-90 67 1080.606797749979)">Warehouse</text></g><g data-runiq-edge="start-orderTask"><defs>
      <marker id="arrow-standard-start-orderTask" markerWidth="10" markerHeight="10" refX="9" refY="3" orient="auto" markerUnits="strokeWidth">
        <polygon points="0,0 0,6 9,3" fill="#333" />
      </marker></defs><path d="M 134 569 L 284 569" fill="none" stroke="#333" stroke-width="1" marker-end="url(#arrow-standard-start-orderTask)" /></g><g data-runiq-edge="orderTask-payTask"><defs>
      <marker id="arrow-standard-orderTask-payTask" markerWidth="10" markerHeight="10" refX="9" refY="3" orient="auto" markerUnits="strokeWidth">
        <polygon points="0,0 0,6 9,3" fill="#333" />
      </marker></defs><path d="M 400.4 569 L 550.4 569" fill="none" stroke="#333" stroke-width="1" marker-end="url(#arrow-standard-orderTask-payTask)" /></g><g data-runiq-edge="payTask-receiveTask"><defs>
      <marker id="arrow-standard-payTask-receiveTask" markerWidth="10" markerHeight="10" refX="9" refY="3" orient="auto" markerUnits="strokeWidth">
        <polygon points="0,0 0,6 9,3" fill="#333" />
      </marker></defs><path d="M 675.2 569 L 825.2 569" fill="none" stroke="#333" stroke-width="1" marker-end="url(#arrow-standard-payTask-receiveTask)" /></g><g data-runiq-edge="receiveTask-end"><defs>
      <marker id="arrow-standard-receiveTask-end" markerWidth="10" markerHeight="10" refX="9" refY="3" orient="auto" markerUnits="strokeWidth">
        <polygon points="0,0 0,6 9,3" fill="#333" />
      </marker></defs><path d="M 958.4000000000001 569 L 1108.4 569" fill="none" stroke="#333" stroke-width="1" marker-end="url(#arrow-standard-receiveTask-end)" /></g><g data-runiq-edge="reviewTask-approveGateway"><defs>
      <marker id="arrow-standard-reviewTask-approveGateway" markerWidth="10" markerHeight="10" refX="9" refY="3" orient="auto" markerUnits="strokeWidth">
        <polygon points="0,0 0,6 9,3" fill="#333" />
      </marker></defs><path d="M 218.8 92 L 368.8 92" fill="none" stroke="#333" stroke-width="1" marker-end="url(#arrow-standard-reviewTask-approveGateway)" /></g><g data-runiq-edge="approveGateway-confirmTask"><defs>
      <marker id="arrow-standard-approveGateway-confirmTask" markerWidth="10" markerHeight="10" refX="9" refY="3" orient="auto" markerUnits="strokeWidth">
        <polygon points="0,0 0,6 9,3" fill="#333" />
      </marker></defs><path d="M 418.8 84 L 568.8 84" fill="none" stroke="#333" stroke-width="1" marker-end="url(#arrow-standard-approveGateway-confirmTask)" /></g><g data-runiq-edge="approveGateway-rejectTask"><defs>
      <marker id="arrow-standard-approveGateway-rejectTask" markerWidth="10" markerHeight="10" refX="9" refY="3" orient="auto" markerUnits="strokeWidth">
        <polygon points="0,0 0,6 9,3" fill="#333" />
      </marker></defs><path d="M 418.8 100 L 428.8 100 L 428.8 294 L 568.8 294" fill="none" stroke="#333" stroke-width="1" marker-end="url(#arrow-standard-approveGateway-rejectTask)" /></g><g data-runiq-edge="pickTask-packTask"><defs>
      <marker id="arrow-standard-pickTask-packTask" markerWidth="10" markerHeight="10" refX="9" refY="3" orient="auto" markerUnits="strokeWidth">
        <polygon points="0,0 0,6 9,3" fill="#333" />
      </marker></defs><path d="M 202 1077.606797749979 L 352 1077.606797749979" fill="none" stroke="#333" stroke-width="1" marker-end="url(#arrow-standard-pickTask-packTask)" /></g><g data-runiq-edge="packTask-shipTask"><defs>
      <marker id="arrow-standard-packTask-shipTask" markerWidth="10" markerHeight="10" refX="9" refY="3" orient="auto" markerUnits="strokeWidth">
        <polygon points="0,0 0,6 9,3" fill="#333" />
      </marker></defs><path d="M 460 1077.606797749979 L 610 1077.606797749979" fill="none" stroke="#333" stroke-width="1" marker-end="url(#arrow-standard-packTask-shipTask)" /></g><g data-runiq-edge="orderTask-reviewTask"><defs>
      <marker id="arrow-standard-orderTask-reviewTask" markerWidth="10" markerHeight="10" refX="9" refY="3" orient="auto" markerUnits="strokeWidth">
        <polygon points="0,0 0,6 9,3" fill="#333" />
      </marker></defs><path d="M 352 497 L 352 272" fill="none" stroke="#333" stroke-width="1" marker-end="url(#arrow-standard-orderTask-reviewTask)" /></g><g data-runiq-edge="confirmTask-payTask"><defs>
      <marker id="arrow-standard-confirmTask-payTask" markerWidth="10" markerHeight="10" refX="9" refY="3" orient="auto" markerUnits="strokeWidth">
        <polygon points="0,0 0,6 9,3" fill="#333" />
      </marker></defs><path d="M 152 272 L 152 497" fill="none" stroke="#333" stroke-width="1" marker-end="url(#arrow-standard-confirmTask-payTask)" /></g><g data-runiq-edge="payTask-pickTask"><defs>
      <marker id="arrow-standard-payTask-pickTask" markerWidth="10" markerHeight="10" refX="9" refY="3" orient="auto" markerUnits="strokeWidth">
        <polygon points="0,0 0,6 9,3" fill="#333" />
      </marker></defs><path d="M 185 780.606797749979 L 185 1005.606797749979" fill="none" stroke="#333" stroke-width="1" marker-end="url(#arrow-standard-payTask-pickTask)" /></g><g data-runiq-edge="shipTask-receiveTask"><defs>
      <marker id="arrow-standard-shipTask-receiveTask" markerWidth="10" markerHeight="10" refX="9" refY="3" orient="auto" markerUnits="strokeWidth">
        <polygon points="0,0 0,6 9,3" fill="#333" />
      </marker></defs><path d="M 319 1005.606797749979 L 319 780.606797749979" fill="none" stroke="#333" stroke-width="1" marker-end="url(#arrow-standard-shipTask-receiveTask)" /></g><g data-runiq-edge="rejectTask-end"><defs>
      <marker id="arrow-standard-rejectTask-end" markerWidth="10" markerHeight="10" refX="9" refY="3" orient="auto" markerUnits="strokeWidth">
        <polygon points="0,0 0,6 9,3" fill="#333" />
      </marker></defs><path d="M 252 272 L 252 497" fill="none" stroke="#333" stroke-width="1" marker-end="url(#arrow-standard-rejectTask-end)" /></g><g data-runiq-node="start"><circle cx="114" cy="569" r="19" fill="#ffffff" stroke="#000000" stroke-width="1"/><text x="114" y="605" text-anchor="middle" font-family="Arial" font-size="11.9" fill="#000000">Start</text></g><g data-runiq-node="orderTask"><rect x="284" y="539" width="116.4" height="60" fill="#ffffff" stroke="#000000" stroke-width="2" rx="8" ry="8"/><text x="342.2" y="573.6666666666666" text-anchor="middle" font-family="Arial" font-size="14" fill="#000000">Place Order</text></g><g data-runiq-node="payTask"><rect x="550.4" y="539" width="124.80000000000001" height="60" fill="#ffffff" stroke="#000000" stroke-width="2" rx="8" ry="8"/><text x="612.8" y="573.6666666666666" text-anchor="middle" font-family="Arial" font-size="14" fill="#000000">Make Payment</text></g><g data-runiq-node="receiveTask"><rect x="825.2" y="539" width="133.2" height="60" fill="#ffffff" stroke="#000000" stroke-width="2" rx="8" ry="8"/><text x="891.8000000000001" y="573.6666666666666" text-anchor="middle" font-family="Arial" font-size="14" fill="#000000">Receive Order</text></g><g data-runiq-node="end"><circle cx="1128.4" cy="569" r="17.5" fill="#ffffff" stroke="#000000" stroke-width="5"/><text x="1128.4" y="605" text-anchor="middle" font-family="Arial" font-size="11.9" fill="#000000">End</text></g><g data-runiq-node="reviewTask"><rect x="94" y="62" width="124.80000000000001" height="60" fill="#ffffff" stroke="#000000" stroke-width="2" rx="8" ry="8"/><text x="156.4" y="96.66666666666667" text-anchor="middle" font-family="Arial" font-size="14" fill="#000000">Review Order</text></g><g data-runiq-node="approveGateway"><path d="M 393.8,67 L 418.8,92 L 393.8,117 L 368.8,92 Z" fill="#ffffff" stroke="#000000" stroke-width="2"/><path d="M 381.3,79.5 L 406.3,104.5 M 406.3,79.5 L 381.3,104.5" stroke="#000000" stroke-width="2" stroke-linecap="round"/></g><g data-runiq-node="confirmTask"><rect x="568.8" y="54" width="166.8" height="60" fill="#ffffff" stroke="#000000" stroke-width="2" rx="8" ry="8"/><text x="652.1999999999999" y="88.66666666666667" text-anchor="middle" font-family="Arial" font-size="14" fill="#000000">Send Confirmation</text></g><g data-runiq-node="rejectTask"><rect x="568.8" y="264" width="124.80000000000001" height="60" fill="#ffffff" stroke="#000000" stroke-width="2" rx="8" ry="8"/><text x="631.1999999999999" y="298.6666666666667" text-anchor="middle" font-family="Arial" font-size="14" fill="#000000">Reject Order</text></g><g data-runiq-node="pickTask"><rect x="94" y="1047.606797749979" width="108" height="60" fill="#ffffff" stroke="#000000" stroke-width="2" rx="8" ry="8"/><text x="148" y="1082.2734644166458" text-anchor="middle" font-family="Arial" font-size="14" fill="#000000">Pick Items</text></g><g data-runiq-node="packTask"><rect x="352" y="1047.606797749979" width="108" height="60" fill="#ffffff" stroke="#000000" stroke-width="2" rx="8" ry="8"/><text x="406" y="1082.2734644166458" text-anchor="middle" font-family="Arial" font-size="14" fill="#000000">Pack Order</text></g><g data-runiq-node="shipTask"><rect x="610" y="1047.606797749979" width="108" height="60" fill="#ffffff" stroke="#000000" stroke-width="2" rx="8" ry="8"/><text x="664" y="1082.2734644166458" text-anchor="middle" font-family="Arial" font-size="14" fill="#000000">Ship Order</text></g></svg>