<svg xmlns="http://www.w3.org/2000/svg" width="560" height="480" viewBox="0 0 560 480" role="img" aria-labelledby="diagram-title" data-id="runiq-diagram"><title id="diagram-title">Release Flow</title><rect x="0" y="0" width="560" height="480" fill="#f0f5f8" /><text x="40" y="28" font-family="sans-serif" font-size="12" fill="#0f172a">main</text><text x="180" y="28" font-family="sans-serif" font-size="12" fill="#2563eb">feature/login</text><text x="320" y="28" font-family="sans-serif" font-size="12" fill="#ef4444">hotfix/session</text><circle cx="40" cy="40" r="6" fill="#0f172a" stroke="#ffffff" stroke-width="1" /><text x="54" y="44" font-family="sans-serif" font-size="12" fill="#0f172a">Bootstrap repo</text><circle cx="180" cy="100" r="6" fill="#2563eb" stroke="#ffffff" stroke-width="1" /><text x="194" y="104" font-family="sans-serif" font-size="12" fill="#0f172a">Login form</text><line x1="180" y1="100" x2="180" y2="160" stroke="#2563eb" stroke-width="2" /><circle cx="180" cy="160" r="6" fill="#2563eb" stroke="#ffffff" stroke-width="1" /><text x="194" y="164" font-family="sans-serif" font-size="12" fill="#0f172a">OAuth support</text><line x1="40" y1="40" x2="40" y2="220" stroke="#0f172a" stroke-width="2" /><line x1="180" y1="160" x2="40" y2="220" stroke="#2563eb" stroke-width="2" stroke-dasharray="4,4" /><circle cx="40" cy="220" r="6" fill="#0f172a" stroke="#ffffff" stroke-width="1" /><text x="54" y="224" font-family="sans-serif" font-size="12" fill="#0f172a">Merge login</text><rect x="126" y="210" width="54" height="18" rx="9" ry="9" fill="#5a819e" stroke="#48677e" /><text x="134" y="223" font-family="sans-serif" font-size="10" fill="#ffffff">v1.0.0</text><circle cx="320" cy="280" r="6" fill="#ef4444" stroke="#ffffff" stroke-width="1" /><text x="334" y="284" font-family="sans-serif" font-size="12" fill="#0f172a">Patch session bug</text><line x1="40" y1="220" x2="40" y2="340" stroke="#0f172a" stroke-width="2" /><line x1="320" y1="280" x2="40" y2="340" stroke="#ef4444" stroke-width="2" stroke-dasharray="4,4" /><circle cx="40" cy="340" r="6" fill="#0f172a" stroke="#ffffff" stroke-width="1" /><text x="54" y="344" font-family="sans-serif" font-size="12" fill="#0f172a">Merge hotfix</text><rect x="132" y="330" width="54" height="18" rx="9" ry="9" fill="#5a819e" stroke="#48677e" /><text x="140" y="343" font-family="sans-serif" font-size="10" fill="#ffffff">v1.0.1</text></svg>