<svg xmlns="http://www.w3.org/2000/svg" xmlns:xlink="http://www.w3.org/1999/xlink" width="1016" height="280.4" viewBox="0 0 1016 280.4" role="img" aria-labelledby="diagram-title" data-id="runiq-diagram"><title id="diagram-title">Product Roadmap</title><rect x="20" y="20" width="976" height="240.39999999999998" rx="12" ry="12" fill="#f0f5f8" stroke="#48677e" /><text x="38" y="52" font-family="sans-serif" font-size="14" font-weight="600" fill="#FFFFFF">Q1 Focus</text><rect x="38" y="60.8" width="220" height="181.6" rx="10" ry="10" fill="#5a819e" stroke="#48677e" /><text x="50" y="86.8" font-family="sans-serif" font-size="14" font-weight="600" fill="#FFFFFF">Backlog (6)</text><rect x="50" y="112.8" width="196" height="52.8" rx="8" ry="8" fill="#73a3bf" stroke="#48677e" /><rect x="50" y="112.8" width="6" height="52.8" fill="#ef4444" rx="8" ry="8" /><text x="66" y="135.8" text-anchor="start" dominant-baseline="hanging" font-family="sans-serif" font-size="13" fill="#FFFFFF" font-weight="600">Customer interviews</text><text x="66" y="155.4" font-family="sans-serif" font-size="11" fill="#FFFFFF">research</text><rect x="50" y="177.6" width="196" height="52.8" rx="8" ry="8" fill="#73a3bf" stroke="#48677e" /><rect x="50" y="177.6" width="6" height="52.8" fill="#f59e0b" rx="8" ry="8" /><text x="66" y="200.6" text-anchor="start" dominant-baseline="hanging" font-family="sans-serif" font-size="13" fill="#FFFFFF" font-weight="600">Design refresh</text><text x="66" y="220.2" font-family="sans-serif" font-size="11" fill="#FFFFFF">design</text><rect x="278" y="60.8" width="220" height="181.6" rx="10" ry="10" fill="#5a819e" stroke="#48677e" /><text x="290" y="86.8" font-family="sans-serif" font-size="14" font-weight="600" fill="#FFFFFF">In Progress (3)</text><rect x="290" y="112.8" width="196" height="52.8" rx="8" ry="8" fill="#73a3bf" stroke="#48677e" /><rect x="290" y="112.8" width="6" height="52.8" fill="#ef4444" rx="8" ry="8" /><text x="306" y="135.8" text-anchor="start" dominant-baseline="hanging" font-family="sans-serif" font-size="13" fill="#FFFFFF" font-weight="600">Mobile onboarding</text><text x="306" y="155.4" font-family="sans-serif" font-size="11" fill="#FFFFFF">Avery | 5d</text><rect x="290" y="177.6" width="196" height="52.8" rx="8" ry="8" fill="#73a3bf" stroke="#48677e" /><rect x="290" y="177.6" width="6" height="52.8" fill="#f59e0b" rx="8" ry="8" /><text x="306" y="200.6" text-anchor="start" dominant-baseline="hanging" font-family="sans-serif" font-size="13" fill="#FFFFFF" font-weight="600">Billing optimizations</text><text x="306" y="220.2" font-family="sans-serif" font-size="11" fill="#FFFFFF">Noah</text><rect x="518" y="60.8" width="220" height="181.6" rx="10" ry="10" fill="#5a819e" stroke="#48677e" /><text x="530" y="86.8" font-family="sans-serif" font-size="14" font-weight="600" fill="#FFFFFF">Review (2)</text><rect x="530" y="112.8" width="196" height="52.8" rx="8" ry="8" fill="#73a3bf" stroke="#48677e" /><rect x="530" y="112.8" width="6" height="52.8" fill="#f59e0b" rx="8" ry="8" /><text x="546" y="135.8" text-anchor="start" dominant-baseline="hanging" font-family="sans-serif" font-size="13" fill="#FFFFFF" font-weight="600">New pricing page</text><text x="546" y="155.4" font-family="sans-serif" font-size="11" fill="#FFFFFF">marketing</text><rect x="758" y="60.8" width="220" height="181.6" rx="10" ry="10" fill="#5a819e" stroke="#48677e" /><text x="770" y="86.8" font-family="sans-serif" font-size="14" font-weight="600" fill="#FFFFFF">Done</text><rect x="770" y="112.8" width="196" height="46" rx="8" ry="8" fill="#73a3bf" stroke="#48677e" /><rect x="770" y="112.8" width="6" height="46" fill="#22c55e" rx="8" ry="8" /><text x="786" y="135.8" text-anchor="start" dominant-baseline="hanging" font-family="sans-serif" font-size="13" fill="#FFFFFF" font-weight="600">Stability sprint</text></svg>