<svg xmlns="http://www.w3.org/2000/svg" xmlns:xlink="http://www.w3.org/1999/xlink" width="1016" height="257.6" viewBox="0 0 1016 257.6" role="img" aria-labelledby="diagram-title" data-id="runiq-diagram"><title id="diagram-title">Bug Triage</title><rect x="20" y="20" width="976" height="217.6" rx="12" ry="12" fill="#F0F8FF" stroke="#0582CA" /><rect x="38" y="38" width="220" height="181.6" rx="10" ry="10" fill="#006BA6" stroke="#0582CA" /><text x="50" y="64" font-family="sans-serif" font-size="14" font-weight="600" fill="#FFFFFF">Incoming (8)</text><rect x="50" y="90" width="196" height="52.8" rx="8" ry="8" fill="#0496FF" stroke="#0582CA" /><rect x="50" y="90" width="6" height="52.8" fill="#7f1d1d" rx="8" ry="8" /><text x="66" y="113" text-anchor="start" dominant-baseline="hanging" font-family="sans-serif" font-size="13" fill="#FFFFFF" font-weight="600">Checkout timeout</text><text x="66" y="132.6" font-family="sans-serif" font-size="11" fill="#FFFFFF">DevOps</text><rect x="50" y="154.8" width="196" height="52.8" rx="8" ry="8" fill="#0496FF" stroke="#0582CA" /><rect x="50" y="154.8" width="6" height="52.8" fill="#ef4444" rx="8" ry="8" /><text x="66" y="177.8" text-anchor="start" dominant-baseline="hanging" font-family="sans-serif" font-size="13" fill="#FFFFFF" font-weight="600">Missing email receipts</text><text x="66" y="197.4" font-family="sans-serif" font-size="11" fill="#FFFFFF">billing</text><rect x="278" y="38" width="220" height="181.6" rx="10" ry="10" fill="#006BA6" stroke="#0582CA" /><text x="290" y="64" font-family="sans-serif" font-size="14" font-weight="600" fill="#FFFFFF">Investigating (4)</text><rect x="290" y="90" width="196" height="52.8" rx="8" ry="8" fill="#0496FF" stroke="#0582CA" /><rect x="290" y="90" width="6" height="52.8" fill="#ef4444" rx="8" ry="8" /><text x="306" y="113" text-anchor="start" dominant-baseline="hanging" font-family="sans-serif" font-size="13" fill="#FFFFFF" font-weight="600">Search latency spike</text><text x="306" y="132.6" font-family="sans-serif" font-size="11" fill="#FFFFFF">Sasha</text><rect x="518" y="38" width="220" height="181.6" rx="10" ry="10" fill="#006BA6" stroke="#0582CA" /><text x="530" y="64" font-family="sans-serif" font-size="14" font-weight="600" fill="#FFFFFF">Fix In Progress (3)</text><rect x="530" y="90" width="196" height="52.8" rx="8" ry="8" fill="#0496FF" stroke="#0582CA" /><rect x="530" y="90" width="6" height="52.8" fill="#f59e0b" rx="8" ry="8" /><text x="546" y="113" text-anchor="start" dominant-baseline="hanging" font-family="sans-serif" font-size="13" fill="#FFFFFF" font-weight="600">Webhook retries</text><text x="546" y="132.6" font-family="sans-serif" font-size="11" fill="#FFFFFF">Ravi | 2d</text><rect x="758" y="38" width="220" height="181.6" rx="10" ry="10" fill="#006BA6" stroke="#0582CA" /><text x="770" y="64" font-family="sans-serif" font-size="14" font-weight="600" fill="#FFFFFF">Resolved</text><rect x="770" y="90" width="196" height="46" rx="8" ry="8" fill="#0496FF" stroke="#0582CA" /><rect x="770" y="90" width="6" height="46" fill="#22c55e" rx="8" ry="8" /><text x="786" y="113" text-anchor="start" dominant-baseline="hanging" font-family="sans-serif" font-size="13" fill="#FFFFFF" font-weight="600">Dark mode contrast</text></svg>