<svg xmlns="http://www.w3.org/2000/svg" xmlns:xlink="http://www.w3.org/1999/xlink" 
    width="697.8" height="1632.6" 
    viewBox="0 0 697.8 1632.6"
    role="img" aria-labelledby="diagram-title"><title id="diagram-title">Multi-Region Deployment</title><defs><style type="text/css"><![CDATA[.runiq-node-text { font-family: sans-serif; font-size: 14px; }.runiq-edge-text { font-family: sans-serif; font-size: 12px; }.runiq-container-label { font-family: sans-serif; font-size: 16px; font-weight: bold; fill: #666; }]]></style><pattern id="pedigree-half-fill" width="40" height="40" patternUnits="userSpaceOnUse"><rect x="0" y="0" width="20" height="40" fill="#000"/><rect x="20" y="0" width="20" height="40" fill="#fff"/></pattern></defs><g data-runiq-container="useast"><rect x="114" y="582" width="483.8" height="545.6" 
    fill="#e8f5e9" stroke="#388e3c" stroke-width="3" rx="8" /><text x="124" y="602" class="runiq-container-label">US East (Primary)</text></g><g data-runiq-container="uswest"><rect x="194" y="1067" width="483.8" height="545.6" 
    fill="#fff8e1" stroke="#f57f17" stroke-width="3" rx="8" /><text x="204" y="1087" class="runiq-container-label">US West (Replica)</text></g><g data-runiq-edge="lb1-app1a"><defs>
      <marker id="arrow-standard-lb1-app1a" markerWidth="10" markerHeight="10" refX="9" refY="3" orient="auto" markerUnits="strokeWidth">
        <polygon points="0,0 0,6 9,3" fill="#333" />
      </marker></defs><path d="M 263 664.8 L 263 674.8 L 493 674.8 L 493 814.8" fill="none" stroke="#333" stroke-width="1" marker-end="url(#arrow-standard-lb1-app1a)" /></g><g data-runiq-edge="lb1-app1b"><defs>
      <marker id="arrow-standard-lb1-app1b" markerWidth="10" markerHeight="10" refX="9" refY="3" orient="auto" markerUnits="strokeWidth">
        <polygon points="0,0 0,6 9,3" fill="#333" />
      </marker></defs><path d="M 218 664.8 L 218 814.8" fill="none" stroke="#333" stroke-width="1" marker-end="url(#arrow-standard-lb1-app1b)" /></g><g data-runiq-edge="app1a-db1"><defs>
      <marker id="arrow-standard-app1a-db1" markerWidth="10" markerHeight="10" refX="9" refY="3" orient="auto" markerUnits="strokeWidth">
        <polygon points="0,0 0,6 9,3" fill="#333" />
      </marker></defs><path d="M 493 855.6 L 493 865.6 L 254 865.6 L 254 1005.6" fill="none" stroke="#333" stroke-width="1" marker-end="url(#arrow-standard-app1a-db1)" /></g><g data-runiq-edge="app1b-db1"><defs>
      <marker id="arrow-standard-app1b-db1" markerWidth="10" markerHeight="10" refX="9" refY="3" orient="auto" markerUnits="strokeWidth">
        <polygon points="0,0 0,6 9,3" fill="#333" />
      </marker></defs><path d="M 218 855.6 L 218 1005.6" fill="none" stroke="#333" stroke-width="1" marker-end="url(#arrow-standard-app1b-db1)" /></g><g data-runiq-edge="lb2-app2a"><defs>
      <marker id="arrow-standard-lb2-app2a" markerWidth="10" markerHeight="10" refX="9" refY="3" orient="auto" markerUnits="strokeWidth">
        <polygon points="0,0 0,6 9,3" fill="#333" />
      </marker></defs><path d="M 343 1149.8 L 343 1159.8 L 573 1159.8 L 573 1299.8" fill="none" stroke="#333" stroke-width="1" marker-end="url(#arrow-standard-lb2-app2a)" /></g><g data-runiq-edge="lb2-app2b"><defs>
      <marker id="arrow-standard-lb2-app2b" markerWidth="10" markerHeight="10" refX="9" refY="3" orient="auto" markerUnits="strokeWidth">
        <polygon points="0,0 0,6 9,3" fill="#333" />
      </marker></defs><path d="M 298 1149.8 L 298 1299.8" fill="none" stroke="#333" stroke-width="1" marker-end="url(#arrow-standard-lb2-app2b)" /></g><g data-runiq-edge="app2a-db2"><defs>
      <marker id="arrow-standard-app2a-db2" markerWidth="10" markerHeight="10" refX="9" refY="3" orient="auto" markerUnits="strokeWidth">
        <polygon points="0,0 0,6 9,3" fill="#333" />
      </marker></defs><path d="M 573 1340.6 L 573 1350.6 L 334 1350.6 L 334 1490.6" fill="none" stroke="#333" stroke-width="1" marker-end="url(#arrow-standard-app2a-db2)" /></g><g data-runiq-edge="app2b-db2"><defs>
      <marker id="arrow-standard-app2b-db2" markerWidth="10" markerHeight="10" refX="9" refY="3" orient="auto" markerUnits="strokeWidth">
        <polygon points="0,0 0,6 9,3" fill="#333" />
      </marker></defs><path d="M 298 1340.6 L 298 1490.6" fill="none" stroke="#333" stroke-width="1" marker-end="url(#arrow-standard-app2b-db2)" /></g><g data-runiq-edge="dns-cdn"><defs>
      <marker id="arrow-standard-dns-cdn" markerWidth="10" markerHeight="10" refX="9" refY="3" orient="auto" markerUnits="strokeWidth">
        <polygon points="0,0 0,6 9,3" fill="#333" />
      </marker></defs><path d="M 89 72 L 89 297" fill="none" stroke="#333" stroke-width="1" marker-end="url(#arrow-standard-dns-cdn)" /></g><g data-runiq-edge="cdn-lb1"><defs>
      <marker id="arrow-standard-cdn-lb1" markerWidth="10" markerHeight="10" refX="9" refY="3" orient="auto" markerUnits="strokeWidth">
        <polygon points="0,0 0,6 9,3" fill="#333" />
      </marker></defs><path d="M 88.80000000000001 327 L 88.80000000000001 485.7 L 240.6 485.7 L 240.6 644.4" fill="none" stroke="#333" stroke-width="1" marker-end="url(#arrow-standard-cdn-lb1)" /></g><g data-runiq-edge="cdn-lb2"><defs>
      <marker id="arrow-standard-cdn-lb2" markerWidth="10" markerHeight="10" refX="9" refY="3" orient="auto" markerUnits="strokeWidth">
        <polygon points="0,0 0,6 9,3" fill="#333" />
      </marker></defs><path d="M 88.80000000000001 327 L 88.80000000000001 728.2 L 320.6 728.2 L 320.6 1129.4" fill="none" stroke="#333" stroke-width="1" marker-end="url(#arrow-standard-cdn-lb2)" /></g><g data-runiq-edge="db1-db2"><defs>
      <marker id="arrow-standard-db1-db2" markerWidth="10" markerHeight="10" refX="9" refY="3" orient="auto" markerUnits="strokeWidth">
        <polygon points="0,0 0,6 9,3" fill="#333" />
      </marker></defs><path d="M 244 842 L 244 852 L 298 852 L 298 1067" fill="none" stroke="#333" stroke-width="1" marker-end="url(#arrow-standard-db1-db2)" /></g><g data-runiq-edge="monitor-lb1"><defs>
      <marker id="arrow-standard-monitor-lb1" markerWidth="10" markerHeight="10" refX="9" refY="3" orient="auto" markerUnits="strokeWidth">
        <polygon points="0,0 0,6 9,3" fill="#333" />
      </marker></defs><path d="M 370 336.59999999999997 L 370 490.5 L 240.6 490.5 L 240.6 644.4" fill="none" stroke="#333" stroke-width="1" marker-end="url(#arrow-standard-monitor-lb1)" /></g><g data-runiq-edge="monitor-lb2"><defs>
      <marker id="arrow-standard-monitor-lb2" markerWidth="10" markerHeight="10" refX="9" refY="3" orient="auto" markerUnits="strokeWidth">
        <polygon points="0,0 0,6 9,3" fill="#333" />
      </marker></defs><path d="M 370 336.59999999999997 L 370 733 L 320.6 733 L 320.6 1129.4" fill="none" stroke="#333" stroke-width="1" marker-end="url(#arrow-standard-monitor-lb2)" /></g><g data-runiq-edge="monitor-db1"><defs>
      <marker id="arrow-standard-monitor-db1" markerWidth="10" markerHeight="10" refX="9" refY="3" orient="auto" markerUnits="strokeWidth">
        <polygon points="0,0 0,6 9,3" fill="#333" />
      </marker></defs><path d="M 370 336.59999999999997 L 370 691.0999999999999 L 236 691.0999999999999 L 236 1045.6" fill="none" stroke="#333" stroke-width="1" marker-end="url(#arrow-standard-monitor-db1)" /></g><g data-runiq-edge="monitor-db2"><defs>
      <marker id="arrow-standard-monitor-db2" markerWidth="10" markerHeight="10" refX="9" refY="3" orient="auto" markerUnits="strokeWidth">
        <polygon points="0,0 0,6 9,3" fill="#333" />
      </marker></defs><path d="M 370 336.59999999999997 L 370 933.5999999999999 L 316 933.5999999999999 L 316 1530.6" fill="none" stroke="#333" stroke-width="1" marker-end="url(#arrow-standard-monitor-db2)" /></g><g data-runiq-node="lb1">
      <rect x="174" y="624" width="133.2" height="40.8"
            fill="#f0f0f0" stroke="#333" stroke-width="1" />
      
      <text x="240.6" y="644.4" 
            text-anchor="middle" dominant-baseline="middle"
            font-family="sans-serif" font-size="14">
        Load Balancer
      </text>
    </g><g data-runiq-node="app1a">
      <rect x="431" y="814.8" width="124.80000000000001" height="40.8"
            rx="8" ry="8" fill="#f0f0f0" stroke="#333" stroke-width="1" />
      
      <text x="493.4" y="835.1999999999999" 
            text-anchor="middle" dominant-baseline="middle"
            font-family="sans-serif" font-size="14">
        App Server 1
      </text>
    </g><g data-runiq-node="app1b">
      <rect x="156" y="814.8" width="124.80000000000001" height="40.8"
            rx="8" ry="8" fill="#f0f0f0" stroke="#333" stroke-width="1" />
      
      <text x="218.4" y="835.1999999999999" 
            text-anchor="middle" dominant-baseline="middle"
            font-family="sans-serif" font-size="14">
        App Server 2
      </text>
    </g><g data-runiq-node="db1">
      <g>
        <!-- Top ellipse -->
        <ellipse cx="236" cy="1017.6" rx="54" ry="12" 
                 fill="#f0f0f0" stroke="#333" stroke-width="1" />
        
        <!-- Side rectangles -->
        <rect x="182" y="1017.6" width="108" height="56" 
              fill="#f0f0f0" stroke="none" />
        
        <!-- Side lines -->
        <line x1="182" y1="1017.6" x2="182" y2="1073.6" 
              stroke="#333" stroke-width="1" />
        <line x1="290" y1="1017.6" x2="290" y2="1073.6" 
              stroke="#333" stroke-width="1" />
        
        <!-- Bottom ellipse (only bottom arc visible) -->
        <path d="M 182,1073.6 
                 Q 236,1097.6 290,1073.6"
              fill="none" stroke="#333" stroke-width="1" />
        
        <text x="236" y="1045.6" 
              text-anchor="middle" dominant-baseline="middle"
              font-family="sans-serif" font-size="14">
          DB Primary
        </text>
      </g>
    </g><g data-runiq-node="lb2">
      <rect x="254" y="1109" width="133.2" height="40.8"
            fill="#f0f0f0" stroke="#333" stroke-width="1" />
      
      <text x="320.6" y="1129.4" 
            text-anchor="middle" dominant-baseline="middle"
            font-family="sans-serif" font-size="14">
        Load Balancer
      </text>
    </g><g data-runiq-node="app2a">
      <rect x="511" y="1299.8" width="124.80000000000001" height="40.8"
            rx="8" ry="8" fill="#f0f0f0" stroke="#333" stroke-width="1" />
      
      <text x="573.4" y="1320.2" 
            text-anchor="middle" dominant-baseline="middle"
            font-family="sans-serif" font-size="14">
        App Server 1
      </text>
    </g><g data-runiq-node="app2b">
      <rect x="236" y="1299.8" width="124.80000000000001" height="40.8"
            rx="8" ry="8" fill="#f0f0f0" stroke="#333" stroke-width="1" />
      
      <text x="298.4" y="1320.2" 
            text-anchor="middle" dominant-baseline="middle"
            font-family="sans-serif" font-size="14">
        App Server 2
      </text>
    </g><g data-runiq-node="db2">
      <g>
        <!-- Top ellipse -->
        <ellipse cx="316" cy="1502.6" rx="54" ry="12" 
                 fill="#f0f0f0" stroke="#333" stroke-width="1" />
        
        <!-- Side rectangles -->
        <rect x="262" y="1502.6" width="108" height="56" 
              fill="#f0f0f0" stroke="none" />
        
        <!-- Side lines -->
        <line x1="262" y1="1502.6" x2="262" y2="1558.6" 
              stroke="#333" stroke-width="1" />
        <line x1="370" y1="1502.6" x2="370" y2="1558.6" 
              stroke="#333" stroke-width="1" />
        
        <!-- Bottom ellipse (only bottom arc visible) -->
        <path d="M 262,1558.6 
                 Q 316,1582.6 370,1558.6"
              fill="none" stroke="#333" stroke-width="1" />
        
        <text x="316" y="1530.6" 
              text-anchor="middle" dominant-baseline="middle"
              font-family="sans-serif" font-size="14">
          DB Replica
        </text>
      </g>
    </g><g data-runiq-node="cdn">
      <polygon points="35.040000000000006,297 142.56000000000003,297 165.60000000000002,327 142.56000000000003,357 35.040000000000006,357 12,327" 
               fill="#f0f0f0" stroke="#333" stroke-width="1" />
      
      <text x="88.80000000000001" y="327" text-anchor="middle" dominant-baseline="middle"
            font-family="sans-serif" font-size="14">
        CloudFront CDN
      </text>
    </g><g data-runiq-node="dns">
      <polygon points="89.4,12 157.8,42 89.4,72 21,42" 
               fill="#f0f0f0" stroke="#333" stroke-width="1" />
      
      <text x="89.4" y="42" text-anchor="middle" dominant-baseline="middle"
            font-family="sans-serif" font-size="14">
        Route 53 DNS
      </text>
    </g><g data-runiq-node="monitor">
      <rect x="316" y="316.2" width="108" height="40.8"
            fill="#f0f0f0" stroke="#333" stroke-width="1" />
      
      <text x="370" y="336.59999999999997" 
            text-anchor="middle" dominant-baseline="middle"
            font-family="sans-serif" font-size="14">
        CloudWatch
      </text>
    </g></svg>