<svg xmlns="http://www.w3.org/2000/svg" xmlns:xlink="http://www.w3.org/1999/xlink" 
    width="1442" height="234.8" 
    viewBox="0 0 1442 234.8"
    role="img" aria-labelledby="diagram-title"><title id="diagram-title">Order State Machine</title><defs><style type="text/css"><![CDATA[.runiq-node-text { font-family: sans-serif; font-size: 14px; }.runiq-edge-text { font-family: sans-serif; font-size: 12px; }.runiq-container-label { font-family: sans-serif; font-size: 16px; font-weight: bold; fill: #666; }]]></style><pattern id="pedigree-half-fill" width="40" height="40" patternUnits="userSpaceOnUse"><rect x="0" y="0" width="20" height="40" fill="#000"/><rect x="20" y="0" width="20" height="40" fill="#fff"/></pattern></defs><g data-runiq-edge="New-Pending"><defs>
      <marker id="arrow-standard-New-Pending" markerWidth="10" markerHeight="10" refX="9" refY="3" orient="auto" markerUnits="strokeWidth">
        <polygon points="0,0 0,6 9,3" fill="#333" />
      </marker></defs><path d="M 111.60000000000001 188 L 121.60000000000001 188 L 121.60000000000001 170 L 261.6 170" fill="none" stroke="#333" stroke-width="1" marker-end="url(#arrow-standard-New-Pending)" /></g><g data-runiq-edge="Pending-Processing"><defs>
      <marker id="arrow-standard-Pending-Processing" markerWidth="10" markerHeight="10" refX="9" refY="3" orient="auto" markerUnits="strokeWidth">
        <polygon points="0,0 0,6 9,3" fill="#333" />
      </marker></defs><path d="M 411.6 164 L 421.6 164 L 421.6 48 L 561.6 48" fill="none" stroke="#333" stroke-width="1" marker-end="url(#arrow-standard-Pending-Processing)" /></g><g data-runiq-edge="Processing-Shipped"><defs>
      <marker id="arrow-standard-Processing-Shipped" markerWidth="10" markerHeight="10" refX="9" refY="3" orient="auto" markerUnits="strokeWidth">
        <polygon points="0,0 0,6 9,3" fill="#333" />
      </marker></defs><path d="M 669.6 42 L 828 42" fill="none" stroke="#333" stroke-width="1" marker-end="url(#arrow-standard-Processing-Shipped)" /></g><g data-runiq-edge="Shipped-Delivered"><defs>
      <marker id="arrow-standard-Shipped-Delivered" markerWidth="10" markerHeight="10" refX="9" refY="3" orient="auto" markerUnits="strokeWidth">
        <polygon points="0,0 0,6 9,3" fill="#333" />
      </marker></defs><path d="M 910.8 42 L 1069.2 42" fill="none" stroke="#333" stroke-width="1" marker-end="url(#arrow-standard-Shipped-Delivered)" /></g><g data-runiq-edge="New-Cancelled"><defs>
      <marker id="arrow-standard-New-Cancelled" markerWidth="10" markerHeight="10" refX="9" refY="3" orient="auto" markerUnits="strokeWidth">
        <polygon points="0,0 0,6 9,3" fill="#333" />
      </marker></defs><path d="M 111.60000000000001 201 L 819.6 201" fill="none" stroke="#333" stroke-width="1" marker-end="url(#arrow-standard-New-Cancelled)" /></g><g data-runiq-edge="Pending-Cancelled"><defs>
      <marker id="arrow-standard-Pending-Cancelled" markerWidth="10" markerHeight="10" refX="9" refY="3" orient="auto" markerUnits="strokeWidth">
        <polygon points="0,0 0,6 9,3" fill="#333" />
      </marker></defs><path d="M 411.6 177 L 679.6 177 L 679.6 188 L 819.6 188" fill="none" stroke="#333" stroke-width="1" marker-end="url(#arrow-standard-Pending-Cancelled)" /></g><g data-runiq-edge="Processing-Cancelled"><defs>
      <marker id="arrow-standard-Processing-Cancelled" markerWidth="10" markerHeight="10" refX="9" refY="3" orient="auto" markerUnits="strokeWidth">
        <polygon points="0,0 0,6 9,3" fill="#333" />
      </marker></defs><path d="M 669.6 55 L 689.6 55 L 689.6 176 L 819.6 176" fill="none" stroke="#333" stroke-width="1" marker-end="url(#arrow-standard-Processing-Cancelled)" /></g><g data-runiq-edge="Delivered-Refunded"><defs>
      <marker id="arrow-standard-Delivered-Refunded" markerWidth="10" markerHeight="10" refX="9" refY="3" orient="auto" markerUnits="strokeWidth">
        <polygon points="0,0 0,6 9,3" fill="#333" />
      </marker></defs><path d="M 1180.8 42 L 1330.8 42" fill="none" stroke="#333" stroke-width="1" marker-end="url(#arrow-standard-Delivered-Refunded)" /></g><g data-runiq-node="New">
      <rect x="12" y="174" width="99.60000000000001" height="40.8"
            rx="8" ry="8" fill="#f0f0f0" stroke="#333" stroke-width="1" />
      
      <text x="61.800000000000004" y="194.4" 
            text-anchor="middle" dominant-baseline="middle"
            font-family="sans-serif" font-size="14">
        New Order
      </text>
    </g><g data-runiq-node="Pending">
      <rect x="261.6" y="150" width="150" height="40.8"
            fill="#f0f0f0" stroke="#333" stroke-width="1" />
      
      <text x="336.6" y="170.4" 
            text-anchor="middle" dominant-baseline="middle"
            font-family="sans-serif" font-size="14">
        Pending Payment
      </text>
    </g><g data-runiq-node="Processing">
      <rect x="561.6" y="28" width="108" height="40.8"
            fill="#f0f0f0" stroke="#333" stroke-width="1" />
      
      <text x="615.6" y="48.4" 
            text-anchor="middle" dominant-baseline="middle"
            font-family="sans-serif" font-size="14">
        Processing
      </text>
    </g><g data-runiq-node="Shipped">
      <rect x="828" y="22" width="82.80000000000001" height="40.8"
            fill="#f0f0f0" stroke="#333" stroke-width="1" />
      
      <text x="869.4" y="42.4" 
            text-anchor="middle" dominant-baseline="middle"
            font-family="sans-serif" font-size="14">
        Shipped
      </text>
    </g><g data-runiq-node="Delivered">
      <polygon points="1085.94,12 1164.06,12 1180.8,42 1164.06,72 1085.94,72 1069.2,42" 
               fill="#f0f0f0" stroke="#333" stroke-width="1" />
      
      <text x="1125" y="42" text-anchor="middle" dominant-baseline="middle"
            font-family="sans-serif" font-size="14">
        Delivered
      </text>
    </g><g data-runiq-node="Cancelled">
      <path d="M 819.6 163 L 909.2 163 L 919.2 173 L 919.2 213.8 L 819.6 213.8 Z M 909.2 163 L 909.2 173 L 919.2 173" fill="#f0f0f0" stroke="#333" stroke-width="1" />
      
      <text x="869.4" y="188.4" 
            text-anchor="middle" dominant-baseline="middle"
            font-family="sans-serif" font-size="14">
        Cancelled
      </text>
    </g><g data-runiq-node="Refunded">
      <path d="M 1330.8 17 L 1412 17 L 1422 27 L 1422 67.8 L 1330.8 67.8 Z M 1412 17 L 1412 27 L 1422 27" fill="#f0f0f0" stroke="#333" stroke-width="1" />
      
      <text x="1376.3999999999999" y="42.4" 
            text-anchor="middle" dominant-baseline="middle"
            font-family="sans-serif" font-size="14">
        Refunded
      </text>
    </g></svg>