<svg xmlns="http://www.w3.org/2000/svg" xmlns:xlink="http://www.w3.org/1999/xlink" 
    width="2307.2" height="335.8" 
    viewBox="0 0 2307.2 335.8"
    role="img" aria-labelledby="diagram-title"><title id="diagram-title">Grover&#39;s Search Algorithm</title><defs><style type="text/css"><![CDATA[.runiq-node-text { font-family: sans-serif; font-size: 14px; }.runiq-edge-text { font-family: sans-serif; font-size: 12px; }.runiq-container-label { font-family: sans-serif; font-size: 16px; font-weight: bold; fill: #666; }]]></style><pattern id="pedigree-half-fill" width="40" height="40" patternUnits="userSpaceOnUse"><rect x="0" y="0" width="20" height="40" fill="#000"/><rect x="20" y="0" width="20" height="40" fill="#fff"/></pattern></defs><g data-runiq-edge="q0-H0_init"><defs>
      <marker id="arrow-standard-q0-H0_init" markerWidth="10" markerHeight="10" refX="9" refY="3" orient="auto" markerUnits="strokeWidth">
        <polygon points="0,0 0,6 9,3" fill="#333" />
      </marker></defs><path d="M 62 32.5 L 137 32.5 L 137 33 L 212 33" fill="none" stroke="#333" stroke-width="1" marker-end="url(#arrow-standard-q0-H0_init)" /></g><g data-runiq-edge="H0_init-barrier1"><defs>
      <marker id="arrow-standard-H0_init-barrier1" markerWidth="10" markerHeight="10" refX="9" refY="3" orient="auto" markerUnits="strokeWidth">
        <polygon points="0,0 0,6 9,3" fill="#333" />
      </marker></defs><path d="M 232 33 L 307.5 33 L 307.5 13 L 383 13" fill="none" stroke="#333" stroke-width="1" marker-end="url(#arrow-standard-H0_init-barrier1)" /></g><g data-runiq-edge="barrier1-oracle0"><defs>
      <marker id="arrow-standard-barrier1-oracle0" markerWidth="10" markerHeight="10" refX="9" refY="3" orient="auto" markerUnits="strokeWidth">
        <polygon points="0,0 0,6 9,3" fill="#333" />
      </marker></defs><path d="M 383 13 L 383 23.2 L 534 23.2 L 534 33.4" fill="none" stroke="#333" stroke-width="1" marker-end="url(#arrow-standard-barrier1-oracle0)" /></g><g data-runiq-edge="oracle0-barrier2"><defs>
      <marker id="arrow-standard-oracle0-barrier2" markerWidth="10" markerHeight="10" refX="9" refY="3" orient="auto" markerUnits="strokeWidth">
        <polygon points="0,0 0,6 9,3" fill="#333" />
      </marker></defs><path d="M 608.4 33.4 L 695.9 33.4 L 695.9 13 L 783.4 13" fill="none" stroke="#333" stroke-width="1" marker-end="url(#arrow-standard-oracle0-barrier2)" /></g><g data-runiq-edge="barrier2-H0_diff"><defs>
      <marker id="arrow-standard-barrier2-H0_diff" markerWidth="10" markerHeight="10" refX="9" refY="3" orient="auto" markerUnits="strokeWidth">
        <polygon points="0,0 0,6 9,3" fill="#333" />
      </marker></defs><path d="M 783.4 13 L 783.4 23 L 985.6 23 L 985.6 33" fill="none" stroke="#333" stroke-width="1" marker-end="url(#arrow-standard-barrier2-H0_diff)" /></g><g data-runiq-edge="H0_diff-X0_diff"><defs>
      <marker id="arrow-standard-H0_diff-X0_diff" markerWidth="10" markerHeight="10" refX="9" refY="3" orient="auto" markerUnits="strokeWidth">
        <polygon points="0,0 0,6 9,3" fill="#333" />
      </marker></defs><path d="M 1005.6 33 L 1107.8 33 L 1107.8 33 L 1210 33" fill="none" stroke="#333" stroke-width="1" marker-end="url(#arrow-standard-H0_diff-X0_diff)" /></g><g data-runiq-edge="X0_diff-control0_diff"><defs>
      <marker id="arrow-standard-X0_diff-control0_diff" markerWidth="10" markerHeight="10" refX="9" refY="3" orient="auto" markerUnits="strokeWidth">
        <polygon points="0,0 0,6 9,3" fill="#333" />
      </marker></defs><path d="M 1230 33 L 1322.6 33 L 1322.6 33 L 1415.2 33" fill="none" stroke="#333" stroke-width="1" marker-end="url(#arrow-standard-X0_diff-control0_diff)" /></g><g data-runiq-edge="control0_diff-X0_undo"><defs>
      <marker id="arrow-standard-control0_diff-X0_undo" markerWidth="10" markerHeight="10" refX="9" refY="3" orient="auto" markerUnits="strokeWidth">
        <polygon points="0,0 0,6 9,3" fill="#333" />
      </marker></defs><path d="M 1423.2 33 L 1500.2 33 L 1500.2 32 L 1577.2 32" fill="none" stroke="#333" stroke-width="1" marker-end="url(#arrow-standard-control0_diff-X0_undo)" /></g><g data-runiq-edge="X0_undo-H0_final"><defs>
      <marker id="arrow-standard-X0_undo-H0_final" markerWidth="10" markerHeight="10" refX="9" refY="3" orient="auto" markerUnits="strokeWidth">
        <polygon points="0,0 0,6 9,3" fill="#333" />
      </marker></defs><path d="M 1597.2 32 L 1672.2 32 L 1672.2 32 L 1747.2 32" fill="none" stroke="#333" stroke-width="1" marker-end="url(#arrow-standard-X0_undo-H0_final)" /></g><g data-runiq-edge="H0_final-barrier3"><defs>
      <marker id="arrow-standard-H0_final-barrier3" markerWidth="10" markerHeight="10" refX="9" refY="3" orient="auto" markerUnits="strokeWidth">
        <polygon points="0,0 0,6 9,3" fill="#333" />
      </marker></defs><path d="M 1767.2 32 L 1847.2 32 L 1847.2 12 L 1927.2 12" fill="none" stroke="#333" stroke-width="1" marker-end="url(#arrow-standard-H0_final-barrier3)" /></g><g data-runiq-edge="barrier3-M0"><defs>
      <marker id="arrow-standard-barrier3-M0" markerWidth="10" markerHeight="10" refX="9" refY="3" orient="auto" markerUnits="strokeWidth">
        <polygon points="0,0 0,6 9,3" fill="#333" />
      </marker></defs><path d="M 1927.2 12 L 1927.2 22 L 2087.2 22 L 2087.2 32" fill="none" stroke="#333" stroke-width="1" marker-end="url(#arrow-standard-barrier3-M0)" /></g><g data-runiq-edge="q1-H1_init"><defs>
      <marker id="arrow-standard-q1-H1_init" markerWidth="10" markerHeight="10" refX="9" refY="3" orient="auto" markerUnits="strokeWidth">
        <polygon points="0,0 0,6 9,3" fill="#333" />
      </marker></defs><path d="M 608.4 163.5 L 690.9 163.5 L 690.9 164 L 773.4 164" fill="none" stroke="#333" stroke-width="1" marker-end="url(#arrow-standard-q1-H1_init)" /></g><g data-runiq-edge="H1_init-oracle1"><defs>
      <marker id="arrow-standard-H1_init-oracle1" markerWidth="10" markerHeight="10" refX="9" refY="3" orient="auto" markerUnits="strokeWidth">
        <polygon points="0,0 0,6 9,3" fill="#333" />
      </marker></defs><path d="M 793.4 164 L 875.9 164 L 875.9 164.4 L 958.4 164.4" fill="none" stroke="#333" stroke-width="1" marker-end="url(#arrow-standard-H1_init-oracle1)" /></g><g data-runiq-edge="oracle1-H1_diff"><defs>
      <marker id="arrow-standard-oracle1-H1_diff" markerWidth="10" markerHeight="10" refX="9" refY="3" orient="auto" markerUnits="strokeWidth">
        <polygon points="0,0 0,6 9,3" fill="#333" />
      </marker></defs><path d="M 1032.8 164.4 L 1121.4 164.4 L 1121.4 164 L 1210 164" fill="none" stroke="#333" stroke-width="1" marker-end="url(#arrow-standard-oracle1-H1_diff)" /></g><g data-runiq-edge="H1_diff-X1_diff"><defs>
      <marker id="arrow-standard-H1_diff-X1_diff" markerWidth="10" markerHeight="10" refX="9" refY="3" orient="auto" markerUnits="strokeWidth">
        <polygon points="0,0 0,6 9,3" fill="#333" />
      </marker></defs><path d="M 1230 164 L 1318.6 164 L 1318.6 164 L 1407.2 164" fill="none" stroke="#333" stroke-width="1" marker-end="url(#arrow-standard-H1_diff-X1_diff)" /></g><g data-runiq-edge="X1_diff-control1_diff"><defs>
      <marker id="arrow-standard-X1_diff-control1_diff" markerWidth="10" markerHeight="10" refX="9" refY="3" orient="auto" markerUnits="strokeWidth">
        <polygon points="0,0 0,6 9,3" fill="#333" />
      </marker></defs><path d="M 1427.2 164 L 1505.2 164 L 1505.2 163 L 1583.2 163" fill="none" stroke="#333" stroke-width="1" marker-end="url(#arrow-standard-X1_diff-control1_diff)" /></g><g data-runiq-edge="control1_diff-X1_undo"><defs>
      <marker id="arrow-standard-control1_diff-X1_undo" markerWidth="10" markerHeight="10" refX="9" refY="3" orient="auto" markerUnits="strokeWidth">
        <polygon points="0,0 0,6 9,3" fill="#333" />
      </marker></defs><path d="M 1591.2 163 L 1669.2 163 L 1669.2 162 L 1747.2 162" fill="none" stroke="#333" stroke-width="1" marker-end="url(#arrow-standard-control1_diff-X1_undo)" /></g><g data-runiq-edge="X1_undo-H1_final"><defs>
      <marker id="arrow-standard-X1_undo-H1_final" markerWidth="10" markerHeight="10" refX="9" refY="3" orient="auto" markerUnits="strokeWidth">
        <polygon points="0,0 0,6 9,3" fill="#333" />
      </marker></defs><path d="M 1767.2 162 L 1842.2 162 L 1842.2 162 L 1917.2 162" fill="none" stroke="#333" stroke-width="1" marker-end="url(#arrow-standard-X1_undo-H1_final)" /></g><g data-runiq-edge="H1_final-M1"><defs>
      <marker id="arrow-standard-H1_final-M1" markerWidth="10" markerHeight="10" refX="9" refY="3" orient="auto" markerUnits="strokeWidth">
        <polygon points="0,0 0,6 9,3" fill="#333" />
      </marker></defs><path d="M 1937.2 162 L 2012.1999999999998 162 L 2012.1999999999998 162 L 2087.2 162" fill="none" stroke="#333" stroke-width="1" marker-end="url(#arrow-standard-H1_final-M1)" /></g><g data-runiq-edge="q2-H2_init"><defs>
      <marker id="arrow-standard-q2-H2_init" markerWidth="10" markerHeight="10" refX="9" refY="3" orient="auto" markerUnits="strokeWidth">
        <polygon points="0,0 0,6 9,3" fill="#333" />
      </marker></defs><path d="M 808.4 294.5 L 897 294.5 L 897 295 L 985.6 295" fill="none" stroke="#333" stroke-width="1" marker-end="url(#arrow-standard-q2-H2_init)" /></g><g data-runiq-edge="H2_init-oracle2"><defs>
      <marker id="arrow-standard-H2_init-oracle2" markerWidth="10" markerHeight="10" refX="9" refY="3" orient="auto" markerUnits="strokeWidth">
        <polygon points="0,0 0,6 9,3" fill="#333" />
      </marker></defs><path d="M 1005.6 295 L 1094.2 295 L 1094.2 295.4 L 1182.8 295.4" fill="none" stroke="#333" stroke-width="1" marker-end="url(#arrow-standard-H2_init-oracle2)" /></g><g data-runiq-edge="oracle2-H2_diff"><defs>
      <marker id="arrow-standard-oracle2-H2_diff" markerWidth="10" markerHeight="10" refX="9" refY="3" orient="auto" markerUnits="strokeWidth">
        <polygon points="0,0 0,6 9,3" fill="#333" />
      </marker></defs><path d="M 1257.2 295.4 L 1332.2 295.4 L 1332.2 295 L 1407.2 295" fill="none" stroke="#333" stroke-width="1" marker-end="url(#arrow-standard-oracle2-H2_diff)" /></g><g data-runiq-edge="H2_diff-X2_diff"><defs>
      <marker id="arrow-standard-H2_diff-X2_diff" markerWidth="10" markerHeight="10" refX="9" refY="3" orient="auto" markerUnits="strokeWidth">
        <polygon points="0,0 0,6 9,3" fill="#333" />
      </marker></defs><path d="M 1427.2 295 L 1502.2 295 L 1502.2 295 L 1577.2 295" fill="none" stroke="#333" stroke-width="1" marker-end="url(#arrow-standard-H2_diff-X2_diff)" /></g><g data-runiq-edge="X2_diff-target2_diff"><defs>
      <marker id="arrow-standard-X2_diff-target2_diff" markerWidth="10" markerHeight="10" refX="9" refY="3" orient="auto" markerUnits="strokeWidth">
        <polygon points="0,0 0,6 9,3" fill="#333" />
      </marker></defs><path d="M 1597.2 295 L 1672.2 295 L 1672.2 292 L 1747.2 292" fill="none" stroke="#333" stroke-width="1" marker-end="url(#arrow-standard-X2_diff-target2_diff)" /></g><g data-runiq-edge="target2_diff-X2_undo"><defs>
      <marker id="arrow-standard-target2_diff-X2_undo" markerWidth="10" markerHeight="10" refX="9" refY="3" orient="auto" markerUnits="strokeWidth">
        <polygon points="0,0 0,6 9,3" fill="#333" />
      </marker></defs><path d="M 1767.2 292 L 1842.2 292 L 1842.2 292 L 1917.2 292" fill="none" stroke="#333" stroke-width="1" marker-end="url(#arrow-standard-target2_diff-X2_undo)" /></g><g data-runiq-edge="X2_undo-H2_final"><defs>
      <marker id="arrow-standard-X2_undo-H2_final" markerWidth="10" markerHeight="10" refX="9" refY="3" orient="auto" markerUnits="strokeWidth">
        <polygon points="0,0 0,6 9,3" fill="#333" />
      </marker></defs><path d="M 1937.2 292 L 2013.4499999999998 292 L 2013.4499999999998 292 L 2089.7 292" fill="none" stroke="#333" stroke-width="1" marker-end="url(#arrow-standard-X2_undo-H2_final)" /></g><g data-runiq-edge="H2_final-M2"><defs>
      <marker id="arrow-standard-H2_final-M2" markerWidth="10" markerHeight="10" refX="9" refY="3" orient="auto" markerUnits="strokeWidth">
        <polygon points="0,0 0,6 9,3" fill="#333" />
      </marker></defs><path d="M 2109.7 292 L 2185.95 292 L 2185.95 292 L 2262.2 292" fill="none" stroke="#333" stroke-width="1" marker-end="url(#arrow-standard-H2_final-M2)" /></g><g data-runiq-edge="control0_diff-control1_diff"><defs>
      <marker id="arrow-standard-control0_diff-control1_diff" markerWidth="10" markerHeight="10" refX="9" refY="3" orient="auto" markerUnits="strokeWidth">
        <polygon points="0,0 0,6 9,3" fill="#333" />
      </marker></defs><path d="M 1423.2 33 L 1462.2 33 L 1462.2 162 L 1583.2 163" fill="none" stroke="#333" stroke-width="1" marker-end="url(#arrow-standard-control0_diff-control1_diff)" /></g><g data-runiq-edge="control1_diff-target2_diff"><defs>
      <marker id="arrow-standard-control1_diff-target2_diff" markerWidth="10" markerHeight="10" refX="9" refY="3" orient="auto" markerUnits="strokeWidth">
        <polygon points="0,0 0,6 9,3" fill="#333" />
      </marker></defs><path d="M 1591.2 163 L 1632.2 163 L 1632.2 289 L 1747.2 292" fill="none" stroke="#333" stroke-width="1" marker-end="url(#arrow-standard-control1_diff-target2_diff)" /></g><g data-runiq-node="q0"><g><line x1="12" y1="32" x2="62" y2="32" stroke="#000000" stroke-width="1" /></g></g><g data-runiq-node="q1"><g><line x1="558.4" y1="163" x2="608.4" y2="163" stroke="#000000" stroke-width="1" /></g></g><g data-runiq-node="q2"><g><line x1="758.4" y1="294" x2="808.4" y2="294" stroke="#000000" stroke-width="1" /></g></g><g data-runiq-node="H0_init"><g><rect x="212" y="23" width="20" height="20" fill="#e8f5e9" stroke="#000" stroke-width="2" rx="2" /><text x="222" y="37" text-anchor="middle" font-size="14" font-weight="bold" fill="#000">H</text></g></g><g data-runiq-node="H1_init"><g><rect x="773.4" y="154" width="20" height="20" fill="#e8f5e9" stroke="#000" stroke-width="2" rx="2" /><text x="783.4" y="168" text-anchor="middle" font-size="14" font-weight="bold" fill="#000">H</text></g></g><g data-runiq-node="H2_init"><g><rect x="985.6" y="285" width="20" height="20" fill="#e8f5e9" stroke="#000" stroke-width="2" rx="2" /><text x="995.6" y="299" text-anchor="middle" font-size="14" font-weight="bold" fill="#000">H</text></g></g><g data-runiq-node="barrier1"><g><line x1="383" y1="13" x2="383" y2="53" 
            stroke="#888888" stroke-width="2" stroke-dasharray="4,4" /></g></g><g data-runiq-node="oracle0">
      <rect x="534" y="13" width="74.4" height="40.8"
            fill="#f3e5f5" stroke="#000" stroke-width="1" />
      
      <text x="571.2" y="33.4" 
            text-anchor="middle" dominant-baseline="middle"
            font-family="sans-serif" font-size="14">
        Oracle
      </text>
    </g><g data-runiq-node="oracle1">
      <rect x="958.4" y="144" width="74.4" height="40.8"
            fill="#f3e5f5" stroke="#000" stroke-width="1" />
      
      <text x="995.6" y="164.4" 
            text-anchor="middle" dominant-baseline="middle"
            font-family="sans-serif" font-size="14">
        Oracle
      </text>
    </g><g data-runiq-node="oracle2">
      <rect x="1182.8" y="275" width="74.4" height="40.8"
            fill="#f3e5f5" stroke="#000" stroke-width="1" />
      
      <text x="1220" y="295.4" 
            text-anchor="middle" dominant-baseline="middle"
            font-family="sans-serif" font-size="14">
        Oracle
      </text>
    </g><g data-runiq-node="barrier2"><g><line x1="783.4" y1="13" x2="783.4" y2="53" 
            stroke="#888888" stroke-width="2" stroke-dasharray="4,4" /></g></g><g data-runiq-node="H0_diff"><g><rect x="985.6" y="23" width="20" height="20" fill="#e8f5e9" stroke="#000" stroke-width="2" rx="2" /><text x="995.6" y="37" text-anchor="middle" font-size="14" font-weight="bold" fill="#000">H</text></g></g><g data-runiq-node="H1_diff"><g><rect x="1210" y="154" width="20" height="20" fill="#e8f5e9" stroke="#000" stroke-width="2" rx="2" /><text x="1220" y="168" text-anchor="middle" font-size="14" font-weight="bold" fill="#000">H</text></g></g><g data-runiq-node="H2_diff"><g><rect x="1407.2" y="285" width="20" height="20" fill="#e8f5e9" stroke="#000" stroke-width="2" rx="2" /><text x="1417.2" y="299" text-anchor="middle" font-size="14" font-weight="bold" fill="#000">H</text></g></g><g data-runiq-node="X0_diff"><g><rect x="1210" y="23" width="20" height="20" fill="#ffebee" stroke="#000" stroke-width="2" rx="2" /><text x="1220" y="37" text-anchor="middle" font-size="14" font-weight="bold" fill="#000">X</text></g></g><g data-runiq-node="X1_diff"><g><rect x="1407.2" y="154" width="20" height="20" fill="#ffebee" stroke="#000" stroke-width="2" rx="2" /><text x="1417.2" y="168" text-anchor="middle" font-size="14" font-weight="bold" fill="#000">X</text></g></g><g data-runiq-node="X2_diff"><g><rect x="1577.2" y="285" width="20" height="20" fill="#ffebee" stroke="#000" stroke-width="2" rx="2" /><text x="1587.2" y="299" text-anchor="middle" font-size="14" font-weight="bold" fill="#000">X</text></g></g><g data-runiq-node="control0_diff"><g><circle cx="1419.2" cy="33" r="4" fill="#000" stroke="none" /></g></g><g data-runiq-node="control1_diff"><g><circle cx="1587.2" cy="163" r="4" fill="#000" stroke="none" /></g></g><g data-runiq-node="target2_diff"><g><rect x="1747.2" y="282" width="20" height="20" fill="#ffebee" stroke="#000" stroke-width="2" rx="2" /><text x="1757.2" y="296" text-anchor="middle" font-size="14" font-weight="bold" fill="#000">Z</text></g></g><g data-runiq-node="X0_undo"><g><rect x="1577.2" y="22" width="20" height="20" fill="#ffebee" stroke="#000" stroke-width="2" rx="2" /><text x="1587.2" y="36" text-anchor="middle" font-size="14" font-weight="bold" fill="#000">X</text></g></g><g data-runiq-node="X1_undo"><g><rect x="1747.2" y="152" width="20" height="20" fill="#ffebee" stroke="#000" stroke-width="2" rx="2" /><text x="1757.2" y="166" text-anchor="middle" font-size="14" font-weight="bold" fill="#000">X</text></g></g><g data-runiq-node="X2_undo"><g><rect x="1917.2" y="282" width="20" height="20" fill="#ffebee" stroke="#000" stroke-width="2" rx="2" /><text x="1927.2" y="296" text-anchor="middle" font-size="14" font-weight="bold" fill="#000">X</text></g></g><g data-runiq-node="H0_final"><g><rect x="1747.2" y="22" width="20" height="20" fill="#e8f5e9" stroke="#000" stroke-width="2" rx="2" /><text x="1757.2" y="36" text-anchor="middle" font-size="14" font-weight="bold" fill="#000">H</text></g></g><g data-runiq-node="H1_final"><g><rect x="1917.2" y="152" width="20" height="20" fill="#e8f5e9" stroke="#000" stroke-width="2" rx="2" /><text x="1927.2" y="166" text-anchor="middle" font-size="14" font-weight="bold" fill="#000">H</text></g></g><g data-runiq-node="H2_final"><g><rect x="2089.7" y="282" width="20" height="20" fill="#e8f5e9" stroke="#000" stroke-width="2" rx="2" /><text x="2099.7" y="296" text-anchor="middle" font-size="14" font-weight="bold" fill="#000">H</text></g></g><g data-runiq-node="barrier3"><g><line x1="1927.2" y1="12" x2="1927.2" y2="52" 
            stroke="#888888" stroke-width="2" stroke-dasharray="4,4" /></g></g><g data-runiq-node="M0"><g><rect x="2087.2" y="22" width="25" height="20" fill="#e3f2fd" stroke="#000" stroke-width="2" rx="2" /><path d="M 2092.2,36 A 7.5,7.5 0 0,1 2107.2,36" 
            fill="none" stroke="#000" stroke-width="1.5" /><line x1="2099.7" y1="36" x2="2103.7" y2="30" 
            stroke="#000" stroke-width="1.5" /></g></g><g data-runiq-node="M1"><g><rect x="2087.2" y="152" width="25" height="20" fill="#e3f2fd" stroke="#000" stroke-width="2" rx="2" /><path d="M 2092.2,166 A 7.5,7.5 0 0,1 2107.2,166" 
            fill="none" stroke="#000" stroke-width="1.5" /><line x1="2099.7" y1="166" x2="2103.7" y2="160" 
            stroke="#000" stroke-width="1.5" /></g></g><g data-runiq-node="M2"><g><rect x="2262.2" y="282" width="25" height="20" fill="#e3f2fd" stroke="#000" stroke-width="2" rx="2" /><path d="M 2267.2,296 A 7.5,7.5 0 0,1 2282.2,296" 
            fill="none" stroke="#000" stroke-width="1.5" /><line x1="2274.7" y1="296" x2="2278.7" y2="290" 
            stroke="#000" stroke-width="1.5" /></g></g></svg>