<svg xmlns="http://www.w3.org/2000/svg" xmlns:xlink="http://www.w3.org/1999/xlink" 
    width="242" height="651.8" 
    viewBox="0 0 242 651.8"
    role="img" aria-labelledby="diagram-title"><title id="diagram-title">Simple Container Test</title><defs><style type="text/css"><![CDATA[.runiq-node-text { font-family: sans-serif; font-size: 14px; }.runiq-edge-text { font-family: sans-serif; font-size: 12px; }.runiq-container-label { font-family: sans-serif; font-size: 16px; font-weight: bold; fill: #666; }]]></style><pattern id="pedigree-half-fill" width="40" height="40" patternUnits="userSpaceOnUse"><rect x="0" y="0" width="20" height="40" fill="#000"/><rect x="20" y="0" width="20" height="40" fill="#fff"/></pattern></defs><g data-runiq-container="backend"><rect x="22" y="277.8" width="200" height="354" 
    fill="#e3f2fd" stroke="#1976d2" stroke-width="3" rx="8" /><text x="32" y="297.8" class="runiq-container-label">Backend</text></g><g data-runiq-edge="api-auth"><defs>
      <marker id="arrow-standard-api-auth" markerWidth="10" markerHeight="10" refX="9" refY="3" orient="auto" markerUnits="strokeWidth">
        <polygon points="0,0 0,6 9,3" fill="#333" />
      </marker></defs><path d="M 114 379.8 L 114 529.8" fill="none" stroke="#333" stroke-width="1" marker-end="url(#arrow-standard-api-auth)" /></g><g data-runiq-edge="web-api"><defs>
      <marker id="arrow-standard-web-api" markerWidth="10" markerHeight="10" refX="9" refY="3" orient="auto" markerUnits="strokeWidth">
        <polygon points="0,0 0,6 9,3" fill="#333" />
      </marker></defs><path d="M 122.6 32.4 L 122.6 191.1 L 114 191.1 L 114 349.8" fill="none" stroke="#333" stroke-width="1" marker-end="url(#arrow-standard-web-api)" /></g><g data-runiq-node="api">
      <polygon points="79,319.8 149,319.8 164,349.8 149,379.8 79,379.8 64,349.8" 
               fill="#f0f0f0" stroke="#333" stroke-width="1" />
      
      <text x="114" y="349.8" text-anchor="middle" dominant-baseline="middle"
            font-family="sans-serif" font-size="14">
        API
      </text>
    </g><g data-runiq-node="auth">
      <polygon points="79,529.8 149,529.8 164,559.8 149,589.8 79,589.8 64,559.8" 
               fill="#f0f0f0" stroke="#333" stroke-width="1" />
      
      <text x="114" y="559.8" text-anchor="middle" dominant-baseline="middle"
            font-family="sans-serif" font-size="14">
        Auth
      </text>
    </g><g data-runiq-node="web">
      <rect x="98" y="12" width="49.2" height="40.8"
            rx="8" ry="8" fill="#f0f0f0" stroke="#333" stroke-width="1" />
      
      <text x="122.6" y="32.4" 
            text-anchor="middle" dominant-baseline="middle"
            font-family="sans-serif" font-size="14">
        Web
      </text>
    </g></svg>