<svg xmlns="http://www.w3.org/2000/svg" xmlns:xlink="http://www.w3.org/1999/xlink" 
    width="378" height="672.8" 
    viewBox="0 0 378 672.8"
    role="img" aria-labelledby="diagram-title"><title id="diagram-title">State-Space Representation</title><defs><style type="text/css"><![CDATA[.runiq-node-text { font-family: sans-serif; font-size: 14px; }.runiq-edge-text { font-family: sans-serif; font-size: 12px; }.runiq-container-label { font-family: sans-serif; font-size: 16px; font-weight: bold; fill: #666; }]]></style><pattern id="pedigree-half-fill" width="40" height="40" patternUnits="userSpaceOnUse"><rect x="0" y="0" width="20" height="40" fill="#000"/><rect x="20" y="0" width="20" height="40" fill="#fff"/></pattern></defs><g data-runiq-edge="u-b"><defs>
      <marker id="arrow-standard-u-b" markerWidth="10" markerHeight="10" refX="9" refY="3" orient="auto" markerUnits="strokeWidth">
        <polygon points="0,0 0,6 9,3" fill="#333" />
      </marker></defs><path d="M 321 52.8 L 321 202.8" fill="none" stroke="#333" stroke-width="1" marker-end="url(#arrow-standard-u-b)" /></g><g data-runiq-edge="b-sum1"><defs>
      <marker id="arrow-standard-b-sum1" markerWidth="10" markerHeight="10" refX="9" refY="3" orient="auto" markerUnits="strokeWidth">
        <polygon points="0,0 0,6 9,3" fill="#333" />
      </marker></defs><path d="M 321 252.8 L 321 262.8 L 162 262.8 L 162 402.8" fill="none" stroke="#333" stroke-width="1" marker-end="url(#arrow-standard-b-sum1)" /></g><g data-runiq-edge="sum1-int"><defs>
      <marker id="arrow-standard-sum1-int" markerWidth="10" markerHeight="10" refX="9" refY="3" orient="auto" markerUnits="strokeWidth">
        <polygon points="0,0 0,6 9,3" fill="#333" />
      </marker></defs><path d="M 154 452.8 L 154 462.8 L 121 462.8 L 121 602.8" fill="none" stroke="#333" stroke-width="1" marker-end="url(#arrow-standard-sum1-int)" /></g><g data-runiq-edge="int-x"><defs>
      <marker id="arrow-standard-int-x" markerWidth="10" markerHeight="10" refX="9" refY="3" orient="auto" markerUnits="strokeWidth">
        <polygon points="0,0 0,6 9,3" fill="#333" />
      </marker></defs><path d="M 97 602.8 L 97 52.8" fill="none" stroke="#333" stroke-width="1" marker-end="url(#arrow-standard-int-x)" /></g><g data-runiq-edge="x-c"><defs>
      <marker id="arrow-standard-x-c" markerWidth="10" markerHeight="10" refX="9" refY="3" orient="auto" markerUnits="strokeWidth">
        <polygon points="0,0 0,6 9,3" fill="#333" />
      </marker></defs><path d="M 82 52.8 L 82 62.8 L 50 62.8 L 50 202.8" fill="none" stroke="#333" stroke-width="1" marker-end="url(#arrow-standard-x-c)" /></g><g data-runiq-edge="c-y"><defs>
      <marker id="arrow-standard-c-y" markerWidth="10" markerHeight="10" refX="9" refY="3" orient="auto" markerUnits="strokeWidth">
        <polygon points="0,0 0,6 9,3" fill="#333" />
      </marker></defs><path d="M 50 252.8 L 50 402.8" fill="none" stroke="#333" stroke-width="1" marker-end="url(#arrow-standard-c-y)" /></g><g data-runiq-edge="x-a"><defs>
      <marker id="arrow-standard-x-a" markerWidth="10" markerHeight="10" refX="9" refY="3" orient="auto" markerUnits="strokeWidth">
        <polygon points="0,0 0,6 9,3" fill="#333" />
      </marker></defs><path d="M 111 52.8 L 111 62.8 L 146 62.8 L 146 202.8" fill="none" stroke="#333" stroke-width="1" marker-end="url(#arrow-standard-x-a)" /></g><g data-runiq-edge="a-sum1"><defs>
      <marker id="arrow-standard-a-sum1" markerWidth="10" markerHeight="10" refX="9" refY="3" orient="auto" markerUnits="strokeWidth">
        <polygon points="0,0 0,6 9,3" fill="#333" />
      </marker></defs><path d="M 146 252.8 L 146 402.8" fill="none" stroke="#333" stroke-width="1" marker-end="url(#arrow-standard-a-sum1)" /></g><g data-runiq-node="u">
      <rect x="292" y="12" width="57.6" height="40.8"
            fill="#f0f0f0" stroke="#333" stroke-width="1" />
      
      <text x="320.8" y="32.4" 
            text-anchor="middle" dominant-baseline="middle"
            font-family="sans-serif" font-size="14">
        u(t)
      </text>
    </g><g data-runiq-node="b">
      <polygon points="283,202.8 283,252.8 358,227.8"
               fill="#f0f0f0" stroke="#333" stroke-width="2" />
      
      <text x="313" y="227.8" 
            text-anchor="middle" dominant-baseline="middle"
            font-family="sans-serif" 
            font-size="14"
            font-weight="bold">
        B
      </text>
    </g><g data-runiq-node="sum1">
      <circle cx="154" cy="427.8" r="25"
              fill="#f0f0f0" stroke="#333" stroke-width="1" />
      
      <line x1="139" y1="427.8" x2="169" y2="427.8"
            stroke="#333" stroke-width="1" />
      <line x1="154" y1="412.8" x2="154" y2="442.8"
            stroke="#333" stroke-width="1" />
      
      <text x="154" y="468.8" 
            text-anchor="middle" dominant-baseline="middle"
            font-family="sans-serif" font-size="14">
        +
      </text>
    </g><g data-runiq-node="int">
      <rect x="74" y="602.8" width="70" height="50"
            fill="#e3f2fd" stroke="#1976d2" stroke-width="2" />
      
      <text x="109" y="627.8" 
            text-anchor="middle" dominant-baseline="middle"
            font-family="sans-serif" 
            font-size="16"
            font-style="italic">
        1/s
      </text>
    </g><g data-runiq-node="x">
      <rect x="68" y="12" width="57.6" height="40.8"
            fill="#f0f0f0" stroke="#333" stroke-width="1" />
      
      <text x="96.8" y="32.4" 
            text-anchor="middle" dominant-baseline="middle"
            font-family="sans-serif" font-size="14">
        x(t)
      </text>
    </g><g data-runiq-node="c">
      <polygon points="12,202.8 12,252.8 87,227.8"
               fill="#f0f0f0" stroke="#333" stroke-width="2" />
      
      <text x="42" y="227.8" 
            text-anchor="middle" dominant-baseline="middle"
            font-family="sans-serif" 
            font-size="14"
            font-weight="bold">
        C
      </text>
    </g><g data-runiq-node="y">
      <rect x="21" y="402.8" width="57.6" height="40.8"
            fill="#f0f0f0" stroke="#333" stroke-width="1" />
      
      <text x="49.8" y="423.2" 
            text-anchor="middle" dominant-baseline="middle"
            font-family="sans-serif" font-size="14">
        y(t)
      </text>
    </g><g data-runiq-node="a">
      <polygon points="108,202.8 108,252.8 183,227.8"
               fill="#f0f0f0" stroke="#333" stroke-width="2" />
      
      <text x="138" y="227.8" 
            text-anchor="middle" dominant-baseline="middle"
            font-family="sans-serif" 
            font-size="14"
            font-weight="bold">
        A
      </text>
    </g></svg>