<svg xmlns="http://www.w3.org/2000/svg" 
    width="800" height="600" 
    viewBox="0 0 800 600"
    role="img" aria-labelledby="wardley-title"><title id="wardley-title">Modern Web Application Stack</title>
  <style>
    .wardley-component {
      fill: #4A90E2;
      stroke: #2C5F8D;
      stroke-width: 2;
      cursor: pointer;
    }
    .wardley-component:hover {
      fill: #5AA5ED;
    }
    .wardley-component-inertia {
      fill: #4A90E2;
      stroke: #2C5F8D;
      stroke-width: 3;
      stroke-dasharray: 5,5;
    }
    .wardley-component-label {
      font-family: Arial, sans-serif;
      font-size: 12px;
      fill: #333;
      text-anchor: middle;
      pointer-events: none;
    }
    .wardley-dependency {
      stroke: #666666;
      stroke-width: 1.5;
      fill: none;
      marker-end: url(#wardley-arrow);
    }
    .wardley-evolution-arrow {
      stroke: #E28D4A;
      stroke-width: 2;
      fill: none;
      stroke-dasharray: 5,3;
      marker-end: url(#wardley-evolution-arrow);
    }
    .wardley-anchor {
      fill: #E25D4A;
      stroke: #A53D2C;
      stroke-width: 2;
    }
    .wardley-anchor-label {
      font-family: Arial, sans-serif;
      font-size: 13px;
      font-weight: bold;
      fill: #333;
      text-anchor: middle;
    }
    .wardley-axis {
      stroke: #333;
      stroke-width: 2;
      fill: none;
    }
    .wardley-grid {
      stroke: #E0E0E0;
      stroke-width: 0.5;
      fill: none;
    }
    .wardley-axis-label {
      font-family: Arial, sans-serif;
      font-size: 11px;
      fill: #666;
      text-anchor: middle;
    }
    .wardley-evolution-label {
      font-family: Arial, sans-serif;
      font-size: 12px;
      font-weight: bold;
      fill: #333;
      text-anchor: middle;
    }
  </style>
  <defs>
    <marker id="wardley-arrow" markerWidth="10" markerHeight="10" 
            refX="9" refY="3" orient="auto" markerUnits="strokeWidth">
      <path d="M0,0 L0,6 L9,3 z" fill="#666666" />
    </marker>
    <marker id="wardley-evolution-arrow" markerWidth="10" markerHeight="10" 
            refX="9" refY="3" orient="auto" markerUnits="strokeWidth">
      <path d="M0,0 L0,6 L9,3 z" fill="#E28D4A" />
    </marker>
  </defs>
  <rect width="800" height="600" fill="#FFFFFF"/><g class="wardley-grid-group">
  <line class="wardley-grid" x1="60" y1="60" x2="60" y2="540" />
  <line class="wardley-grid" x1="230" y1="60" x2="230" y2="540" />
  <line class="wardley-grid" x1="400" y1="60" x2="400" y2="540" />
  <line class="wardley-grid" x1="570" y1="60" x2="570" y2="540" />
  <line class="wardley-grid" x1="740" y1="60" x2="740" y2="540" />
  <line class="wardley-grid" x1="60" y1="60" x2="740" y2="60" />
  <line class="wardley-grid" x1="60" y1="180" x2="740" y2="180" />
  <line class="wardley-grid" x1="60" y1="300" x2="740" y2="300" />
  <line class="wardley-grid" x1="60" y1="420" x2="740" y2="420" />
  <line class="wardley-grid" x1="60" y1="540" x2="740" y2="540" />
</g>

  <g class="wardley-axes">
    <!-- Value chain axis (Y) -->
    <line class="wardley-axis" x1="60" y1="60" x2="60" y2="540" />
    <!-- Evolution axis (X) -->
    <line class="wardley-axis" x1="60" y1="540" x2="740" y2="540" />
  </g>
  <g class="wardley-evolution-labels">
  <text class="wardley-evolution-label" x="145" y="570">Genesis</text>
  <text class="wardley-evolution-label" x="315" y="570">Custom Built</text>
  <text class="wardley-evolution-label" x="485" y="570">Product</text>
  <text class="wardley-evolution-label" x="655" y="570">Commodity</text>
</g>
<g class="wardley-value-labels">
  <text class="wardley-axis-label" x="30" y="540" transform="rotate(-90 30 540)">Invisible</text>
  <text class="wardley-axis-label" x="30" y="60" transform="rotate(-90 30 60)">Visible</text>
</g>
<g class="wardley-dependencies">
  <line class="wardley-dependency" x1="468" y1="107.99999999999999" x2="502" y2="204.00000000000003" />
  <line class="wardley-dependency" x1="400" y1="132" x2="502" y2="204.00000000000003" />
  <line class="wardley-dependency" x1="502" y1="204.00000000000003" x2="434.00000000000006" y2="228" />
  <line class="wardley-dependency" x1="502" y1="204.00000000000003" x2="332" y2="276" />
  <line class="wardley-dependency" x1="434.00000000000006" y1="228" x2="468" y2="300" />
  <line class="wardley-dependency" x1="332" y1="276" x2="570" y2="372" />
  <line class="wardley-dependency" x1="468" y1="300" x2="638" y2="348" />
  <line class="wardley-dependency" x1="638" y1="348" x2="570" y2="372" />
  <line class="wardley-dependency" x1="570" y1="372" x2="706" y2="444" />
  <line class="wardley-dependency" x1="706" y1="444" x2="740" y2="492" />
  <line class="wardley-dependency" x1="332" y1="276" x2="264" y2="324" />
</g>
<g class="wardley-evolutions">
  <line class="wardley-evolution-arrow" x1="434.00000000000006" y1="228" x2="536" y2="228" />
  <line class="wardley-evolution-arrow" x1="468" y1="300" x2="570" y2="300" />
  <line class="wardley-evolution-arrow" x1="332" y1="276" x2="468" y2="276" />
</g>
<g class="wardley-components">
  <circle class="wardley-component" cx="468" cy="107.99999999999999" r="8" />
  <text class="wardley-component-label" x="468" y="94.99999999999999">Web App</text>
  <circle class="wardley-component-inertia" cx="400" cy="132" r="8" />
  <text class="wardley-component-label" x="400" y="119">Mobile App</text>
  <circle class="wardley-component" cx="502" cy="204.00000000000003" r="8" />
  <text class="wardley-component-label" x="502" y="191.00000000000003">API Gateway</text>
  <circle class="wardley-component" cx="434.00000000000006" cy="228" r="8" />
  <text class="wardley-component-label" x="434.00000000000006" y="215">Microservices</text>
  <circle class="wardley-component" cx="468" cy="300" r="8" />
  <text class="wardley-component-label" x="468" y="287">Kubernetes</text>
  <circle class="wardley-component" cx="638" cy="348" r="8" />
  <text class="wardley-component-label" x="638" y="335">VMs</text>
  <circle class="wardley-component" cx="570" cy="372" r="8" />
  <text class="wardley-component-label" x="570" y="359">AWS/Azure</text>
  <circle class="wardley-component" cx="706" cy="444" r="8" />
  <text class="wardley-component-label" x="706" y="431">Data Centers</text>
  <circle class="wardley-component" cx="740" cy="492" r="8" />
  <text class="wardley-component-label" x="740" y="479">Power &amp; Cooling</text>
  <circle class="wardley-component" cx="332" cy="276" r="8" />
  <text class="wardley-component-label" x="332" y="263">Serverless</text>
  <circle class="wardley-component" cx="264" cy="324" r="8" />
  <text class="wardley-component-label" x="264" y="311">Edge Computing</text>
</g>
<g class="wardley-anchors">
  <polygon class="wardley-anchor" points="400,59.60000000000001 402.3511410091699,66.36393202250022 409.51056516295154,66.50983005625054 403.8042260651806,70.8360679774998 405.87785252292474,77.69016994374948 400,73.60000000000001 394.12214747707526,77.69016994374948 396.1957739348194,70.8360679774998 390.48943483704846,66.50983005625054 397.6488589908301,66.36393202250022" />
  <text class="wardley-anchor-label" x="400" y="54.60000000000001">User Experience</text>
</g>
</svg>