<svg xmlns="http://www.w3.org/2000/svg" width="900" height="560" viewBox="0 0 900 560" role="img" aria-labelledby="diagram-title" data-id="runiq-diagram"><title id="diagram-title">Product Usage</title><rect x="0" y="0" width="900" height="560" fill="#f0f5f8" /><rect x="30" y="30" width="498" height="494" fill="#bfdbfe" stroke="#ffffff" /><text x="36" y="44" text-anchor="start" dominant-baseline="hanging" font-family="sans-serif" font-size="12" fill="#FFFFFF">North America (60)</text><rect x="40" y="40" width="472" height="310" fill="#73a3bf" stroke="#ffffff" /><text x="46" y="54" text-anchor="start" dominant-baseline="hanging" font-family="sans-serif" font-size="12" fill="#FFFFFF">Enterprise (40)</text><rect x="40" y="362" width="478" height="158" fill="#73a3bf" stroke="#ffffff" /><text x="46" y="376" text-anchor="start" dominant-baseline="hanging" font-family="sans-serif" font-size="12" fill="#FFFFFF">SMB (20)</text><rect x="540" y="30" width="204" height="494" fill="#fecdd3" stroke="#ffffff" /><text x="546" y="44" text-anchor="start" dominant-baseline="hanging" font-family="sans-serif" font-size="12" fill="#FFFFFF">EMEA (25)</text><rect x="550" y="40" width="178" height="278.4" fill="#73a3bf" stroke="#ffffff" /><text x="556" y="54" text-anchor="start" dominant-baseline="hanging" font-family="sans-serif" font-size="12" fill="#FFFFFF">Enterprise (15)</text><rect x="550" y="330.4" width="184" height="189.60000000000002" fill="#73a3bf" stroke="#ffffff" /><text x="556" y="344.4" text-anchor="start" dominant-baseline="hanging" font-family="sans-serif" font-size="12" fill="#FFFFFF">SMB (10)</text><rect x="756" y="30" width="126" height="500" fill="#bbf7d0" stroke="#ffffff" /><text x="762" y="44" text-anchor="start" dominant-baseline="hanging" font-family="sans-serif" font-size="12" fill="#FFFFFF">APAC (15)</text><rect x="766" y="40" width="100" height="250" fill="#73a3bf" stroke="#ffffff" /><text x="772" y="54" text-anchor="start" dominant-baseline="hanging" font-family="sans-serif" font-size="12" fill="#FFFFFF">Enterprise (8)</text><rect x="766" y="302" width="106" height="224" fill="#73a3bf" stroke="#ffffff" /><text x="772" y="316" text-anchor="start" dominant-baseline="hanging" font-family="sans-serif" font-size="12" fill="#FFFFFF">SMB (7)</text><rect x="20" y="530" width="10" height="10" fill="#bfdbfe" stroke="#ffffff" /><text x="36" y="540" font-family="sans-serif" font-size="11" fill="#FFFFFF">North America</text><rect x="20" y="512" width="10" height="10" fill="#fecdd3" stroke="#ffffff" /><text x="36" y="522" font-family="sans-serif" font-size="11" fill="#FFFFFF">EMEA</text><rect x="20" y="494" width="10" height="10" fill="#bbf7d0" stroke="#ffffff" /><text x="36" y="504" font-family="sans-serif" font-size="11" fill="#FFFFFF">APAC</text></svg>