<svg xmlns="http://www.w3.org/2000/svg" 
    width="2140" 
    height="232" 
    viewBox="60 60 2140 232"
    role="img" 
    aria-labelledby="schematic-title">
  <title id="schematic-title">Hydraulic Press System</title>

  <defs>
    <style type="text/css"><![CDATA[
      .hydraulic-wire { stroke: #000000; stroke-width: 2; fill: none; }
      .hydraulic-component { color: #000000; }
      .hydraulic-label { font-family: sans-serif; font-size: 12px; fill: #000000; }
      .hydraulic-value { font-family: sans-serif; font-size: 10px; fill: #000000; }
      .hydraulic-net-label { font-family: sans-serif; font-size: 10px; fill: #0066cc; }
    ]]></style>
  </defs>
<g class="hydraulic-wires">
  <path d="M 110,160 L 250,125" class="hydraulic-wire"/>
  <text x="255" y="120" class="hydraulic-net-label">TANK</text>
  <path d="M 250,125 L 1050,150" class="hydraulic-wire"/>
  <text x="1055" y="145" class="hydraulic-net-label">TANK</text>
  <path d="M 1050,150 L 1190,150" class="hydraulic-wire"/>
  <text x="1195" y="145" class="hydraulic-net-label">TANK</text>
  <path d="M 1190,150 L 1460,100" class="hydraulic-wire"/>
  <text x="1465" y="95" class="hydraulic-net-label">TANK</text>
  <path d="M 1460,100 L 1600,100" class="hydraulic-wire"/>
  <text x="1605" y="95" class="hydraulic-net-label">TANK</text>
  <path d="M 1600,100 L 2140,100" class="hydraulic-wire"/>
  <text x="2145" y="95" class="hydraulic-net-label">TANK</text>
  <path d="M 300,125 L 420,150" class="hydraulic-wire"/>
  <text x="425" y="145" class="hydraulic-net-label">PUMP</text>
  <path d="M 420,150 L 540,115" class="hydraulic-wire"/>
  <text x="545" y="110" class="hydraulic-net-label">PUMP</text>
  <path d="M 540,115 L 1170,150" class="hydraulic-wire"/>
  <text x="1175" y="145" class="hydraulic-net-label">PUMP</text>
  <path d="M 1170,150 L 2000,100" class="hydraulic-wire"/>
  <text x="2005" y="95" class="hydraulic-net-label">PUMP</text>
  <path d="M 570,115 L 1005,150" class="hydraulic-wire"/>
  <text x="1010" y="145" class="hydraulic-net-label">HIGH_PRESS</text>
  <path d="M 1005,150 L 1460,140" class="hydraulic-wire"/>
  <text x="1465" y="135" class="hydraulic-net-label">HIGH_PRESS</text>
  <path d="M 1460,140 L 1735,130" class="hydraulic-wire"/>
  <text x="1740" y="125" class="hydraulic-net-label">HIGH_PRESS</text>
  <path d="M 1735,130 L 2000,150" class="hydraulic-wire"/>
  <text x="2005" y="145" class="hydraulic-net-label">HIGH_PRESS</text>
  <path d="M 670,115 L 830,115" class="hydraulic-wire"/>
  <text x="835" y="110" class="hydraulic-net-label">CYLINDER_A</text>
  <path d="M 830,115 L 1020,150" class="hydraulic-wire"/>
  <text x="1025" y="145" class="hydraulic-net-label">CYLINDER_A</text>
  <path d="M 1020,150 L 1180,150" class="hydraulic-wire"/>
  <text x="1185" y="145" class="hydraulic-net-label">CYLINDER_A</text>
  <path d="M 1180,150 L 1310,150" class="hydraulic-wire"/>
  <text x="1315" y="145" class="hydraulic-net-label">CYLINDER_A</text>
  <path d="M 1310,150 L 1600,140" class="hydraulic-wire"/>
  <text x="1605" y="135" class="hydraulic-net-label">CYLINDER_A</text>
  <path d="M 1600,140 L 1865,130" class="hydraulic-wire"/>
  <text x="1870" y="125" class="hydraulic-net-label">CYLINDER_A</text>
  <path d="M 690,130 L 1035,150" class="hydraulic-wire"/>
  <text x="1040" y="145" class="hydraulic-net-label">CYLINDER_B</text>
  <path d="M 1035,150 L 1320,150" class="hydraulic-wire"/>
  <text x="1325" y="145" class="hydraulic-net-label">CYLINDER_B</text>
</g>
<g class="hydraulic-components">
  <g class="hydraulic-component" data-ref="RESERVOIR">

      <!-- Tank body (rectangle open at top) -->
      <rect x="105" y="110" width="40" height="45" stroke="currentColor" stroke-width="2.5" fill="white"/>

      <!-- fluid level line -->
      <line x1="110" y1="130" x2="140" y2="130"
        stroke="currentColor" stroke-width="1.5" stroke-dasharray="3,3"/>
      <text x="125" y="127" font-size="7" fill="currentColor">fluid level</text>

      <!-- Vent line at top -->
      <line x1="125" y1="110" x2="125" y2="100" stroke="currentColor" stroke-width="2"/>

      <!-- Return connection (left) -->
      <line x1="110" y1="155" x2="110" y2="160" stroke="currentColor" stroke-width="2.5"/>

      <!-- Suction connection (right) -->
      <line x1="140" y1="155" x2="140" y2="160" stroke="currentColor" stroke-width="2.5"/>
        <text x="125" y="92" 
        class="hydraulic-label" 
        text-anchor="middle">RESERVOIR</text>
  </g>
  <g class="hydraulic-component" data-ref="PUMP_MAIN">

      <circle cx="275" cy="125" r="18" stroke="currentColor" stroke-width="2.5" fill="white"/>
      <path d="M 267,120 L 278,120 L 278,115 L 285,125 L 278,135 L 278,130 L 267,130"
    stroke="currentColor" stroke-width="1.5" fill="none"/>
      <polygon points="260,113 260,137 252,125" fill="currentColor"/>
      
    <!-- Left connection line -->
    <line x1="250" y1="125" x2="257" y2="125"
      stroke="currentColor" stroke-width="2.5"/>
    <!-- Right connection line -->
    <line x1="293" y1="125" x2="300" y2="125"
      stroke="currentColor" stroke-width="2.5"/>
  
        <text x="275" y="92" 
        class="hydraulic-label" 
        text-anchor="middle">PUMP_MAIN</text>
  </g>
  <g class="hydraulic-component" data-ref="INTENSIFIER">

      <!-- Cylinder body -->
      <rect x="405" y="105" width="30" height="40" 
        stroke="currentColor" stroke-width="2.5" fill="white" rx="3"/>
      
      <!-- Dividing line (piston or bladder) -->
      <line x1="405" y1="125" x2="435" y2="125" 
        stroke="currentColor" stroke-width="2"/>
      
      <!-- Gas symbol above line (N2) -->
      <text x="420" y="117" font-size="10" font-weight="bold" 
        text-anchor="middle" fill="currentColor">N2</text>
      
      <!-- Connection at bottom -->
      <line x1="420" y1="145" x2="420" y2="150" 
        stroke="currentColor" stroke-width="2.5"/>
        <text x="420" y="92" 
        class="hydraulic-label" 
        text-anchor="middle">INTENSIFIER</text>
  </g>
  <g class="hydraulic-component" data-ref="VALVE_CHARGE">

      <!-- Check valve body (triangle + line) -->
      <polygon points="545,105 545,125 565,115"
        stroke="currentColor" stroke-width="2" fill="white"/>

      <!-- Seat line -->
      <line x1="565" y1="105" x2="565" y2="125"
        stroke="currentColor" stroke-width="2"/>

      <!-- Input/output lines -->
      <line x1="540" y1="115" x2="545" y2="115" stroke="currentColor" stroke-width="2"/>
      <line x1="565" y1="115" x2="570" y2="115" stroke="currentColor" stroke-width="2"/>
        <text x="555" y="92" 
        class="hydraulic-label" 
        text-anchor="middle">VALVE_CHARGE</text>
  </g>
  <g class="hydraulic-component" data-ref="CYL_MAIN">

      <!-- Cylinder body (thicker lines for hydraulic) -->
      <rect x="680" y="100" width="40" height="20" 
        stroke="currentColor" stroke-width="2.5" fill="none"/>
      
      <!-- piston rod line -->
      <line x1="670" y1="115" x2="680" y2="115" 
        stroke="currentColor" stroke-width="2.5"/>
      
      <!-- Port A circle (left) -->
      <circle cx="690" cy="130" r="2.5" fill="currentColor"/>
      
      <!-- Port B circle (right) -->
      <circle cx="710" cy="130" r="2.5" fill="currentColor"/>
        <text x="700" y="92" 
        class="hydraulic-label" 
        text-anchor="middle">CYL_MAIN</text>
  </g>
  <g class="hydraulic-component" data-ref="CYL_CLAMP">

      <!-- Cylinder body (thicker lines for hydraulic) -->
      <rect x="840" y="100" width="40" height="20" 
        stroke="currentColor" stroke-width="2.5" fill="none"/>
      
      <!-- piston rod line -->
      <line x1="830" y1="115" x2="840" y2="115" 
        stroke="currentColor" stroke-width="2.5"/>
      
      <!-- Port A circle (left) -->
      <circle cx="850" cy="130" r="2.5" fill="currentColor"/>
      
      <!-- Port B circle (right) -->
      <circle cx="870" cy="130" r="2.5" fill="currentColor"/>
        <text x="860" y="92" 
        class="hydraulic-label" 
        text-anchor="middle">CYL_CLAMP</text>
  </g>
  <g class="hydraulic-component" data-ref="VALVE_MAIN">

      <!-- Position 1 box (left) -->
      <rect x="990" y="110" width="22" height="30"
        stroke="currentColor" stroke-width="2" fill="white"/>

      <!-- Position 2 box (center) -->
      <rect x="1012" y="110" width="22" height="30"
        stroke="currentColor" stroke-width="2" fill="white"/>

      <!-- Position 3 box (right) -->
      <rect x="1034" y="110" width="22" height="30"
        stroke="currentColor" stroke-width="2" fill="white"/>

      <!-- Flow indicators in center position (closed center shown) -->
      <line x1="1017" y1="117" x2="1033" y2="133"
        stroke="currentColor" stroke-width="1.5"/>
      <line x1="1017" y1="133" x2="1033" y2="117"
        stroke="currentColor" stroke-width="1.5"/>

      <!-- Port connection lines -->
      <line x1="995" y1="150" x2="995" y2="148" stroke="currentColor" stroke-width="2"/>
      <line x1="1010" y1="150" x2="1010" y2="148" stroke="currentColor" stroke-width="2"/>
      <line x1="1040" y1="150" x2="1040" y2="148" stroke="currentColor" stroke-width="2"/>
      <line x1="1055" y1="150" x2="1055" y2="148" stroke="currentColor" stroke-width="2"/>
        <text x="1025" y="92" 
        class="hydraulic-label" 
        text-anchor="middle">VALVE_MAIN</text>
  </g>
  <g class="hydraulic-component" data-ref="VALVE_CLAMP">

      <!-- Left position box -->
      <rect x="1160" y="100" width="20" height="50"
        stroke="currentColor" stroke-width="2" fill="white"/>

      <!-- Right position box -->
      <rect x="1180" y="100" width="20" height="50"
        stroke="currentColor" stroke-width="2" fill="none"/>

      <!-- Flow arrows in left position (P->A) -->
      <line x1="1165" y1="140" x2="1170" y2="110" stroke="currentColor" stroke-width="2"/>
      <polygon points="1170,110 1168,115 1172,115"
        fill="currentColor"/>

      <!-- Flow arrows in right position (A->R) -->
      <line x1="1190" y1="110" x2="1195" y2="140" stroke="currentColor" stroke-width="2"/>
      <polygon points="1195,140 1193,135 1197,135"
        fill="currentColor"/>

      <!-- Port P connection -->
      <circle cx="1162" cy="155" r="2" fill="currentColor"/>

      <!-- Port A connection -->
      <circle cx="1180" cy="155" r="2" fill="currentColor"/>

      <!-- Port R connection -->
      <circle cx="1198" cy="155" r="2" fill="currentColor"/>
        <text x="1180" y="92" 
        class="hydraulic-label" 
        text-anchor="middle">VALVE_CLAMP</text>
  </g>
  <g class="hydraulic-component" data-ref="VALVE_SEQUENCE">

      <!-- Left position box -->
      <rect x="1300" y="100" width="20" height="50"
        stroke="currentColor" stroke-width="2" fill="white"/>

      <!-- Right position box -->
      <rect x="1320" y="100" width="20" height="50"
        stroke="currentColor" stroke-width="2" fill="none"/>

      <!-- Flow arrows in left position (P->A) -->
      <line x1="1305" y1="140" x2="1310" y2="110" stroke="currentColor" stroke-width="2"/>
      <polygon points="1310,110 1308,115 1312,115"
        fill="currentColor"/>

      <!-- Flow arrows in right position (A->R) -->
      <line x1="1330" y1="110" x2="1335" y2="140" stroke="currentColor" stroke-width="2"/>
      <polygon points="1335,140 1333,135 1337,135"
        fill="currentColor"/>

      <!-- Port P connection -->
      <circle cx="1302" cy="155" r="2" fill="currentColor"/>

      <!-- Port A connection -->
      <circle cx="1320" cy="155" r="2" fill="currentColor"/>

      <!-- Port R connection -->
      <circle cx="1338" cy="155" r="2" fill="currentColor"/>
        <text x="1320" y="92" 
        class="hydraulic-label" 
        text-anchor="middle">VALVE_SEQUENCE</text>
  </g>
  <g class="hydraulic-component" data-ref="RELIEF_MAIN">

      <!-- Valve body (diamond) -->
      <polygon points="1460,108 1472,120 1460,132 1448,120"
        stroke="currentColor" stroke-width="2" fill="white"/>

      <!-- Spring symbol above -->
      <path d="M 1457,106 L 1463,104 L 1457,102 L 1463,100"
        stroke="currentColor" stroke-width="1.5" fill="none"/>
      <line x1="1460" y1="100" x2="1460" y2="96" stroke="currentColor" stroke-width="1.5"/>

      <!-- Ports -->
      <line x1="1460" y1="132" x2="1460" y2="140" stroke="currentColor" stroke-width="2.5"/>
      <line x1="1460" y1="96" x2="1460" y2="88" stroke="currentColor" stroke-width="2.5"/>
        <text x="1460" y="92" 
        class="hydraulic-label" 
        text-anchor="middle">RELIEF_MAIN</text>
  </g>
  <g class="hydraulic-component" data-ref="RELIEF_CLAMP">

      <!-- Valve body (diamond) -->
      <polygon points="1600,108 1612,120 1600,132 1588,120"
        stroke="currentColor" stroke-width="2" fill="white"/>

      <!-- Spring symbol above -->
      <path d="M 1597,106 L 1603,104 L 1597,102 L 1603,100"
        stroke="currentColor" stroke-width="1.5" fill="none"/>
      <line x1="1600" y1="100" x2="1600" y2="96" stroke="currentColor" stroke-width="1.5"/>

      <!-- Ports -->
      <line x1="1600" y1="132" x2="1600" y2="140" stroke="currentColor" stroke-width="2.5"/>
      <line x1="1600" y1="96" x2="1600" y2="88" stroke="currentColor" stroke-width="2.5"/>
        <text x="1600" y="92" 
        class="hydraulic-label" 
        text-anchor="middle">RELIEF_CLAMP</text>
  </g>
  <g class="hydraulic-component" data-ref="GAUGE_MAIN">

      <circle cx="1735" cy="115" r="12" stroke="currentColor" stroke-width="2.5" fill="white"/>

      <!-- P label -->
      <text x="1735" y="119" font-size="10" font-weight="bold"
        text-anchor="middle" fill="currentColor">P</text>

      <line x1="1735" y1="127" x2="1735" y2="130" stroke="currentColor" stroke-width="2.5"/>
        <text x="1735" y="92" 
        class="hydraulic-label" 
        text-anchor="middle">GAUGE_MAIN</text>
  </g>
  <g class="hydraulic-component" data-ref="GAUGE_CLAMP">

      <circle cx="1865" cy="115" r="12" stroke="currentColor" stroke-width="2.5" fill="white"/>

      <!-- P label -->
      <text x="1865" y="119" font-size="10" font-weight="bold"
        text-anchor="middle" fill="currentColor">P</text>

      <line x1="1865" y1="127" x2="1865" y2="130" stroke="currentColor" stroke-width="2.5"/>
        <text x="1865" y="92" 
        class="hydraulic-label" 
        text-anchor="middle">GAUGE_CLAMP</text>
  </g>
  <g class="hydraulic-component" data-ref="FILTER_PRESSURE">

      <!-- Filter housing -->
      <rect x="1985" y="105"
        width="30" height="40"
        stroke="currentColor" stroke-width="2" fill="white"/>

      <!-- Filter element (diamond mesh pattern) -->
      <path d="M 1990,113 L 2000,117 L 1990,121 L 2000,125 L 1990,129 L 2000,133 L 1990,137"
        stroke="currentColor" stroke-width="1.5" fill="none"/>
      <path d="M 2010,113 L 2000,117 L 2010,121 L 2000,125 L 2010,129 L 2000,133 L 2010,137"
        stroke="currentColor" stroke-width="1.5" fill="none"/>

      <!-- Drain indicator (water droplets) -->
      <circle cx="1995" cy="140" r="1.5" fill="currentColor"/>
      <circle cx="2005" cy="140" r="1.5" fill="currentColor"/>

      <!-- Input/output lines -->
      <line x1="2000" y1="100" x2="2000" y2="105" stroke="currentColor" stroke-width="2"/>
      <line x1="2000" y1="145" x2="2000" y2="150" stroke="currentColor" stroke-width="2"/>
        <text x="2000" y="92" 
        class="hydraulic-label" 
        text-anchor="middle">FILTER_PRESSURE</text>
  </g>
  <g class="hydraulic-component" data-ref="FILTER_RETURN">

      <!-- Filter housing -->
      <rect x="2125" y="105"
        width="30" height="40"
        stroke="currentColor" stroke-width="2" fill="white"/>

      <!-- Filter element (diamond mesh pattern) -->
      <path d="M 2130,113 L 2140,117 L 2130,121 L 2140,125 L 2130,129 L 2140,133 L 2130,137"
        stroke="currentColor" stroke-width="1.5" fill="none"/>
      <path d="M 2150,113 L 2140,117 L 2150,121 L 2140,125 L 2150,129 L 2140,133 L 2150,137"
        stroke="currentColor" stroke-width="1.5" fill="none"/>

      <!-- Drain indicator (water droplets) -->
      <circle cx="2135" cy="140" r="1.5" fill="currentColor"/>
      <circle cx="2145" cy="140" r="1.5" fill="currentColor"/>

      <!-- Input/output lines -->
      <line x1="2140" y1="100" x2="2140" y2="105" stroke="currentColor" stroke-width="2"/>
      <line x1="2140" y1="145" x2="2140" y2="150" stroke="currentColor" stroke-width="2"/>
        <text x="2140" y="92" 
        class="hydraulic-label" 
        text-anchor="middle">FILTER_RETURN</text>
  </g>
</g>
<g class="hydraulic-grounds">
</g>
<g class="profile-metadata">
  <text x="70" y="312" class="hydraulic-label">Pressure: 250 bar (operating)</text>
  <text x="70" y="330" class="hydraulic-label">Flow Rate: 100 L/min</text>
  <text x="70" y="348" class="hydraulic-label">Fluid: phosphate-ester (Type IV)</text>
  <text x="70" y="366" class="hydraulic-label">Temp: 15°degC to 80°degC</text>
</g>
</svg>