<svg xmlns="http://www.w3.org/2000/svg" xmlns:xlink="http://www.w3.org/1999/xlink" 
    width="408" height="573.6" 
    viewBox="0 0 408 573.6"
    role="img" aria-labelledby="diagram-title"><title id="diagram-title">State-Space Representation</title><defs><style type="text/css"><![CDATA[.runiq-node-text { font-family: sans-serif; font-size: 14px; }.runiq-edge-text { font-family: sans-serif; font-size: 12px; }.runiq-container-label { font-family: sans-serif; font-size: 16px; font-weight: bold; fill: #666; }]]></style><pattern id="pedigree-half-fill" width="40" height="40" patternUnits="userSpaceOnUse"><rect x="0" y="0" width="20" height="40" fill="#000"/><rect x="20" y="0" width="20" height="40" fill="#fff"/></pattern></defs><g data-runiq-edge="u-b"><defs>
      <marker id="arrow-standard-u-b" markerWidth="10" markerHeight="10" refX="9" refY="3" orient="auto" markerUnits="strokeWidth">
        <polygon points="0,0 0,6 9,3" fill="#333" />
      </marker></defs><path d="M 350.8 52.8 L 350.8 125.3 L 388 125.3 L 388 197.8" fill="none" stroke="#333" stroke-width="1" marker-end="url(#arrow-standard-u-b)" /></g><g data-runiq-edge="b-sum1"><defs>
      <marker id="arrow-standard-b-sum1" markerWidth="10" markerHeight="10" refX="9" refY="3" orient="auto" markerUnits="strokeWidth">
        <polygon points="0,0 0,6 9,3" fill="#333" />
      </marker></defs><path d="M 388 197.8 L 351 257.8 L 202 257.8 L 199 351.06666666666666" fill="none" stroke="#333" stroke-width="1" marker-end="url(#arrow-standard-b-sum1)" /></g><g data-runiq-edge="sum1-int"><defs>
      <marker id="arrow-standard-sum1-int" markerWidth="10" markerHeight="10" refX="9" refY="3" orient="auto" markerUnits="strokeWidth">
        <polygon points="0,0 0,6 9,3" fill="#333" />
      </marker></defs><path d="M 199 367.06666666666666 L 199 418.6 L 146 418.6 L 134 503.6" fill="none" stroke="#333" stroke-width="1" marker-end="url(#arrow-standard-sum1-int)" /></g><g data-runiq-edge="int-x"><defs>
      <marker id="arrow-standard-int-x" markerWidth="10" markerHeight="10" refX="9" refY="3" orient="auto" markerUnits="strokeWidth">
        <polygon points="0,0 0,6 9,3" fill="#333" />
      </marker></defs><path d="M 134 503.6 L 134 363.2 L 122 197.8 L 121.8 52.8" fill="none" stroke="#333" stroke-width="1" marker-end="url(#arrow-standard-int-x)" /></g><g data-runiq-edge="x-c"><defs>
      <marker id="arrow-standard-x-c" markerWidth="10" markerHeight="10" refX="9" refY="3" orient="auto" markerUnits="strokeWidth">
        <polygon points="0,0 0,6 9,3" fill="#333" />
      </marker></defs><path d="M 121.8 52.8 L 121.8 87.8 L 50 87.8 L 87 197.8" fill="none" stroke="#333" stroke-width="1" marker-end="url(#arrow-standard-x-c)" /></g><g data-runiq-edge="c-y"><defs>
      <marker id="arrow-standard-c-y" markerWidth="10" markerHeight="10" refX="9" refY="3" orient="auto" markerUnits="strokeWidth">
        <polygon points="0,0 0,6 9,3" fill="#333" />
      </marker></defs><path d="M 87 197.8 L 87 270.3 L 49.8 270.3 L 49.8 342.8" fill="none" stroke="#333" stroke-width="1" marker-end="url(#arrow-standard-c-y)" /></g><g data-runiq-edge="x-a"><defs>
      <marker id="arrow-standard-x-a" markerWidth="10" markerHeight="10" refX="9" refY="3" orient="auto" markerUnits="strokeWidth">
        <polygon points="0,0 0,6 9,3" fill="#333" />
      </marker></defs><path d="M 121.8 52.8 L 121.8 87.8 L 196 87.8 L 233 197.8" fill="none" stroke="#333" stroke-width="1" marker-end="url(#arrow-standard-x-a)" /></g><g data-runiq-edge="a-sum1"><defs>
      <marker id="arrow-standard-a-sum1" markerWidth="10" markerHeight="10" refX="9" refY="3" orient="auto" markerUnits="strokeWidth">
        <polygon points="0,0 0,6 9,3" fill="#333" />
      </marker></defs><path d="M 233 197.8 L 233 274.43333333333334 L 199 274.43333333333334 L 199 351.06666666666666" fill="none" stroke="#333" stroke-width="1" marker-end="url(#arrow-standard-a-sum1)" /></g><g data-runiq-node="u">
      <rect x="322" y="12" width="57.6" height="40.8"
            fill="#f0f0f0" stroke="#333" stroke-width="1" />
      
      <text x="350.8" y="32.4" 
      text-anchor="middle" 
      dominant-baseline="middle"
      font-family="sans-serif" 
      font-size="14"
      fill="#000">
      u(t)
    </text>
    </g><g data-runiq-node="b">
      <polygon points="313,172.8 313,222.8 388,197.8"
               fill="#f0f0f0" stroke="#333" stroke-width="2" />
      
      <text x="343" y="197.8" 
            text-anchor="middle" dominant-baseline="middle"
            font-family="sans-serif" 
            font-size="14"
            font-weight="bold">
        B
      </text>
    </g><g data-runiq-node="sum1"><g class="junction-shape"><circle cx="199" cy="359.06666666666666" r="8" fill="#000000" /></g></g><g data-runiq-node="int">
      <rect x="99" y="503.6" width="70" height="50"
            fill="#e3f2fd" stroke="#1976d2" stroke-width="2" />
      
      <text x="134" y="528.6" 
            text-anchor="middle" dominant-baseline="middle"
            font-family="sans-serif" 
            font-size="16"
            font-style="italic">
        1/s
      </text>
    </g><g data-runiq-node="x">
      <rect x="93" y="12" width="57.6" height="40.8"
            fill="#f0f0f0" stroke="#333" stroke-width="1" />
      
      <text x="121.8" y="32.4" 
      text-anchor="middle" 
      dominant-baseline="middle"
      font-family="sans-serif" 
      font-size="14"
      fill="#000">
      x(t)
    </text>
    </g><g data-runiq-node="c">
      <polygon points="12,172.8 12,222.8 87,197.8"
               fill="#f0f0f0" stroke="#333" stroke-width="2" />
      
      <text x="42" y="197.8" 
            text-anchor="middle" dominant-baseline="middle"
            font-family="sans-serif" 
            font-size="14"
            font-weight="bold">
        C
      </text>
    </g><g data-runiq-node="y">
      <rect x="21" y="342.8" width="57.6" height="40.8"
            fill="#f0f0f0" stroke="#333" stroke-width="1" />
      
      <text x="49.8" y="363.2" 
      text-anchor="middle" 
      dominant-baseline="middle"
      font-family="sans-serif" 
      font-size="14"
      fill="#000">
      y(t)
    </text>
    </g><g data-runiq-node="a">
      <polygon points="158,172.8 158,222.8 233,197.8"
               fill="#f0f0f0" stroke="#333" stroke-width="2" />
      
      <text x="188" y="197.8" 
            text-anchor="middle" dominant-baseline="middle"
            font-family="sans-serif" 
            font-size="14"
            font-weight="bold">
        A
      </text>
    </g></svg>